<svg width="40" height="40" viewBox="0 0 40 40" fill="none" xmlns="http://www.w3.org/2000/svg">
<path d="M4 4C4 1.79086 5.79086 0 8 0H24L36 12V36C36 38.2091 34.2091 40 32 40H8C5.79086 40 4 38.2091 4 36V4Z" fill="url(#paint0_linear_10530_98195)"/>
<path d="M24 0L36 12H28C25.7909 12 24 10.2091 24 8V0Z" fill="#EAECF0"/>
<path d="M17.0696 32H15.5867L17.8463 25.4545H19.6297L21.8861 32H20.4031L18.7635 26.9503H18.7124L17.0696 32ZM16.977 29.4272H20.4798V30.5075H16.977V29.4272ZM24.0578 25.4545V32H22.6739V25.4545H24.0578Z" fill="#424D57"/>
<defs>
<linearGradient id="paint0_linear_10530_98195" x1="20" y1="0" x2="20" y2="40" gradientUnits="userSpaceOnUse">
<stop stop-color="#F9FAFB"/>
<stop offset="1" stop-color="#EDF0F3"/>
</linearGradient>
</defs>
</svg>
