<svg width="40" height="40" viewBox="0 0 40 40" fill="none" xmlns="http://www.w3.org/2000/svg">
<path d="M4 4C4 1.79086 5.79086 0 8 0H24L36 12V36C36 38.2091 34.2091 40 32 40H8C5.79086 40 4 38.2091 4 36V4Z" fill="url(#paint0_linear_10530_98291)"/>
<path d="M24 0L36 12H28C25.7909 12 24 10.2091 24 8V0Z" fill="#EAECF0"/>
<path d="M14.1121 32H12.6292L14.8888 25.4545H16.6721L18.9285 32H17.4456L15.806 26.9503H15.7549L14.1121 32ZM14.0194 29.4272H17.5223V30.5075H14.0194V29.4272ZM20.0815 25.4545L21.6635 30.4276H21.7243L23.3095 25.4545H24.8436L22.5872 32H20.8038L18.5442 25.4545H20.0815ZM27.0153 25.4545V32H25.6314V25.4545H27.0153Z" fill="#424D57"/>
<defs>
<linearGradient id="paint0_linear_10530_98291" x1="20" y1="0" x2="20" y2="40" gradientUnits="userSpaceOnUse">
<stop stop-color="#F9FAFB"/>
<stop offset="1" stop-color="#EDF0F3"/>
</linearGradient>
</defs>
</svg>
