<svg width="40" height="40" viewBox="0 0 40 40" fill="none" xmlns="http://www.w3.org/2000/svg">
<path d="M4 4C4 1.79086 5.79086 0 8 0H24L36 12V36C36 38.2091 34.2091 40 32 40H8C5.79086 40 4 38.2091 4 36V4Z" fill="url(#paint0_linear_10530_98403)"/>
<path d="M24 0L36 12H28C25.7909 12 24 10.2091 24 8V0Z" fill="#EAECF0"/>
<path d="M17.0629 27.7461H15.663C15.6374 27.565 15.5852 27.4041 15.5064 27.2635C15.4276 27.1207 15.3263 26.9993 15.2028 26.8991C15.0792 26.799 14.9364 26.7223 14.7745 26.669C14.6147 26.6158 14.4411 26.5891 14.2536 26.5891C13.9148 26.5891 13.6197 26.6733 13.3683 26.8416C13.1168 27.0078 12.9219 27.2507 12.7834 27.5703C12.6449 27.8878 12.5756 28.2734 12.5756 28.7273C12.5756 29.1939 12.6449 29.5859 12.7834 29.9034C12.924 30.2209 13.12 30.4606 13.3714 30.6225C13.6229 30.7844 13.9137 30.8654 14.244 30.8654C14.4293 30.8654 14.6009 30.8409 14.7585 30.7919C14.9183 30.7429 15.06 30.6715 15.1836 30.5778C15.3072 30.4819 15.4094 30.3658 15.4904 30.2294C15.5735 30.093 15.631 29.9375 15.663 29.7628L17.0629 29.7692C17.0266 30.0696 16.9361 30.3594 16.7912 30.6385C16.6484 30.9155 16.4556 31.1637 16.2127 31.3832C15.9719 31.6005 15.6843 31.7731 15.3498 31.9009C15.0174 32.0266 14.6413 32.0895 14.2216 32.0895C13.6378 32.0895 13.1158 31.9574 12.6555 31.6932C12.1974 31.429 11.8352 31.0465 11.5689 30.5458C11.3047 30.0451 11.1726 29.4389 11.1726 28.7273C11.1726 28.0135 11.3068 27.4062 11.5753 26.9055C11.8438 26.4048 12.2081 26.0234 12.6683 25.7614C13.1286 25.4972 13.6463 25.3651 14.2216 25.3651C14.6009 25.3651 14.9524 25.4183 15.2763 25.5249C15.6023 25.6314 15.891 25.7869 16.1424 25.9915C16.3938 26.1939 16.5984 26.4421 16.756 26.7362C16.9158 27.0302 17.0181 27.3668 17.0629 27.7461ZM21.606 27.337C21.5804 27.0792 21.4707 26.8789 21.2768 26.7362C21.0829 26.5934 20.8198 26.522 20.4874 26.522C20.2615 26.522 20.0708 26.554 19.9153 26.6179C19.7598 26.6797 19.6404 26.766 19.5574 26.8768C19.4764 26.9876 19.4359 27.1133 19.4359 27.2539C19.4316 27.3711 19.4561 27.4734 19.5094 27.5607C19.5648 27.6481 19.6404 27.7237 19.7363 27.7876C19.8322 27.8494 19.943 27.9038 20.0687 27.9506C20.1944 27.9954 20.3287 28.0337 20.4714 28.0657L21.0595 28.2063C21.345 28.2702 21.6071 28.3555 21.8457 28.462C22.0843 28.5685 22.291 28.6996 22.4657 28.8551C22.6404 29.0107 22.7757 29.1939 22.8716 29.4048C22.9696 29.6158 23.0197 29.8576 23.0218 30.1303C23.0197 30.5309 22.9174 30.8782 22.715 31.1722C22.5147 31.4641 22.225 31.6911 21.8457 31.853C21.4686 32.0128 21.0137 32.0927 20.481 32.0927C19.9526 32.0927 19.4924 32.0117 19.1003 31.8498C18.7104 31.6879 18.4057 31.4482 18.1863 31.1307C17.9689 30.8111 17.8549 30.4158 17.8443 29.945H19.1834C19.1983 30.1644 19.2612 30.3477 19.372 30.4947C19.4849 30.6396 19.6351 30.7493 19.8226 30.8239C20.0123 30.8963 20.2264 30.9325 20.465 30.9325C20.6994 30.9325 20.9029 30.8984 21.0755 30.8303C21.2502 30.7621 21.3855 30.6673 21.4814 30.5458C21.5772 30.4244 21.6252 30.2848 21.6252 30.1271C21.6252 29.9801 21.5815 29.8565 21.4941 29.7564C21.4089 29.6562 21.2832 29.571 21.117 29.5007C20.9529 29.4304 20.7516 29.3665 20.513 29.3089L19.8002 29.13C19.2484 28.9957 18.8127 28.7859 18.4931 28.5004C18.1735 28.2148 18.0147 27.8303 18.0169 27.3466C18.0147 26.9503 18.1202 26.604 18.3333 26.3079C18.5485 26.0117 18.8436 25.7805 19.2186 25.6143C19.5936 25.4482 20.0197 25.3651 20.497 25.3651C20.9828 25.3651 21.4068 25.4482 21.769 25.6143C22.1333 25.7805 22.4167 26.0117 22.6191 26.3079C22.8216 26.604 22.926 26.9471 22.9324 27.337H21.606ZM27.5035 27.337C27.4779 27.0792 27.3682 26.8789 27.1743 26.7362C26.9804 26.5934 26.7172 26.522 26.3849 26.522C26.159 26.522 25.9683 26.554 25.8128 26.6179C25.6572 26.6797 25.5379 26.766 25.4548 26.8768C25.3738 26.9876 25.3334 27.1133 25.3334 27.2539C25.3291 27.3711 25.3536 27.4734 25.4069 27.5607C25.4623 27.6481 25.5379 27.7237 25.6338 27.7876C25.7297 27.8494 25.8405 27.9038 25.9662 27.9506C26.0919 27.9954 26.2261 28.0337 26.3689 28.0657L26.9569 28.2063C27.2425 28.2702 27.5045 28.3555 27.7432 28.462C27.9818 28.5685 28.1885 28.6996 28.3632 28.8551C28.5379 29.0107 28.6732 29.1939 28.7691 29.4048C28.8671 29.6158 28.9172 29.8576 28.9193 30.1303C28.9172 30.5309 28.8149 30.8782 28.6125 31.1722C28.4122 31.4641 28.1224 31.6911 27.7432 31.853C27.366 32.0128 26.9111 32.0927 26.3785 32.0927C25.8501 32.0927 25.3898 32.0117 24.9978 31.8498C24.6079 31.6879 24.3032 31.4482 24.0837 31.1307C23.8664 30.8111 23.7524 30.4158 23.7417 29.945H25.0809C25.0958 30.1644 25.1586 30.3477 25.2694 30.4947C25.3824 30.6396 25.5326 30.7493 25.7201 30.8239C25.9097 30.8963 26.1238 30.9325 26.3625 30.9325C26.5969 30.9325 26.8003 30.8984 26.9729 30.8303C27.1476 30.7621 27.2829 30.6673 27.3788 30.5458C27.4747 30.4244 27.5226 30.2848 27.5226 30.1271C27.5226 29.9801 27.479 29.8565 27.3916 29.7564C27.3064 29.6562 27.1807 29.571 27.0145 29.5007C26.8504 29.4304 26.6491 29.3665 26.4104 29.3089L25.6977 29.13C25.1459 28.9957 24.7101 28.7859 24.3905 28.5004C24.0709 28.2148 23.9122 27.8303 23.9143 27.3466C23.9122 26.9503 24.0177 26.604 24.2307 26.3079C24.4459 26.0117 24.741 25.7805 25.116 25.6143C25.491 25.4482 25.9172 25.3651 26.3944 25.3651C26.8802 25.3651 27.3042 25.4482 27.6665 25.6143C28.0308 25.7805 28.3142 26.0117 28.5166 26.3079C28.719 26.604 28.8234 26.9471 28.8298 27.337H27.5035Z" fill="#424D57"/>
<defs>
<linearGradient id="paint0_linear_10530_98403" x1="20" y1="0" x2="20" y2="40" gradientUnits="userSpaceOnUse">
<stop stop-color="#F9FAFB"/>
<stop offset="1" stop-color="#EDF0F3"/>
</linearGradient>
</defs>
</svg>
