<svg width="40" height="40" viewBox="0 0 40 40" fill="none" xmlns="http://www.w3.org/2000/svg">
<path d="M4 4C4 1.79086 5.79086 0 8 0H24L36 12V36C36 38.2091 34.2091 40 32 40H8C5.79086 40 4 38.2091 4 36V4Z" fill="#159A00"/>
<path opacity="0.3" d="M24 0L36 12H28C25.7909 12 24 10.2091 24 8V0Z" fill="white"/>
<path d="M16.6454 27.7461H15.2455C15.2199 27.565 15.1677 27.4041 15.0889 27.2635C15.0101 27.1207 14.9089 26.9993 14.7853 26.8991C14.6617 26.799 14.519 26.7223 14.357 26.669C14.1972 26.6158 14.0236 26.5891 13.8361 26.5891C13.4973 26.5891 13.2022 26.6733 12.9508 26.8416C12.6994 27.0078 12.5044 27.2507 12.3659 27.5703C12.2274 27.8878 12.1582 28.2734 12.1582 28.7273C12.1582 29.1939 12.2274 29.5859 12.3659 29.9034C12.5065 30.2209 12.7025 30.4606 12.954 30.6225C13.2054 30.7844 13.4962 30.8654 13.8265 30.8654C14.0119 30.8654 14.1834 30.8409 14.341 30.7919C14.5008 30.7429 14.6425 30.6715 14.7661 30.5778C14.8897 30.4819 14.992 30.3658 15.0729 30.2294C15.156 30.093 15.2136 29.9375 15.2455 29.7628L16.6454 29.7692C16.6092 30.0696 16.5186 30.3594 16.3737 30.6385C16.231 30.9155 16.0381 31.1637 15.7952 31.3832C15.5545 31.6005 15.2668 31.7731 14.9323 31.9009C14.5999 32.0266 14.2239 32.0895 13.8041 32.0895C13.2203 32.0895 12.6983 31.9574 12.2381 31.6932C11.78 31.429 11.4177 31.0465 11.1514 30.5458C10.8872 30.0451 10.7551 29.4389 10.7551 28.7273C10.7551 28.0135 10.8893 27.4062 11.1578 26.9055C11.4263 26.4048 11.7906 26.0234 12.2508 25.7614C12.7111 25.4972 13.2288 25.3651 13.8041 25.3651C14.1834 25.3651 14.5349 25.4183 14.8588 25.5249C15.1848 25.6314 15.4735 25.7869 15.7249 25.9915C15.9763 26.1939 16.1809 26.4421 16.3386 26.7362C16.4984 27.0302 16.6006 27.3668 16.6454 27.7461ZM21.1885 27.337C21.163 27.0792 21.0532 26.8789 20.8593 26.7362C20.6654 26.5934 20.4023 26.522 20.0699 26.522C19.8441 26.522 19.6534 26.554 19.4978 26.6179C19.3423 26.6797 19.223 26.766 19.1399 26.8768C19.0589 26.9876 19.0184 27.1133 19.0184 27.2539C19.0142 27.3711 19.0387 27.4734 19.0919 27.5607C19.1473 27.6481 19.223 27.7237 19.3188 27.7876C19.4147 27.8494 19.5255 27.9038 19.6512 27.9506C19.7769 27.9954 19.9112 28.0337 20.0539 28.0657L20.642 28.2063C20.9275 28.2702 21.1896 28.3555 21.4282 28.462C21.6669 28.5685 21.8735 28.6996 22.0483 28.8551C22.223 29.0107 22.3583 29.1939 22.4541 29.4048C22.5522 29.6158 22.6022 29.8576 22.6044 30.1303C22.6022 30.5309 22.5 30.8782 22.2975 31.1722C22.0973 31.4641 21.8075 31.6911 21.4282 31.853C21.0511 32.0128 20.5962 32.0927 20.0635 32.0927C19.5351 32.0927 19.0749 32.0117 18.6828 31.8498C18.2929 31.6879 17.9882 31.4482 17.7688 31.1307C17.5514 30.8111 17.4375 30.4158 17.4268 29.945H18.7659C18.7809 30.1644 18.8437 30.3477 18.9545 30.4947C19.0674 30.6396 19.2176 30.7493 19.4051 30.8239C19.5948 30.8963 19.8089 30.9325 20.0475 30.9325C20.2819 30.9325 20.4854 30.8984 20.658 30.8303C20.8327 30.7621 20.968 30.6673 21.0639 30.5458C21.1598 30.4244 21.2077 30.2848 21.2077 30.1271C21.2077 29.9801 21.164 29.8565 21.0767 29.7564C20.9914 29.6562 20.8657 29.571 20.6995 29.5007C20.5355 29.4304 20.3341 29.3665 20.0955 29.3089L19.3828 29.13C18.8309 28.9957 18.3952 28.7859 18.0756 28.5004C17.756 28.2148 17.5973 27.8303 17.5994 27.3466C17.5973 26.9503 17.7027 26.604 17.9158 26.3079C18.131 26.0117 18.4261 25.7805 18.8011 25.6143C19.1761 25.4482 19.6022 25.3651 20.0795 25.3651C20.5653 25.3651 20.9893 25.4482 21.3515 25.6143C21.7159 25.7805 21.9992 26.0117 22.2017 26.3079C22.4041 26.604 22.5085 26.9471 22.5149 27.337H21.1885ZM24.7177 25.4545L26.2998 30.4276H26.3605L27.9457 25.4545H29.4798L27.2234 32H25.44L23.1804 25.4545H24.7177Z" fill="white"/>
</svg>
