<svg width="40" height="40" viewBox="0 0 40 40" fill="none" xmlns="http://www.w3.org/2000/svg">
<path d="M4 4C4 1.79086 5.79086 0 8 0H24L36 12V36C36 38.2091 34.2091 40 32 40H8C5.79086 40 4 38.2091 4 36V4Z" fill="url(#paint0_linear_10530_98531)"/>
<path d="M24 0L36 12H28C25.7909 12 24 10.2091 24 8V0Z" fill="#EAECF0"/>
<path d="M12.0743 32H9.75395V25.4545H12.0934C12.7518 25.4545 13.3186 25.5856 13.7937 25.8477C14.2689 26.1076 14.6343 26.4815 14.89 26.9695C15.1478 27.4574 15.2767 28.0412 15.2767 28.7209C15.2767 29.4027 15.1478 29.9886 14.89 30.4787C14.6343 30.9687 14.2667 31.3448 13.7873 31.6069C13.3101 31.869 12.739 32 12.0743 32ZM11.1378 30.8143H12.0167C12.4258 30.8143 12.7699 30.7418 13.0491 30.5969C13.3303 30.4499 13.5412 30.223 13.6819 29.9162C13.8246 29.6072 13.896 29.2088 13.896 28.7209C13.896 28.2372 13.8246 27.842 13.6819 27.5352C13.5412 27.2283 13.3314 27.0025 13.0522 26.8576C12.7731 26.7127 12.429 26.6403 12.0199 26.6403H11.1378V30.8143ZM16.3018 25.4545H18.0085L19.811 29.8523H19.8877L21.6903 25.4545H23.397V32H22.0546V27.7397H22.0003L20.3064 31.968H19.3924L17.6985 27.7237H17.6441V32H16.3018V25.4545ZM28.8774 27.5703C28.8326 27.4148 28.7698 27.2773 28.6888 27.158C28.6078 27.0366 28.5087 26.9343 28.3916 26.8512C28.2765 26.766 28.1444 26.701 27.9953 26.6562C27.8482 26.6115 27.6852 26.5891 27.5063 26.5891C27.1717 26.5891 26.8777 26.6722 26.6242 26.8384C26.3727 27.0046 26.1767 27.2464 26.0361 27.5639C25.8955 27.8793 25.8252 28.2649 25.8252 28.7209C25.8252 29.1768 25.8944 29.5646 26.0329 29.8842C26.1714 30.2038 26.3674 30.4478 26.621 30.6161C26.8745 30.7823 27.1739 30.8654 27.519 30.8654C27.8323 30.8654 28.0997 30.81 28.3212 30.6992C28.545 30.5863 28.7154 30.4276 28.8326 30.223C28.9519 30.0185 29.0116 29.7766 29.0116 29.4975L29.2928 29.5391H27.6053V28.4972H30.3443V29.3217C30.3443 29.897 30.2229 30.3913 29.98 30.8047C29.7371 31.2159 29.4026 31.5334 28.9764 31.7571C28.5503 31.9787 28.0624 32.0895 27.5127 32.0895C26.899 32.0895 26.36 31.9542 25.8955 31.6836C25.431 31.4109 25.0688 31.0241 24.8088 30.5234C24.551 30.0206 24.4221 29.424 24.4221 28.7337C24.4221 28.2031 24.4988 27.7301 24.6522 27.3146C24.8078 26.897 25.0251 26.5433 25.3042 26.2536C25.5833 25.9638 25.9082 25.7433 26.279 25.592C26.6497 25.4407 27.0514 25.3651 27.4839 25.3651C27.8546 25.3651 28.1998 25.4194 28.5194 25.5281C28.839 25.6346 29.1224 25.7859 29.3695 25.9819C29.6188 26.1779 29.8223 26.4112 29.98 26.6818C30.1377 26.9503 30.2389 27.2464 30.2836 27.5703H28.8774Z" fill="#424D57"/>
<defs>
<linearGradient id="paint0_linear_10530_98531" x1="20" y1="0" x2="20" y2="40" gradientUnits="userSpaceOnUse">
<stop stop-color="#F9FAFB"/>
<stop offset="1" stop-color="#EDF0F3"/>
</linearGradient>
</defs>
</svg>
