<svg width="40" height="40" viewBox="0 0 40 40" fill="none" xmlns="http://www.w3.org/2000/svg">
<path d="M4 4C4 1.79086 5.79086 0 8 0H24L36 12V36C36 38.2091 34.2091 40 32 40H8C5.79086 40 4 38.2091 4 36V4Z" fill="#6554C0"/>
<path opacity="0.3" d="M24 0L36 12H28C25.7909 12 24 10.2091 24 8V0Z" fill="white"/>
<path d="M12.7115 32H10.3912V25.4545H12.7306C13.389 25.4545 13.9558 25.5856 14.4309 25.8477C14.9061 26.1076 15.2715 26.4815 15.5272 26.9695C15.785 27.4574 15.9139 28.0412 15.9139 28.7209C15.9139 29.4027 15.785 29.9886 15.5272 30.4787C15.2715 30.9687 14.9039 31.3448 14.4245 31.6069C13.9473 31.869 13.3762 32 12.7115 32ZM11.775 30.8143H12.6539C13.063 30.8143 13.4071 30.7418 13.6863 30.5969C13.9675 30.4499 14.1784 30.223 14.3191 29.9162C14.4618 29.6072 14.5332 29.2088 14.5332 28.7209C14.5332 28.2372 14.4618 27.842 14.3191 27.5352C14.1784 27.2283 13.9686 27.0025 13.6895 26.8576C13.4103 26.7127 13.0662 26.6403 12.6571 26.6403H11.775V30.8143ZM22.9539 28.7273C22.9539 29.4411 22.8186 30.0483 22.548 30.549C22.2796 31.0497 21.9131 31.4322 21.4486 31.6964C20.9862 31.9585 20.4664 32.0895 19.8889 32.0895C19.3073 32.0895 18.7852 31.9574 18.3229 31.6932C17.8605 31.429 17.4951 31.0465 17.2267 30.5458C16.9582 30.0451 16.824 29.4389 16.824 28.7273C16.824 28.0135 16.9582 27.4062 17.2267 26.9055C17.4951 26.4048 17.8605 26.0234 18.3229 25.7614C18.7852 25.4972 19.3073 25.3651 19.8889 25.3651C20.4664 25.3651 20.9862 25.4972 21.4486 25.7614C21.9131 26.0234 22.2796 26.4048 22.548 26.9055C22.8186 27.4062 22.9539 28.0135 22.9539 28.7273ZM21.5509 28.7273C21.5509 28.2649 21.4816 27.875 21.3431 27.5575C21.2068 27.2401 21.0139 26.9993 20.7646 26.8352C20.5154 26.6712 20.2235 26.5891 19.8889 26.5891C19.5544 26.5891 19.2625 26.6712 19.0132 26.8352C18.7639 26.9993 18.57 27.2401 18.4316 27.5575C18.2952 27.875 18.227 28.2649 18.227 28.7273C18.227 29.1896 18.2952 29.5795 18.4316 29.897C18.57 30.2145 18.7639 30.4553 19.0132 30.6193C19.2625 30.7834 19.5544 30.8654 19.8889 30.8654C20.2235 30.8654 20.5154 30.7834 20.7646 30.6193C21.0139 30.4553 21.2068 30.2145 21.3431 29.897C21.4816 29.5795 21.5509 29.1896 21.5509 28.7273ZM29.7543 27.7461H28.3544C28.3288 27.565 28.2766 27.4041 28.1978 27.2635C28.119 27.1207 28.0178 26.9993 27.8942 26.8991C27.7706 26.799 27.6278 26.7223 27.4659 26.669C27.3061 26.6158 27.1325 26.5891 26.945 26.5891C26.6062 26.5891 26.3111 26.6733 26.0597 26.8416C25.8082 27.0078 25.6133 27.2507 25.4748 27.5703C25.3363 27.8878 25.267 28.2734 25.267 28.7273C25.267 29.1939 25.3363 29.5859 25.4748 29.9034C25.6154 30.2209 25.8114 30.4606 26.0629 30.6225C26.3143 30.7844 26.6051 30.8654 26.9354 30.8654C27.1207 30.8654 27.2923 30.8409 27.4499 30.7919C27.6097 30.7429 27.7514 30.6715 27.875 30.5778C27.9986 30.4819 28.1009 30.3658 28.1818 30.2294C28.2649 30.093 28.3224 29.9375 28.3544 29.7628L29.7543 29.7692C29.718 30.0696 29.6275 30.3594 29.4826 30.6385C29.3398 30.9155 29.147 31.1637 28.9041 31.3832C28.6634 31.6005 28.3757 31.7731 28.0412 31.9009C27.7088 32.0266 27.3327 32.0895 26.913 32.0895C26.3292 32.0895 25.8072 31.9574 25.3469 31.6932C24.8888 31.429 24.5266 31.0465 24.2603 30.5458C23.9961 30.0451 23.864 29.4389 23.864 28.7273C23.864 28.0135 23.9982 27.4062 24.2667 26.9055C24.5352 26.4048 24.8995 26.0234 25.3597 25.7614C25.82 25.4972 26.3377 25.3651 26.913 25.3651C27.2923 25.3651 27.6438 25.4183 27.9677 25.5249C28.2937 25.6314 28.5824 25.7869 28.8338 25.9915C29.0852 26.1939 29.2898 26.4421 29.4474 26.7362C29.6072 27.0302 29.7095 27.3668 29.7543 27.7461Z" fill="white"/>
</svg>
