<svg width="40" height="40" viewBox="0 0 40 40" fill="none" xmlns="http://www.w3.org/2000/svg">
<path d="M4 4C4 1.79086 5.79086 0 8 0H24L36 12V36C36 38.2091 34.2091 40 32 40H8C5.79086 40 4 38.2091 4 36V4Z" fill="#6554C0"/>
<path opacity="0.3" d="M24 0L36 12H28C25.7909 12 24 10.2091 24 8V0Z" fill="white"/>
<path d="M9.56499 32H7.24467V25.4545H9.58416C10.2425 25.4545 10.8093 25.5856 11.2844 25.8477C11.7596 26.1076 12.125 26.4815 12.3807 26.9695C12.6385 27.4574 12.7674 28.0412 12.7674 28.7209C12.7674 29.4027 12.6385 29.9886 12.3807 30.4787C12.125 30.9687 11.7575 31.3448 11.2781 31.6069C10.8008 31.869 10.2298 32 9.56499 32ZM8.62855 30.8143H9.50746C9.91655 30.8143 10.2607 30.7418 10.5398 30.5969C10.821 30.4499 11.032 30.223 11.1726 29.9162C11.3153 29.6072 11.3867 29.2088 11.3867 28.7209C11.3867 28.2372 11.3153 27.842 11.1726 27.5352C11.032 27.2283 10.8221 27.0025 10.543 26.8576C10.2638 26.7127 9.91974 26.6403 9.51065 26.6403H8.62855V30.8143ZM19.8074 28.7273C19.8074 29.4411 19.6721 30.0483 19.4015 30.549C19.1331 31.0497 18.7666 31.4322 18.3021 31.6964C17.8398 31.9585 17.3199 32.0895 16.7425 32.0895C16.1608 32.0895 15.6388 31.9574 15.1764 31.6932C14.714 31.429 14.3486 31.0465 14.0802 30.5458C13.8117 30.0451 13.6775 29.4389 13.6775 28.7273C13.6775 28.0135 13.8117 27.4062 14.0802 26.9055C14.3486 26.4048 14.714 26.0234 15.1764 25.7614C15.6388 25.4972 16.1608 25.3651 16.7425 25.3651C17.3199 25.3651 17.8398 25.4972 18.3021 25.7614C18.7666 26.0234 19.1331 26.4048 19.4015 26.9055C19.6721 27.4062 19.8074 28.0135 19.8074 28.7273ZM18.4044 28.7273C18.4044 28.2649 18.3351 27.875 18.1966 27.5575C18.0603 27.2401 17.8675 26.9993 17.6182 26.8352C17.3689 26.6712 17.077 26.5891 16.7425 26.5891C16.4079 26.5891 16.116 26.6712 15.8667 26.8352C15.6175 26.9993 15.4236 27.2401 15.2851 27.5575C15.1487 27.875 15.0805 28.2649 15.0805 28.7273C15.0805 29.1896 15.1487 29.5795 15.2851 29.897C15.4236 30.2145 15.6175 30.4553 15.8667 30.6193C16.116 30.7834 16.4079 30.8654 16.7425 30.8654C17.077 30.8654 17.3689 30.7834 17.6182 30.6193C17.8675 30.4553 18.0603 30.2145 18.1966 29.897C18.3351 29.5795 18.4044 29.1896 18.4044 28.7273ZM26.6078 27.7461H25.2079C25.1824 27.565 25.1301 27.4041 25.0513 27.2635C24.9725 27.1207 24.8713 26.9993 24.7477 26.8991C24.6241 26.799 24.4814 26.7223 24.3194 26.669C24.1596 26.6158 23.986 26.5891 23.7985 26.5891C23.4597 26.5891 23.1646 26.6733 22.9132 26.8416C22.6618 27.0078 22.4668 27.2507 22.3283 27.5703C22.1898 27.8878 22.1206 28.2734 22.1206 28.7273C22.1206 29.1939 22.1898 29.5859 22.3283 29.9034C22.4689 30.2209 22.665 30.4606 22.9164 30.6225C23.1678 30.7844 23.4586 30.8654 23.7889 30.8654C23.9743 30.8654 24.1458 30.8409 24.3034 30.7919C24.4632 30.7429 24.6049 30.6715 24.7285 30.5778C24.8521 30.4819 24.9544 30.3658 25.0353 30.2294C25.1184 30.093 25.176 29.9375 25.2079 29.7628L26.6078 29.7692C26.5716 30.0696 26.481 30.3594 26.3361 30.6385C26.1934 30.9155 26.0005 31.1637 25.7576 31.3832C25.5169 31.6005 25.2292 31.7731 24.8947 31.9009C24.5623 32.0266 24.1863 32.0895 23.7665 32.0895C23.1827 32.0895 22.6607 31.9574 22.2005 31.6932C21.7424 31.429 21.3801 31.0465 21.1138 30.5458C20.8496 30.0451 20.7175 29.4389 20.7175 28.7273C20.7175 28.0135 20.8517 27.4062 21.1202 26.9055C21.3887 26.4048 21.753 26.0234 22.2132 25.7614C22.6735 25.4972 23.1912 25.3651 23.7665 25.3651C24.1458 25.3651 24.4973 25.4183 24.8212 25.5249C25.1472 25.6314 25.4359 25.7869 25.6873 25.9915C25.9387 26.1939 26.1433 26.4421 26.301 26.7362C26.4608 27.0302 26.563 27.3668 26.6078 27.7461ZM28.7571 25.4545L30.0771 27.6854H30.1282L31.4545 25.4545H33.0174L31.0199 28.7273L33.0621 32H31.4705L30.1282 29.766H30.0771L28.7347 32H27.1495L29.1982 28.7273L27.1879 25.4545H28.7571Z" fill="white"/>
</svg>
