<svg width="40" height="40" viewBox="0 0 40 40" fill="none">
<path d="M4 4C4 1.79086 5.79086 0 8 0H24L36 12V36C36 38.2091 34.2091 40 32 40H8C5.79086 40 4 38.2091 4 36V4Z" fill="#0142AF"/>
<path opacity="0.3" d="M24 0L36 12H28C25.7909 12 24 10.2091 24 8V0Z" fill="white"/>
<path d="M11.9512 32V25.4545H16.3617V26.5955H13.3351V28.1552H16.1348V29.2962H13.3351V30.859H16.3745V32H11.9512ZM17.462 32V25.4545H20.0443C20.5408 25.4545 20.9637 25.5494 21.3132 25.739C21.6626 25.9265 21.9289 26.1875 22.1122 26.522C22.2975 26.8544 22.3902 27.2379 22.3902 27.6726C22.3902 28.1072 22.2965 28.4908 22.109 28.8232C21.9215 29.1555 21.6498 29.4144 21.294 29.5998C20.9403 29.7852 20.512 29.8778 20.0092 29.8778H18.3632V28.7688H19.7855C20.0518 28.7688 20.2713 28.723 20.4438 28.6314C20.6186 28.5376 20.7485 28.4087 20.8338 28.2447C20.9211 28.0785 20.9648 27.8878 20.9648 27.6726C20.9648 27.4553 20.9211 27.2656 20.8338 27.1037C20.7485 26.9396 20.6186 26.8129 20.4438 26.7234C20.2691 26.6317 20.0475 26.5859 19.7791 26.5859H18.8458V32H17.462ZM26.8399 27.337C26.8143 27.0792 26.7046 26.8789 26.5107 26.7362C26.3168 26.5934 26.0537 26.522 25.7213 26.522C25.4954 26.522 25.3047 26.554 25.1492 26.6179C24.9937 26.6797 24.8743 26.766 24.7912 26.8768C24.7103 26.9876 24.6698 27.1133 24.6698 27.2539C24.6655 27.3711 24.69 27.4734 24.7433 27.5607C24.7987 27.6481 24.8743 27.7237 24.9702 27.7876C25.0661 27.8494 25.1769 27.9038 25.3026 27.9506C25.4283 27.9954 25.5625 28.0337 25.7053 28.0657L26.2934 28.2063C26.5789 28.2702 26.841 28.3555 27.0796 28.462C27.3182 28.5685 27.5249 28.6996 27.6996 28.8551C27.8743 29.0107 28.0096 29.1939 28.1055 29.4048C28.2035 29.6158 28.2536 29.8576 28.2557 30.1303C28.2536 30.5309 28.1513 30.8782 27.9489 31.1722C27.7486 31.4641 27.4589 31.6911 27.0796 31.853C26.7025 32.0128 26.2476 32.0927 25.7149 32.0927C25.1865 32.0927 24.7263 32.0117 24.3342 31.8498C23.9443 31.6879 23.6396 31.4482 23.4201 31.1307C23.2028 30.8111 23.0888 30.4158 23.0782 29.945H24.4173C24.4322 30.1644 24.4951 30.3477 24.6059 30.4947C24.7188 30.6396 24.869 30.7493 25.0565 30.8239C25.2461 30.8963 25.4603 30.9325 25.6989 30.9325C25.9333 30.9325 26.1368 30.8984 26.3093 30.8303C26.4841 30.7621 26.6194 30.6673 26.7152 30.5458C26.8111 30.4244 26.8591 30.2848 26.8591 30.1271C26.8591 29.9801 26.8154 29.8565 26.728 29.7564C26.6428 29.6562 26.5171 29.571 26.3509 29.5007C26.1868 29.4304 25.9855 29.3665 25.7468 29.3089L25.0341 29.13C24.4823 28.9957 24.0466 28.7859 23.727 28.5004C23.4074 28.2148 23.2486 27.8303 23.2508 27.3466C23.2486 26.9503 23.3541 26.604 23.5672 26.3079C23.7824 26.0117 24.0775 25.7805 24.4525 25.6143C24.8275 25.4482 25.2536 25.3651 25.7309 25.3651C26.2167 25.3651 26.6407 25.4482 27.0029 25.6143C27.3672 25.7805 27.6506 26.0117 27.853 26.3079C28.0554 26.604 28.1598 26.9471 28.1662 27.337H26.8399Z" fill="white"/>
</svg>
