<svg width="40" height="40" viewBox="0 0 40 40" fill="none" xmlns="http://www.w3.org/2000/svg">
<path d="M4 4C4 1.79086 5.79086 0 8 0H24L36 12V36C36 38.2091 34.2091 40 32 40H8C5.79086 40 4 38.2091 4 36V4Z" fill="url(#paint0_linear_10530_98515)"/>
<path d="M24 0L36 12H28C25.7909 12 24 10.2091 24 8V0Z" fill="#EAECF0"/>
<path d="M11.8414 32V25.4545H16.2519V26.5955H13.2252V28.1552H16.0249V29.2962H13.2252V30.859H16.2646V32H11.8414ZM18.6497 25.4545L19.9696 27.6854H20.0208L21.3471 25.4545H22.91L20.9125 28.7273L22.9547 32H21.3631L20.0208 29.766H19.9696L18.6273 32H17.0421L19.0907 28.7273L17.0804 25.4545H18.6497ZM23.7857 32V25.4545H28.1962V26.5955H25.1696V28.1552H27.9693V29.2962H25.1696V30.859H28.209V32H23.7857Z" fill="#424D57"/>
<defs>
<linearGradient id="paint0_linear_10530_98515" x1="20" y1="0" x2="20" y2="40" gradientUnits="userSpaceOnUse">
<stop stop-color="#F9FAFB"/>
<stop offset="1" stop-color="#EDF0F3"/>
</linearGradient>
</defs>
</svg>
