<svg width="40" height="40" viewBox="0 0 40 40" fill="none" xmlns="http://www.w3.org/2000/svg">
<path d="M4 4C4 1.79086 5.79086 0 8 0H24L36 12V36C36 38.2091 34.2091 40 32 40H8C5.79086 40 4 38.2091 4 36V4Z" fill="url(#paint0_linear_10530_98179)"/>
<path d="M24 0L36 12H28C25.7909 12 24 10.2091 24 8V0Z" fill="#EAECF0"/>
<path d="M13.252 32V25.4545H17.5858V26.5955H14.6359V28.1552H17.2982V29.2962H14.6359V32H13.252ZM19.9005 25.4545V32H18.5166V25.4545H19.9005ZM25.3793 27.5703C25.3346 27.4148 25.2717 27.2773 25.1907 27.158C25.1098 27.0366 25.0107 26.9343 24.8935 26.8512C24.7785 26.766 24.6464 26.701 24.4972 26.6562C24.3502 26.6115 24.1872 26.5891 24.0082 26.5891C23.6737 26.5891 23.3797 26.6722 23.1261 26.8384C22.8747 27.0046 22.6787 27.2464 22.538 27.5639C22.3974 27.8793 22.3271 28.2649 22.3271 28.7209C22.3271 29.1768 22.3964 29.5646 22.5348 29.8842C22.6733 30.2038 22.8694 30.4478 23.1229 30.6161C23.3765 30.7823 23.6758 30.8654 24.021 30.8654C24.3342 30.8654 24.6016 30.81 24.8232 30.6992C25.0469 30.5863 25.2174 30.4276 25.3346 30.223C25.4539 30.0185 25.5135 29.7766 25.5135 29.4975L25.7948 29.5391H24.1073V28.4972H26.8463V29.3217C26.8463 29.897 26.7248 30.3913 26.4819 30.8047C26.239 31.2159 25.9045 31.5334 25.4784 31.7571C25.0522 31.9787 24.5643 32.0895 24.0146 32.0895C23.401 32.0895 22.8619 31.9542 22.3974 31.6836C21.9329 31.4109 21.5707 31.0241 21.3108 30.5234C21.053 30.0206 20.9241 29.424 20.9241 28.7337C20.9241 28.2031 21.0008 27.7301 21.1542 27.3146C21.3097 26.897 21.527 26.5433 21.8062 26.2536C22.0853 25.9638 22.4102 25.7433 22.7809 25.592C23.1517 25.4407 23.5533 25.3651 23.9858 25.3651C24.3566 25.3651 24.7017 25.4194 25.0214 25.5281C25.341 25.6346 25.6243 25.7859 25.8715 25.9819C26.1208 26.1779 26.3243 26.4112 26.4819 26.6818C26.6396 26.9503 26.7408 27.2464 26.7856 27.5703H25.3793Z" fill="#424D57"/>
<defs>
<linearGradient id="paint0_linear_10530_98179" x1="20" y1="0" x2="20" y2="40" gradientUnits="userSpaceOnUse">
<stop stop-color="#F9FAFB"/>
<stop offset="1" stop-color="#EDF0F3"/>
</linearGradient>
</defs>
</svg>
