<svg width="40" height="40" viewBox="0 0 40 40" fill="none" xmlns="http://www.w3.org/2000/svg">
<path d="M4 4C4 1.79086 5.79086 0 8 0H24L36 12V36C36 38.2091 34.2091 40 32 40H8C5.79086 40 4 38.2091 4 36V4Z" fill="#0142AF"/>
<path opacity="0.3" d="M24 0L36 12H28C25.7909 12 24 10.2091 24 8V0Z" fill="white"/>
<path d="M20.6667 20.6667L19.923 19.1793C19.709 18.7512 19.602 18.5372 19.4423 18.3808C19.3011 18.2425 19.1309 18.1373 18.9441 18.0729C18.7328 18 18.4935 18 18.0149 18H15.4667C14.72 18 14.3466 18 14.0614 18.1453C13.8105 18.2732 13.6065 18.4771 13.4787 18.728C13.3334 19.0132 13.3334 19.3866 13.3334 20.1333V20.6667M13.3334 20.6667H23.4667C24.5868 20.6667 25.1469 20.6667 25.5747 20.8847C25.951 21.0764 26.257 21.3824 26.4487 21.7587C26.6667 22.1865 26.6667 22.7466 26.6667 23.8667V26.8C26.6667 27.9201 26.6667 28.4802 26.4487 28.908C26.257 29.2843 25.951 29.5903 25.5747 29.782C25.1469 30 24.5868 30 23.4667 30H16.5334C15.4133 30 14.8532 30 14.4254 29.782C14.0491 29.5903 13.7431 29.2843 13.5514 28.908C13.3334 28.4802 13.3334 27.9201 13.3334 26.8V20.6667Z" stroke="white" stroke-width="1.5" stroke-linecap="round" stroke-linejoin="round"/>
</svg>
