<svg width="40" height="40" viewBox="0 0 40 40" fill="none" xmlns="http://www.w3.org/2000/svg">
<path d="M4 4C4 1.79086 5.79086 0 8 0H24L36 12V36C36 38.2091 34.2091 40 32 40H8C5.79086 40 4 38.2091 4 36V4Z" fill="#0142AF"/>
<path opacity="0.3" d="M24 0L36 12H28C25.7909 12 24 10.2091 24 8V0Z" fill="white"/>
<path d="M13.1505 25.4545V32H11.7666V25.4545H13.1505ZM14.2891 25.4545H15.9958L17.7983 29.8523H17.875L19.6776 25.4545H21.3843V32H20.0419V27.7397H19.9876L18.2937 31.968H17.3797L15.6858 27.7237H15.6314V32H14.2891V25.4545ZM26.8647 27.5703C26.8199 27.4148 26.7571 27.2773 26.6761 27.158C26.5951 27.0366 26.496 26.9343 26.3789 26.8512C26.2638 26.766 26.1317 26.701 25.9826 26.6562C25.8355 26.6115 25.6725 26.5891 25.4936 26.5891C25.159 26.5891 24.865 26.6722 24.6115 26.8384C24.36 27.0046 24.164 27.2464 24.0234 27.5639C23.8828 27.8793 23.8125 28.2649 23.8125 28.7209C23.8125 29.1768 23.8817 29.5646 24.0202 29.8842C24.1587 30.2038 24.3547 30.4478 24.6083 30.6161C24.8618 30.7823 25.1612 30.8654 25.5063 30.8654C25.8196 30.8654 26.087 30.81 26.3085 30.6992C26.5323 30.5863 26.7027 30.4276 26.8199 30.223C26.9392 30.0185 26.9989 29.7766 26.9989 29.4975L27.2801 29.5391H25.5926V28.4972H28.3316V29.3217C28.3316 29.897 28.2102 30.3913 27.9673 30.8047C27.7244 31.2159 27.3899 31.5334 26.9637 31.7571C26.5376 31.9787 26.0497 32.0895 25.5 32.0895C24.8863 32.0895 24.3473 31.9542 23.8828 31.6836C23.4183 31.4109 23.0561 31.0241 22.7961 30.5234C22.5383 30.0206 22.4094 29.424 22.4094 28.7337C22.4094 28.2031 22.4861 27.7301 22.6395 27.3146C22.7951 26.897 23.0124 26.5433 23.2915 26.2536C23.5706 25.9638 23.8956 25.7433 24.2663 25.592C24.637 25.4407 25.0387 25.3651 25.4712 25.3651C25.8419 25.3651 26.1871 25.4194 26.5067 25.5281C26.8263 25.6346 27.1097 25.7859 27.3568 25.9819C27.6061 26.1779 27.8096 26.4112 27.9673 26.6818C28.125 26.9503 28.2262 27.2464 28.2709 27.5703H26.8647Z" fill="white"/>
</svg>
