<svg width="40" height="40" viewBox="0 0 40 40" fill="none" xmlns="http://www.w3.org/2000/svg">
<path d="M4 4C4 1.79086 5.79086 0 8 0H24L36 12V36C36 38.2091 34.2091 40 32 40H8C5.79086 40 4 38.2091 4 36V4Z" fill="#BA24D5"/>
<path opacity="0.3" d="M24 0L36 12H28C25.7909 12 24 10.2091 24 8V0Z" fill="white"/>
<path d="M10.8346 25.4545V32H9.45073V25.4545H10.8346ZM17.448 25.4545V32H16.2527L13.405 27.8803H13.3571V32H11.9732V25.4545H13.1877L16.013 29.571H16.0705V25.4545H17.448ZM20.9117 32H18.5914V25.4545H20.9308C21.5892 25.4545 22.156 25.5856 22.6311 25.8477C23.1063 26.1076 23.4717 26.4815 23.7274 26.9695C23.9852 27.4574 24.1141 28.0412 24.1141 28.7209C24.1141 29.4027 23.9852 29.9886 23.7274 30.4787C23.4717 30.9687 23.1041 31.3448 22.6247 31.6069C22.1475 31.869 21.5764 32 20.9117 32ZM19.9752 30.8143H20.8541C21.2632 30.8143 21.6073 30.7418 21.8865 30.5969C22.1677 30.4499 22.3786 30.223 22.5193 29.9162C22.662 29.6072 22.7334 29.2088 22.7334 28.7209C22.7334 28.2372 22.662 27.842 22.5193 27.5352C22.3786 27.2283 22.1688 27.0025 21.8896 26.8576C21.6105 26.7127 21.2664 26.6403 20.8573 26.6403H19.9752V30.8143ZM27.4595 32H25.1392V25.4545H27.4787C28.1371 25.4545 28.7038 25.5856 29.179 25.8477C29.6541 26.1076 30.0195 26.4815 30.2752 26.9695C30.533 27.4574 30.6619 28.0412 30.6619 28.7209C30.6619 29.4027 30.533 29.9886 30.2752 30.4787C30.0195 30.9687 29.652 31.3448 29.1726 31.6069C28.6953 31.869 28.1243 32 27.4595 32ZM26.5231 30.8143H27.402C27.8111 30.8143 28.1552 30.7418 28.4343 30.5969C28.7156 30.4499 28.9265 30.223 29.0671 29.9162C29.2099 29.6072 29.2812 29.2088 29.2812 28.7209C29.2812 28.2372 29.2099 27.842 29.0671 27.5352C28.9265 27.2283 28.7166 27.0025 28.4375 26.8576C28.1584 26.7127 27.8143 26.6403 27.4052 26.6403H26.5231V30.8143Z" fill="white"/>
</svg>
