<svg width="40" height="40" viewBox="0 0 40 40" fill="none" xmlns="http://www.w3.org/2000/svg">
<path d="M4 4C4 1.79086 5.79086 0 8 0H24L36 12V36C36 38.2091 34.2091 40 32 40H8C5.79086 40 4 38.2091 4 36V4Z" fill="#002769"/>
<path opacity="0.3" d="M24 0L36 12H28C25.7909 12 24 10.2091 24 8V0Z" fill="white"/>
<path d="M11.3683 25.4545H12.7362V30.0185C12.7362 30.4403 12.6414 30.8068 12.4518 31.1179C12.2643 31.429 12.0033 31.6687 11.6688 31.837C11.3343 32.0053 10.9454 32.0895 10.5022 32.0895C10.108 32.0895 9.75009 32.0202 9.42836 31.8817C9.10875 31.7411 8.8552 31.5281 8.6677 31.2425C8.4802 30.9549 8.38752 30.5937 8.38965 30.1591H9.76713C9.7714 30.3317 9.80655 30.4798 9.8726 30.6033C9.94078 30.7248 10.0335 30.8185 10.1507 30.8846C10.27 30.9485 10.4106 30.9805 10.5725 30.9805C10.743 30.9805 10.8868 30.9442 11.004 30.8718C11.1233 30.7972 11.2139 30.6886 11.2757 30.5458C11.3374 30.4031 11.3683 30.2273 11.3683 30.0185V25.4545ZM15.0086 32H13.5257L15.7852 25.4545H17.5686L19.825 32H18.3421L16.7025 26.9503H16.6514L15.0086 32ZM14.9159 29.4272H18.4188V30.5075H14.9159V29.4272ZM20.978 25.4545L22.56 30.4276H22.6207L24.206 25.4545H25.7401L23.4837 32H21.7003L19.4407 25.4545H20.978ZM26.786 32H25.303L27.5626 25.4545H29.346L31.6024 32H30.1194L28.4798 26.9503H28.4287L26.786 32ZM26.6933 29.4272H30.1961V30.5075H26.6933V29.4272Z" fill="white"/>
</svg>
