<svg width="40" height="40" viewBox="0 0 40 40" fill="none" xmlns="http://www.w3.org/2000/svg">
<path d="M4 4C4 1.79086 5.79086 0 8 0H24L36 12V36C36 38.2091 34.2091 40 32 40H8C5.79086 40 4 38.2091 4 36V4Z" fill="#0142AF"/>
<path opacity="0.3" d="M24 0L36 12H28C25.7909 12 24 10.2091 24 8V0Z" fill="white"/>
<path d="M14.2863 25.4545H15.6542V30.0185C15.6542 30.4403 15.5594 30.8068 15.3698 31.1179C15.1823 31.429 14.9213 31.6687 14.5867 31.837C14.2522 32.0053 13.8634 32.0895 13.4202 32.0895C13.026 32.0895 12.6681 32.0202 12.3463 31.8817C12.0267 31.7411 11.7732 31.5281 11.5857 31.2425C11.3982 30.9549 11.3055 30.5937 11.3076 30.1591H12.6851C12.6894 30.3317 12.7245 30.4798 12.7906 30.6033C12.8588 30.7248 12.9514 30.8185 13.0686 30.8846C13.1879 30.9485 13.3286 30.9805 13.4905 30.9805C13.661 30.9805 13.8048 30.9442 13.922 30.8718C14.0413 30.7972 14.1318 30.6886 14.1936 30.5458C14.2554 30.4031 14.2863 30.2273 14.2863 30.0185V25.4545ZM16.7984 32V25.4545H19.3808C19.8772 25.4545 20.3002 25.5494 20.6496 25.739C20.999 25.9265 21.2654 26.1875 21.4486 26.522C21.634 26.8544 21.7267 27.2379 21.7267 27.6726C21.7267 28.1072 21.6329 28.4908 21.4454 28.8232C21.2579 29.1555 20.9862 29.4144 20.6304 29.5998C20.2767 29.7852 19.8485 29.8778 19.3456 29.8778H17.6997V28.7688H19.1219C19.3882 28.7688 19.6077 28.723 19.7803 28.6314C19.955 28.5376 20.085 28.4087 20.1702 28.2447C20.2575 28.0785 20.3012 27.8878 20.3012 27.6726C20.3012 27.4553 20.2575 27.2656 20.1702 27.1037C20.085 26.9396 19.955 26.8129 19.7803 26.7234C19.6056 26.6317 19.384 26.5859 19.1155 26.5859H18.1823V32H16.7984ZM26.9657 27.5703C26.921 27.4148 26.8581 27.2773 26.7772 27.158C26.6962 27.0366 26.5971 26.9343 26.4799 26.8512C26.3649 26.766 26.2328 26.701 26.0836 26.6562C25.9366 26.6115 25.7736 26.5891 25.5946 26.5891C25.2601 26.5891 24.9661 26.6722 24.7125 26.8384C24.4611 27.0046 24.2651 27.2464 24.1245 27.5639C23.9838 27.8793 23.9135 28.2649 23.9135 28.7209C23.9135 29.1768 23.9828 29.5646 24.1213 29.8842C24.2598 30.2038 24.4558 30.4478 24.7093 30.6161C24.9629 30.7823 25.2623 30.8654 25.6074 30.8654C25.9206 30.8654 26.188 30.81 26.4096 30.6992C26.6333 30.5863 26.8038 30.4276 26.921 30.223C27.0403 30.0185 27.1 29.7766 27.1 29.4975L27.3812 29.5391H25.6937V28.4972H28.4327V29.3217C28.4327 29.897 28.3113 30.3913 28.0684 30.8047C27.8255 31.2159 27.4909 31.5334 27.0648 31.7571C26.6387 31.9787 26.1507 32.0895 25.601 32.0895C24.9874 32.0895 24.4483 31.9542 23.9838 31.6836C23.5194 31.4109 23.1571 31.0241 22.8972 30.5234C22.6394 30.0206 22.5105 29.424 22.5105 28.7337C22.5105 28.2031 22.5872 27.7301 22.7406 27.3146C22.8961 26.897 23.1135 26.5433 23.3926 26.2536C23.6717 25.9638 23.9966 25.7433 24.3674 25.592C24.7381 25.4407 25.1397 25.3651 25.5723 25.3651C25.943 25.3651 26.2882 25.4194 26.6078 25.5281C26.9274 25.6346 27.2108 25.7859 27.4579 25.9819C27.7072 26.1779 27.9107 26.4112 28.0684 26.6818C28.226 26.9503 28.3272 27.2464 28.372 27.5703H26.9657Z" fill="white"/>
</svg>
