<svg width="40" height="40" viewBox="0 0 40 40" fill="none" xmlns="http://www.w3.org/2000/svg">
<path d="M4 4C4 1.79086 5.79086 0 8 0H24L36 12V36C36 38.2091 34.2091 40 32 40H8C5.79086 40 4 38.2091 4 36V4Z" fill="#002769"/>
<path opacity="0.3" d="M24 0L36 12H28C25.7909 12 24 10.2091 24 8V0Z" fill="white"/>
<path d="M17.6745 25.4545H19.0424V30.0185C19.0424 30.4403 18.9476 30.8068 18.7579 31.1179C18.5704 31.429 18.3094 31.6687 17.9749 31.837C17.6404 32.0053 17.2516 32.0895 16.8084 32.0895C16.4142 32.0895 16.0562 32.0202 15.7345 31.8817C15.4149 31.7411 15.1614 31.5281 14.9739 31.2425C14.7864 30.9549 14.6937 30.5937 14.6958 30.1591H16.0733C16.0775 30.3317 16.1127 30.4798 16.1788 30.6033C16.2469 30.7248 16.3396 30.8185 16.4568 30.8846C16.5761 30.9485 16.7168 30.9805 16.8787 30.9805C17.0491 30.9805 17.193 30.9442 17.3101 30.8718C17.4295 30.7972 17.52 30.6886 17.5818 30.5458C17.6436 30.4031 17.6745 30.2273 17.6745 30.0185V25.4545ZM23.7373 27.337C23.7118 27.0792 23.6021 26.8789 23.4082 26.7362C23.2143 26.5934 22.9511 26.522 22.6187 26.522C22.3929 26.522 22.2022 26.554 22.0467 26.6179C21.8911 26.6797 21.7718 26.766 21.6887 26.8768C21.6077 26.9876 21.5672 27.1133 21.5672 27.2539C21.563 27.3711 21.5875 27.4734 21.6408 27.5607C21.6962 27.6481 21.7718 27.7237 21.8677 27.7876C21.9636 27.8494 22.0744 27.9038 22.2001 27.9506C22.3258 27.9954 22.46 28.0337 22.6028 28.0657L23.1908 28.2063C23.4763 28.2702 23.7384 28.3555 23.9771 28.462C24.2157 28.5685 24.4224 28.6996 24.5971 28.8551C24.7718 29.0107 24.9071 29.1939 25.003 29.4048C25.101 29.6158 25.1511 29.8576 25.1532 30.1303C25.1511 30.5309 25.0488 30.8782 24.8464 31.1722C24.6461 31.4641 24.3563 31.6911 23.9771 31.853C23.5999 32.0128 23.145 32.0927 22.6123 32.0927C22.0839 32.0927 21.6237 32.0117 21.2317 31.8498C20.8418 31.6879 20.5371 31.4482 20.3176 31.1307C20.1003 30.8111 19.9863 30.4158 19.9756 29.945H21.3148C21.3297 30.1644 21.3925 30.3477 21.5033 30.4947C21.6163 30.6396 21.7665 30.7493 21.954 30.8239C22.1436 30.8963 22.3577 30.9325 22.5964 30.9325C22.8307 30.9325 23.0342 30.8984 23.2068 30.8303C23.3815 30.7621 23.5168 30.6673 23.6127 30.5458C23.7086 30.4244 23.7565 30.2848 23.7565 30.1271C23.7565 29.9801 23.7128 29.8565 23.6255 29.7564C23.5403 29.6562 23.4146 29.571 23.2484 29.5007C23.0843 29.4304 22.8829 29.3665 22.6443 29.3089L21.9316 29.13C21.3797 28.9957 20.944 28.7859 20.6244 28.5004C20.3048 28.2148 20.1461 27.8303 20.1482 27.3466C20.1461 26.9503 20.2516 26.604 20.4646 26.3079C20.6798 26.0117 20.9749 25.7805 21.3499 25.6143C21.7249 25.4482 22.1511 25.3651 22.6283 25.3651C23.1141 25.3651 23.5381 25.4482 23.9003 25.6143C24.2647 25.7805 24.5481 26.0117 24.7505 26.3079C24.9529 26.604 25.0573 26.9471 25.0637 27.337H23.7373Z" fill="white"/>
</svg>
