<svg width="40" height="40" viewBox="0 0 40 40" fill="none" xmlns="http://www.w3.org/2000/svg">
<path d="M4 4C4 1.79086 5.79086 0 8 0H24L36 12V36C36 38.2091 34.2091 40 32 40H8C5.79086 40 4 38.2091 4 36V4Z" fill="#002769"/>
<path opacity="0.3" d="M24 0L36 12H28C25.7909 12 24 10.2091 24 8V0Z" fill="white"/>
<path d="M10.8454 25.4545H12.2133V30.0185C12.2133 30.4403 12.1185 30.8068 11.9288 31.1179C11.7413 31.429 11.4803 31.6687 11.1458 31.837C10.8113 32.0053 10.4225 32.0895 9.97927 32.0895C9.58509 32.0895 9.22714 32.0202 8.90541 31.8817C8.5858 31.7411 8.33225 31.5281 8.14475 31.2425C7.95725 30.9549 7.86457 30.5937 7.8667 30.1591H9.24419C9.24845 30.3317 9.2836 30.4798 9.34965 30.6033C9.41784 30.7248 9.51052 30.8185 9.62771 30.8846C9.74703 30.9485 9.88765 30.9805 10.0496 30.9805C10.22 30.9805 10.3639 30.9442 10.481 30.8718C10.6004 30.7972 10.6909 30.6886 10.7527 30.5458C10.8145 30.4031 10.8454 30.2273 10.8454 30.0185V25.4545ZM16.9082 27.337C16.8827 27.0792 16.7729 26.8789 16.5791 26.7362C16.3852 26.5934 16.122 26.522 15.7896 26.522C15.5638 26.522 15.3731 26.554 15.2176 26.6179C15.062 26.6797 14.9427 26.766 14.8596 26.8768C14.7786 26.9876 14.7381 27.1133 14.7381 27.2539C14.7339 27.3711 14.7584 27.4734 14.8117 27.5607C14.8671 27.6481 14.9427 27.7237 15.0386 27.7876C15.1345 27.8494 15.2453 27.9038 15.371 27.9506C15.4967 27.9954 15.6309 28.0337 15.7737 28.0657L16.3617 28.2063C16.6472 28.2702 16.9093 28.3555 17.1479 28.462C17.3866 28.5685 17.5933 28.6996 17.768 28.8551C17.9427 29.0107 18.078 29.1939 18.1739 29.4048C18.2719 29.6158 18.322 29.8576 18.3241 30.1303C18.322 30.5309 18.2197 30.8782 18.0173 31.1722C17.817 31.4641 17.5272 31.6911 17.1479 31.853C16.7708 32.0128 16.3159 32.0927 15.7832 32.0927C15.2548 32.0927 14.7946 32.0117 14.4026 31.8498C14.0127 31.6879 13.708 31.4482 13.4885 31.1307C13.2712 30.8111 13.1572 30.4158 13.1465 29.945H14.4857C14.5006 30.1644 14.5634 30.3477 14.6742 30.4947C14.7872 30.6396 14.9374 30.7493 15.1249 30.8239C15.3145 30.8963 15.5286 30.9325 15.7673 30.9325C16.0016 30.9325 16.2051 30.8984 16.3777 30.8303C16.5524 30.7621 16.6877 30.6673 16.7836 30.5458C16.8795 30.4244 16.9274 30.2848 16.9274 30.1271C16.9274 29.9801 16.8837 29.8565 16.7964 29.7564C16.7112 29.6562 16.5854 29.571 16.4193 29.5007C16.2552 29.4304 16.0538 29.3665 15.8152 29.3089L15.1025 29.13C14.5506 28.9957 14.1149 28.7859 13.7953 28.5004C13.4757 28.2148 13.317 27.8303 13.3191 27.3466C13.317 26.9503 13.4225 26.604 13.6355 26.3079C13.8507 26.0117 14.1458 25.7805 14.5208 25.6143C14.8958 25.4482 15.322 25.3651 15.7992 25.3651C16.285 25.3651 16.709 25.4482 17.0712 25.6143C17.4356 25.7805 17.719 26.0117 17.9214 26.3079C18.1238 26.604 18.2282 26.9471 18.2346 27.337H16.9082ZM25.2698 28.7273C25.2698 29.4411 25.1345 30.0483 24.8639 30.549C24.5955 31.0497 24.229 31.4322 23.7645 31.6964C23.3022 31.9585 22.7823 32.0895 22.2049 32.0895C21.6232 32.0895 21.1012 31.9574 20.6388 31.6932C20.1764 31.429 19.811 31.0465 19.5426 30.5458C19.2741 30.0451 19.1399 29.4389 19.1399 28.7273C19.1399 28.0135 19.2741 27.4062 19.5426 26.9055C19.811 26.4048 20.1764 26.0234 20.6388 25.7614C21.1012 25.4972 21.6232 25.3651 22.2049 25.3651C22.7823 25.3651 23.3022 25.4972 23.7645 25.7614C24.229 26.0234 24.5955 26.4048 24.8639 26.9055C25.1345 27.4062 25.2698 28.0135 25.2698 28.7273ZM23.8668 28.7273C23.8668 28.2649 23.7975 27.875 23.659 27.5575C23.5227 27.2401 23.3299 26.9993 23.0806 26.8352C22.8313 26.6712 22.5394 26.5891 22.2049 26.5891C21.8703 26.5891 21.5784 26.6712 21.3291 26.8352C21.0799 26.9993 20.886 27.2401 20.7475 27.5575C20.6111 27.875 20.5429 28.2649 20.5429 28.7273C20.5429 29.1896 20.6111 29.5795 20.7475 29.897C20.886 30.2145 21.0799 30.4553 21.3291 30.6193C21.5784 30.7834 21.8703 30.8654 22.2049 30.8654C22.5394 30.8654 22.8313 30.7834 23.0806 30.6193C23.3299 30.4553 23.5227 30.2145 23.659 29.897C23.7975 29.5795 23.8668 29.1896 23.8668 28.7273ZM31.7698 25.4545V32H30.5744L27.7268 27.8803H27.6788V32H26.295V25.4545H27.5095L30.3347 29.571H30.3923V25.4545H31.7698Z" fill="white"/>
</svg>
