<svg width="40" height="40" viewBox="0 0 40 40" fill="none" xmlns="http://www.w3.org/2000/svg">
<path d="M4 4C4 1.79086 5.79086 0 8 0H24L36 12V36C36 38.2091 34.2091 40 32 40H8C5.79086 40 4 38.2091 4 36V4Z" fill="url(#paint0_linear_10530_98323)"/>
<path d="M24 0L36 12H28C25.7909 12 24 10.2091 24 8V0Z" fill="#EAECF0"/>
<path d="M9.98247 25.4545H11.6891L13.4917 29.8523H13.5684L15.371 25.4545H17.0776V32H15.7353V27.7397H15.681L13.9871 31.968H13.073L11.3791 27.7237H11.3248V32H9.98247V25.4545ZM18.2178 32V25.4545H19.6017V28.3406H19.688L22.0435 25.4545H23.7022L21.2732 28.3853L23.731 32H22.0754L20.2824 29.3089L19.6017 30.1399V32H18.2178ZM25.6054 25.4545L27.1875 30.4276H27.2482L28.8334 25.4545H30.3675L28.1111 32H26.3277L24.0681 25.4545H25.6054Z" fill="#424D57"/>
<defs>
<linearGradient id="paint0_linear_10530_98323" x1="20" y1="0" x2="20" y2="40" gradientUnits="userSpaceOnUse">
<stop stop-color="#F9FAFB"/>
<stop offset="1" stop-color="#EDF0F3"/>
</linearGradient>
</defs>
</svg>
