<svg width="40" height="40" viewBox="0 0 40 40" fill="none" xmlns="http://www.w3.org/2000/svg">
<path d="M4 4C4 1.79086 5.79086 0 8 0H24L36 12V36C36 38.2091 34.2091 40 32 40H8C5.79086 40 4 38.2091 4 36V4Z" fill="#DD2590"/>
<path opacity="0.3" d="M24 0L36 12H28C25.7909 12 24 10.2091 24 8V0Z" fill="white"/>
<path d="M10.5713 25.4545H12.278L14.0806 29.8523H14.1573L15.9598 25.4545H17.6665V32H16.3242V27.7397H16.2698L14.576 31.968H13.6619L11.968 27.7237H11.9137V32H10.5713V25.4545ZM18.8067 32V25.4545H21.3891C21.8855 25.4545 22.3085 25.5494 22.6579 25.739C23.0073 25.9265 23.2737 26.1875 23.4569 26.522C23.6423 26.8544 23.735 27.2379 23.735 27.6726C23.735 28.1072 23.6412 28.4908 23.4537 28.8232C23.2662 29.1555 22.9945 29.4144 22.6387 29.5998C22.285 29.7852 21.8568 29.8778 21.3539 29.8778H19.708V28.7688H21.1302C21.3965 28.7688 21.616 28.723 21.7886 28.6314C21.9633 28.5376 22.0933 28.4087 22.1785 28.2447C22.2658 28.0785 22.3095 27.8878 22.3095 27.6726C22.3095 27.4553 22.2658 27.2656 22.1785 27.1037C22.0933 26.9396 21.9633 26.8129 21.7886 26.7234C21.6139 26.6317 21.3923 26.5859 21.1238 26.5859H20.1906V32H18.8067ZM27.0149 32.0895C26.5376 32.0895 26.1125 32.0075 25.7397 31.8434C25.3689 31.6772 25.0759 31.4492 24.8608 31.1594C24.6477 30.8675 24.538 30.5309 24.5316 30.1495H25.925C25.9335 30.3093 25.9858 30.4499 26.0816 30.5714C26.1796 30.6907 26.3096 30.7834 26.4715 30.8494C26.6335 30.9155 26.8157 30.9485 27.0181 30.9485C27.229 30.9485 27.4154 30.9112 27.5774 30.8366C27.7393 30.7621 27.8661 30.6587 27.9577 30.5266C28.0493 30.3945 28.0951 30.2422 28.0951 30.0696C28.0951 29.8949 28.0461 29.7404 27.9481 29.6062C27.8522 29.4698 27.7137 29.3633 27.5326 29.2866C27.3536 29.2099 27.1406 29.1715 26.8934 29.1715H26.283V28.1552H26.8934C27.1022 28.1552 27.2865 28.119 27.4463 28.0465C27.6083 27.9741 27.734 27.8739 27.8235 27.7461C27.913 27.6161 27.9577 27.4648 27.9577 27.2923C27.9577 27.1282 27.9183 26.9844 27.8394 26.8608C27.7627 26.7351 27.6541 26.6371 27.5135 26.5668C27.375 26.4964 27.213 26.4613 27.0277 26.4613C26.8402 26.4613 26.6686 26.4954 26.5131 26.5636C26.3576 26.6296 26.2329 26.7244 26.1392 26.848C26.0454 26.9716 25.9953 27.1165 25.9889 27.2827H24.6626C24.669 26.9055 24.7766 26.5732 24.9854 26.2855C25.1942 25.9979 25.4755 25.7731 25.8291 25.6112C26.185 25.4471 26.5866 25.3651 27.034 25.3651C27.4858 25.3651 27.881 25.4471 28.2198 25.6112C28.5585 25.7752 28.8217 25.9968 29.0092 26.2759C29.1988 26.5529 29.2926 26.864 29.2904 27.2092C29.2926 27.5756 29.1786 27.8814 28.9485 28.1264C28.7205 28.3714 28.4233 28.527 28.0568 28.593V28.6442C28.5383 28.706 28.9048 28.8732 29.1562 29.146C29.4098 29.4165 29.5355 29.7553 29.5333 30.1623C29.5355 30.5352 29.4279 30.8665 29.2105 31.1562C28.9953 31.446 28.6981 31.674 28.3188 31.8402C27.9396 32.0064 27.5049 32.0895 27.0149 32.0895Z" fill="white"/>
</svg>
