<svg width="40" height="40" viewBox="0 0 40 40" fill="none" xmlns="http://www.w3.org/2000/svg">
<path d="M4 4C4 1.79086 5.79086 0 8 0H24L36 12V36C36 38.2091 34.2091 40 32 40H8C5.79086 40 4 38.2091 4 36V4Z" fill="url(#paint0_linear_10530_98339)"/>
<path d="M24 0L36 12H28C25.7909 12 24 10.2091 24 8V0Z" fill="#EAECF0"/>
<path d="M7.35893 25.4545H9.06561L10.8682 29.8523H10.9449L12.7474 25.4545H14.4541V32H13.1118V27.7397H13.0574L11.3635 31.968H10.4495L8.75559 27.7237H8.70126V32H7.35893V25.4545ZM15.5943 32V25.4545H18.1767C18.6731 25.4545 19.0961 25.5494 19.4455 25.739C19.7949 25.9265 20.0613 26.1875 20.2445 26.522C20.4299 26.8544 20.5226 27.2379 20.5226 27.6726C20.5226 28.1072 20.4288 28.4908 20.2413 28.8232C20.0538 29.1555 19.7821 29.4144 19.4263 29.5998C19.0726 29.7852 18.6444 29.8778 18.1415 29.8778H16.4956V28.7688H17.9178C18.1841 28.7688 18.4036 28.723 18.5762 28.6314C18.7509 28.5376 18.8809 28.4087 18.9661 28.2447C19.0534 28.0785 19.0971 27.8878 19.0971 27.6726C19.0971 27.4553 19.0534 27.2656 18.9661 27.1037C18.8809 26.9396 18.7509 26.8129 18.5762 26.7234C18.4015 26.6317 18.1799 26.5859 17.9114 26.5859H16.9782V32H15.5943ZM21.4214 32V25.4545H25.8319V26.5955H22.8053V28.1552H25.605V29.2962H22.8053V30.859H25.8447V32H21.4214ZM31.2724 27.5703C31.2276 27.4148 31.1648 27.2773 31.0838 27.158C31.0028 27.0366 30.9038 26.9343 30.7866 26.8512C30.6715 26.766 30.5394 26.701 30.3903 26.6562C30.2433 26.6115 30.0803 26.5891 29.9013 26.5891C29.5668 26.5891 29.2727 26.6722 29.0192 26.8384C28.7678 27.0046 28.5717 27.2464 28.4311 27.5639C28.2905 27.8793 28.2202 28.2649 28.2202 28.7209C28.2202 29.1768 28.2894 29.5646 28.4279 29.8842C28.5664 30.2038 28.7624 30.4478 29.016 30.6161C29.2695 30.7823 29.5689 30.8654 29.9141 30.8654C30.2273 30.8654 30.4947 30.81 30.7163 30.6992C30.94 30.5863 31.1104 30.4276 31.2276 30.223C31.3469 30.0185 31.4066 29.7766 31.4066 29.4975L31.6879 29.5391H30.0004V28.4972H32.7393V29.3217C32.7393 29.897 32.6179 30.3913 32.375 30.8047C32.1321 31.2159 31.7976 31.5334 31.3714 31.7571C30.9453 31.9787 30.4574 32.0895 29.9077 32.0895C29.294 32.0895 28.755 31.9542 28.2905 31.6836C27.826 31.4109 27.4638 31.0241 27.2038 30.5234C26.946 30.0206 26.8171 29.424 26.8171 28.7337C26.8171 28.2031 26.8938 27.7301 27.0472 27.3146C27.2028 26.897 27.4201 26.5433 27.6992 26.2536C27.9783 25.9638 28.3033 25.7433 28.674 25.592C29.0447 25.4407 29.4464 25.3651 29.8789 25.3651C30.2496 25.3651 30.5948 25.4194 30.9144 25.5281C31.234 25.6346 31.5174 25.7859 31.7646 25.9819C32.0138 26.1779 32.2173 26.4112 32.375 26.6818C32.5327 26.9503 32.6339 27.2464 32.6786 27.5703H31.2724Z" fill="#424D57"/>
<defs>
<linearGradient id="paint0_linear_10530_98339" x1="20" y1="0" x2="20" y2="40" gradientUnits="userSpaceOnUse">
<stop stop-color="#F9FAFB"/>
<stop offset="1" stop-color="#EDF0F3"/>
</linearGradient>
</defs>
</svg>
