<svg width="40" height="40" viewBox="0 0 40 40" fill="none" xmlns="http://www.w3.org/2000/svg">
<path d="M4 4C4 1.79086 5.79086 0 8 0H24L36 12V36C36 38.2091 34.2091 40 32 40H8C5.79086 40 4 38.2091 4 36V4Z" fill="#E31617"/>
<path opacity="0.3" d="M24 0L36 12H28C25.7909 12 24 10.2091 24 8V0Z" fill="white"/>
<path d="M25.0745 25.1947C24.0764 25.1947 22.8274 25.3688 22.4187 25.43C20.7274 23.6638 20.2462 22.6599 20.138 22.3922C20.2847 22.0154 20.795 20.5837 20.8676 18.7449C20.9033 17.8243 20.7089 17.1364 20.2894 16.7003C19.8707 16.265 19.3638 16.2311 19.2185 16.2311C18.7089 16.2311 17.8539 16.4888 17.8539 18.2145C17.8539 19.7119 18.5521 21.3007 18.745 21.7113C17.7283 24.6717 16.6367 26.6983 16.405 27.115C12.3195 28.6533 12 30.1405 12 30.562C12 31.3195 12.5395 31.7718 13.443 31.7718C15.6384 31.7718 17.6418 28.086 17.9731 27.446C19.5323 26.8247 21.6192 26.4399 22.1497 26.3481C23.6715 27.7977 25.4314 28.1845 26.1623 28.1845C26.7122 28.1845 27.9999 28.1845 27.9999 26.8604C28 25.6309 26.4241 25.1947 25.0745 25.1947ZM24.9687 26.0639C26.1545 26.0639 26.4679 26.456 26.4679 26.6634C26.4679 26.7935 26.4185 27.218 25.7829 27.218C25.213 27.218 24.2289 26.8886 23.2607 26.1739C23.6645 26.1208 24.2619 26.0639 24.9687 26.0639ZM19.1562 17.0736C19.2644 17.0736 19.3355 17.1084 19.3942 17.1898C19.7353 17.663 19.4603 19.2093 19.1256 20.4194C18.8025 19.3818 18.56 17.7898 18.9012 17.2297C18.9678 17.1203 19.0441 17.0736 19.1562 17.0736ZM18.5803 26.3357C19.0097 25.4684 19.4908 24.2044 19.7529 23.4895C20.2774 24.3674 20.9829 25.1825 21.3909 25.6244C20.1205 25.8922 19.1594 26.1598 18.5803 26.3357ZM12.8528 30.6778C12.8245 30.6442 12.8203 30.5735 12.8417 30.4886C12.8863 30.3107 13.2279 29.4288 15.6985 28.3237C15.3447 28.8809 14.7917 29.677 14.1842 30.2718C13.7565 30.6721 13.4235 30.8751 13.1944 30.8751C13.1124 30.8751 12.9995 30.8528 12.8528 30.6778Z" fill="white"/>
</svg>
