<svg width="40" height="40" viewBox="0 0 40 40" fill="none" xmlns="http://www.w3.org/2000/svg">
<path d="M4 4C4 1.79086 5.79086 0 8 0H24L36 12V36C36 38.2091 34.2091 40 32 40H8C5.79086 40 4 38.2091 4 36V4Z" fill="url(#paint0_linear_10530_97765)"/>
<path d="M24 0L36 12H28C25.7909 12 24 10.2091 24 8V0Z" fill="#EAECF0"/>
<path d="M10.9229 32V25.4545H13.5053C14.0017 25.4545 14.4247 25.5494 14.7741 25.739C15.1235 25.9265 15.3899 26.1875 15.5731 26.522C15.7585 26.8544 15.8512 27.2379 15.8512 27.6726C15.8512 28.1072 15.7574 28.4908 15.5699 28.8232C15.3824 29.1555 15.1108 29.4144 14.7549 29.5998C14.4012 29.7852 13.973 29.8778 13.4701 29.8778H11.8242V28.7688H13.2464C13.5127 28.7688 13.7322 28.723 13.9048 28.6314C14.0795 28.5376 14.2095 28.4087 14.2947 28.2447C14.3821 28.0785 14.4257 27.8878 14.4257 27.6726C14.4257 27.4553 14.3821 27.2656 14.2947 27.1037C14.2095 26.9396 14.0795 26.8129 13.9048 26.7234C13.7301 26.6317 13.5085 26.5859 13.24 26.5859H12.3068V32H10.9229ZM22.2248 25.4545V32H21.0295L18.1819 27.8803H18.1339V32H16.75V25.4545H17.9645L20.7898 29.571H20.8473V25.4545H22.2248ZM27.7084 27.5703C27.6637 27.4148 27.6008 27.2773 27.5198 27.158C27.4389 27.0366 27.3398 26.9343 27.2226 26.8512C27.1076 26.766 26.9755 26.701 26.8263 26.6562C26.6793 26.6115 26.5163 26.5891 26.3373 26.5891C26.0028 26.5891 25.7088 26.6722 25.4552 26.8384C25.2038 27.0046 25.0078 27.2464 24.8671 27.5639C24.7265 27.8793 24.6562 28.2649 24.6562 28.7209C24.6562 29.1768 24.7255 29.5646 24.8639 29.8842C25.0024 30.2038 25.1985 30.4478 25.452 30.6161C25.7056 30.7823 26.0049 30.8654 26.3501 30.8654C26.6633 30.8654 26.9307 30.81 27.1523 30.6992C27.376 30.5863 27.5465 30.4276 27.6637 30.223C27.783 30.0185 27.8426 29.7766 27.8426 29.4975L28.1239 29.5391H26.4364V28.4972H29.1754V29.3217C29.1754 29.897 29.0539 30.3913 28.811 30.8047C28.5681 31.2159 28.2336 31.5334 27.8075 31.7571C27.3813 31.9787 26.8934 32.0895 26.3437 32.0895C25.7301 32.0895 25.191 31.9542 24.7265 31.6836C24.262 31.4109 23.8998 31.0241 23.6399 30.5234C23.3821 30.0206 23.2532 29.424 23.2532 28.7337C23.2532 28.2031 23.3299 27.7301 23.4833 27.3146C23.6388 26.897 23.8561 26.5433 24.1353 26.2536C24.4144 25.9638 24.7393 25.7433 25.11 25.592C25.4808 25.4407 25.8824 25.3651 26.3149 25.3651C26.6857 25.3651 27.0309 25.4194 27.3505 25.5281C27.6701 25.6346 27.9534 25.7859 28.2006 25.9819C28.4499 26.1779 28.6534 26.4112 28.811 26.6818C28.9687 26.9503 29.0699 27.2464 29.1147 27.5703H27.7084Z" fill="#424D57"/>
<defs>
<linearGradient id="paint0_linear_10530_97765" x1="20" y1="0" x2="20" y2="40" gradientUnits="userSpaceOnUse">
<stop stop-color="#F9FAFB"/>
<stop offset="1" stop-color="#EDF0F3"/>
</linearGradient>
</defs>
</svg>
