<svg width="40" height="40" viewBox="0 0 40 40" fill="none" xmlns="http://www.w3.org/2000/svg">
<path d="M4 4C4 1.79086 5.79086 0 8 0H24L36 12V36C36 38.2091 34.2091 40 32 40H8C5.79086 40 4 38.2091 4 36V4Z" fill="url(#paint0_linear_10530_98211)"/>
<path d="M24 0L36 12H28C25.7909 12 24 10.2091 24 8V0Z" fill="#EAECF0"/>
<path d="M11.4327 32V25.4545H14.015C14.5115 25.4545 14.9344 25.5494 15.2839 25.739C15.6333 25.9265 15.8996 26.1875 16.0829 26.522C16.2682 26.8544 16.3609 27.2379 16.3609 27.6726C16.3609 28.1072 16.2672 28.4908 16.0797 28.8232C15.8922 29.1555 15.6205 29.4144 15.2647 29.5998C14.911 29.7852 14.4827 29.8778 13.9799 29.8778H12.3339V28.7688H13.7562C14.0225 28.7688 14.242 28.723 14.4146 28.6314C14.5893 28.5376 14.7192 28.4087 14.8045 28.2447C14.8918 28.0785 14.9355 27.8878 14.9355 27.6726C14.9355 27.4553 14.8918 27.2656 14.8045 27.1037C14.7192 26.9396 14.5893 26.8129 14.4146 26.7234C14.2398 26.6317 14.0182 26.5859 13.7498 26.5859H12.8165V32H11.4327ZM20.8106 27.337C20.785 27.0792 20.6753 26.8789 20.4814 26.7362C20.2875 26.5934 20.0244 26.522 19.692 26.522C19.4661 26.522 19.2754 26.554 19.1199 26.6179C18.9644 26.6797 18.845 26.766 18.7619 26.8768C18.681 26.9876 18.6405 27.1133 18.6405 27.2539C18.6362 27.3711 18.6607 27.4734 18.714 27.5607C18.7694 27.6481 18.845 27.7237 18.9409 27.7876C19.0368 27.8494 19.1476 27.9038 19.2733 27.9506C19.399 27.9954 19.5332 28.0337 19.676 28.0657L20.2641 28.2063C20.5496 28.2702 20.8117 28.3555 21.0503 28.462C21.2889 28.5685 21.4956 28.6996 21.6703 28.8551C21.845 29.0107 21.9803 29.1939 22.0762 29.4048C22.1742 29.6158 22.2243 29.8576 22.2264 30.1303C22.2243 30.5309 22.122 30.8782 21.9196 31.1722C21.7193 31.4641 21.4296 31.6911 21.0503 31.853C20.6732 32.0128 20.2183 32.0927 19.6856 32.0927C19.1572 32.0927 18.697 32.0117 18.3049 31.8498C17.915 31.6879 17.6103 31.4482 17.3908 31.1307C17.1735 30.8111 17.0595 30.4158 17.0489 29.945H18.388C18.4029 30.1644 18.4658 30.3477 18.5766 30.4947C18.6895 30.6396 18.8397 30.7493 19.0272 30.8239C19.2168 30.8963 19.431 30.9325 19.6696 30.9325C19.904 30.9325 20.1075 30.8984 20.2801 30.8303C20.4548 30.7621 20.5901 30.6673 20.6859 30.5458C20.7818 30.4244 20.8298 30.2848 20.8298 30.1271C20.8298 29.9801 20.7861 29.8565 20.6987 29.7564C20.6135 29.6562 20.4878 29.571 20.3216 29.5007C20.1575 29.4304 19.9562 29.3665 19.7176 29.3089L19.0048 29.13C18.453 28.9957 18.0173 28.7859 17.6977 28.5004C17.3781 28.2148 17.2193 27.8303 17.2215 27.3466C17.2193 26.9503 17.3248 26.604 17.5379 26.3079C17.7531 26.0117 18.0482 25.7805 18.4232 25.6143C18.7982 25.4482 19.2243 25.3651 19.7016 25.3651C20.1874 25.3651 20.6114 25.4482 20.9736 25.6143C21.3379 25.7805 21.6213 26.0117 21.8237 26.3079C22.0261 26.604 22.1305 26.9471 22.1369 27.337H20.8106ZM25.4776 32H23.1573V25.4545H25.4968C26.1551 25.4545 26.7219 25.5856 27.197 25.8477C27.6722 26.1076 28.0376 26.4815 28.2933 26.9695C28.5511 27.4574 28.68 28.0412 28.68 28.7209C28.68 29.4027 28.5511 29.9886 28.2933 30.4787C28.0376 30.9687 27.6701 31.3448 27.1907 31.6069C26.7134 31.869 26.1424 32 25.4776 32ZM24.5411 30.8143H25.4201C25.8291 30.8143 26.1733 30.7418 26.4524 30.5969C26.7336 30.4499 26.9446 30.223 27.0852 29.9162C27.2279 29.6072 27.2993 29.2088 27.2993 28.7209C27.2993 28.2372 27.2279 27.842 27.0852 27.5352C26.9446 27.2283 26.7347 27.0025 26.4556 26.8576C26.1764 26.7127 25.8323 26.6403 25.4233 26.6403H24.5411V30.8143Z" fill="#424D57"/>
<defs>
<linearGradient id="paint0_linear_10530_98211" x1="20" y1="0" x2="20" y2="40" gradientUnits="userSpaceOnUse">
<stop stop-color="#F9FAFB"/>
<stop offset="1" stop-color="#EDF0F3"/>
</linearGradient>
</defs>
</svg>
