<svg width="40" height="40" viewBox="0 0 40 40" fill="none" xmlns="http://www.w3.org/2000/svg">
<path d="M4 4C4 1.79086 5.79086 0 8 0H24L36 12V36C36 38.2091 34.2091 40 32 40H8C5.79086 40 4 38.2091 4 36V4Z" fill="url(#paint0_linear_10530_98419)"/>
<path d="M24 0L36 12H28C25.7909 12 24 10.2091 24 8V0Z" fill="#EAECF0"/>
<path d="M11.7183 32V25.4545H14.3007C14.795 25.4545 15.2169 25.543 15.5663 25.7198C15.9179 25.8945 16.1853 26.1428 16.3685 26.4645C16.5539 26.7841 16.6466 27.1602 16.6466 27.5927C16.6466 28.0273 16.5528 28.4013 16.3653 28.7145C16.1778 29.0256 15.9062 29.2642 15.5503 29.4304C15.1966 29.5966 14.7684 29.6797 14.2655 29.6797H12.5365V28.5675H14.0418C14.306 28.5675 14.5255 28.5312 14.7002 28.4588C14.8749 28.3864 15.0049 28.2777 15.0901 28.1328C15.1775 27.9879 15.2211 27.8079 15.2211 27.5927C15.2211 27.3754 15.1775 27.1921 15.0901 27.043C15.0049 26.8938 14.8738 26.7809 14.697 26.7042C14.5223 26.6254 14.3018 26.5859 14.0354 26.5859H13.1022V32H11.7183ZM15.2531 29.0213L16.8799 32H15.3522L13.7606 29.0213H15.2531ZM21.1753 27.337C21.1498 27.0792 21.04 26.8789 20.8461 26.7362C20.6523 26.5934 20.3891 26.522 20.0567 26.522C19.8309 26.522 19.6402 26.554 19.4846 26.6179C19.3291 26.6797 19.2098 26.766 19.1267 26.8768C19.0457 26.9876 19.0052 27.1133 19.0052 27.2539C19.001 27.3711 19.0255 27.4734 19.0787 27.5607C19.1341 27.6481 19.2098 27.7237 19.3057 27.7876C19.4015 27.8494 19.5123 27.9038 19.6381 27.9506C19.7638 27.9954 19.898 28.0337 20.0407 28.0657L20.6288 28.2063C20.9143 28.2702 21.1764 28.3555 21.415 28.462C21.6537 28.5685 21.8604 28.6996 22.0351 28.8551C22.2098 29.0107 22.3451 29.1939 22.441 29.4048C22.539 29.6158 22.589 29.8576 22.5912 30.1303C22.589 30.5309 22.4868 30.8782 22.2844 31.1722C22.0841 31.4641 21.7943 31.6911 21.415 31.853C21.0379 32.0128 20.583 32.0927 20.0503 32.0927C19.5219 32.0927 19.0617 32.0117 18.6697 31.8498C18.2797 31.6879 17.9751 31.4482 17.7556 31.1307C17.5383 30.8111 17.4243 30.4158 17.4136 29.945H18.7528C18.7677 30.1644 18.8305 30.3477 18.9413 30.4947C19.0542 30.6396 19.2045 30.7493 19.392 30.8239C19.5816 30.8963 19.7957 30.9325 20.0344 30.9325C20.2687 30.9325 20.4722 30.8984 20.6448 30.8303C20.8195 30.7621 20.9548 30.6673 21.0507 30.5458C21.1466 30.4244 21.1945 30.2848 21.1945 30.1271C21.1945 29.9801 21.1508 29.8565 21.0635 29.7564C20.9782 29.6562 20.8525 29.571 20.6863 29.5007C20.5223 29.4304 20.3209 29.3665 20.0823 29.3089L19.3696 29.13C18.8177 28.9957 18.382 28.7859 18.0624 28.5004C17.7428 28.2148 17.5841 27.8303 17.5862 27.3466C17.5841 26.9503 17.6895 26.604 17.9026 26.3079C18.1178 26.0117 18.4129 25.7805 18.7879 25.6143C19.1629 25.4482 19.589 25.3651 20.0663 25.3651C20.5521 25.3651 20.9761 25.4482 21.3383 25.6143C21.7027 25.7805 21.9861 26.0117 22.1885 26.3079C22.3909 26.604 22.4953 26.9471 22.5017 27.337H21.1753ZM27.0728 27.337C27.0472 27.0792 26.9375 26.8789 26.7436 26.7362C26.5497 26.5934 26.2866 26.522 25.9542 26.522C25.7283 26.522 25.5376 26.554 25.3821 26.6179C25.2266 26.6797 25.1072 26.766 25.0241 26.8768C24.9432 26.9876 24.9027 27.1133 24.9027 27.2539C24.8984 27.3711 24.9229 27.4734 24.9762 27.5607C25.0316 27.6481 25.1072 27.7237 25.2031 27.7876C25.299 27.8494 25.4098 27.9038 25.5355 27.9506C25.6612 27.9954 25.7955 28.0337 25.9382 28.0657L26.5263 28.2063C26.8118 28.2702 27.0739 28.3555 27.3125 28.462C27.5511 28.5685 27.7578 28.6996 27.9325 28.8551C28.1072 29.0107 28.2425 29.1939 28.3384 29.4048C28.4364 29.6158 28.4865 29.8576 28.4886 30.1303C28.4865 30.5309 28.3842 30.8782 28.1818 31.1722C27.9815 31.4641 27.6918 31.6911 27.3125 31.853C26.9354 32.0128 26.4805 32.0927 25.9478 32.0927C25.4194 32.0927 24.9592 32.0117 24.5671 31.8498C24.1772 31.6879 23.8725 31.4482 23.6531 31.1307C23.4357 30.8111 23.3217 30.4158 23.3111 29.945H24.6502C24.6651 30.1644 24.728 30.3477 24.8388 30.4947C24.9517 30.6396 25.1019 30.7493 25.2894 30.8239C25.479 30.8963 25.6932 30.9325 25.9318 30.9325C26.1662 30.9325 26.3697 30.8984 26.5423 30.8303C26.717 30.7621 26.8523 30.6673 26.9482 30.5458C27.044 30.4244 27.092 30.2848 27.092 30.1271C27.092 29.9801 27.0483 29.8565 26.9609 29.7564C26.8757 29.6562 26.75 29.571 26.5838 29.5007C26.4197 29.4304 26.2184 29.3665 25.9798 29.3089L25.267 29.13C24.7152 28.9957 24.2795 28.7859 23.9599 28.5004C23.6403 28.2148 23.4815 27.8303 23.4837 27.3466C23.4815 26.9503 23.587 26.604 23.8001 26.3079C24.0153 26.0117 24.3104 25.7805 24.6854 25.6143C25.0604 25.4482 25.4865 25.3651 25.9638 25.3651C26.4496 25.3651 26.8736 25.4482 27.2358 25.6143C27.6001 25.7805 27.8835 26.0117 28.0859 26.3079C28.2884 26.604 28.3928 26.9471 28.3991 27.337H27.0728Z" fill="#424D57"/>
<defs>
<linearGradient id="paint0_linear_10530_98419" x1="20" y1="0" x2="20" y2="40" gradientUnits="userSpaceOnUse">
<stop stop-color="#F9FAFB"/>
<stop offset="1" stop-color="#EDF0F3"/>
</linearGradient>
</defs>
</svg>
