<svg width="40" height="40" viewBox="0 0 40 40" fill="none" xmlns="http://www.w3.org/2000/svg">
<path d="M4 4C4 1.79086 5.79086 0 8 0H24L36 12V36C36 38.2091 34.2091 40 32 40H8C5.79086 40 4 38.2091 4 36V4Z" fill="#159A00"/>
<path opacity="0.3" d="M24 0L36 12H28C25.7909 12 24 10.2091 24 8V0Z" fill="white"/>
<path d="M12.8 24.8H27.2M12.8 24.8V21.6C12.8 20.7163 13.5163 20 14.4 20H17.6M12.8 24.8V28C12.8 28.8837 13.5163 29.6 14.4 29.6H17.6M27.2 24.8V28C27.2 28.8837 26.4836 29.6 25.6 29.6H17.6M27.2 24.8V21.6C27.2 20.7163 26.4836 20 25.6 20H17.6M17.6 20V29.6" stroke="white" stroke-width="1.5" stroke-linecap="round" stroke-linejoin="round"/>
</svg>
