<svg width="40" height="40" viewBox="0 0 40 40" fill="none" xmlns="http://www.w3.org/2000/svg">
<path d="M4 4C4 1.79086 5.79086 0 8 0H24L36 12V36C36 38.2091 34.2091 40 32 40H8C5.79086 40 4 38.2091 4 36V4Z" fill="url(#paint0_linear_10530_97829)"/>
<path d="M24 0L36 12H28C25.7909 12 24 10.2091 24 8V0Z" fill="#EAECF0"/>
<path d="M14.566 27.337C14.5404 27.0792 14.4307 26.8789 14.2368 26.7362C14.0429 26.5934 13.7797 26.522 13.4474 26.522C13.2215 26.522 13.0308 26.554 12.8753 26.6179C12.7197 26.6797 12.6004 26.766 12.5173 26.8768C12.4363 26.9876 12.3959 27.1133 12.3959 27.2539C12.3916 27.3711 12.4161 27.4734 12.4694 27.5607C12.5248 27.6481 12.6004 27.7237 12.6963 27.7876C12.7922 27.8494 12.903 27.9038 13.0287 27.9506C13.1544 27.9954 13.2886 28.0337 13.4314 28.0657L14.0194 28.2063C14.305 28.2702 14.567 28.3555 14.8057 28.462C15.0443 28.5685 15.251 28.6996 15.4257 28.8551C15.6004 29.0107 15.7357 29.1939 15.8316 29.4048C15.9296 29.6158 15.9797 29.8576 15.9818 30.1303C15.9797 30.5309 15.8774 30.8782 15.675 31.1722C15.4747 31.4641 15.1849 31.6911 14.8057 31.853C14.4285 32.0128 13.9736 32.0927 13.441 32.0927C12.9126 32.0927 12.4523 32.0117 12.0603 31.8498C11.6704 31.6879 11.3657 31.4482 11.1462 31.1307C10.9289 30.8111 10.8149 30.4158 10.8042 29.945H12.1434C12.1583 30.1644 12.2211 30.3477 12.3319 30.4947C12.4449 30.6396 12.5951 30.7493 12.7826 30.8239C12.9722 30.8963 13.1863 30.9325 13.425 30.9325C13.6594 30.9325 13.8628 30.8984 14.0354 30.8303C14.2101 30.7621 14.3454 30.6673 14.4413 30.5458C14.5372 30.4244 14.5851 30.2848 14.5851 30.1271C14.5851 29.9801 14.5415 29.8565 14.4541 29.7564C14.3689 29.6562 14.2432 29.571 14.077 29.5007C13.9129 29.4304 13.7116 29.3665 13.4729 29.3089L12.7602 29.13C12.2084 28.9957 11.7726 28.7859 11.453 28.5004C11.1334 28.2148 10.9747 27.8303 10.9768 27.3466C10.9747 26.9503 11.0802 26.604 11.2932 26.3079C11.5084 26.0117 11.8035 25.7805 12.1785 25.6143C12.5535 25.4482 12.9797 25.3651 13.4569 25.3651C13.9427 25.3651 14.3667 25.4482 14.729 25.6143C15.0933 25.7805 15.3767 26.0117 15.5791 26.3079C15.7815 26.604 15.8859 26.9471 15.8923 27.337H14.566ZM18.0952 25.4545L19.6772 30.4276H19.7379L21.3232 25.4545H22.8572L20.6009 32H18.8175L16.5579 25.4545H18.0952ZM27.6161 27.5703C27.5714 27.4148 27.5085 27.2773 27.4276 27.158C27.3466 27.0366 27.2475 26.9343 27.1303 26.8512C27.0153 26.766 26.8832 26.701 26.734 26.6562C26.587 26.6115 26.424 26.5891 26.245 26.5891C25.9105 26.5891 25.6165 26.6722 25.3629 26.8384C25.1115 27.0046 24.9155 27.2464 24.7749 27.5639C24.6342 27.8793 24.5639 28.2649 24.5639 28.7209C24.5639 29.1768 24.6332 29.5646 24.7717 29.8842C24.9102 30.2038 25.1062 30.4478 25.3597 30.6161C25.6133 30.7823 25.9126 30.8654 26.2578 30.8654C26.571 30.8654 26.8384 30.81 27.06 30.6992C27.2837 30.5863 27.4542 30.4276 27.5714 30.223C27.6907 30.0185 27.7504 29.7766 27.7504 29.4975L28.0316 29.5391H26.3441V28.4972H29.0831V29.3217C29.0831 29.897 28.9616 30.3913 28.7188 30.8047C28.4759 31.2159 28.1413 31.5334 27.7152 31.7571C27.2891 31.9787 26.8011 32.0895 26.2514 32.0895C25.6378 32.0895 25.0987 31.9542 24.6342 31.6836C24.1697 31.4109 23.8075 31.0241 23.5476 30.5234C23.2898 30.0206 23.1609 29.424 23.1609 28.7337C23.1609 28.2031 23.2376 27.7301 23.391 27.3146C23.5465 26.897 23.7638 26.5433 24.043 26.2536C24.3221 25.9638 24.647 25.7433 25.0178 25.592C25.3885 25.4407 25.7901 25.3651 26.2227 25.3651C26.5934 25.3651 26.9386 25.4194 27.2582 25.5281C27.5778 25.6346 27.8612 25.7859 28.1083 25.9819C28.3576 26.1779 28.5611 26.4112 28.7188 26.6818C28.8764 26.9503 28.9776 27.2464 29.0224 27.5703H27.6161Z" fill="#424D57"/>
<defs>
<linearGradient id="paint0_linear_10530_97829" x1="20" y1="0" x2="20" y2="40" gradientUnits="userSpaceOnUse">
<stop stop-color="#F9FAFB"/>
<stop offset="1" stop-color="#EDF0F3"/>
</linearGradient>
</defs>
</svg>
