<svg width="40" height="40" viewBox="0 0 40 40" fill="none" xmlns="http://www.w3.org/2000/svg">
<path d="M4 4C4 1.79086 5.79086 0 8 0H24L36 12V36C36 38.2091 34.2091 40 32 40H8C5.79086 40 4 38.2091 4 36V4Z" fill="url(#paint0_linear_10530_97797)"/>
<path d="M24 0L36 12H28C25.7909 12 24 10.2091 24 8V0Z" fill="#EAECF0"/>
<path d="M10.7879 26.5955V25.4545H16.1636V26.5955H14.1597V32H12.7918V26.5955H10.7879ZM18.4328 25.4545V32H17.0489V25.4545H18.4328ZM19.5713 32V25.4545H23.9051V26.5955H20.9552V28.1552H23.6175V29.2962H20.9552V32H19.5713ZM24.836 32V25.4545H29.1698V26.5955H26.2199V28.1552H28.8821V29.2962H26.2199V32H24.836Z" fill="#424D57"/>
<defs>
<linearGradient id="paint0_linear_10530_97797" x1="20" y1="0" x2="20" y2="40" gradientUnits="userSpaceOnUse">
<stop stop-color="#F9FAFB"/>
<stop offset="1" stop-color="#EDF0F3"/>
</linearGradient>
</defs>
</svg>
