<svg width="40" height="40" viewBox="0 0 40 40" fill="none" xmlns="http://www.w3.org/2000/svg">
<path d="M4 4C4 1.79086 5.79086 0 8 0H24L36 12V36C36 38.2091 34.2091 40 32 40H8C5.79086 40 4 38.2091 4 36V4Z" fill="#6554C0"/>
<path opacity="0.3" d="M24 0L36 12H28C25.7909 12 24 10.2091 24 8V0Z" fill="white"/>
<g clip-path="url(#clip0_10530_97915)">
<path d="M13.3334 24H26.6667M13.3334 20.6667H16.6667M23.3334 20.6667H26.6667M13.3334 27.3333H16.6667M23.3334 27.3333H26.6667M16.6667 30.6667V17.3333M23.3334 30.6667V17.3333M16.5334 30.6667H23.4667C24.5868 30.6667 25.1469 30.6667 25.5747 30.4487C25.951 30.2569 26.257 29.951 26.4487 29.5747C26.6667 29.1468 26.6667 28.5868 26.6667 27.4667V20.5333C26.6667 19.4132 26.6667 18.8532 26.4487 18.4254C26.257 18.049 25.951 17.7431 25.5747 17.5513C25.1469 17.3333 24.5868 17.3333 23.4667 17.3333H16.5334C15.4133 17.3333 14.8532 17.3333 14.4254 17.5513C14.0491 17.7431 13.7431 18.049 13.5514 18.4254C13.3334 18.8532 13.3334 19.4132 13.3334 20.5333V27.4667C13.3334 28.5868 13.3334 29.1468 13.5514 29.5747C13.7431 29.951 14.0491 30.2569 14.4254 30.4487C14.8532 30.6667 15.4133 30.6667 16.5334 30.6667Z" stroke="white" stroke-width="1.5" stroke-linecap="round" stroke-linejoin="round"/>
</g>
<defs>
<clipPath id="clip0_10530_97915">
<rect width="16" height="16" fill="white" transform="translate(12 16)"/>
</clipPath>
</defs>
</svg>
