<svg width="40" height="40" viewBox="0 0 40 40" fill="none" xmlns="http://www.w3.org/2000/svg">
<path d="M7.75 4C7.75 2.20508 9.20508 0.75 11 0.75H27C27.1212 0.75 27.2375 0.798159 27.3232 0.883885L38.1161 11.6768C38.2018 11.7625 38.25 11.8788 38.25 12V36C38.25 37.7949 36.7949 39.25 35 39.25H11C9.20507 39.25 7.75 37.7949 7.75 36V4Z" fill="white" stroke="#C5CCD3" stroke-width="1.5"/>
<path d="M27 0.5V8C27 10.2091 28.7909 12 31 12H38.5" stroke="#C5CCD3" stroke-width="1.5"/>
<rect x="1" y="18" width="36" height="16" rx="2" fill="#0142AF"/>
<path d="M6.48402 30L4.40305 22.7273H6.08274L7.28658 27.7805H7.34695L8.67507 22.7273H10.1133L11.4379 27.7912H11.5018L12.7056 22.7273H14.3853L12.3043 30H10.8058L9.42081 25.245H9.36399L7.9826 30H6.48402ZM15.2083 30V22.7273H20.1088V23.995H16.7459V25.728H19.8567V26.9957H16.7459V28.7322H20.123V30H15.2083ZM21.3313 30V22.7273H24.2433C24.7783 22.7273 25.2246 22.8066 25.582 22.9652C25.9395 23.1238 26.2082 23.344 26.3881 23.6257C26.5681 23.9051 26.658 24.227 26.658 24.5916C26.658 24.8757 26.6012 25.1255 26.4876 25.3409C26.3739 25.554 26.2177 25.7292 26.0188 25.8665C25.8223 26.0014 25.5974 26.0973 25.3441 26.1541V26.2251C25.6211 26.237 25.8803 26.3151 26.1218 26.4595C26.3656 26.6039 26.5633 26.8063 26.7148 27.0668C26.8664 27.3248 26.9421 27.6326 26.9421 27.9901C26.9421 28.3759 26.8462 28.7204 26.6545 29.0234C26.4651 29.3241 26.1845 29.562 25.8129 29.7372C25.4412 29.9124 24.9831 30 24.4386 30H21.3313ZM22.869 28.7429H24.1225C24.551 28.7429 24.8635 28.6612 25.06 28.4979C25.2565 28.3321 25.3548 28.112 25.3548 27.8374C25.3548 27.6361 25.3062 27.4586 25.2092 27.3047C25.1121 27.1508 24.9736 27.0301 24.7937 26.9425C24.6161 26.8549 24.4042 26.8111 24.158 26.8111H22.869V28.7429ZM22.869 25.7706H24.0089C24.2196 25.7706 24.4066 25.7339 24.57 25.6605C24.7357 25.5848 24.8659 25.4782 24.9606 25.3409C25.0576 25.2036 25.1062 25.0391 25.1062 24.8473C25.1062 24.5845 25.0127 24.3726 24.8256 24.2116C24.641 24.0507 24.3782 23.9702 24.0373 23.9702H22.869V25.7706ZM27.9426 30V22.7273H30.812C31.3636 22.7273 31.8335 22.8326 32.2218 23.0433C32.61 23.2517 32.906 23.5417 33.1096 23.9134C33.3155 24.2827 33.4185 24.7088 33.4185 25.1918C33.4185 25.6747 33.3143 26.1009 33.106 26.4702C32.8977 26.8395 32.5958 27.1271 32.2005 27.3331C31.8075 27.5391 31.3316 27.642 30.7729 27.642H28.9441V26.4098H30.5243C30.8203 26.4098 31.0641 26.3589 31.2559 26.2571C31.45 26.1529 31.5944 26.0097 31.6891 25.8274C31.7862 25.6428 31.8347 25.4309 31.8347 25.1918C31.8347 24.9503 31.7862 24.7396 31.6891 24.5597C31.5944 24.3774 31.45 24.2365 31.2559 24.1371C31.0617 24.0353 30.8155 23.9844 30.5172 23.9844H29.4803V30H27.9426Z" fill="white"/>
</svg>
