<svg width="40" height="40" viewBox="0 0 40 40" fill="none" xmlns="http://www.w3.org/2000/svg">
<path d="M4 4C4 1.79086 5.79086 0 8 0H24L36 12V36C36 38.2091 34.2091 40 32 40H8C5.79086 40 4 38.2091 4 36V4Z" fill="#0142AF"/>
<path opacity="0.3" d="M24 0L36 12H28C25.7909 12 24 10.2091 24 8V0Z" fill="white"/>
<path d="M8.73562 32L6.86275 25.4545H8.37447L9.45792 30.0025H9.51225L10.7076 25.4545H12.002L13.1941 30.0121H13.2516L14.3351 25.4545H15.8468L13.9739 32H12.6252L11.3787 27.7205H11.3276L10.0843 32H8.73562ZM16.5874 32V25.4545H20.998V26.5955H17.9713V28.1552H20.771V29.2962H17.9713V30.859H21.0107V32H16.5874ZM22.0982 32V25.4545H24.7189C25.2005 25.4545 25.6021 25.5259 25.9238 25.6687C26.2456 25.8114 26.4874 26.0096 26.6493 26.2631C26.8113 26.5146 26.8922 26.8043 26.8922 27.1325C26.8922 27.3881 26.8411 27.6129 26.7388 27.8068C26.6365 27.9986 26.4959 28.1562 26.3169 28.2798C26.1401 28.4013 25.9377 28.4876 25.7097 28.5387V28.6026C25.959 28.6133 26.1923 28.6836 26.4096 28.8136C26.6291 28.9435 26.807 29.1257 26.9434 29.3601C27.0797 29.5923 27.1479 29.8693 27.1479 30.1911C27.1479 30.5384 27.0616 30.8484 26.889 31.1211C26.7186 31.3917 26.4661 31.6058 26.1316 31.7635C25.7971 31.9212 25.3848 32 24.8947 32H22.0982ZM23.4821 30.8686H24.6103C24.9959 30.8686 25.2772 30.7951 25.454 30.6481C25.6309 30.4989 25.7193 30.3008 25.7193 30.0536C25.7193 29.8725 25.6756 29.7127 25.5882 29.5742C25.5009 29.4357 25.3762 29.3271 25.2143 29.2482C25.0545 29.1694 24.8638 29.13 24.6422 29.13H23.4821V30.8686ZM23.4821 28.1935H24.508C24.6976 28.1935 24.8659 28.1605 25.013 28.0945C25.1621 28.0263 25.2793 27.9304 25.3645 27.8068C25.4519 27.6832 25.4956 27.5352 25.4956 27.3626C25.4956 27.1261 25.4114 26.9354 25.2431 26.7905C25.0769 26.6456 24.8404 26.5732 24.5336 26.5732H23.4821V28.1935ZM28.0484 32V25.4545H30.6308C31.1272 25.4545 31.5502 25.5494 31.8996 25.739C32.249 25.9265 32.5154 26.1875 32.6986 26.522C32.884 26.8544 32.9767 27.2379 32.9767 27.6726C32.9767 28.1072 32.8829 28.4908 32.6954 28.8232C32.5079 29.1555 32.2362 29.4144 31.8804 29.5998C31.5267 29.7852 31.0985 29.8778 30.5956 29.8778H28.9497V28.7688H30.3719C30.6382 28.7688 30.8577 28.723 31.0303 28.6314C31.205 28.5376 31.335 28.4087 31.4202 28.2447C31.5075 28.0785 31.5512 27.8878 31.5512 27.6726C31.5512 27.4553 31.5075 27.2656 31.4202 27.1037C31.335 26.9396 31.205 26.8129 31.0303 26.7234C30.8556 26.6317 30.634 26.5859 30.3655 26.5859H29.4323V32H28.0484Z" fill="white"/>
</svg>
