<svg width="40" height="40" viewBox="0 0 40 40" fill="none" xmlns="http://www.w3.org/2000/svg">
<path d="M4 4C4 1.79086 5.79086 0 8 0H24L36 12V36C36 38.2091 34.2091 40 32 40H8C5.79086 40 4 38.2091 4 36V4Z" fill="#159A00"/>
<path opacity="0.3" d="M24 0L36 12H28C25.7909 12 24 10.2091 24 8V0Z" fill="white"/>
<path d="M9.93093 25.4545L11.2509 27.6854H11.302L12.6284 25.4545H14.1912L12.1937 28.7273L14.236 32H12.6444L11.302 29.766H11.2509L9.90856 32H8.32333L10.372 28.7273L8.36168 25.4545H9.93093ZM15.0669 32V25.4545H16.4508V30.859H19.2569V32H15.0669ZM23.7242 27.337C23.6986 27.0792 23.5889 26.8789 23.395 26.7362C23.2011 26.5934 22.9379 26.522 22.6056 26.522C22.3797 26.522 22.189 26.554 22.0335 26.6179C21.8779 26.6797 21.7586 26.766 21.6755 26.8768C21.5945 26.9876 21.5541 27.1133 21.5541 27.2539C21.5498 27.3711 21.5743 27.4734 21.6276 27.5607C21.683 27.6481 21.7586 27.7237 21.8545 27.7876C21.9504 27.8494 22.0612 27.9038 22.1869 27.9506C22.3126 27.9954 22.4468 28.0337 22.5896 28.0657L23.1776 28.2063C23.4632 28.2702 23.7252 28.3555 23.9639 28.462C24.2025 28.5685 24.4092 28.6996 24.5839 28.8551C24.7586 29.0107 24.8939 29.1939 24.9898 29.4048C25.0878 29.6158 25.1379 29.8576 25.14 30.1303C25.1379 30.5309 25.0356 30.8782 24.8332 31.1722C24.6329 31.4641 24.3431 31.6911 23.9639 31.853C23.5867 32.0128 23.1318 32.0927 22.5992 32.0927C22.0708 32.0927 21.6105 32.0117 21.2185 31.8498C20.8286 31.6879 20.5239 31.4482 20.3044 31.1307C20.0871 30.8111 19.9731 30.4158 19.9624 29.945H21.3016C21.3165 30.1644 21.3794 30.3477 21.4901 30.4947C21.6031 30.6396 21.7533 30.7493 21.9408 30.8239C22.1304 30.8963 22.3445 30.9325 22.5832 30.9325C22.8176 30.9325 23.021 30.8984 23.1936 30.8303C23.3683 30.7621 23.5036 30.6673 23.5995 30.5458C23.6954 30.4244 23.7433 30.2848 23.7433 30.1271C23.7433 29.9801 23.6997 29.8565 23.6123 29.7564C23.5271 29.6562 23.4014 29.571 23.2352 29.5007C23.0711 29.4304 22.8698 29.3665 22.6311 29.3089L21.9184 29.13C21.3666 28.9957 20.9308 28.7859 20.6112 28.5004C20.2916 28.2148 20.1329 27.8303 20.135 27.3466C20.1329 26.9503 20.2384 26.604 20.4514 26.3079C20.6666 26.0117 20.9617 25.7805 21.3367 25.6143C21.7117 25.4482 22.1379 25.3651 22.6151 25.3651C23.1009 25.3651 23.5249 25.4482 23.8872 25.6143C24.2515 25.7805 24.5349 26.0117 24.7373 26.3079C24.9397 26.604 25.0441 26.9471 25.0505 27.337H23.7242ZM27.3684 25.4545L28.6884 27.6854H28.7395L30.0659 25.4545H31.6287L29.6312 28.7273L31.6735 32H30.0819L28.7395 29.766H28.6884L27.3461 32H25.7608L27.8095 28.7273L25.7992 25.4545H27.3684Z" fill="white"/>
</svg>
