<svg width="40" height="40" viewBox="0 0 40 40" fill="none" xmlns="http://www.w3.org/2000/svg">
<path d="M4 4C4 1.79086 5.79086 0 8 0H24L36 12V36C36 38.2091 34.2091 40 32 40H8C5.79086 40 4 38.2091 4 36V4Z" fill="url(#paint0_linear_10530_98355)"/>
<path d="M24 0L36 12H28C25.7909 12 24 10.2091 24 8V0Z" fill="#EAECF0"/>
<path d="M13.3223 32V31.1786L16.5886 26.5955H13.3159V25.4545H18.3273V26.2759L15.0578 30.859H18.3337V32H13.3223ZM20.7794 25.4545V32H19.3956V25.4545H20.7794ZM21.918 32V25.4545H24.5004C24.9968 25.4545 25.4198 25.5494 25.7692 25.739C26.1187 25.9265 26.385 26.1875 26.5682 26.522C26.7536 26.8544 26.8463 27.2379 26.8463 27.6726C26.8463 28.1072 26.7525 28.4908 26.565 28.8232C26.3775 29.1555 26.1059 29.4144 25.75 29.5998C25.3964 29.7852 24.9681 29.8778 24.4652 29.8778H22.8193V28.7688H24.2415C24.5079 28.7688 24.7273 28.723 24.8999 28.6314C25.0746 28.5376 25.2046 28.4087 25.2898 28.2447C25.3772 28.0785 25.4209 27.8878 25.4209 27.6726C25.4209 27.4553 25.3772 27.2656 25.2898 27.1037C25.2046 26.9396 25.0746 26.8129 24.8999 26.7234C24.7252 26.6317 24.5036 26.5859 24.2351 26.5859H23.3019V32H21.918Z" fill="#424D57"/>
<defs>
<linearGradient id="paint0_linear_10530_98355" x1="20" y1="0" x2="20" y2="40" gradientUnits="userSpaceOnUse">
<stop stop-color="#F9FAFB"/>
<stop offset="1" stop-color="#EDF0F3"/>
</linearGradient>
</defs>
</svg>
