<svg width="328" height="101" viewBox="0 0 328 101" fill="none" xmlns="http://www.w3.org/2000/svg">
    <g clip-path="url(#clip0_502_53950)">
        <path d="M45.0064 46.6742C45.1021 47.8211 45.2097 48.9641 45.3372 50.107C45.397 50.6404 45.4607 51.1738 45.5285 51.7071C45.5564 51.9157 45.5883 52.1202 45.6162 52.3287C45.9031 54.2697 46.2419 56.2067 46.6882 58.1196C46.8158 58.669 46.9552 59.2184 47.1027 59.7679C47.1226 59.7077 47.1426 59.6475 47.1625 59.5874C48.0313 56.8644 48.7128 54.0772 49.3066 51.278C50.6576 44.9137 51.4706 38.4531 52.7379 32.0686C53.3796 28.8363 54.0411 25.5158 55.2567 22.4439C56.3526 19.6687 57.7156 16.9498 60.7564 15.9632C66.563 14.0824 69.293 21.1285 70.6121 25.3273C72.1584 30.252 73.2145 35.333 74.438 40.3459C74.6691 41.3004 74.9083 42.2548 75.1514 43.2093C76.5183 36.5842 77.2237 29.7467 79.7743 23.4826C79.7943 23.4344 79.8142 23.3863 79.8341 23.3382L57.4446 10.2846C55.1172 8.92913 51.9488 8.34764 48.8961 8.53612C48.8004 8.7206 48.7088 8.90507 48.6211 9.09356C48.5414 9.25798 48.4697 9.42641 48.3939 9.59084C48.0671 10.421 47.7603 11.2631 47.4972 12.1173C46.8636 14.1546 46.3614 16.2319 45.9709 18.3293C45.7596 19.4562 45.5723 20.5911 45.4129 21.73C45.4129 21.7341 45.4129 21.7381 45.4129 21.7421C45.381 21.9907 45.3492 22.2353 45.3213 22.484C45.2535 23.0815 45.1858 23.6791 45.126 24.2766C44.8869 26.7309 44.7275 29.1892 44.6477 31.6556C44.4883 36.6604 44.5959 41.6814 45.0104 46.6742H45.0064Z" fill="#0142AF"/>
        <path d="M34.9514 31.3427C35.1667 25.5518 35.609 19.4 36.968 13.557L19.3529 23.8715C15.268 26.2577 12 32.0927 12 36.8449V38.2525L40.8816 69.6853C38.9926 67.1869 38.06 63.73 37.3705 60.7183C35.1826 51.1818 34.5888 41.0998 34.9514 31.3427Z" fill="#0142AF"/>
        <path d="M19.3529 77.0443L42.6192 90.6312C46.7081 93.0133 53.3756 93.0133 57.4605 90.6312L80.5275 77.0443C84.6125 74.6622 87.721 68.8231 87.721 64.0709V36.8449C87.721 35.3691 87.6254 33.785 87.0595 32.2371C86.0831 36.2915 85.5291 40.4101 84.6962 44.5006C84.0665 47.5966 83.4806 50.7928 82.2611 53.7203C81.221 56.2227 79.7863 59.3147 76.8092 59.9002C73.613 60.5258 71.0425 58.9538 69.4404 56.2268L60.0948 46.229C59.2738 51.1337 58.3572 56.0222 56.9464 60.7865C55.9262 64.2353 54.6349 68.9675 51.6778 71.3376C47.836 74.4215 43.751 73.4831 40.8776 69.6854L12 38.2565V64.0709C12 68.8231 15.268 74.6622 19.3529 77.0443Z" fill="#0142AF"/>
        <path d="M65.0844 42.9486C64.2356 39.4556 63.4624 35.9266 62.5498 32.4456C61.952 35.1726 61.4697 37.9317 61.0154 40.6828C60.7086 42.5316 60.4136 44.3843 60.1028 46.2371L69.4523 56.2348C67.1289 52.2806 66.1565 47.364 65.0844 42.9526V42.9486Z" fill="#0142AF"/>
        <path opacity="0.3" d="M36.968 13.557L12 64.0709C12 64.0709 12.3268 72.9417 19.3529 77.0443L42.6192 90.6312C42.6192 90.6312 50.3348 94.83 57.4605 90.6312C64.5863 86.4324 80.5275 77.0443 80.5275 77.0443C80.5275 77.0443 87.721 72.7211 87.721 64.0709V52.064C87.721 45.7398 88.6815 38.3407 87.0276 32.225C86.0552 38.1563 84.8556 44.0474 83.4368 49.8864C82.9506 51.8916 82.4285 53.9128 81.4402 55.7214C79.6747 58.9578 76.0759 61.3599 72.5091 59.3347C71.0943 58.5327 70.0701 57.1732 69.2531 55.7575C66.6507 51.2579 65.8058 46.0486 64.6301 41.0557C64.2037 39.239 63.7533 37.4304 63.3189 35.6177C63.1276 34.8277 62.4023 33.2637 62.5537 32.4456L61.0194 40.6828L60.1068 46.237C59.1662 51.9437 57.9746 57.8629 56.2051 63.4573C54.8541 67.7363 52.5944 72.653 47.545 73.1502C44.8829 73.4109 42.3243 71.7466 40.77 69.557C37.3546 64.7446 36.5575 57.3697 35.7684 51.671C34.8518 45.0821 34.6007 38.4049 34.8917 31.7598C35.0431 28.2829 35.3141 24.7859 35.6369 21.321C35.8641 18.8747 35.8362 15.7948 36.976 13.561L36.968 13.557Z" fill="#201F1E"/>
    </g>
    <path d="M152.072 38.372L145.052 63.5H139.112L134.396 45.608L129.464 63.5L123.56 63.536L116.792 38.372H122.192L126.62 57.884L131.732 38.372H137.348L142.172 57.776L146.636 38.372H152.072ZM164.219 63.824C162.299 63.824 160.571 63.404 159.035 62.564C157.499 61.7 156.287 60.488 155.399 58.928C154.535 57.368 154.103 55.568 154.103 53.528C154.103 51.488 154.547 49.688 155.435 48.128C156.347 46.568 157.583 45.368 159.143 44.528C160.703 43.664 162.443 43.232 164.363 43.232C166.283 43.232 168.023 43.664 169.583 44.528C171.143 45.368 172.367 46.568 173.255 48.128C174.167 49.688 174.623 51.488 174.623 53.528C174.623 55.568 174.155 57.368 173.219 58.928C172.307 60.488 171.059 61.7 169.475 62.564C167.915 63.404 166.163 63.824 164.219 63.824ZM164.219 59.432C165.131 59.432 165.983 59.216 166.775 58.784C167.591 58.328 168.239 57.656 168.719 56.768C169.199 55.88 169.439 54.8 169.439 53.528C169.439 51.632 168.935 50.18 167.927 49.172C166.943 48.14 165.731 47.624 164.291 47.624C162.851 47.624 161.639 48.14 160.655 49.172C159.695 50.18 159.215 51.632 159.215 53.528C159.215 55.424 159.683 56.888 160.619 57.92C161.579 58.928 162.779 59.432 164.219 59.432ZM183.36 46.652C184.008 45.596 184.848 44.768 185.88 44.168C186.936 43.568 188.136 43.268 189.48 43.268V48.56H188.148C186.564 48.56 185.364 48.932 184.548 49.676C183.756 50.42 183.36 51.716 183.36 53.564V63.5H178.32V43.556H183.36V46.652ZM204.683 63.5L197.915 55.004V63.5H192.875V36.86H197.915V52.016L204.611 43.556H211.163L202.379 53.564L211.235 63.5H204.683ZM218.938 46.472C219.586 45.512 220.474 44.732 221.602 44.132C222.754 43.532 224.062 43.232 225.526 43.232C227.23 43.232 228.766 43.652 230.134 44.492C231.526 45.332 232.618 46.532 233.41 48.092C234.226 49.628 234.634 51.416 234.634 53.456C234.634 55.496 234.226 57.308 233.41 58.892C232.618 60.452 231.526 61.664 230.134 62.528C228.766 63.392 227.23 63.824 225.526 63.824C224.038 63.824 222.73 63.536 221.602 62.96C220.498 62.36 219.61 61.592 218.938 60.656V63.5H213.898V36.86H218.938V46.472ZM229.486 53.456C229.486 52.256 229.234 51.224 228.73 50.36C228.25 49.472 227.602 48.8 226.786 48.344C225.994 47.888 225.13 47.66 224.194 47.66C223.282 47.66 222.418 47.9 221.602 48.38C220.81 48.836 220.162 49.508 219.658 50.396C219.178 51.284 218.938 52.328 218.938 53.528C218.938 54.728 219.178 55.772 219.658 56.66C220.162 57.548 220.81 58.232 221.602 58.712C222.418 59.168 223.282 59.396 224.194 59.396C225.13 59.396 225.994 59.156 226.786 58.676C227.602 58.196 228.25 57.512 228.73 56.624C229.234 55.736 229.486 54.68 229.486 53.456ZM256.837 53.096C256.837 53.816 256.789 54.464 256.693 55.04H242.113C242.233 56.48 242.737 57.608 243.625 58.424C244.513 59.24 245.605 59.648 246.901 59.648C248.773 59.648 250.105 58.844 250.897 57.236H256.333C255.757 59.156 254.653 60.74 253.021 61.988C251.389 63.212 249.385 63.824 247.009 63.824C245.089 63.824 243.361 63.404 241.825 62.564C240.313 61.7 239.125 60.488 238.261 58.928C237.421 57.368 237 55.568 237 53.528C237 51.464 237.421 49.652 238.261 48.092C239.101 46.532 240.277 45.332 241.789 44.492C243.301 43.652 245.041 43.232 247.009 43.232C248.905 43.232 250.597 43.64 252.085 44.456C253.597 45.272 254.761 46.436 255.577 47.948C256.417 49.436 256.837 51.152 256.837 53.096ZM251.617 51.656C251.593 50.36 251.125 49.328 250.213 48.56C249.301 47.768 248.185 47.372 246.865 47.372C245.617 47.372 244.561 47.756 243.697 48.524C242.857 49.268 242.341 50.312 242.149 51.656H251.617ZM271.567 43.268C273.943 43.268 275.863 44.024 277.327 45.536C278.791 47.024 279.523 49.112 279.523 51.8V63.5H274.483V52.484C274.483 50.9 274.087 49.688 273.295 48.848C272.503 47.984 271.423 47.552 270.055 47.552C268.663 47.552 267.559 47.984 266.743 48.848C265.951 49.688 265.555 50.9 265.555 52.484V63.5H260.515V43.556H265.555V46.04C266.227 45.176 267.079 44.504 268.111 44.024C269.167 43.52 270.319 43.268 271.567 43.268ZM283.02 53.528C283.02 51.464 283.44 49.664 284.28 48.128C285.12 46.568 286.284 45.368 287.772 44.528C289.26 43.664 290.964 43.232 292.884 43.232C295.356 43.232 297.396 43.856 299.004 45.104C300.636 46.328 301.728 48.056 302.28 50.288H296.844C296.556 49.424 296.064 48.752 295.368 48.272C294.696 47.768 293.856 47.516 292.848 47.516C291.408 47.516 290.268 48.044 289.428 49.1C288.588 50.132 288.168 51.608 288.168 53.528C288.168 55.424 288.588 56.9 289.428 57.956C290.268 58.988 291.408 59.504 292.848 59.504C294.888 59.504 296.22 58.592 296.844 56.768H302.28C301.728 58.928 300.636 60.644 299.004 61.916C297.372 63.188 295.332 63.824 292.884 63.824C290.964 63.824 289.26 63.404 287.772 62.564C286.284 61.7 285.12 60.5 284.28 58.964C283.44 57.404 283.02 55.592 283.02 53.528ZM317.204 43.268C318.716 43.268 320.06 43.604 321.236 44.276C322.412 44.924 323.324 45.896 323.972 47.192C324.644 48.464 324.98 50 324.98 51.8V63.5H319.94V52.484C319.94 50.9 319.544 49.688 318.752 48.848C317.96 47.984 316.88 47.552 315.512 47.552C314.12 47.552 313.016 47.984 312.2 48.848C311.408 49.688 311.012 50.9 311.012 52.484V63.5H305.972V36.86H311.012V46.04C311.66 45.176 312.524 44.504 313.604 44.024C314.684 43.52 315.884 43.268 317.204 43.268Z" fill="#323130"/>
    <defs>
        <clipPath id="clip0_502_53950">
            <rect width="76" height="84" fill="white" transform="translate(12 8.5)"/>
        </clipPath>
    </defs>
</svg>
