<svg width="179" height="99" viewBox="0 0 179 99" fill="none" xmlns="http://www.w3.org/2000/svg">
    <g clip-path="url(#clip0_502_53806)">
        <path d="M0.370767 23.4744V33.1626H16.5698L0 53.8139V62.654H29.2449V52.9658H13.8796L29.2449 33.1623V23.4744H0.370767Z" fill="#0142AF"/>
        <path d="M44.4978 23.4828H32.7454V62.6541H44.4978V23.4828Z" fill="#0142AF"/>
        <path d="M88.0271 57.075C88.0271 62.5853 87.6276 66.1073 85.8283 69.2276C82.9628 73.8754 76.2372 77.9272 67.1118 77.9272C54.2557 77.9272 49.3954 70.2247 48.6625 64.978H61.4497C63.0477 68.6315 67.1779 68.6315 67.9108 68.6315C69.3105 68.6315 76.9012 68.4997 76.9012 58.6052V57.4762H76.769C75.6366 59.6024 72.4405 62.7229 66.6462 62.7229C56.5895 62.7229 47.9957 55.1522 47.9957 43.3321C47.9957 30.7153 57.0551 23.4771 66.6462 23.4771C70.7763 23.4771 74.8375 24.9385 76.8379 28.1249H76.9702V23.4771H88.0271V57.075ZM67.9137 52.4272C73.2424 52.4272 76.973 48.5759 76.973 43.2633C76.973 37.3549 72.909 33.767 67.9827 33.767C63.0563 33.767 59.0584 37.5524 59.0584 42.9309C59.0584 48.8427 63.3208 52.4272 67.9165 52.4272H67.9137Z" fill="#0142AF"/>
        <path d="M38.6202 0C40.5166 0 42.3703 0.560643 43.9471 1.61103C45.5239 2.66142 46.7528 4.15438 47.4785 5.90111C48.2043 7.64784 48.3941 9.5699 48.0242 11.4242C47.6542 13.2785 46.741 14.9818 45.4001 16.3187C44.0591 17.6556 42.3507 18.5661 40.4908 18.9349C38.6308 19.3038 36.703 19.1144 34.9509 18.3909C33.1989 17.6674 31.7015 16.4422 30.6479 14.8702C29.5943 13.2981 29.032 11.4499 29.032 9.55929C29.032 7.02401 30.0422 4.59257 31.8403 2.79985C33.6384 1.00714 36.0772 0 38.6202 0Z" fill="#0142AF"/>
        <path d="M143.59 26.3511C144.655 26.351 145.696 26.6658 146.581 27.2555C147.467 27.8453 148.157 28.6835 148.564 29.6643C148.972 30.6451 149.079 31.7243 148.871 32.7655C148.663 33.8067 148.15 34.7631 147.397 35.5137C146.644 36.2644 145.685 36.7756 144.641 36.9827C143.597 37.1898 142.514 37.0835 141.53 36.6772C140.547 36.2709 139.706 35.5829 139.114 34.7002C138.523 33.8175 138.207 32.7797 138.207 31.7181C138.207 30.2947 138.774 28.9296 139.784 27.9231C140.793 26.9165 142.163 26.3511 143.59 26.3511Z" fill="#F47820"/>
        <path d="M147.034 40.5725H140.15V65.5167H147.034V40.5725Z" fill="#F47820"/>
        <path d="M143.59 26.3511C144.655 26.351 145.696 26.6658 146.581 27.2555C147.467 27.8453 148.157 28.6835 148.564 29.6643C148.972 30.6451 149.079 31.7243 148.871 32.7655C148.663 33.8067 148.15 34.7631 147.397 35.5137C146.644 36.2644 145.685 36.7756 144.641 36.9827C143.597 37.1898 142.514 37.0835 141.53 36.6772C140.547 36.2709 139.706 35.5829 139.114 34.7002C138.523 33.8175 138.207 32.7797 138.207 31.7181C138.207 30.2947 138.774 28.9296 139.784 27.9231C140.793 26.9165 142.163 26.3511 143.59 26.3511Z" fill="#F47820"/>
        <path d="M97.302 65.5167V2.86267H104.321V32.5005H104.456C107.491 28.2624 112.216 26.311 117.277 26.311C127.196 26.311 136.644 34.4519 136.644 45.9569C136.644 56.7197 128.343 65.5339 117.413 65.5339C113.972 65.5339 108.235 64.3218 104.39 59.2098H104.255V65.5167H97.302ZM116.872 59.141C123.621 59.141 129.625 53.3556 129.625 45.954C129.625 38.9564 124.227 32.7011 116.872 32.7011C109.517 32.7011 104.12 39.2258 104.12 45.8193C104.12 54.2295 110.598 59.141 116.872 59.141Z" fill="#F47820"/>
        <path d="M178.882 26.3683V33.5062L159.72 58.8057H179V65.5196H150.578V59.7972L170.803 33.085H152.52V26.3712H178.882V26.3683Z" fill="#F47820"/>
        <path d="M1.70588 96.15V88.8783H0.0701904V87.3518H4.983V88.878H3.33581V96.15H1.70588Z" fill="#0142AF"/>
        <path d="M4.51733 96.1499V89.5513H5.97281V90.1376H5.9958C6.15576 89.8808 6.37193 89.6634 6.62812 89.5017C6.87231 89.3791 7.14358 89.32 7.41679 89.3298H7.54498V90.8622C7.26159 90.8684 6.98318 90.9377 6.73015 91.0651C6.52281 91.1788 6.3575 91.3558 6.2585 91.57C6.14313 91.8453 6.08947 92.1424 6.10129 92.4406V96.1491L4.51733 96.1499Z" fill="#0142AF"/>
        <path d="M14.8847 89.5516V96.1503H13.4295V95.3319C13.1456 95.6458 12.8049 95.9037 12.4253 96.0921C12.0186 96.2818 11.5734 96.3752 11.1245 96.3649C10.5597 96.3727 10.0038 96.2251 9.5178 95.9382C9.02434 95.6371 8.62119 95.2093 8.3506 94.6995C8.05611 94.1331 7.90143 93.5049 7.89943 92.8669C7.89743 92.229 8.04817 91.5998 8.33911 91.0316C8.61648 90.506 9.03842 90.0701 9.55545 89.7751C10.0469 89.4864 10.6064 89.3332 11.1768 89.3312C11.5267 89.325 11.8746 89.3861 12.2014 89.5112C12.4763 89.6174 12.7341 89.7631 12.9668 89.9436C13.1358 90.0677 13.2841 90.2176 13.4063 90.3878H13.4295V89.5519L14.8847 89.5516ZM13.383 92.8363C13.3949 92.5633 13.3519 92.2907 13.2564 92.0345C13.1609 91.7783 13.015 91.5438 12.8271 91.3448C12.6481 91.1591 12.4321 91.0125 12.1931 90.9146C11.9541 90.8167 11.6972 90.7695 11.4389 90.776C11.0858 90.7728 10.739 90.8696 10.4389 91.055C10.1387 91.2405 9.89744 91.507 9.74314 91.8237C9.5732 92.1514 9.4845 92.5149 9.48446 92.8839C9.47748 93.1514 9.5248 93.4175 9.62358 93.6664C9.72236 93.9152 9.87057 94.1415 10.0593 94.3318C10.2384 94.5201 10.4548 94.6691 10.6948 94.7695C10.9348 94.87 11.193 94.9196 11.4533 94.9152C11.717 94.9246 11.9794 94.8753 12.2216 94.7709C12.4638 94.6665 12.6796 94.5095 12.8533 94.3115C13.2103 93.9043 13.4005 93.3781 13.3859 92.8375" fill="#0142AF"/>
        <path d="M16.0953 96.1499V89.5513H17.5612V90.1258C17.8091 89.8746 18.0997 89.6693 18.4197 89.5194C18.724 89.3898 19.0522 89.3254 19.3831 89.3306C19.8246 89.3275 20.2595 89.4374 20.6463 89.6498C21.0063 89.838 21.3178 90.1067 21.5562 90.435C21.7348 90.7048 21.8539 91.0093 21.9055 91.3284C21.9623 91.7457 21.9856 92.1668 21.9753 92.5878V96.1513H20.3856V92.8941C20.4026 92.4554 20.3615 92.0164 20.2634 91.5883C20.1957 91.3427 20.0457 91.1276 19.8384 90.9788C19.6245 90.8388 19.3724 90.7679 19.1167 90.776C18.8275 90.7707 18.5438 90.8548 18.3044 91.0167C18.0761 91.1688 17.9051 91.3924 17.8184 91.6522C17.7045 92.0955 17.6574 92.5531 17.6787 93.0102V96.1499H16.0953Z" fill="#0142AF"/>
        <path d="M27.4412 91.3519H25.8926C25.8661 91.1839 25.7854 91.0291 25.6626 90.9109C25.5406 90.8187 25.3902 90.7717 25.2372 90.778C25.0842 90.7843 24.9382 90.8436 24.8243 90.9456C24.7689 90.9978 24.725 91.0608 24.6953 91.1308C24.6656 91.2007 24.6508 91.276 24.6518 91.3519C24.6507 91.4146 24.6625 91.4768 24.6866 91.5346C24.7106 91.5925 24.7463 91.6448 24.7915 91.6884C25.0088 91.8399 25.2541 91.947 25.5132 92.0036C25.9573 92.1261 26.3875 92.2942 26.7968 92.5053C27.052 92.655 27.2608 92.8719 27.4004 93.1323C27.5535 93.4248 27.6297 93.7512 27.6217 94.0811C27.6287 94.3835 27.5732 94.6841 27.4585 94.9642C27.3438 95.2443 27.1725 95.4978 26.9552 95.7089C26.7375 95.9255 26.4779 96.0956 26.1922 96.2089C25.9065 96.3222 25.6007 96.3763 25.2933 96.368C24.9199 96.3742 24.5495 96.3 24.2075 96.1505C23.9187 96.0271 23.6575 95.8476 23.4392 95.6224C23.2544 95.4269 23.1081 95.1985 23.0081 94.949C22.9048 94.6685 22.8449 94.374 22.8304 94.0756H24.4546C24.4947 94.3204 24.6072 94.5477 24.7777 94.7284C24.9267 94.8571 25.1193 94.9246 25.3163 94.9172C25.4117 94.9211 25.507 94.9058 25.5964 94.8724C25.6859 94.839 25.7677 94.7881 25.8371 94.7226C25.9019 94.6622 25.9532 94.5889 25.9879 94.5075C26.0225 94.426 26.0397 94.3383 26.0383 94.2498C26.0428 94.1686 26.0286 94.0874 25.9968 94.0125C25.965 93.9375 25.9165 93.8708 25.8549 93.8174C25.6192 93.658 25.3613 93.5339 25.0895 93.4489C24.6904 93.3216 24.3044 93.1564 23.937 92.9555C23.6692 92.7971 23.445 92.5747 23.2848 92.3085C23.1378 92.0453 23.0635 91.748 23.0696 91.4468C23.0655 91.0667 23.1648 90.6926 23.357 90.3642C23.5491 90.0374 23.8323 89.7733 24.1721 89.604C24.5106 89.427 24.887 89.3344 25.2692 89.3341C25.5897 89.3296 25.907 89.3971 26.1978 89.5315C26.4523 89.6468 26.6831 89.8081 26.8787 90.0072C27.0477 90.1816 27.183 90.3856 27.2776 90.6089C27.3719 90.8469 27.4269 91.0985 27.4406 91.354" fill="#0142AF"/>
        <path d="M28.4075 98.3498V89.5527H29.8627V90.3244H29.8862C30.1473 90.0146 30.4679 89.7601 30.8292 89.5759C31.1992 89.4056 31.6034 89.3221 32.0108 89.3321C32.6009 89.3249 33.1821 89.4763 33.6933 89.7702C34.2088 90.0741 34.6267 90.5181 34.8982 91.0502C35.1975 91.613 35.3516 92.2412 35.3466 92.8781C35.3576 93.3365 35.276 93.7925 35.1065 94.2187C34.9369 94.645 34.683 95.0328 34.3599 95.3591C34.0572 95.6815 33.6904 95.9376 33.283 96.1109C32.8756 96.2843 32.4365 96.3712 31.9936 96.366C31.6298 96.3743 31.268 96.3092 30.9301 96.1746C30.5801 96.0133 30.2617 95.7912 29.9897 95.5187V98.351L28.4075 98.3498ZM29.8974 92.8481C29.8938 93.2171 29.9818 93.5813 30.1535 93.9083C30.32 94.2265 30.5801 94.4865 30.8988 94.6533C31.1828 94.8158 31.5027 94.9055 31.83 94.9144C32.1714 94.9037 32.5041 94.8051 32.7958 94.6282C33.0876 94.4512 33.3284 94.2019 33.4947 93.9046C33.6735 93.5832 33.7658 93.2212 33.7626 92.8538C33.7705 92.5811 33.7239 92.3096 33.6255 92.0551C33.5271 91.8005 33.3789 91.5681 33.1895 91.3712C33.0192 91.1833 32.8112 91.0333 32.579 90.9308C32.3467 90.8283 32.0955 90.7757 31.8415 90.7763C31.6681 90.7762 31.4956 90.8017 31.3296 90.8519C31.1591 90.9037 30.9957 90.9768 30.8436 91.0694C30.6727 91.1757 30.5186 91.3068 30.3863 91.4583C30.2301 91.638 30.1097 91.8459 30.0317 92.0707C29.9411 92.3199 29.8957 92.5832 29.8974 92.8483" fill="#0142AF"/>
        <path d="M39.5431 96.3649C39.0815 96.3656 38.6244 96.2748 38.1983 96.0978C37.7822 95.9297 37.4041 95.6801 37.0866 95.3636C36.7885 95.0695 36.5425 94.7271 36.3591 94.351C36.1309 93.8828 36.0134 93.3686 36.0157 92.848C36.0163 92.234 36.1777 91.6307 36.4841 91.0981C36.7884 90.5508 37.2414 90.1002 37.791 89.798C38.324 89.4925 38.9279 89.3314 39.5427 89.3309C40.1575 89.3304 40.7617 89.4905 41.2952 89.7951C41.8393 90.0934 42.2877 90.5391 42.5886 91.0806C42.8436 91.5434 42.9966 92.0552 43.0372 92.5817C43.0778 93.1082 43.0052 93.6372 42.8243 94.1335C42.5584 94.8483 42.0604 95.454 41.4096 95.8542C41.1276 96.0185 40.8253 96.1453 40.5103 96.2313C40.1957 96.3192 39.8707 96.3641 39.544 96.3649H39.5431ZM39.544 94.9141C39.8043 94.92 40.0628 94.8685 40.3008 94.7631C40.5389 94.6577 40.7506 94.5011 40.9207 94.3046C41.2787 93.911 41.4733 93.3965 41.4651 92.8652C41.4659 92.4973 41.3737 92.135 41.1972 91.8119C41.0314 91.4945 40.7805 91.2293 40.4723 91.0459C40.1952 90.8739 39.8762 90.7806 39.5497 90.776C39.2204 90.7824 38.8984 90.8745 38.6156 91.0431C38.302 91.2184 38.0438 91.4777 37.8704 91.7918C37.6932 92.1178 37.6002 92.4826 37.5997 92.8534C37.5992 93.2242 37.6912 93.5892 37.8675 93.9157C38.0345 94.2254 38.2857 94.4818 38.5923 94.6556C38.8813 94.8236 39.2095 94.9125 39.544 94.9135" fill="#0142AF"/>
        <path d="M44.101 96.1499V89.5513H45.5556V90.1376H45.5786C45.7385 89.8808 45.9547 89.6634 46.2109 89.5017C46.4551 89.3791 46.7263 89.32 46.9995 89.3298H47.1277V90.8622C46.8443 90.8684 46.5659 90.9377 46.3129 91.0651C46.1056 91.1788 45.9403 91.3558 45.8413 91.57C45.7259 91.8453 45.6722 92.1424 45.684 92.4406V96.1491L44.101 96.1499Z" fill="#0142AF"/>
        <path d="M48.1874 96.15V90.9557H47.4131V89.5516H48.1874V87.3518H49.7765V89.5514H50.725V90.9554H49.7765V96.1497L48.1874 96.15Z" fill="#0142AF"/>
        <path d="M54.2183 93.6313H55.9356C55.9556 93.903 56.0503 94.164 56.2092 94.3857C56.3176 94.5257 56.4585 94.6373 56.6197 94.7111C56.7808 94.7849 56.9576 94.8187 57.1347 94.8096C57.2924 94.8155 57.4497 94.7892 57.5968 94.7322C57.744 94.6753 57.8779 94.589 57.9903 94.4786C58.0997 94.37 58.1856 94.2403 58.2427 94.0974C58.2998 93.9544 58.3269 93.8014 58.3223 93.6476C58.3303 93.4414 58.2766 93.2375 58.1679 93.0619C58.0405 92.8862 57.8716 92.7446 57.6762 92.6495C57.5557 92.5838 57.1326 92.4098 56.4069 92.1275C56.0086 91.9902 55.6359 91.7881 55.3038 91.5294C55.0572 91.3149 54.8631 91.0469 54.7365 90.746C54.5986 90.4231 54.5292 90.0753 54.5327 89.7244C54.5291 89.2701 54.6455 88.8228 54.8701 88.4275C55.0903 88.0359 55.4187 87.7156 55.8163 87.5048C56.2095 87.2893 56.651 87.1766 57.0996 87.177C57.4852 87.173 57.867 87.2543 58.2174 87.4149C58.5321 87.5546 58.8168 87.7537 59.0558 88.0011C59.2624 88.2169 59.4264 88.4697 59.5389 88.7462C59.6514 89.047 59.718 89.3629 59.7367 89.6835H58.072C58.0513 89.4388 57.9692 89.2033 57.8331 88.9986C57.7442 88.8963 57.6328 88.8159 57.5077 88.7635C57.3825 88.7111 57.2469 88.6882 57.1114 88.6966C56.9867 88.6908 56.8621 88.7102 56.7451 88.7536C56.6281 88.797 56.5211 88.8634 56.4305 88.949C56.3447 89.0355 56.2776 89.1386 56.2335 89.252C56.1894 89.3654 56.1692 89.4866 56.1741 89.6081C56.1681 89.7395 56.1923 89.8705 56.2447 89.9911C56.2971 90.1118 56.3765 90.219 56.4768 90.3044C56.7769 90.5031 57.1067 90.6529 57.454 90.7483C57.8257 90.8641 58.1877 91.0088 58.5367 91.181C58.8385 91.3349 59.1098 91.5423 59.3372 91.793C59.5367 92.0255 59.6907 92.2932 59.7913 92.5822C59.9016 92.9044 59.9557 93.243 59.9514 93.5834C59.9681 94.0053 59.8801 94.4248 59.6952 94.8047C59.5104 95.1846 59.2344 95.5131 58.8917 95.7612C58.3833 96.1405 57.7629 96.3406 57.1281 96.33C56.7905 96.3307 56.4552 96.2757 56.1356 96.1672C55.8281 96.0659 55.5397 95.914 55.2826 95.7176C55.0474 95.5401 54.8429 95.3254 54.6773 95.0821C54.5242 94.856 54.4078 94.6073 54.3324 94.3451C54.2712 94.1114 54.2327 93.8723 54.2174 93.6313" fill="#0142AF"/>
        <path d="M67.6003 93.5619H62.4668C62.5948 93.9635 62.8438 94.3161 63.1799 94.5717C63.5162 94.8061 63.9194 94.9262 64.3295 94.9141C64.6384 94.9251 64.9444 94.8517 65.2145 94.7021C65.4651 94.5465 65.6715 94.3294 65.814 94.0717H67.4854C67.3948 94.3362 67.2737 94.5894 67.1247 94.8262C66.9176 95.1294 66.6675 95.4011 66.3823 95.6328C66.1004 95.8648 65.7817 96.0482 65.4393 96.1755C65.0549 96.3086 64.6498 96.3725 64.243 96.3641C63.7339 96.3812 63.2278 96.2788 62.7656 96.0652C62.3033 95.8517 61.8979 95.5329 61.5818 95.1345C61.0584 94.4859 60.7803 93.6745 60.796 92.8421C60.7915 92.2103 60.9498 91.5878 61.2559 91.0346C61.5495 90.4918 61.993 90.0443 62.5338 89.7451C63.0787 89.4414 63.6935 89.2844 64.3178 89.2895C64.921 89.2837 65.5154 89.4347 66.0423 89.7276C66.5603 90.0141 66.9846 90.4433 67.2646 90.9638C67.5534 91.4873 67.7037 92.0756 67.7012 92.673C67.7007 92.9719 67.6675 93.2697 67.6021 93.5614L67.6003 93.5619ZM66.077 92.2845C66.0109 91.8413 65.7904 91.4355 65.4542 91.1383C65.1575 90.9126 64.8019 90.7768 64.4299 90.7469C64.058 90.7171 63.6852 90.7944 63.3561 90.9698C63.09 91.1266 62.8654 91.3446 62.701 91.6056C62.5745 91.8168 62.4803 92.0456 62.4217 92.2845H66.077Z" fill="#0142AF"/>
        <path d="M68.8119 96.1499V89.5513H70.2674V90.1376H70.2906C70.4505 89.8807 70.6667 89.6633 70.923 89.5017C71.1671 89.3791 71.4384 89.32 71.7116 89.3298H71.8398V90.8622C71.5564 90.8684 71.278 90.9377 71.025 91.0651C70.8177 91.1789 70.6524 91.3558 70.5533 91.57C70.438 91.8453 70.3843 92.1424 70.3961 92.4406V96.1491L68.8119 96.1499Z" fill="#0142AF"/>
        <path d="M74.8076 96.1499L72.1346 89.5513H73.852L75.4468 93.9272H75.4816L76.9836 89.5513H78.724L76.0464 96.1499H74.8076Z" fill="#0142AF"/>
        <path d="M79.4132 87.3518H80.994V88.8017H79.4132V87.3518ZM79.4132 89.5514H80.994V96.15H79.4132V89.5514Z" fill="#0142AF"/>
        <path d="M88.9181 91.7391H87.1252C86.9908 91.4699 86.7955 91.2354 86.5547 91.0542C86.2724 90.8666 85.9393 90.7695 85.6001 90.776C85.2602 90.7746 84.9259 90.8626 84.631 91.031C84.3296 91.2021 84.084 91.456 83.9237 91.7626C83.7505 92.0896 83.6624 92.4548 83.6676 92.8246C83.6629 93.2005 83.7529 93.5717 83.9294 93.904C84.0943 94.2192 84.347 94.4802 84.6571 94.6556C84.9522 94.8274 85.2875 94.9184 85.6292 94.9195C85.9221 94.9244 86.2101 94.8448 86.4587 94.6903C86.7284 94.5096 86.9557 94.273 87.1252 93.9965H88.9181C88.7731 94.377 88.5773 94.7362 88.3361 95.0645C88.0212 95.4687 87.6182 95.7961 87.1577 96.0222C86.6608 96.2581 86.1157 96.3759 85.5654 96.366C85.0462 96.383 84.5304 96.2766 84.0606 96.0555C83.5909 95.8345 83.1806 95.5052 82.8637 95.0949C82.4182 94.5329 82.1504 93.8516 82.0944 93.1375C82.0384 92.4234 82.1967 91.7088 82.5492 91.0846C82.8548 90.5439 83.3053 90.0987 83.8504 89.7989C84.2555 89.5637 84.7044 89.4134 85.1698 89.357C85.6351 89.3006 86.1071 89.3395 86.557 89.4711C86.8631 89.5567 87.1566 89.6819 87.4301 89.8436C87.6763 89.9886 87.9016 90.1663 88.0998 90.3717C88.2758 90.5532 88.431 90.7537 88.5625 90.9694C88.7037 91.2156 88.8225 91.4738 88.9175 91.7411" fill="#0142AF"/>
        <path d="M96.4446 93.5619H91.3105C91.4387 93.9635 91.6876 94.316 92.0236 94.5717C92.3599 94.8061 92.7631 94.9262 93.1733 94.9141C93.482 94.9251 93.7879 94.8518 94.0579 94.7021C94.3087 94.5467 94.5152 94.3296 94.6575 94.0717H96.3285C96.2376 94.3362 96.1164 94.5894 95.9672 94.8262C95.7603 95.1293 95.5104 95.401 95.2254 95.6328C94.9434 95.8647 94.6246 96.0481 94.2821 96.1755C93.8977 96.3086 93.4927 96.3725 93.0859 96.3641C92.5769 96.3811 92.0711 96.2786 91.609 96.0651C91.147 95.8515 90.7417 95.5328 90.4259 95.1345C89.9022 94.486 89.624 93.6745 89.6401 92.8421C89.6352 92.2102 89.7936 91.5877 90.0999 91.0346C90.3933 90.4918 90.8366 90.0443 91.3772 89.7451C91.9223 89.4415 92.5372 89.2845 93.1615 89.2895C93.7647 89.2837 94.3591 89.4347 94.886 89.7276C95.4041 90.0141 95.8285 90.4432 96.1084 90.9638C96.3971 91.4873 96.5474 92.0756 96.545 92.673C96.5444 92.9719 96.5112 93.2697 96.4458 93.5614L96.4446 93.5619ZM94.9208 92.2845C94.8548 91.8412 94.6341 91.4354 94.2976 91.1383C94.0009 90.9126 93.6454 90.7768 93.2734 90.7469C92.9014 90.7171 92.5286 90.7944 92.1995 90.9698C91.9335 91.1266 91.7091 91.3446 91.5451 91.6056C91.4184 91.8167 91.3241 92.0456 91.2654 92.2845H94.9208Z" fill="#0142AF"/>
        <path d="M101.742 91.352H100.193C100.167 91.1839 100.086 91.029 99.9634 90.911C99.8415 90.8187 99.6911 90.7717 99.5381 90.778C99.3852 90.7844 99.2392 90.8436 99.1253 90.9456C99.07 90.9978 99.0261 91.0608 98.9964 91.1308C98.9667 91.2007 98.9519 91.276 98.9529 91.352C98.9518 91.4146 98.9636 91.4768 98.9876 91.5346C99.0117 91.5925 99.0474 91.6448 99.0925 91.6884C99.3099 91.8399 99.5552 91.947 99.8143 92.0036C100.258 92.1261 100.689 92.2942 101.098 92.5053C101.353 92.6551 101.562 92.872 101.701 93.1323C101.854 93.4248 101.93 93.7513 101.922 94.0811C101.93 94.3835 101.874 94.6841 101.759 94.9642C101.645 95.2443 101.473 95.4978 101.256 95.7089C101.038 95.9255 100.779 96.0956 100.493 96.2089C100.207 96.3222 99.9015 96.3763 99.5941 96.368C99.2207 96.3742 98.8503 96.3 98.5082 96.1505C98.2195 96.0271 97.9583 95.8476 97.74 95.6224C97.555 95.427 97.4088 95.1985 97.3088 94.949C97.2057 94.6685 97.1459 94.374 97.1312 94.0756H98.7563C98.7963 94.3204 98.9088 94.5477 99.0793 94.7284C99.2284 94.8571 99.4209 94.9246 99.6179 94.9172C99.7134 94.9211 99.8086 94.9058 99.8981 94.8724C99.9875 94.839 100.069 94.7881 100.139 94.7226C100.204 94.6622 100.255 94.5889 100.29 94.5075C100.324 94.426 100.341 94.3383 100.34 94.2498C100.344 94.1686 100.33 94.0874 100.299 94.0124C100.267 93.9375 100.218 93.8708 100.157 93.8174C99.9208 93.6579 99.6628 93.5337 99.3909 93.4489C98.9919 93.3216 98.606 93.1563 98.2386 92.9555C97.9708 92.7971 97.7467 92.5747 97.5865 92.3085C97.4395 92.0453 97.3651 91.748 97.3709 91.4468C97.3669 91.0667 97.4662 90.6926 97.6583 90.3642C97.8503 90.0374 98.1334 89.7733 98.4732 89.604C98.8118 89.427 99.1884 89.3344 99.5708 89.3341C99.8912 89.3296 100.209 89.3971 100.499 89.5315C100.754 89.6469 100.985 89.8082 101.18 90.0072C101.349 90.1816 101.484 90.3856 101.579 90.6089C101.673 90.8468 101.728 91.0985 101.742 91.354" fill="#0142AF"/>
        <path d="M106.236 96.15V87.3529H108.5L110.845 94.0097H110.874L113.197 87.3529H115.461V96.15H113.825V89.5513H113.79L111.537 96.15H110.158L107.896 89.5513H107.873V96.15H106.236Z" fill="#0142AF"/>
        <path d="M123.519 89.5516V96.1503H122.064V95.3319C121.78 95.6458 121.439 95.9037 121.06 96.0921C120.653 96.2818 120.208 96.3752 119.759 96.3649C119.194 96.3727 118.638 96.225 118.152 95.9382C117.658 95.637 117.255 95.2091 116.985 94.6995C116.69 94.1331 116.536 93.5048 116.534 92.8669C116.532 92.229 116.682 91.5998 116.973 91.0316C117.251 90.506 117.673 90.0701 118.19 89.7751C118.681 89.4864 119.241 89.3332 119.811 89.3312C120.161 89.3251 120.509 89.3862 120.835 89.5112C121.11 89.6173 121.368 89.7629 121.601 89.9436C121.77 90.0678 121.918 90.2177 122.041 90.3877H122.064V89.5519L123.519 89.5516ZM122.017 92.8363C122.029 92.5633 121.986 92.2906 121.891 92.0344C121.795 91.7782 121.649 91.5437 121.461 91.3448C121.282 91.159 121.066 91.0125 120.827 90.9145C120.588 90.8166 120.331 90.7694 120.073 90.776C119.72 90.7727 119.373 90.8694 119.073 91.0549C118.773 91.2403 118.531 91.5069 118.377 91.8237C118.207 92.1514 118.118 92.5149 118.118 92.8839C118.111 93.1513 118.158 93.4174 118.257 93.6662C118.356 93.915 118.503 94.1414 118.692 94.3318C118.871 94.52 119.087 94.669 119.327 94.7694C119.567 94.8698 119.826 94.9195 120.086 94.9152C120.35 94.9247 120.612 94.8754 120.854 94.771C121.096 94.6665 121.312 94.5095 121.486 94.3115C121.843 93.9044 122.033 93.3781 122.019 92.8375" fill="#0142AF"/>
        <path d="M124.834 96.1499V89.5513H126.291V90.1376H126.314C126.474 89.8808 126.69 89.6634 126.946 89.5017C127.191 89.3791 127.462 89.32 127.735 89.3298H127.863V90.8622C127.58 90.8684 127.301 90.9377 127.048 91.0651C126.841 91.1788 126.676 91.3557 126.577 91.57C126.461 91.8454 126.408 92.1425 126.42 92.4406V96.1491L124.834 96.1499Z" fill="#0142AF"/>
        <path d="M129.09 96.15V87.3529H130.673V92.6575H130.696L132.809 89.5525H134.632L132.251 92.7847L134.946 96.1508H132.943L130.696 93.0636H130.673V96.1508L129.09 96.15Z" fill="#0142AF"/>
        <path d="M141.46 93.5619H136.326C136.454 93.9634 136.703 94.3159 137.039 94.5717C137.375 94.806 137.778 94.9261 138.188 94.9141C138.497 94.9252 138.803 94.8519 139.073 94.7021C139.324 94.5466 139.53 94.3295 139.673 94.0717H141.344C141.253 94.3362 141.132 94.5894 140.983 94.8262C140.776 95.1294 140.526 95.4011 140.241 95.6328C139.959 95.8647 139.64 96.0481 139.298 96.1755C138.913 96.3086 138.508 96.3725 138.101 96.3641C137.592 96.3811 137.086 96.2787 136.624 96.0651C136.162 95.8515 135.757 95.5328 135.441 95.1345C134.917 94.4859 134.639 93.6745 134.655 92.8421C134.651 92.2102 134.809 91.5878 135.115 91.0345C135.409 90.4918 135.852 90.0443 136.393 89.7451C136.938 89.4414 137.553 89.2844 138.177 89.2895C138.78 89.2838 139.374 89.4349 139.9 89.7276C140.418 90.0143 140.842 90.4438 141.121 90.9646C141.41 91.4881 141.561 92.0764 141.558 92.6739C141.558 92.9727 141.524 93.2706 141.459 93.5622L141.46 93.5619ZM139.934 92.2853C139.868 91.8421 139.647 91.4363 139.311 91.1391C139.014 90.9135 138.659 90.7777 138.287 90.7478C137.915 90.7179 137.542 90.7953 137.213 90.9706C136.947 91.1274 136.722 91.3454 136.558 91.6065C136.432 91.8176 136.337 92.0465 136.279 92.2853H139.934Z" fill="#0142AF"/>
        <path d="M142.944 96.15V90.9557H142.17V89.5516H142.944V87.3518H144.533V89.5514H145.482V90.9554H144.533V96.1497L142.944 96.15Z" fill="#0142AF"/>
        <path d="M146.053 98.3498V89.5527H147.508V90.3244H147.531C147.792 90.0146 148.113 89.7601 148.475 89.576C148.844 89.4055 149.249 89.3221 149.656 89.3321C150.246 89.3249 150.827 89.4763 151.338 89.7702C151.854 90.0741 152.272 90.5181 152.543 91.0503C152.843 91.613 152.997 92.2412 152.992 92.8782C153.003 93.3366 152.921 93.7925 152.752 94.2188C152.582 94.6451 152.328 95.0329 152.005 95.3591C151.702 95.6815 151.335 95.9376 150.928 96.1109C150.521 96.2843 150.081 96.3712 149.639 96.366C149.275 96.3743 148.913 96.3092 148.575 96.1746C148.225 96.0131 147.907 95.791 147.635 95.5187V98.351L146.053 98.3498ZM147.543 92.8481C147.539 93.2171 147.627 93.5814 147.799 93.9083C147.965 94.2265 148.225 94.4864 148.544 94.6533C148.828 94.8158 149.148 94.9055 149.476 94.9144C149.803 94.9086 150.123 94.8175 150.404 94.6502C150.715 94.4758 150.97 94.2176 151.141 93.9051C151.319 93.5837 151.411 93.2218 151.408 92.8544C151.416 92.5817 151.369 92.3102 151.271 92.0557C151.173 91.8011 151.024 91.5686 150.835 91.3718C150.665 91.1839 150.457 91.0339 150.225 90.9314C149.992 90.8289 149.741 90.7763 149.487 90.7769C149.314 90.7767 149.141 90.8022 148.975 90.8525C148.804 90.9043 148.641 90.9774 148.489 91.07C148.318 91.1764 148.164 91.3074 148.032 91.4589C147.875 91.6385 147.755 91.8464 147.677 92.0712C147.587 92.3206 147.541 92.5838 147.543 92.8489" fill="#0142AF"/>
        <path d="M155.594 87.3518H154.01V96.15H155.594V87.3518Z" fill="#0142AF"/>
        <path d="M163.534 89.5516V96.1502H162.078V95.3318C161.794 95.6457 161.454 95.9036 161.074 96.0921C160.668 96.2818 160.222 96.3751 159.773 96.3648C159.208 96.3724 158.652 96.2243 158.165 95.9367C157.672 95.6355 157.269 95.2077 156.998 94.698C156.704 94.1316 156.549 93.5033 156.547 92.8655C156.545 92.2276 156.696 91.5984 156.987 91.0302C157.264 90.5046 157.686 90.0688 158.203 89.7736C158.695 89.485 159.254 89.3318 159.825 89.3298C160.174 89.3236 160.522 89.3847 160.849 89.5097C161.124 89.6159 161.382 89.7616 161.615 89.9421C161.783 90.0663 161.932 90.2162 162.054 90.3863H162.077V89.5504L163.534 89.5516ZM162.032 92.8363C162.044 92.5632 162.001 92.2906 161.905 92.0344C161.81 91.7782 161.664 91.5437 161.476 91.3448C161.297 91.159 161.081 91.0124 160.842 90.9145C160.603 90.8165 160.346 90.7694 160.088 90.776C159.734 90.7727 159.388 90.8694 159.087 91.0548C158.787 91.2403 158.546 91.5069 158.392 91.8236C158.222 92.1514 158.133 92.5149 158.133 92.8838C158.126 93.1512 158.173 93.4173 158.272 93.6661C158.37 93.9149 158.518 94.1413 158.706 94.3318C158.886 94.52 159.102 94.669 159.342 94.7694C159.582 94.8699 159.84 94.9195 160.1 94.9152C160.364 94.9246 160.627 94.8754 160.869 94.7709C161.111 94.6665 161.327 94.5095 161.5 94.3114C161.858 93.9043 162.048 93.3781 162.033 92.8374" fill="#0142AF"/>
        <path d="M171.375 91.7391H169.582C169.447 91.4699 169.252 91.2354 169.011 91.0542C168.729 90.8667 168.396 90.7696 168.057 90.776C167.717 90.7746 167.382 90.8625 167.088 91.031C166.786 91.2021 166.541 91.456 166.38 91.7626C166.207 92.0896 166.119 92.4548 166.124 92.8245C166.119 93.2005 166.209 93.5717 166.386 93.904C166.551 94.2192 166.804 94.4802 167.114 94.6556C167.409 94.8274 167.744 94.9184 168.086 94.9195C168.379 94.9244 168.667 94.8448 168.915 94.6903C169.185 94.5095 169.412 94.2729 169.582 93.9965H171.375C171.23 94.377 171.034 94.7362 170.793 95.0645C170.478 95.4687 170.075 95.7961 169.614 96.0222C169.117 96.2582 168.572 96.3759 168.022 96.366C167.503 96.383 166.987 96.2765 166.517 96.0555C166.047 95.8345 165.637 95.5052 165.32 95.0949C164.875 94.5329 164.607 93.8516 164.551 93.1375C164.495 92.4233 164.653 91.7088 165.006 91.0846C165.311 90.544 165.762 90.0988 166.307 89.7989C166.712 89.5636 167.161 89.4132 167.626 89.3569C168.092 89.3005 168.564 89.3394 169.014 89.4711C169.32 89.5568 169.613 89.682 169.887 89.8436C170.133 89.9887 170.358 90.1664 170.556 90.3717C170.732 90.5532 170.887 90.7537 171.019 90.9694C171.16 91.2155 171.279 91.4738 171.374 91.7411" fill="#0142AF"/>
        <path d="M178.901 93.5619H173.767C173.895 93.9634 174.144 94.3159 174.48 94.5717C174.816 94.806 175.219 94.9261 175.629 94.9141C175.938 94.9252 176.244 94.8519 176.514 94.7021C176.765 94.5465 176.972 94.3295 177.114 94.0717H178.785C178.694 94.3362 178.573 94.5894 178.424 94.8262C178.217 95.1294 177.967 95.4011 177.682 95.6328C177.4 95.8647 177.081 96.0481 176.739 96.1755C176.354 96.3086 175.949 96.3725 175.542 96.3641C175.033 96.3813 174.527 96.2789 174.065 96.0654C173.602 95.8518 173.197 95.5329 172.881 95.1345C172.357 94.4859 172.079 93.6745 172.095 92.8421C172.09 92.2102 172.249 91.5878 172.555 91.0345C172.848 90.4918 173.292 90.0443 173.833 89.7451C174.378 89.4414 174.993 89.2844 175.617 89.2895C176.22 89.2838 176.813 89.4349 177.34 89.7276C177.858 90.014 178.282 90.4432 178.562 90.9638C178.851 91.4873 179.001 92.0755 178.999 92.673C178.998 92.9718 178.965 93.2697 178.9 93.5613L178.901 93.5619ZM177.375 92.2845C177.309 91.8413 177.088 91.4354 176.752 91.1383C176.455 90.9126 176.1 90.7768 175.728 90.7469C175.356 90.717 174.983 90.7944 174.654 90.9698C174.388 91.1266 174.163 91.3446 173.999 91.6056C173.872 91.8168 173.778 92.0456 173.719 92.2845H177.375Z" fill="#0142AF"/>
    </g>
    <defs>
        <clipPath id="clip0_502_53806">
            <rect width="179" height="99" fill="white"/>
        </clipPath>
    </defs>
</svg>
