<svg width="102" height="102" viewBox="0 0 102 102" fill="none" xmlns="http://www.w3.org/2000/svg">
    <path d="M79.1377 1.96191H23.8891C11.7779 1.96191 1.95996 11.7799 1.95996 23.891V79.1397C1.95996 91.2508 11.7779 101.069 23.8891 101.069H79.1377C91.2488 101.069 101.067 91.2508 101.067 79.1397V23.891C101.067 11.7799 91.2488 1.96191 79.1377 1.96191Z" fill="#0142AF"/>
    <path d="M42.1933 45.662V51.861H23.5381V46.2041L34.1084 32.9894H23.7744V26.7905H42.1933V32.9894L32.3914 45.662H42.1933Z" fill="white"/>
    <path d="M51.9247 51.8608H44.4266V26.7953H51.9247V51.8608Z" fill="white"/>
    <path d="M79.6953 48.2925C79.6953 51.8197 79.4404 54.0712 78.2929 56.0679C76.4653 59.0418 72.1748 61.634 66.3525 61.634C58.152 61.634 55.05 56.7057 54.5825 53.3489H62.7409C63.7603 55.6862 66.3948 55.6862 66.8623 55.6862C67.7549 55.6862 72.5987 55.6017 72.5987 49.2697V48.5474H72.5142C71.7918 49.9075 69.7529 51.9042 66.0554 51.9042C59.6389 51.9042 54.1573 47.0605 54.1573 39.4964C54.1573 31.4227 59.936 26.7915 66.0554 26.7915C68.6899 26.7915 71.2821 27.7264 72.5564 29.7654H72.641V26.7915H79.694V48.2913L79.6953 48.2925ZM66.8635 45.3186C70.2626 45.3186 72.6422 42.8545 72.6422 39.4554C72.6422 35.6734 70.05 33.3796 66.9058 33.3796C63.7616 33.3796 61.2116 35.8014 61.2116 39.2428C61.2116 43.0248 63.9307 45.3186 66.8635 45.3186Z" fill="white"/>
    <path d="M48.1761 24.0055C51.555 24.0055 54.2942 21.2663 54.2942 17.8874C54.2942 14.5085 51.555 11.7693 48.1761 11.7693C44.7972 11.7693 42.058 14.5085 42.058 17.8874C42.058 21.2663 44.7972 24.0055 48.1761 24.0055Z" fill="white"/>
    <path d="M52.5059 71.5713C54.366 71.5713 55.8739 70.0634 55.8739 68.2033C55.8739 66.3432 54.366 64.8353 52.5059 64.8353C50.6458 64.8353 49.1379 66.3432 49.1379 68.2033C49.1379 70.0634 50.6458 71.5713 52.5059 71.5713Z" fill="#80A8FF"/>
    <path d="M54.6581 89.4209H50.3489V73.7632H54.6581V89.4209Z" fill="#F47820"/>
    <path d="M52.5059 71.5713C54.366 71.5713 55.8739 70.0634 55.8739 68.2033C55.8739 66.3432 54.366 64.8353 52.5059 64.8353C50.6458 64.8353 49.1379 66.3432 49.1379 68.2033C49.1379 70.0634 50.6458 71.5713 52.5059 71.5713Z" fill="#F47820"/>
    <path d="M23.5385 89.4211V53.349H27.9309V68.6959H28.0154C29.9164 66.0353 32.8729 64.8107 36.0395 64.8107C42.2471 64.8107 48.1601 69.9205 48.1601 77.1426C48.1601 83.8998 42.9657 89.4323 36.124 89.4323C33.9707 89.4323 30.3801 88.6714 27.9732 85.4625H27.8886V89.4223H23.5385V89.4211ZM35.7859 85.419C40.0092 85.419 43.7676 81.7875 43.7676 77.1414C43.7676 72.7489 40.3884 68.8214 35.7859 68.8214C31.1833 68.8214 27.8041 72.918 27.8041 77.0568C27.8041 82.3357 31.8584 85.419 35.7859 85.419Z" fill="#F47820"/>
    <path d="M74.594 64.8453V69.3261L62.6028 85.2063H74.6686V89.421H56.88V85.8279L69.5377 69.06H58.0959V64.8453H74.594Z" fill="#F47820"/>
</svg>
