<svg width="32" height="33" viewBox="0 0 32 33" fill="currentColor">
    <path d="M16 18.375H12C9.2375 18.375 7 20.4727 7 23.0625C7 23.5781 7.45 24 8 24H20C20.5522 24 21 23.5802 21 23.0625C21 20.4727 18.7625 18.375 16 18.375ZM14 16.5C16.2094 16.5 18 14.8213 18 12.75C18 10.6787 16.2094 9 14 9C11.7913 9 10 10.6787 10 12.75C10 14.8213 11.7937 16.5 14 16.5ZM30 20.25H29V25.875H30C30.5522 25.875 31 25.4552 31 24.9375V21.1875C31 20.6719 30.55 20.25 30 20.25ZM30 5.25H29V10.875H30C30.55 10.875 31 10.4531 31 9.9375V6.1875C31 5.66953 30.55 5.25 30 5.25ZM30 12.75H29V18.375H30C30.55 18.375 31 17.9531 31 17.4375V13.6875C31 13.1719 30.55 12.75 30 12.75ZM23 1.5H5C2.79063 1.5 1 3.17871 1 5.25V27.75C1 29.8213 2.79063 31.5 5 31.5H23C25.2094 31.5 27 29.8213 27 27.75V5.25C27 3.17871 25.2062 1.5 23 1.5ZM24 27.75C24 28.2677 23.5522 28.6875 23 28.6875H5C4.44775 28.6875 4 28.2677 4 27.75V5.25C4 4.73215 4.44775 4.3125 5 4.3125H23C23.5522 4.3125 24 4.73215 24 5.25V27.75Z" />
</svg>
