<svg width="32" height="33" viewBox="0 0 32 33" fill="currentColor">
<path d="M27.6667 4.5H9.33333C7.49219 4.5 6 6.03482 6 7.92857V19.9286C6 21.8223 7.49219 23.3571 9.33333 23.3571H27.6667C29.5078 23.3571 31 21.8223 31 19.9286V7.92857C31 6.03482 29.5052 4.5 27.6667 4.5ZM28.5 19.9286C28.5 20.4012 28.1261 20.7857 27.6667 20.7857H26.8333L21.1406 12.1661C20.9844 11.9304 20.724 11.7857 20.4427 11.7857C20.164 11.7857 19.9036 11.9289 19.7495 12.1674L16.4818 17.209L15.3177 15.5679C15.1615 15.3429 14.9115 15.2143 14.6458 15.2143C14.3797 15.2143 14.1295 15.3451 13.9724 15.5665L10.1667 20.7857H9.33333C8.87385 20.7857 8.5 20.4012 8.5 19.9286V7.92857C8.5 7.45596 8.87385 7.07143 9.33333 7.07143H27.6667C28.1261 7.07143 28.5 7.45596 28.5 7.92857V19.9286ZM12.6667 8.78571C11.7464 8.78571 11 9.55339 11 10.5C11 11.4466 11.7464 12.2143 12.6667 12.2143C13.5875 12.2143 14.3333 11.4466 14.3333 10.5C14.3333 9.55339 13.5885 8.78571 12.6667 8.78571ZM24.75 28.5H7.25C3.80365 28.5 1 25.6179 1 22.0714V9.21429C1 8.50714 1.5599 7.92857 2.25 7.92857C2.9401 7.92857 3.5 8.50714 3.5 9.21429V22.0714C3.5 24.1982 5.18229 25.9286 7.25 25.9286H24.75C25.4401 25.9286 26 26.5045 26 27.2143C26 27.9241 25.4427 28.5 24.75 28.5Z"/>
</svg>
