<svg width="32" height="32" viewBox="0 0 32 32" fill="currentColor">
    <path d="M15.2969 5.48498L15.9473 6.19755L16.6504 5.48617C18.6133 3.54736 21.332 2.66496 24.0039 3.11566C28.041 3.79736 31 7.33768 31 11.4884V11.8328C31 14.2972 29.9922 16.6546 28.2109 18.3351L17.623 28.3527C17.1836 28.7684 16.6035 29 16 29C15.3965 29 14.8164 28.7684 14.377 28.3527L3.78848 18.3351C2.00957 16.6546 1 14.2972 1 11.8328V11.4884C1 7.33768 3.96016 3.79736 7.99609 3.11566C10.6152 2.66496 13.3867 3.54736 15.2969 5.48498C15.2441 5.48498 15.2969 5.48557 15.2969 5.48498ZM15.9473 10.2295L13.3105 7.4505C12.0391 6.21418 10.2344 5.62749 8.45898 5.92678C5.77832 6.37986 3.8125 8.73314 3.8125 11.4884V11.8328C3.8125 13.5074 4.49863 15.1107 5.70742 16.2508L16 25.9894L26.2949 16.2508C27.502 15.1107 28.1875 13.5074 28.1875 11.8328V11.4884C28.1875 8.73314 26.2188 6.37986 23.541 5.92678C21.7656 5.62749 19.9609 6.21418 18.6895 7.4505L15.9473 10.2295Z"/>
</svg>