<svg width="32" height="32" viewBox="0 0 32 32" fill="currentColor">
<path d="M9.92247 7.5C8.36641 7.5 7.10501 8.84312 7.10501 10.5C7.10501 12.1569 8.36641 13.5 9.92247 13.5C11.4785 13.5 12.7399 12.1569 12.7399 10.5C12.7399 8.84312 11.4779 7.5 9.92247 7.5ZM27.2439 2H4.70431C2.6822 2 1 3.79063 1 6V26C1 28.2094 2.68167 30 4.70378 30H27.2434C29.3183 30 31 28.2094 31 26V6C31.0005 3.79063 29.3688 2 27.2439 2ZM28.1831 25.5812L20.1533 13.9625C20.0066 13.675 19.672 13.5 19.314 13.5C18.9552 13.5 18.6202 13.673 18.4212 13.9612L12.1641 22.9674L9.98703 20.0862C9.78506 19.8188 9.46264 19.6606 9.12008 19.6606C8.77717 19.6606 8.45504 19.8187 8.25254 20.0862L3.81975 25.9493C3.81975 25.9475 3.81975 25.9511 3.81975 25.9493L3.8174 6C3.8174 5.44863 4.23873 5 4.75655 5H27.2962C27.814 5 28.2353 5.44863 28.2353 6V25.5812H28.1831Z"/>
</svg>
