<svg width="32" height="32" viewBox="0 0 32 32" fill="currentColor">
<path d="M16 1C7.71484 1 1 7.71484 1 16C1 24.2852 7.71484 31 16 31C24.2852 31 31 24.2852 31 16C31 7.71484 24.2852 1 16 1ZM16 28.1875C9.2793 28.1875 3.8125 22.7201 3.8125 16C3.8125 9.27988 9.2793 3.8125 16 3.8125C22.7207 3.8125 28.1875 9.27988 28.1875 16C28.1875 22.7201 22.7207 28.1875 16 28.1875ZM16 20.6875C14.9453 20.6875 14.125 21.5078 14.125 22.5625C14.125 23.6172 14.8926 24.4375 16 24.4375C17.002 24.4375 17.875 23.6172 17.875 22.5625C17.875 21.5078 17.002 20.6875 16 20.6875ZM17.9395 8.5H14.9453C12.6602 8.5 10.8438 10.3164 10.8438 12.6016C10.8438 13.3633 11.4883 14.0078 12.25 14.0078C13.0117 14.0078 13.6562 13.3633 13.6562 12.6016C13.6562 11.8984 14.1895 11.3125 14.8926 11.3125H17.8867C18.6426 11.3125 19.2812 11.8984 19.2812 12.6016C19.2812 13.0703 19.0469 13.4277 18.6367 13.6621L15.2969 15.707C14.8281 16 14.5938 16.4688 14.5938 16.9375V17.875C14.5938 18.6367 15.2383 19.2812 16 19.2812C16.7617 19.2812 17.4062 18.6367 17.4062 17.875V17.7578L20.0488 16.1172C21.2793 15.3555 22.041 14.0078 22.041 12.6016C22.0938 10.3164 20.2773 8.5 17.9395 8.5Z"/>
</svg>
