<svg width="32" height="33" viewBox="0 0 32 33" fill="currentColor">
    <g clip-path="url(#clip0_502_48807)">
        <path d="M14.5008 22.5H6.00016C5.38449 22.5 4.80256 22.2188 4.42366 21.7313C4.04459 21.2438 3.91037 20.6125 4.05973 20.0125L4.45016 18.4562C5.09446 15.875 6.66146 13.7188 8.746 12.3062L9.42355 3.5H7.50028C7.22276 3.5 6.96336 3.425 6.74022 3.29375C6.29768 3.03312 6.00016 2.55125 6.00016 2C6.00016 1.17188 6.67209 0.5 7.50028 0.5H24.5016C25.3329 0.5 26.0017 1.17188 26.0017 2C26.0017 2.55125 25.7017 3.03312 25.2642 3.29375C25.0392 3.425 24.7766 3.5 24.5016 3.5H22.5765L23.2578 12.3062C25.3392 13.7188 26.9081 15.875 27.5519 18.4562L27.9394 20.0125C28.0894 20.6125 27.9581 21.2438 27.5769 21.7313C27.2018 22.2188 26.6205 22.5 26.0017 22.5H17.5011V31C17.5011 31.8312 16.8323 32.5 15.9447 32.5C15.1696 32.5 14.4446 31.8312 14.4446 31L14.5008 22.5ZM11.6256 13.9812L10.4318 14.7937C8.93852 15.8 7.82093 17.3375 7.36089 19.1812L7.28089 19.5H14.5008C13.5007 19.5 15.1696 19.5 16.0009 19.5C16.8323 19.5 19.5012 19.5 17.5011 19.5H24.7204L24.6391 19.1812C24.1828 17.3375 23.0077 15.8 21.5701 14.7937L20.32 13.9812L19.57 3.5H12.4319L11.6256 13.9812Z"/>
    </g>
    <defs>
        <clipPath id="clip0_502_48807">
            <rect width="32" height="32" fill="white" transform="translate(0 0.5)"/>
        </clipPath>
    </defs>
</svg>
