<svg width="32" height="33" viewBox="0 0 32 33" fill="currentColor">
    <path d="M12.8571 23.25C12.8571 23.6625 12.5036 24 12.0714 24C11.6393 24 11.2857 23.6625 11.2857 23.25V13.5C11.2857 13.0875 11.6393 12.75 12.0714 12.75C12.5036 12.75 12.8571 13.0875 12.8571 13.5V23.25ZM16.7857 23.25C16.7857 23.6625 16.4321 24 16 24C15.5679 24 15.2143 23.6625 15.2143 23.25V13.5C15.2143 13.0875 15.5679 12.75 16 12.75C16.4321 12.75 16.7857 13.0875 16.7857 13.5V23.25ZM20.7143 23.25C20.7143 23.6625 20.3607 24 19.9286 24C19.4964 24 19.1429 23.6625 19.1429 23.25V13.5C19.1429 13.0875 19.4964 12.75 19.9286 12.75C20.3607 12.75 20.7143 13.0875 20.7143 13.5V23.25ZM20.5915 5.66906L22.3938 8.25H25.8214C26.4746 8.25 27 8.75391 27 9.375C27 9.99844 26.4746 10.5 25.8214 10.5H25.4286V24.75C25.4286 26.8219 23.6705 28.5 21.5 28.5H10.5C8.33045 28.5 6.57143 26.8219 6.57143 24.75V10.5H6.17857C5.5279 10.5 5 9.99844 5 9.375C5 8.75391 5.5279 8.25 6.17857 8.25H9.60723L11.4085 5.66906C11.9192 4.93861 12.7786 4.5 13.6969 4.5H18.3031C19.2214 4.5 20.0808 4.93866 20.5915 5.66906ZM12.4397 8.25H19.5603L18.6272 6.91688C18.5536 6.81281 18.4308 6.75 18.3031 6.75H13.6969C13.5692 6.75 13.4022 6.81281 13.3728 6.91688L12.4397 8.25ZM8.92857 24.75C8.92857 25.5797 9.63228 26.25 10.5 26.25H21.5C22.3692 26.25 23.0714 25.5797 23.0714 24.75V10.5H8.92857V24.75Z"/>
</svg>
