<svg width="32" height="33" viewBox="0 0 32 33" fill="none" xmlns="http://www.w3.org/2000/svg">
    <path d="M8.53704 16.5C8.53704 18.7071 6.73803 20.5 4.51852 20.5C2.299 20.5 0.5 18.7071 0.5 16.5C0.5 14.2929 2.299 12.5 4.51852 12.5C6.73803 12.5 8.53704 14.2929 8.53704 16.5ZM20.0185 16.5C20.0185 18.7071 18.2174 20.5 16 20.5C13.7826 20.5 11.9815 18.7071 11.9815 16.5C11.9815 14.2929 13.7826 12.5 16 12.5C18.2174 12.5 20.0185 14.2929 20.0185 16.5ZM23.463 16.5C23.463 14.2929 25.2641 12.5 27.4815 12.5C29.6988 12.5 31.5 14.2929 31.5 16.5C31.5 18.7071 29.6988 20.5 27.4815 20.5C25.2641 20.5 23.463 18.7071 23.463 16.5Z" fill="#201F1E"/>
</svg>
