<svg width="32" height="33" viewBox="0 0 32 33" fill="none" xmlns="http://www.w3.org/2000/svg">
    <path d="M23 1.5H5C2.79063 1.5 1 3.17871 1 5.25V27.75C1 29.8213 2.79063 31.5 5 31.5H23C25.2094 31.5 27 29.8213 27 27.75V5.25C27 3.17871 25.2062 1.5 23 1.5ZM14 9C16.2094 9 18 10.6787 18 12.75C18 14.8213 16.2094 16.5 14 16.5C11.7913 16.5 10 14.8213 10 12.75C10 10.6787 11.7937 9 14 9ZM20 24H8C7.45 24 7 23.5781 7 23.0625C7 20.4727 9.2375 18.375 12 18.375H16C18.7612 18.375 21 20.4738 21 23.0625C21 23.5781 20.55 24 20 24ZM30 5.25H29V10.875H30C30.55 10.875 31 10.4531 31 9.9375V6.1875C31 5.66953 30.55 5.25 30 5.25ZM30 12.75H29V18.375H30C30.55 18.375 31 17.9531 31 17.4375V13.6875C31 13.1719 30.55 12.75 30 12.75ZM30 20.25H29V25.875H30C30.5522 25.875 31 25.4552 31 24.9375V21.1875C31 20.6719 30.55 20.25 30 20.25Z" fill="#201F1E"/>
</svg>
