<svg width="14" height="12" viewBox="0 0 14 12" fill="none" xmlns="http://www.w3.org/2000/svg">
<path d="M8.94444 8.35714H11.2778C11.5998 8.35714 11.8611 8.0692 11.8611 7.71429C11.8611 7.35938 11.5998 7.07143 11.2778 7.07143H8.94444C8.6224 7.07143 8.36111 7.35938 8.36111 7.71429C8.36111 8.0692 8.62361 8.35714 8.94444 8.35714ZM5.05556 7.71429C5.91476 7.71429 6.61111 6.94688 6.61111 6C6.61111 5.05312 5.91476 4.28571 5.05556 4.28571C4.19635 4.28571 3.5 5.05312 3.5 6C3.5 6.94554 4.19757 7.71429 5.05556 7.71429ZM12.4444 0H1.55556C0.696354 0 0 0.767411 0 1.71429V10.2857C0 11.2326 0.696354 12 1.55556 12H12.4444C13.3036 12 14 11.2326 14 10.2857V1.71429C14 0.767411 13.3024 0 12.4444 0ZM12.8333 10.2857C12.8333 10.522 12.6589 10.7143 12.4444 10.7143H7.77778C7.77778 9.53089 6.90715 8.57143 5.83333 8.57143H4.27778C3.20347 8.57143 2.33333 9.53036 2.33333 10.7143H1.55556C1.34113 10.7143 1.16667 10.522 1.16667 10.2857V3.42857H12.8333V10.2857ZM8.94444 6.21429H11.2778C11.5998 6.21429 11.8611 5.92634 11.8611 5.57143C11.8611 5.21652 11.5998 4.92857 11.2778 4.92857H8.94444C8.6224 4.92857 8.36111 5.21652 8.36111 5.57143C8.36111 5.92634 8.62361 6.21429 8.94444 6.21429Z" fill="#605E5C"/>
</svg>
