<svg width="32" height="32" viewBox="0 0 32 32" fill="none" xmlns="http://www.w3.org/2000/svg">
    <path d="M24.5714 1.81818V4C24.5714 4.45184 24.2116 4.81818 23.7679 4.81818H8.23214C7.78837 4.81818 7.42857 4.45184 7.42857 4V1.81818C7.42857 1.36634 7.78837 1 8.23214 1H23.7679C24.2116 1 24.5714 1.36634 24.5714 1.81818ZM1.80357 13.5455H30.1964C30.6402 13.5455 31 13.1791 31 12.7273V10.5455C31 10.0936 30.6402 9.72727 30.1964 9.72727H1.80357C1.3598 9.72727 1 10.0936 1 10.5455V12.7273C1 13.1791 1.3598 13.5455 1.80357 13.5455ZM1.80357 31H30.1964C30.6402 31 31 30.6337 31 30.1818V28C31 27.5482 30.6402 27.1818 30.1964 27.1818H1.80357C1.3598 27.1818 1 27.5482 1 28V30.1818C1 30.6337 1.3598 31 1.80357 31ZM23.7679 18.4545H8.23214C7.78837 18.4545 7.42857 18.8209 7.42857 19.2727V21.4545C7.42857 21.9064 7.78837 22.2727 8.23214 22.2727H23.7679C24.2116 22.2727 24.5714 21.9064 24.5714 21.4545V19.2727C24.5714 18.8209 24.2116 18.4545 23.7679 18.4545Z" fill="#201F1E"/>
</svg>
