<svg width="32" height="32" viewBox="0 0 32 32" fill="none" xmlns="http://www.w3.org/2000/svg">
    <path d="M11.7143 4V1.81818C11.7143 1.36634 12.0741 1 12.5179 1H30.1964C30.6402 1 31 1.36634 31 1.81818V4C31 4.45184 30.6402 4.81818 30.1964 4.81818H12.5179C12.0741 4.81818 11.7143 4.45184 11.7143 4ZM1.80357 13.5455H30.1964C30.6402 13.5455 31 13.1791 31 12.7273V10.5455C31 10.0936 30.6402 9.72727 30.1964 9.72727H1.80357C1.3598 9.72727 1 10.0936 1 10.5455V12.7273C1 13.1791 1.3598 13.5455 1.80357 13.5455ZM1.80357 31H30.1964C30.6402 31 31 30.6337 31 30.1818V28C31 27.5482 30.6402 27.1818 30.1964 27.1818H1.80357C1.3598 27.1818 1 27.5482 1 28V30.1818C1 30.6337 1.3598 31 1.80357 31ZM12.5179 22.2727H30.1964C30.6402 22.2727 31 21.9064 31 21.4545V19.2727C31 18.8209 30.6402 18.4545 30.1964 18.4545H12.5179C12.0741 18.4545 11.7143 18.8209 11.7143 19.2727V21.4545C11.7143 21.9064 12.0741 22.2727 12.5179 22.2727Z" fill="#201F1E"/>
</svg>
