<svg width="32" height="32" viewBox="0 0 32 32" fill="currentColor">
    <path d="M20.2857 1.81818V4C20.2857 4.45184 19.9259 4.81818 19.4821 4.81818H1.80357C1.3598 4.81818 1 4.45184 1 4V1.81818C1 1.36634 1.3598 1 1.80357 1H19.4821C19.9259 1 20.2857 1.36634 20.2857 1.81818ZM1.80357 13.5455H30.1964C30.6402 13.5455 31 13.1791 31 12.7273V10.5455C31 10.0936 30.6402 9.72727 30.1964 9.72727H1.80357C1.3598 9.72727 1 10.0936 1 10.5455V12.7273C1 13.1791 1.3598 13.5455 1.80357 13.5455ZM1.80357 31H30.1964C30.6402 31 31 30.6337 31 30.1818V28C31 27.5482 30.6402 27.1818 30.1964 27.1818H1.80357C1.3598 27.1818 1 27.5482 1 28V30.1818C1 30.6337 1.3598 31 1.80357 31ZM19.4821 18.4545H1.80357C1.3598 18.4545 1 18.8209 1 19.2727V21.4545C1 21.9064 1.3598 22.2727 1.80357 22.2727H19.4821C19.9259 22.2727 20.2857 21.9064 20.2857 21.4545V19.2727C20.2857 18.8209 19.9259 18.4545 19.4821 18.4545Z"/>
</svg>
