<svg width="24" height="24" viewBox="0 0 24 24" fill="currentColor">
<path d="M20.8426 17.1449C20.5099 17.9135 20.1161 18.6211 19.6598 19.2715C19.0379 20.1583 18.5286 20.7721 18.1362 21.113C17.5278 21.6724 16.876 21.959 16.178 21.9753C15.6769 21.9753 15.0726 21.8327 14.3691 21.5434C13.6634 21.2555 13.0148 21.113 12.4218 21.113C11.7998 21.113 11.1328 21.2555 10.4193 21.5434C9.70475 21.8327 9.1291 21.9834 8.68898 21.9984C8.01963 22.0269 7.35246 21.7322 6.6865 21.113C6.26145 20.7422 5.7298 20.1067 5.09291 19.2063C4.40957 18.2449 3.84778 17.13 3.40766 15.8589C2.9363 14.486 2.70001 13.1565 2.70001 11.8694C2.70001 10.3951 3.01859 9.12345 3.65671 8.05784C4.15821 7.20191 4.82539 6.52672 5.66041 6.03105C6.49543 5.53539 7.39768 5.2828 8.36931 5.26664C8.90096 5.26664 9.59815 5.43109 10.4645 5.75429C11.3285 6.07858 11.8832 6.24303 12.1264 6.24303C12.3083 6.24303 12.9245 6.05074 13.9692 5.66738C14.9571 5.31186 15.7909 5.16466 16.474 5.22264C18.3249 5.37202 19.7155 6.10167 20.6403 7.41619C18.9849 8.4192 18.1661 9.82403 18.1824 11.6262C18.1973 13.03 18.7065 14.1981 19.7074 15.1256C20.1609 15.5561 20.6675 15.8888 21.231 16.1251C21.1088 16.4795 20.9798 16.819 20.8426 17.1449ZM16.5976 0.440369C16.5976 1.54062 16.1956 2.56792 15.3944 3.51878C14.4275 4.64917 13.258 5.30236 11.9898 5.19929C11.9737 5.06729 11.9643 4.92837 11.9643 4.78239C11.9643 3.72615 12.4241 2.59576 13.2407 1.67152C13.6483 1.20356 14.1668 0.814453 14.7955 0.504058C15.4229 0.198295 16.0164 0.0292007 16.5745 0.000244141C16.5908 0.147331 16.5976 0.294426 16.5976 0.440355V0.440369Z" fill="currentColor"/>
</svg>
