<svg width="32" height="32" viewBox="0 0 32 32" fill="none" xmlns="http://www.w3.org/2000/svg">
    <path d="M16 1C7.71484 1 1 7.71484 1 16C1 24.2852 7.71484 31 16 31C24.2852 31 31 24.2852 31 16C31 7.71484 24.2852 1 16 1ZM23.418 15.918C22.6855 16.6504 21.499 16.6504 20.7666 15.918L17.875 13.0293V23.5C17.875 24.5365 17.0354 25.375 16 25.375C14.9646 25.375 14.125 24.5365 14.125 23.5V13.0293L11.2305 15.918C10.498 16.6504 9.31152 16.6504 8.5791 15.918C7.84668 15.1855 7.84668 13.999 8.5791 13.2666L14.6201 7.22559C15.1387 6.70703 15.7129 6.625 16 6.625C16.286 6.625 16.8584 6.7065 17.3271 7.17566L23.3682 13.2167C24.1504 14.002 24.1504 15.1855 23.418 15.918Z" fill="#201F1E"/>
</svg>
