<svg width="32" height="32" viewBox="0 0 32 32" fill="none" xmlns="http://www.w3.org/2000/svg">
    <path d="M16 1C7.71484 1 1 7.71484 1 16C1 24.2852 7.71484 31 16 31C24.2852 31 31 24.2852 31 16C31 7.71484 24.2852 1 16 1ZM24.8242 17.3242L18.7832 23.3652C18.0508 24.0977 16.8643 24.0977 16.1318 23.3652C15.3994 22.6328 15.3994 21.4463 16.1318 20.7139L18.9766 17.875H8.5C7.46289 17.875 6.625 17.0371 6.625 16C6.625 14.9629 7.46348 14.125 8.5 14.125H18.9766L16.0832 11.2316C15.3508 10.4992 15.3508 9.31269 16.0832 8.58027C16.8156 7.84785 18.0021 7.84785 18.7346 8.58027L24.7756 14.6213C25.293 15.1387 25.375 15.7129 25.375 16C25.375 16.2871 25.293 16.8613 24.8242 17.3242Z" fill="#201F1E"/>
</svg>
