<svg width="32" height="32" viewBox="0 0 32 32" fill="none" xmlns="http://www.w3.org/2000/svg">
    <path d="M31 16C31 17.2906 30.1009 18.3333 28.9132 18.3333H8.33368L15.406 26.0187C16.2447 26.9302 16.2447 28.4068 15.406 29.3182C14.9833 29.774 14.4331 30 13.8828 30C13.3326 30 12.7837 29.7721 12.365 29.3164L1.62906 17.6497C0.790313 16.7383 0.790313 15.2617 1.62906 14.3503L12.365 2.68359C13.2038 1.77214 14.5626 1.77214 15.4013 2.68359C16.24 3.59505 16.24 5.07161 15.4013 5.98307L8.33368 13.6667H28.9132C30.1009 13.6667 31 14.7094 31 16Z" fill="#201F1E"/>
</svg>
