<svg width="32" height="30" viewBox="0 0 12 11" fill="none" xmlns="http://www.w3.org/2000/svg">
<path d="M2.10419 4.14163C2.28603 3.65505 2.58123 3.19749 2.99687 2.80689C4.47288 1.41187 6.86518 1.41187 8.34118 2.80689L8.74502 3.19079H7.55713C7.13913 3.19079 6.80142 3.50997 6.80142 3.90504C6.80142 4.30011 7.13913 4.61929 7.55713 4.61929H10.5682H10.5776C10.9956 4.61929 11.3333 4.30011 11.3333 3.90504V1.04806C11.3333 0.652989 10.9956 0.33381 10.5776 0.33381C10.1596 0.33381 9.82191 0.652989 9.82191 1.04806V2.19085L9.40863 1.79801C7.34222 -0.155002 3.99347 -0.155002 1.92707 1.79801C1.35084 2.34263 0.935195 2.98322 0.680142 3.66845C0.540807 4.04119 0.748628 4.44742 1.14065 4.57911C1.53268 4.7108 1.96485 4.51438 2.10419 4.14387V4.14163ZM0.543169 6.07679C0.425089 6.11027 0.311732 6.17054 0.219629 6.25982C0.125165 6.3491 0.0614017 6.45624 0.0283393 6.5723C0.0212544 6.59909 0.0141696 6.6281 0.0094464 6.65712C0.00236159 6.69506 0 6.73301 0 6.77095V9.61901C0 10.0141 0.337709 10.3333 0.755713 10.3333C1.17372 10.3333 1.51143 10.0141 1.51143 9.61901V8.47844L1.92707 8.86905C3.99347 10.8198 7.34222 10.8198 9.40627 8.86905C9.9825 8.32444 10.4005 7.68385 10.6556 7.00085C10.7949 6.6281 10.5871 6.22187 10.195 6.09018C9.80301 5.9585 9.37084 6.15491 9.23151 6.52543C9.04966 7.01201 8.75446 7.46957 8.33882 7.86018C6.86282 9.25519 4.47051 9.25519 2.99451 7.86018L2.99215 7.85794L2.58832 7.47627H3.77856C4.19657 7.47627 4.53428 7.15709 4.53428 6.76202C4.53428 6.36696 4.19657 6.04778 3.77856 6.04778H0.765159C0.727374 6.04778 0.689588 6.05001 0.651802 6.05447C0.614017 6.05894 0.578593 6.06563 0.543169 6.07679Z" fill="#323130"/>
</svg>
