<svg width="32" height="32" viewBox="0 0 32 32" fill="none" xmlns="http://www.w3.org/2000/svg">
    <path d="M16 1C7.71484 1 1 7.71484 1 16C1 24.2852 7.71484 31 16 31C24.2852 31 31 24.2852 31 16C31 7.71484 24.2852 1 16 1ZM23.5 17.875H13.0293L15.9227 20.7684C16.6551 21.5008 16.6551 22.6873 15.9227 23.4197C15.1902 24.1521 14.0037 24.1521 13.2713 23.4197L7.17578 17.3242C6.70703 16.8613 6.625 16.2871 6.625 16C6.625 15.7139 6.7065 15.141 7.17566 14.6729L13.2167 8.63184C13.9491 7.89941 15.1356 7.89941 15.868 8.63184C16.6005 9.36426 16.6005 10.5508 15.868 11.2832L13.0293 14.125H23.5C24.5365 14.125 25.375 14.9646 25.375 16C25.375 17.0354 24.5371 17.875 23.5 17.875Z" fill="#201F1E"/>
</svg>
