<svg width="32" height="32" viewBox="0 0 32 32" fill="none" xmlns="http://www.w3.org/2000/svg">
<path d="M28 12.8057C28 12.5186 27.8902 12.2315 27.6705 12.0121L26.6079 10.9541C26.3881 10.7345 26.0997 10.6247 25.8532 10.6247C25.6066 10.6247 25.2761 10.7345 25.0985 10.9541L24.8348 11.2178L19.45 5.91413L19.7137 5.65045C19.9334 5.4307 20.0433 5.14233 20.0433 4.89577C20.0433 4.6492 19.9334 4.31874 19.7137 4.14108L18.6534 3.08077C18.4329 2.7765 18.1469 2.66663 17.861 2.66663C17.575 2.66663 17.2915 2.7765 17.0716 2.9962L11.2282 8.83069C11.0125 9.051 10.9 9.33694 10.9 9.62756C10.9 9.91819 11.0099 10.2018 11.2296 10.4216L12.2899 11.4819C12.5097 11.7017 12.7981 11.8115 13.0446 11.8115C13.3332 11.8115 13.6217 11.7016 13.7993 11.4819L14.063 11.2183L19.3645 16.5198L19.1009 16.7833C18.8811 17.0031 18.7713 17.2914 18.7713 17.538C18.7713 17.7846 18.8812 18.115 19.1009 18.2927L20.1612 19.353C20.3809 19.5728 20.6679 19.6826 20.9553 19.6826C21.2426 19.6826 21.5295 19.5727 21.7493 19.353L27.5853 13.5124C27.8922 13.3776 28 13.0963 28 12.8057ZM14.6782 13.8276L11.9407 16.6073C11.6454 16.3119 11.261 16.1666 10.8766 16.1666C10.4922 16.1666 10.1125 16.3119 9.81724 16.6073L4.44067 21.9838C4.14771 22.2767 4.00122 22.6602 4.00122 23.0441C4.00122 23.428 4.14771 23.8115 4.44067 24.1044L6.56177 26.2255C6.85333 26.5213 7.23724 26.6666 7.62114 26.6666C8.00505 26.6666 8.38849 26.5201 8.68145 26.2272L14.058 20.8506C14.351 20.5576 14.4975 20.1737 14.4975 19.7903C14.4975 19.4066 14.351 19.023 14.0581 18.73L16.797 15.9911L14.6782 13.8276Z" fill="#201F1E"/>
</svg>
