<svg width="33" height="32" viewBox="0 0 33 32" fill="none" xmlns="http://www.w3.org/2000/svg">
    <path d="M22.75 15.1652C25.1316 13.9178 26.3895 11.4652 26.3895 8.64873C26.3895 5.41931 24.7635 2.95469 22.5425 1.89237C21.1544 1.21248 19.6473 1 17.6247 1H6.25C5.83581 1 5.5 1.3598 5.5 1.80357V3.41071C5.5 3.85449 5.83581 4.21429 6.25 4.21429H8.38387V27.7857H6.25C5.83581 27.7857 5.5 28.1455 5.5 28.5893V30.1964C5.5 30.6402 5.83581 31 6.25 31H18.1403C19.687 31 20.9957 30.915 22.3442 30.4476C25.2394 29.3853 27.5 26.4107 27.5 22.4589C27.5 18.5582 25.3766 15.8226 22.75 15.1652ZM12.3499 4.48442H17.6246C18.8144 4.48442 19.7266 4.65437 20.5198 5.07933C21.7273 5.81246 22.363 7.33342 22.3438 9.10924C22.3166 11.6186 20.3731 13.6204 18.0309 13.6204H12.3499V4.48442ZM20.7974 27.0906C20.0439 27.4306 19.0921 27.5156 18.2989 27.5156H12.3499V17.1048H18.6162C21.551 17.1048 23.4547 19.1444 23.4547 22.2464C23.4547 24.4986 22.4235 26.3682 20.7974 27.0906Z" fill="#201F1E"/>
</svg>
