<svg width="32" height="33" viewBox="0 0 32 33" fill="currentColor">
    <path d="M8.95833 7.59375C8.95833 7.07578 9.44313 6.65625 10.0417 6.65625H13.2917C13.8875 6.65625 14.375 7.07578 14.375 7.59375V10.4062C14.375 10.9219 13.8875 11.3438 13.2917 11.3438H10.0417C9.44313 11.3438 8.95833 10.9219 8.95833 10.4062V7.59375ZM21.9583 6.65625C22.5542 6.65625 23.0417 7.07578 23.0417 7.59375V10.4062C23.0417 10.9219 22.5542 11.3438 21.9583 11.3438H18.7083C18.1125 11.3438 17.625 10.9219 17.625 10.4062V7.59375C17.625 7.07578 18.1125 6.65625 18.7083 6.65625H21.9583ZM8.95833 15.0938C8.95833 14.5781 9.44313 14.1562 10.0417 14.1562H13.2917C13.8875 14.1562 14.375 14.5781 14.375 15.0938V17.9062C14.375 18.4219 13.8875 18.8438 13.2917 18.8438H10.0417C9.44313 18.8438 8.95833 18.4219 8.95833 17.9062V15.0938ZM21.9583 14.1562C22.5542 14.1562 23.0417 14.5781 23.0417 15.0938V17.9062C23.0417 18.4219 22.5542 18.8438 21.9583 18.8438H18.7083C18.1125 18.8438 17.625 18.4219 17.625 17.9062V15.0938C17.625 14.5781 18.1125 14.1562 18.7083 14.1562H21.9583ZM3 5.25C3 3.17871 4.93984 1.5 7.33333 1.5H24.6667C27.0568 1.5 29 3.17871 29 5.25V27.75C29 29.8184 27.0568 31.5 24.6667 31.5H7.33333C4.93984 31.5 3 29.8184 3 27.75V5.25ZM6.25 5.25V27.75C6.25 28.2656 6.73479 28.6875 7.33333 28.6875H12.75V24.9375C12.75 23.3848 14.2057 22.125 16 22.125C17.7943 22.125 19.25 23.3848 19.25 24.9375V28.6875H24.6667C25.2625 28.6875 25.75 28.2656 25.75 27.75V5.25C25.75 4.73203 25.2625 4.3125 24.6667 4.3125H7.33333C6.73479 4.3125 6.25 4.73203 6.25 5.25Z"/>
</svg>
