<svg width="32" height="32" viewBox="0 0 32 32" fill="currentColor">
<path d="M16 4C10.75 4 7.25 5.72857 7.25 7.92857V10.2857C6.55859 10.2857 6 10.9879 6 11.8571V15C6 15.8692 6.55859 16.5714 7.25 16.5714V24.4286C7.25 25.2978 7.80859 26 8.5 26H23.5C24.1902 26 24.75 25.2978 24.75 24.4286V16.5714C25.4402 16.5714 26 15.8692 26 15V11.8571C26 10.9879 25.4402 10.2857 24.75 10.2857V7.92857C24.75 5.72857 21.25 4 16 4ZM22.25 16.5714C22.25 17.4406 21.6914 18.1429 21 18.1429H16.625V10.2857H21C21.6914 10.2857 22.25 10.9879 22.25 11.8571V16.5714ZM15.375 18.1429H11C10.3086 18.1429 9.75 17.4406 9.75 16.5714V11.8571C9.75 10.9879 10.3086 10.2857 11 10.2857H15.375V18.1429ZM21.625 23.6429C20.9336 23.6429 20.375 22.9406 20.375 22.0714C20.375 21.2022 20.9336 20.5 21.625 20.5C22.3164 20.5 22.875 21.2022 22.875 22.0714C22.875 22.9406 22.3164 23.6429 21.625 23.6429ZM10.375 23.6429C9.68359 23.6429 9.125 22.9406 9.125 22.0714C9.125 21.2022 9.68359 20.5 10.375 20.5C11.0664 20.5 11.625 21.2022 11.625 22.0714C11.625 22.9406 11.0664 23.6429 10.375 23.6429ZM12.875 7.14286H19.125C19.4688 7.14286 19.75 7.49446 19.75 7.92857C19.75 8.36268 19.4688 8.71429 19.125 8.71429H12.875C12.5312 8.71429 12.25 8.36268 12.25 7.92857C12.25 7.49446 12.5312 7.14286 12.875 7.14286Z"/>
<path opacity="0.4" d="M22.6667 11.5C22.6667 10.6703 22.0708 10 21.3333 10H16.6667V17.5H21.3333C22.0708 17.5 22.6667 16.8297 22.6667 16V11.5ZM15.3333 17.5V10H10.6667C9.92917 10 9.33333 10.6703 9.33333 11.5V16C9.33333 16.8297 9.92917 17.5 10.6667 17.5H15.3333ZM24 25H20V26.5C20 27.3297 20.5958 28 21.3333 28H22.6667C23.4042 28 24 27.3297 24 26.5V25ZM12 25H8V26.5C8 27.3297 8.59583 28 9.33333 28H10.6667C11.4042 28 12 27.3297 12 26.5V25Z"/>
</svg>
