<svg width="32" height="32" viewBox="0 0 32 32" fill="currentColor">
<path d="M12.9411 17.5L13.8555 14.3867C14.2302 13.1094 15.2821 12.25 16.4646 12.25H21.2358C22.4183 12.25 23.4702 13.1094 23.8449 14.3867L24.7593 17.5C25.4914 17.9023 26.0002 18.7578 26.0002 19.75V24.75C26.0002 25.4414 25.5086 26 24.9002 26H24.3502C23.7418 26 23.2502 25.4414 23.2502 24.75V23.5H14.4502V24.75C14.4502 25.4414 13.9586 26 13.3502 26H12.8002C12.1918 26 11.7002 25.4414 11.7002 24.75V19.75C11.7002 18.7578 12.2089 17.9023 12.9411 17.5ZM15.3336 17.25H22.3668L21.7583 15.1758C21.6827 14.9219 21.473 14.75 21.2358 14.75H16.4646C16.2274 14.75 16.0177 14.9219 15.9421 15.1758L15.3336 17.25ZM14.4502 19.4375C13.993 19.4375 13.6252 19.8555 13.6252 20.375C13.6252 20.8945 13.993 21.3125 14.4502 21.3125C14.9074 21.3125 15.2752 20.8945 15.2752 20.375C15.2752 19.8555 14.9074 19.4375 14.4502 19.4375ZM23.2502 21.3125C23.7074 21.3125 24.0752 20.8945 24.0752 20.375C24.0752 19.8555 23.7074 19.4375 23.2502 19.4375C22.793 19.4375 22.4252 19.8555 22.4252 20.375C22.4252 20.8945 22.793 21.3125 23.2502 21.3125Z"/>
<path opacity="0.4" d="M5.65 22.25H5.1C4.49259 22.25 4 21.6914 4 21V8.90859C4 8.27539 4.31501 7.69609 4.81366 7.4125C6.44887 6.48359 8.25219 6 10.0809 6H11.1191C12.9478 6 14.7525 6.48359 16.3853 7.4125C16.8837 7.69609 17.2 8.27539 17.2 8.90859V11H16.4644C15.9522 11 15.4538 11.082 14.9691 11.3281V10.6875C14.9691 10.168 14.6322 9.75 14.1441 9.75H11.1191V14.75H12.5903L12.03 16.6602C11.1672 17.3359 10.5691 18.4688 10.5691 19.75V22.25H8.36906V23.5C8.36906 24.1914 7.90844 24.75 7.26906 24.75H6.71906C6.14259 24.75 5.61906 24.1914 5.61906 23.5L5.65 22.25ZM6.2 13.8125C6.2 14.332 6.56953 14.75 7.025 14.75H10.05V9.75H7.025C6.56953 9.75 6.2 10.168 6.2 10.6875V13.8125ZM7.3 17.5625C6.84453 17.5625 6.475 17.9805 6.475 18.5C6.475 19.0195 6.84453 19.4375 7.3 19.4375C7.75719 19.4375 8.125 19.0195 8.125 18.5C8.125 17.9805 7.75719 17.5625 7.3 17.5625Z"/>
</svg>
