<svg width="32" height="32" viewBox="0 0 32 32" fill="none" xmlns="http://www.w3.org/2000/svg">
<path d="M15.9999 5.33337C21.5999 5.33337 25.3333 6.80004 25.3333 8.66671V10.6667C26.0708 10.6667 26.6666 11.2625 26.6666 12V14.6667C26.6666 15.4042 26.0708 16 25.3333 16V22.6667C25.3333 23.4042 24.7374 24 23.9999 24V25.3334C23.9999 26.0709 23.4041 26.6667 22.6666 26.6667H21.3333C20.5958 26.6667 19.9999 26.0709 19.9999 25.3334V24H11.9999V25.3334C11.9999 26.0709 11.4041 26.6667 10.6666 26.6667H9.33325C8.59575 26.6667 7.99992 26.0709 7.99992 25.3334V24C7.26367 24 6.66659 23.4042 6.66659 22.6667V16C5.93034 16 5.33325 15.4042 5.33325 14.6667V12C5.33325 11.2625 5.93034 10.6667 6.66659 10.6667V8.66671C6.66659 6.80004 10.3999 5.33337 15.9999 5.33337ZM9.33325 16C9.33325 16.7375 9.92909 17.3334 10.6666 17.3334H15.3333V10.6667H10.6666C9.92909 10.6667 9.33325 11.2625 9.33325 12V16ZM16.6666 17.3334H21.3333C22.0708 17.3334 22.6666 16.7375 22.6666 16V12C22.6666 11.2625 22.0708 10.6667 21.3333 10.6667H16.6666V17.3334ZM9.99992 22C10.7374 22 11.3333 21.4042 11.3333 20.6667C11.3333 19.9292 10.7374 19.3334 9.99992 19.3334C9.26242 19.3334 8.66659 19.9292 8.66659 20.6667C8.66659 21.4042 9.26242 22 9.99992 22ZM21.9999 22C22.7374 22 23.3333 21.4042 23.3333 20.6667C23.3333 19.9292 22.7374 19.3334 21.9999 19.3334C21.2624 19.3334 20.6666 19.9292 20.6666 20.6667C20.6666 21.4042 21.2624 22 21.9999 22ZM19.3333 8.00004H12.6666C12.2999 8.00004 11.9999 8.29837 11.9999 8.66671C11.9999 9.03504 12.2999 9.33337 12.6666 9.33337H19.3333C19.6999 9.33337 19.9999 9.03504 19.9999 8.66671C19.9999 8.29837 19.6999 8.00004 19.3333 8.00004Z" fill="#201F1E"/>
</svg>
