<svg width="32" height="32" viewBox="0 0 32 32" fill="currentColor">
    <g clip-path="url(#clip0_734_79265)">
        <path d="M11.3334 5.33331C11.7001 5.33331 12.0001 5.63181 12.0001 5.99998V7.99998H20.0001V5.99998C20.0001 5.63181 20.3001 5.33331 20.6667 5.33331C21.0334 5.33331 21.3334 5.63181 21.3334 5.99998V7.99998H22.6667C24.1376 7.99998 25.3334 9.19373 25.3334 10.6666V24C25.3334 25.4708 24.1376 26.6666 22.6667 26.6666H9.33341C7.8605 26.6666 6.66675 25.4708 6.66675 24V10.6666C6.66675 9.19373 7.8605 7.99998 9.33341 7.99998H10.6667V5.99998C10.6667 5.63181 10.9667 5.33331 11.3334 5.33331ZM24.0001 13.3333H19.6667V16.3333H24.0001V13.3333ZM24.0001 17.6666H19.6667V21H24.0001V17.6666ZM24.0001 22.3333H19.6667V25.3333H22.6667C23.4042 25.3333 24.0001 24.7375 24.0001 24V22.3333ZM18.3334 21V17.6666H13.6667V21H18.3334ZM13.6667 25.3333H18.3334V22.3333H13.6667V25.3333ZM12.3334 21V17.6666H8.00008V21H12.3334ZM8.00008 22.3333V24C8.00008 24.7375 8.59716 25.3333 9.33341 25.3333H12.3334V22.3333H8.00008ZM8.00008 16.3333H12.3334V13.3333H8.00008V16.3333ZM13.6667 16.3333H18.3334V13.3333H13.6667V16.3333ZM22.6667 9.33331H9.33341C8.59716 9.33331 8.00008 9.92915 8.00008 10.6666V12H24.0001V10.6666C24.0001 9.92915 23.4042 9.33331 22.6667 9.33331Z"/>
    </g>
    <defs>
        <clipPath id="clip0_734_79265">
            <rect width="18.6667" height="21.3333" fill="white" transform="translate(6.66675 5.33331)"/>
        </clipPath>
    </defs>
</svg>
