<svg width="32" height="32" viewBox="0 0 32 32" fill="none" xmlns="http://www.w3.org/2000/svg">
    <g clip-path="url(#clip0_734_79259)">
        <path d="M12.0001 5.33331C12.7376 5.33331 13.3334 5.92915 13.3334 6.66665V7.99998H18.6667V6.66665C18.6667 5.92915 19.2626 5.33331 20.0001 5.33331C20.7376 5.33331 21.3334 5.92915 21.3334 6.66665V7.99998H23.3334C24.4376 7.99998 25.3334 8.89581 25.3334 9.99998V12H6.66675V9.99998C6.66675 8.89581 7.56258 7.99998 8.66675 7.99998H10.6667V6.66665C10.6667 5.92915 11.2626 5.33331 12.0001 5.33331ZM6.66675 13.3333H25.3334V24.6666C25.3334 25.7708 24.4376 26.6666 23.3334 26.6666H8.66675C7.56258 26.6666 6.66675 25.7708 6.66675 24.6666V13.3333ZM9.33341 16.6666V18C9.33341 18.3666 9.63341 18.6666 10.0001 18.6666H11.3334C11.7001 18.6666 12.0001 18.3666 12.0001 18V16.6666C12.0001 16.3 11.7001 16 11.3334 16H10.0001C9.63341 16 9.33341 16.3 9.33341 16.6666ZM14.6667 16.6666V18C14.6667 18.3666 14.9667 18.6666 15.3334 18.6666H16.6667C17.0334 18.6666 17.3334 18.3666 17.3334 18V16.6666C17.3334 16.3 17.0334 16 16.6667 16H15.3334C14.9667 16 14.6667 16.3 14.6667 16.6666ZM20.6667 16C20.3001 16 20.0001 16.3 20.0001 16.6666V18C20.0001 18.3666 20.3001 18.6666 20.6667 18.6666H22.0001C22.3667 18.6666 22.6667 18.3666 22.6667 18V16.6666C22.6667 16.3 22.3667 16 22.0001 16H20.6667ZM9.33341 22V23.3333C9.33341 23.7 9.63341 24 10.0001 24H11.3334C11.7001 24 12.0001 23.7 12.0001 23.3333V22C12.0001 21.6333 11.7001 21.3333 11.3334 21.3333H10.0001C9.63341 21.3333 9.33341 21.6333 9.33341 22ZM15.3334 21.3333C14.9667 21.3333 14.6667 21.6333 14.6667 22V23.3333C14.6667 23.7 14.9667 24 15.3334 24H16.6667C17.0334 24 17.3334 23.7 17.3334 23.3333V22C17.3334 21.6333 17.0334 21.3333 16.6667 21.3333H15.3334ZM20.0001 22V23.3333C20.0001 23.7 20.3001 24 20.6667 24H22.0001C22.3667 24 22.6667 23.7 22.6667 23.3333V22C22.6667 21.6333 22.3667 21.3333 22.0001 21.3333H20.6667C20.3001 21.3333 20.0001 21.6333 20.0001 22Z" fill="black"/>
    </g>
    <defs>
        <clipPath id="clip0_734_79259">
            <rect width="18.6667" height="21.3333" fill="white" transform="translate(6.66675 5.33331)"/>
        </clipPath>
    </defs>
</svg>
