<svg width="32" height="32" viewBox="0 0 32 32" fill="none" xmlns="http://www.w3.org/2000/svg">
<path d="M5.74842 16.934C5.19486 15.9424 5.19486 14.7241 5.74842 13.7325L9.53748 6.93396C10.091 5.94241 11.108 5.33325 12.2151 5.33325H19.789C20.8918 5.33325 21.9131 5.94241 22.4666 6.93396L26.2514 13.7325C26.805 14.7241 26.805 15.9424 26.2514 16.934L22.4624 23.7325C21.9088 24.7241 20.8918 25.3333 19.7847 25.3333H12.2109C11.108 25.3333 10.0867 24.7241 9.53319 23.7325L5.74842 16.934ZM12.5241 11.7317C12.1207 12.1496 12.1207 12.8255 12.5241 13.239L14.5409 15.3288L12.5241 17.4186C12.1207 17.8366 12.1207 18.5124 12.5241 18.926C12.9275 19.3395 13.5797 19.3439 13.9788 18.926L15.9956 16.8361L18.0125 18.926C18.4158 19.3439 19.0681 19.3439 19.4671 18.926C19.8662 18.508 19.8705 17.8321 19.4671 17.4186L17.4503 15.3288L19.4671 13.239C19.8705 12.821 19.8705 12.1452 19.4671 11.7317C19.0638 11.3181 18.4115 11.3137 18.0125 11.7317L15.9956 13.8215L13.9788 11.7317C13.5754 11.3137 12.9232 11.3137 12.5241 11.7317Z" fill="#201F1E"/>
</svg>
