<svg width="32" height="32" viewBox="0 0 32 32" fill="none" xmlns="http://www.w3.org/2000/svg">
    <path d="M6.00012 2C6.00012 0.89375 5.10634 0 4.00006 0C2.89378 0 2 0.89375 2 2V8.975C2 9.925 2.19376 10.8625 2.56877 11.7312L7.12515 22.3625C8.06893 24.5687 10.2377 26 12.6378 26H15.5004V29H9.50023C8.66895 29 8.00018 29.6688 8.00018 30.5C8.00018 31.3312 8.66895 32 9.50023 32H24.5007C25.332 32 26.0007 31.3312 26.0007 30.5C26.0007 29.6688 25.332 29 24.5007 29H18.5005V26H24.5007C25.4445 26 26.332 25.5562 26.9008 24.8L29.6008 21.2C30.0571 20.5938 30.1259 19.7812 29.7883 19.1063C29.4508 18.4313 28.7571 18 28.0008 18H9.60648L8.7502 16H22.0006C23.1069 16 24.0007 15.1062 24.0007 14C24.0007 12.8938 23.1069 12 22.0006 12H7.0314L6.24388 10.1562C6.08137 9.78125 6.00012 9.38125 6.00012 8.975V2Z" fill="black"/>
</svg>
