<svg width="32" height="33" viewBox="0 0 32 33" fill="none" xmlns="http://www.w3.org/2000/svg">
<path d="M3.3209 12.8L5.38281 6.51813C6.17207 4.11125 8.30078 2.5 10.6914 2.5H21.3086C23.6992 2.5 25.8262 4.11125 26.6172 6.51813L28.6797 12.8C30.0391 13.4 31 14.8313 31 16.5V28.5C31 29.6063 30.1621 30.5 29.125 30.5H27.25C26.2129 30.5 25.375 29.6063 25.375 28.5V25.5H6.625V28.5C6.625 29.6063 5.78535 30.5 4.75 30.5H2.875C1.83965 30.5 1 29.6063 1 28.5V16.5C1 14.8313 1.95859 13.4 3.3209 12.8ZM7.39258 12.5H24.6074L23.0781 7.8375C22.8145 7.0375 22.1055 6.5 21.3086 6.5H10.6914C9.89453 6.5 9.18555 7.0375 8.92188 7.8375L7.39258 12.5ZM6.625 16.5C5.58965 16.5 4.75 17.3938 4.75 18.5C4.75 19.6063 5.58965 20.5 6.625 20.5C7.66211 20.5 8.5 19.6063 8.5 18.5C8.5 17.3938 7.66211 16.5 6.625 16.5ZM25.375 20.5C26.4121 20.5 27.25 19.6063 27.25 18.5C27.25 17.3938 26.4121 16.5 25.375 16.5C24.3379 16.5 23.5 17.3938 23.5 18.5C23.5 19.6063 24.3379 20.5 25.375 20.5Z" fill="#201F1E"/>
</svg>
