<svg width="32" height="32" viewBox="0 0 32 32" fill="currentColor">
<g clip-path="url(#clip0_805_63119)">
<path d="M25.9751 15.3334H16.6667V6.02421C16.6667 5.64817 16.9209 5.33337 17.3334 5.33337C22.4876 5.33337 26.6667 9.51254 26.6667 14.6667C26.6667 15.0417 26.3501 15.3334 25.9751 15.3334ZM27.2667 17.3334C27.6501 17.3334 27.9584 17.6584 27.9084 18.0417C27.5876 20.3709 26.4626 22.4417 24.8292 23.9709C24.5792 24.1709 24.1876 24.1875 23.9459 23.9459L17.3334 17.3334H27.2667Z"/>
<path opacity="0.4" d="M5.33325 16.6668C5.33325 11.6126 9.08742 7.43092 13.9208 6.7605C14.3416 6.708 14.6666 7.01509 14.6666 7.4005V17.3334L21.1874 23.8543C21.4666 24.1334 21.4458 24.5918 21.1249 24.8209C19.4916 25.9834 17.4916 26.6668 15.3333 26.6668C9.81242 26.6668 5.33325 22.1918 5.33325 16.6668Z"/>
</g>
<defs>
<clipPath id="clip0_805_63119">
<rect width="24" height="21.3333" fill="white" transform="translate(4 5.33337)"/>
</clipPath>
</defs>
</svg>
