<svg width="32" height="32" viewBox="0 0 32 32" fill="none" xmlns="http://www.w3.org/2000/svg">
<g clip-path="url(#clip0_805_63143)">
<path d="M19.7922 19.7922C19.2388 20.3456 18.3445 20.3456 17.7911 19.7922L14.5018 16.5471L12.0005 19.0839C11.4471 19.6372 10.5528 19.6372 9.99944 19.0839C9.44517 18.5305 9.44517 17.6362 9.99944 17.0828L13.5411 13.5411C14.0945 12.9878 14.9888 12.9878 15.5422 13.5411L18.7916 16.7862L21.3328 14.2495L19.8586 12.7753C19.2299 12.1466 19.7036 11 20.6466 11H25.5208C26.1096 11 26.5833 11.4737 26.5833 12.0625V16.9367C26.5833 17.8797 25.4367 18.3534 24.7682 17.6849L23.3338 16.2505L19.7922 19.7922Z" fill="#323130"/>
<path opacity="0.4" d="M6.74992 6.75C7.53218 6.75 8.16659 7.3844 8.16659 8.16667V23.0417C8.16659 23.4312 8.48356 23.75 8.87492 23.75H26.5833C27.3668 23.75 27.9999 24.3831 27.9999 25.1667C27.9999 25.9503 27.3668 26.5833 26.5833 26.5833H8.87492C6.91903 26.5833 5.33325 24.9984 5.33325 23.0417V8.16667C5.33325 7.3844 5.96765 6.75 6.74992 6.75Z" fill="#323130"/>
</g>
<defs>
<clipPath id="clip0_805_63143">
<rect width="22.6667" height="22.6667" fill="white" transform="translate(5.33325 5.33337)"/>
</clipPath>
</defs>
</svg>
