<svg width="32" height="33" viewBox="0 0 32 33" fill="currentColor">
    <path d="M11.7143 4.71429C11.7143 2.93906 13.154 1.5 14.9286 1.5H17.0714C18.846 1.5 20.2857 2.93906 20.2857 4.71429V28.2857C20.2857 30.0603 18.846 31.5 17.0714 31.5H14.9286C13.154 31.5 11.7143 30.0603 11.7143 28.2857V4.71429ZM1 17.5714C1 15.7969 2.43906 14.3571 4.21429 14.3571H6.35714C8.1317 14.3571 9.57143 15.7969 9.57143 17.5714V28.2857C9.57143 30.0603 8.1317 31.5 6.35714 31.5H4.21429C2.43906 31.5 1 30.0603 1 28.2857V17.5714ZM27.7857 5.78571C29.5603 5.78571 31 7.22545 31 9V28.2857C31 30.0603 29.5603 31.5 27.7857 31.5H25.6429C23.8683 31.5 22.4286 30.0603 22.4286 28.2857V9C22.4286 7.22545 23.8683 5.78571 25.6429 5.78571H27.7857Z"/>
</svg>
