<svg width="32" height="33" viewBox="0 0 32 33" fill="none" xmlns="http://www.w3.org/2000/svg">
    <path d="M9.41548 13.5341C8.37476 13.5341 7.53396 14.4198 7.53396 15.4739C7.53396 16.6341 8.37476 17.5261 9.41548 17.5261C10.4562 17.5261 11.2441 16.6372 11.2441 15.5301C11.2441 14.4229 10.4621 13.5341 9.41548 13.5341ZM16.0008 13.4779C14.9571 13.4779 14.1722 14.3668 14.1722 15.4739C14.1722 16.5811 15.01 17.4138 16.0008 17.4138C16.9915 17.4138 17.8294 16.525 17.8294 15.4739C17.8294 14.4229 17.0474 13.4779 16.0008 13.4779ZM22.5861 13.5341C21.5424 13.5341 20.7575 14.4229 20.7575 15.5301C20.7575 16.6372 21.5954 17.5261 22.5861 17.5261C23.6297 17.5261 24.467 16.6372 24.467 15.5301C24.4676 14.4198 23.6327 13.5341 22.5861 13.5341ZM16.0008 2.5C7.68684 2.5 1.00157 8.30833 1.00157 15.4739C1.00157 18.4442 2.17223 21.1656 4.11254 23.3519C3.23822 25.8157 1.4155 27.8977 1.38611 27.9208C0.996632 28.3574 0.893796 28.9968 1.11423 29.5425C1.29074 30.1382 1.79416 30.5 2.35979 30.5C5.97524 30.5 8.77459 28.8939 10.5385 27.6152C12.236 28.1765 14.0758 28.504 16.0008 28.504C24.3147 28.504 31 22.6951 31 15.5862C31 8.47737 24.3147 2.5 16.0008 2.5ZM16.0008 25.51C14.428 25.51 12.8775 25.2527 11.3934 24.754L10.0558 24.3096L8.90982 25.167C8.07196 25.7982 6.91835 26.5005 5.52956 26.9758C5.96313 26.2198 6.37448 25.3697 6.69786 24.4652L7.32229 22.7188L6.10989 21.3546C5.0533 20.152 3.77446 18.1623 3.77446 15.5301C3.77446 10.0255 9.25673 5.55012 15.9514 5.55012C22.6461 5.55012 28.1283 10.0255 28.1283 15.5301C28.1283 21.0346 22.7507 25.51 16.0008 25.51Z" fill="#201F1E"/>
</svg>
