<svg width="32" height="32" viewBox="0 0 32 32" fill="currentColor">
<g clip-path="url(#clip0_5827_88890)">
<path d="M22.8267 7.12539C22.8267 5.99473 21.9093 5.07739 20.7787 5.07739H16.6827C15.552 5.07739 14.6347 5.99473 14.6347 7.12539V9.17339H11.904V6.10139C11.904 5.53393 11.4475 5.07739 10.88 5.07739C10.3125 5.07739 9.85601 5.53393 9.85601 6.10139V9.17339H7.12535V6.10139C7.12535 5.53393 6.66881 5.07739 6.10135 5.07739C5.53388 5.07739 5.07735 5.53393 5.07735 6.10139V9.17339H4.39468C3.26401 9.17339 2.34668 10.0907 2.34668 11.2214V15.3174V24.8747C2.34668 26.0054 3.26401 26.9227 4.39468 26.9227H15.3173H16.6827H20.7787H27.6053C28.736 26.9227 29.6533 26.0054 29.6533 24.8747V15.3174C29.6533 14.1867 28.736 13.2694 27.6053 13.2694H22.8267V7.12539ZM26.9227 20.7787V22.1441C26.9227 22.5195 26.6155 22.8267 26.24 22.8267H24.8747C24.4992 22.8267 24.192 22.5195 24.192 22.1441V20.7787C24.192 20.4033 24.4992 20.0961 24.8747 20.0961H26.24C26.6155 20.0961 26.9227 20.4033 26.9227 20.7787ZM12.5867 22.8267H11.2213C10.8459 22.8267 10.5387 22.5195 10.5387 22.1441V20.7787C10.5387 20.4033 10.8459 20.0961 11.2213 20.0961H12.5867C12.9621 20.0961 13.2693 20.4033 13.2693 20.7787V22.1441C13.2693 22.5195 12.9621 22.8267 12.5867 22.8267ZM7.80801 22.1441C7.80801 22.5195 7.50081 22.8267 7.12535 22.8267H5.76001C5.38455 22.8267 5.07735 22.5195 5.07735 22.1441V20.7787C5.07735 20.4033 5.38455 20.0961 5.76001 20.0961H7.12535C7.50081 20.0961 7.80801 20.4033 7.80801 20.7787V22.1441ZM26.24 16.0001C26.6155 16.0001 26.9227 16.3073 26.9227 16.6827V18.0481C26.9227 18.4235 26.6155 18.7307 26.24 18.7307H24.8747C24.4992 18.7307 24.192 18.4235 24.192 18.0481V16.6827C24.192 16.3073 24.4992 16.0001 24.8747 16.0001H26.24ZM13.2693 12.5867V13.9521C13.2693 14.3275 12.9621 14.6347 12.5867 14.6347H11.2213C10.8459 14.6347 10.5387 14.3275 10.5387 13.9521V12.5867C10.5387 12.2113 10.8459 11.9041 11.2213 11.9041H12.5867C12.9621 11.9041 13.2693 12.2113 13.2693 12.5867ZM7.12535 11.9041C7.50081 11.9041 7.80801 12.2113 7.80801 12.5867V13.9521C7.80801 14.3275 7.50081 14.6347 7.12535 14.6347H5.76001C5.38455 14.6347 5.07735 14.3275 5.07735 13.9521V12.5867C5.07735 12.2113 5.38455 11.9041 5.76001 11.9041H7.12535ZM13.2693 18.0481C13.2693 18.4235 12.9621 18.7307 12.5867 18.7307H11.2213C10.8459 18.7307 10.5387 18.4235 10.5387 18.0481V16.6827C10.5387 16.3073 10.8459 16.0001 11.2213 16.0001H12.5867C12.9621 16.0001 13.2693 16.3073 13.2693 16.6827V18.0481ZM7.12535 18.7307H5.76001C5.38455 18.7307 5.07735 18.4235 5.07735 18.0481V16.6827C5.07735 16.3073 5.38455 16.0001 5.76001 16.0001H7.12535C7.50081 16.0001 7.80801 16.3073 7.80801 16.6827V18.0481C7.80801 18.4235 7.50081 18.7307 7.12535 18.7307ZM20.096 16.6827V18.0481C20.096 18.4235 19.7888 18.7307 19.4133 18.7307H18.048C17.6725 18.7307 17.3653 18.4235 17.3653 18.0481V16.6827C17.3653 16.3073 17.6725 16.0001 18.048 16.0001H19.4133C19.7888 16.0001 20.096 16.3073 20.096 16.6827ZM19.4133 7.80806C19.7888 7.80806 20.096 8.11526 20.096 8.49073V9.85606C20.096 10.2315 19.7888 10.5387 19.4133 10.5387H18.048C17.6725 10.5387 17.3653 10.2315 17.3653 9.85606V8.49073C17.3653 8.11526 17.6725 7.80806 18.048 7.80806H19.4133ZM20.096 12.5867V13.9521C20.096 14.3275 19.7888 14.6347 19.4133 14.6347H18.048C17.6725 14.6347 17.3653 14.3275 17.3653 13.9521V12.5867C17.3653 12.2113 17.6725 11.9041 18.048 11.9041H19.4133C19.7888 11.9041 20.096 12.2113 20.096 12.5867Z"/>
</g>
<defs>
<clipPath id="clip0_5827_88890">
<rect width="27.3067" height="21.8453" transform="translate(2.34668 5.07739)"/>
</clipPath>
</defs>
</svg>
