<svg width="32" height="32" viewBox="0 0 32 32" fill="none" xmlns="http://www.w3.org/2000/svg">
    <path d="M23.9999 6.66663H7.99992C6.527 6.66663 5.33325 7.86038 5.33325 9.33329V22.6666C5.33325 24.1395 6.527 25.3333 7.99992 25.3333H23.9999C25.4728 25.3333 26.6666 24.1395 26.6666 22.6666V9.33329C26.6666 7.86038 25.4708 6.66663 23.9999 6.66663ZM15.9208 8.66663H18.7491L15.4158 12H12.5874L15.9208 8.66663ZM7.33325 10.5875L9.25242 8.66663H12.0808L8.74742 12H7.33325V10.5875ZM24.6666 22.6666C24.6666 23.0342 24.3675 23.3333 23.9999 23.3333H7.99992C7.63234 23.3333 7.33325 23.0342 7.33325 22.6666V14H24.6666V22.6666ZM24.6666 9.41413L22.0791 12H19.2508L22.5841 8.66663H23.9999C24.3675 8.66663 24.6666 8.96571 24.6666 9.33329V9.41413ZM14.4458 22C14.5274 22 14.6098 21.9766 14.681 21.9299L19.1268 19.0561C19.2541 18.9708 19.3333 18.825 19.3333 18.6291C19.3333 18.4333 19.2543 18.3233 19.124 18.2394L14.6782 15.3656C14.5458 15.3125 14.3708 15.3125 14.2291 15.3916C14.0874 15.4708 13.9999 15.625 13.9999 15.7916V21.5375C13.9999 21.7045 14.0876 21.8585 14.2291 21.9398C14.2958 21.9791 14.3708 22 14.4458 22Z" fill="black"/>
</svg>
