<svg width="32" height="32" viewBox="0 0 32 32" fill="currentColor">
<path d="M1.6 25.6H2.4V27.2C2.4 28.085 3.115 28.8 4 28.8H4.8C5.685 28.8 6.4 28.085 6.4 27.2V25.6H9.6V22.4C9.6 20.76 10.425 19.31 11.68 18.445L12.495 16H10.4V9.60005H14.8C15.465 9.60005 16 10.135 16 10.8V11.62C16.66 11.35 17.385 11.2 18.13 11.2H19.2V8.52505C19.2 7.71505 18.74 6.97505 18.015 6.61005C15.64 5.42005 13.015 4.80005 10.355 4.80005H8.845C6.185 4.80005 3.56 5.42005 1.185 6.61005C0.46 6.97005 0 7.71005 0 8.52505V24C0 24.885 0.715 25.6 1.6 25.6ZM4.4 9.60005H8.8V16H4.4C3.735 16 3.2 15.465 3.2 14.8V10.8C3.2 10.135 3.735 9.60005 4.4 9.60005ZM4.8 22C4.135 22 3.6 21.465 3.6 20.8C3.6 20.135 4.135 19.6 4.8 19.6C5.465 19.6 6 20.135 6 20.8C6 21.465 5.465 22 4.8 22ZM18.13 16H25.07C25.415 16 25.72 16.22 25.83 16.545L26.715 19.2H16.485L17.37 16.545C17.48 16.22 17.785 16 18.13 16ZM14.335 15.535L13.005 19.52C11.94 20.035 11.2 21.13 11.2 22.4V27.2V28.8C11.2 29.685 11.915 30.4 12.8 30.4H13.6C14.485 30.4 15.2 29.685 15.2 28.8V27.2H28V28.8C28 29.685 28.715 30.4 29.6 30.4H30.4C31.285 30.4 32 29.685 32 28.8V27.2V22.4C32 21.13 31.26 20.035 30.195 19.52L28.865 15.535C28.32 13.9 26.79 12.8 25.07 12.8H18.13C16.41 12.8 14.88 13.9 14.335 15.535ZM15.2 24.4C14.535 24.4 14 23.865 14 23.2C14 22.535 14.535 22 15.2 22C15.865 22 16.4 22.535 16.4 23.2C16.4 23.865 15.865 24.4 15.2 24.4ZM29.2 23.2C29.2 23.865 28.665 24.4 28 24.4C27.335 24.4 26.8 23.865 26.8 23.2C26.8 22.535 27.335 22 28 22C28.665 22 29.2 22.535 29.2 23.2Z"/>
</svg>
