<svg width="32" height="32" viewBox="0 0 32 32" fill="currentColor">
    <path d="M24 4.75H20.8994C20.3813 2.61016 18.4187 1 16 1C13.5813 1 11.5625 2.61016 11.1 4.75H8C5.79062 4.75 4 6.4293 4 8.5V27.25C4 29.3207 5.79062 31 8 31H24C26.2094 31 28 29.3207 28 27.25V8.5C28 6.4293 26.2062 4.75 24 4.75ZM16 3.8125C16.8269 3.8125 17.5 4.44355 17.5 5.21875C17.5 5.99395 16.825 6.625 16 6.625C15.175 6.625 14.5 5.99395 14.5 5.21875C14.5 4.44355 15.175 3.8125 16 3.8125ZM25 27.25C25 27.7668 24.5514 28.1875 24 28.1875H8C7.44862 28.1875 7 27.7668 7 27.25V8.5C7 7.9832 7.44862 7.5625 8 7.5625H9.14125C9.05813 7.86133 9 8.17188 9 8.5V9.4375C9 9.95312 9.4475 10.375 10 10.375H22C22.5522 10.375 23 9.95523 23 9.4375V8.5C23 8.17428 22.9418 7.86367 22.8585 7.5625H24C24.5514 7.5625 25 7.9832 25 8.5V27.25Z"/>
</svg>
