<svg width="32" height="32" viewBox="0 0 32 32" fill="currentColor">
    <path d="M7.93325 25.3333C4.28813 25.3333 1.33325 22.6458 1.33325 19.3333C1.33325 16.7167 3.17438 14.4917 5.74242 13.6708C5.73646 13.5583 5.73325 13.4458 5.73325 13.3333C5.73325 9.65 9.01492 6.66667 13.0666 6.66667C15.7845 6.66667 18.1541 8.01042 19.4237 10.0083C20.1203 9.54584 20.9637 9.33334 21.8666 9.33334C24.2958 9.33334 26.2666 11.0875 26.2666 13.3333C26.2666 13.8417 26.1612 14.325 25.9733 14.775C28.6499 15.2667 30.6666 17.4208 30.6666 20C30.6666 22.9458 28.0403 25.3333 24.7999 25.3333H7.93325ZM11.5541 16.2917C11.1278 16.6833 11.1278 17.3167 11.5541 17.6708C11.9849 18.0958 12.6816 18.0958 13.0712 17.6708L14.8999 16.0792V21.6667C14.8999 22.2208 15.3903 22.6667 15.9999 22.6667C16.6095 22.6667 17.0999 22.2208 17.0999 21.6667V16.0792L18.8874 17.6708C19.3183 18.0958 20.0149 18.0958 20.4045 17.6708C20.872 17.3167 20.872 16.6833 20.4045 16.2917L16.7378 12.9583C16.3483 12.5708 15.6516 12.5708 15.2208 12.9583L11.5541 16.2917Z"/>
</svg>
