<svg width="32" height="32" viewBox="0 0 32 32" fill="currentColor">
    <path d="M30.4492 5.13846L26.8604 1.54959C26.5118 1.1975 26.0313 0.999985 25.5333 0.999985H15.9476C13.8763 0.999985 12.1976 2.67928 12.1976 4.74998L12.1988 19.75C12.2504 21.8242 13.932 23.5 16.0003 23.5H27.2501C29.3125 23.5 31 21.8125 31 19.75V6.46385C31 5.96698 30.8008 5.49002 30.4492 5.13846ZM28.1876 19.75C28.1876 20.2677 27.7678 20.6875 27.2501 20.6875H15.9476C15.4297 20.6875 15.0101 20.2677 15.0101 19.75V4.7576C15.0101 4.23987 15.4298 3.8201 15.9476 3.8201H23.4474L23.5001 6.62498C23.5001 7.66034 24.3398 8.49998 25.3751 8.49998H28.1348V19.75H28.1876ZM16.9378 27.25C16.9378 27.7677 16.518 28.1875 16.0003 28.1875H4.69778C4.17994 28.1875 3.7603 27.7677 3.7603 27.25L3.81186 12.2558C3.81186 11.7381 4.23162 11.3183 4.74934 11.3183H10.3754V8.49998H4.74993C2.67868 8.49998 1 10.1787 1 12.25L1.00057 27.25C1.0007 29.3183 2.67985 31 4.75051 31H16.0003C18.0628 31 19.7502 29.3125 19.7502 27.25V25.375H16.9905L16.9378 27.25Z"/>
</svg>
