<svg width="32" height="32" viewBox="0 0 32 32" fill="none" xmlns="http://www.w3.org/2000/svg">
    <path d="M27.6667 4C29.5052 4 31 5.53482 31 7.42857V9.14286H1V7.42857C1 5.53482 2.49219 4 4.33333 4H27.6667ZM31 24.5714C31 26.4625 29.5052 28 27.6667 28H4.33333C2.49219 28 1 26.4625 1 24.5714V14.2857H31V24.5714ZM6.83333 21.1429C6.375 21.1429 6 21.5286 6 22C6 22.4714 6.375 22.8571 6.83333 22.8571H10.1667C10.625 22.8571 11 22.4714 11 22C11 21.5286 10.625 21.1429 10.1667 21.1429H6.83333ZM13.5 22.8571H20.1667C20.625 22.8571 21 22.4714 21 22C21 21.5286 20.625 21.1429 20.1667 21.1429H13.5C13.0417 21.1429 12.6667 21.5286 12.6667 22C12.6667 22.4714 13.0417 22.8571 13.5 22.8571Z" fill="#201F1E"/>
</svg>
