<svg width="32" height="32" viewBox="0 0 32 32" fill="none" xmlns="http://www.w3.org/2000/svg">
    <path d="M1 16C1 7.71484 7.71484 1 16 1C24.2852 1 31 7.71484 31 16C31 24.2852 24.2852 31 16 31C7.71484 31 1 24.2852 1 16ZM11.2539 13.1934L14.0137 15.9473L11.2539 18.7539C10.709 19.3047 10.709 20.1953 11.2539 20.6934C11.8047 21.291 12.6953 21.291 13.1934 20.6934L15.9473 17.9863L18.7539 20.6934C19.3047 21.291 20.1953 21.291 20.6934 20.6934C21.291 20.1953 21.291 19.3047 20.6934 18.7539L17.9863 15.9473L20.6934 13.1934C21.291 12.6953 21.291 11.8047 20.6934 11.2539C20.1953 10.709 19.3047 10.709 18.7539 11.2539L15.9473 14.0137L13.1934 11.2539C12.6953 10.709 11.8047 10.709 11.2539 11.2539C10.709 11.8047 10.709 12.6953 11.2539 13.1934Z" fill="#201F1E"/>
</svg>
