<svg width="32" height="32" viewBox="0 0 32 32" fill="currentColor">
    <path d="M30.1165 25.8816C31.2883 27.0534 31.2883 28.9517 30.1165 30.1235C29.5353 30.7094 28.7666 31 27.9979 31C27.2292 31 26.4624 30.7071 25.8774 30.1212L15.9988 20.2477L6.12116 30.1188C5.53527 30.7094 4.76752 31 3.99977 31C3.23201 31 2.4652 30.7094 1.87884 30.1188C0.707054 28.947 0.707054 27.0487 1.87884 25.877L11.7593 15.9965L1.87884 6.12069C0.707054 4.94891 0.707054 3.05062 1.87884 1.87884C3.05062 0.707054 4.94891 0.707054 6.12069 1.87884L15.9988 11.764L25.8793 1.88353C27.0511 0.711742 28.9494 0.711742 30.1212 1.88353C31.2929 3.05531 31.2929 4.9536 30.1212 6.12538L20.2407 16.0059L30.1165 25.8816Z"/>
</svg>
