<svg width="56" height="56" viewBox="0 0 56 56" fill="none" xmlns="http://www.w3.org/2000/svg">
    <rect width="56" height="56" rx="6" fill="url(#paint0_linear_3_3)" />
    <g clip-path="url(#clip0_3_3)">
        <path d="M16.45 23.5937C16.4615 23.5937 16.4715 23.5881 16.483 23.5879C16.5137 23.5889 16.5039 23.5937 16.45 23.5937ZM39.7093 23.5889C39.7187 23.5889 39.7328 23.5937 39.7421 23.5937C39.7328 23.5937 39.7187 23.5889 39.7093 23.5889ZM38.2656 22.793L34.0642 26.2939C33.3184 26.9155 32.2126 26.6624 31.7856 25.7725L29.0856 20.1475C28.8015 20.332 28.4781 20.4687 28.075 20.4687C27.6718 20.4687 27.4328 20.332 27.1468 20.1465L24.4468 25.7715C24.0197 26.6611 22.9135 26.9141 22.1682 26.293L17.9668 22.792C17.6312 23.2568 17.124 23.5742 16.5254 23.5889L18.8935 37.1533C19.0229 37.8955 19.6421 38.4375 20.3687 38.4375H35.8656C36.5903 38.4375 37.2118 37.8975 37.3412 37.1548L39.7093 23.5854C39.1093 23.5742 38.6031 23.2568 38.2656 22.793Z" fill="white" />
        <path opacity="0.4" d="M28.1171 16.5625C27.0812 16.5625 26.2 17.437 26.2 18.5156C26.2 19.5942 27.0395 20.4688 28.075 20.4688C29.1104 20.4688 29.95 19.5942 29.95 18.5156C29.95 17.437 29.1531 16.5625 28.1171 16.5625ZM16.45 19.6875C15.4145 19.6875 14.575 20.562 14.575 21.6406C14.575 22.7192 15.4145 23.5938 16.45 23.5938C17.4854 23.5938 18.325 22.7192 18.325 21.6406C18.325 20.562 17.5276 19.6875 16.45 19.6875ZM39.7421 19.6875C38.7067 19.6875 37.8671 20.562 37.8671 21.6406C37.8671 22.7192 38.7067 23.5938 39.7421 23.5938C40.7776 23.5938 41.6171 22.7197 41.6171 21.6406C41.6171 20.5615 40.7781 19.6875 39.7421 19.6875Z" fill="white" />
    </g>
    <defs>
        <linearGradient id="paint0_linear_3_3" x1="28" y1="0" x2="28" y2="56" gradientUnits="userSpaceOnUse">
            <stop stop-color="#0161BD" />
            <stop offset="1" stop-color="#0A8CE1" />
        </linearGradient>
        <clipPath id="clip0_3_3">
            <rect width="27" height="25" fill="white" transform="translate(14.6171 15)" />
        </clipPath>
    </defs>
</svg>