<svg width="32" height="33" viewBox="0 0 32 33" fill="none" xmlns="http://www.w3.org/2000/svg">
    <path d="M12.1973 14.625C12.1973 13.5867 11.357 12.7477 10.3223 12.7477L9.4375 12.75C7.3668 12.75 5.6875 14.4293 5.6875 16.5047V19.3049C5.6875 21.3809 7.36914 23.0625 9.4375 23.0625H10.375C11.4098 23.0625 12.25 22.2211 12.25 21.184L12.1973 14.625ZM16 1.5C7.61523 1.5 1.26854 8.47852 1.00122 16.5L1 18.8438C1 19.623 1.62988 20.25 2.35352 20.25C3.07715 20.25 3.8125 19.623 3.8125 18.8438V16.5C3.8125 9.7793 9.28164 4.32422 16 4.32422C22.7207 4.32422 28.1875 9.7793 28.1875 16.5V24.9375C28.1875 26.2318 27.1381 27.2812 25.8438 27.2812H19.3574C18.8711 26.4434 17.9746 25.875 16.9375 25.875H15.168C13.808 25.875 12.5605 26.7943 12.3045 28.1303C11.957 29.9297 13.3281 31.5 15.0098 31.5H16.9375C17.9758 31.5 18.8729 30.931 19.3598 30.0938H25.8438C28.6914 30.0938 31 27.7852 31 24.9375V16.5C30.7305 8.47852 24.3848 1.5 16 1.5ZM22.5625 23.0625C24.6332 23.0625 26.3125 21.3809 26.3125 19.3049V16.5059C26.3125 14.4316 24.6309 12.75 22.5625 12.75H21.625C20.5902 12.75 19.75 13.5902 19.75 14.6273V21.1816C19.75 22.2246 20.5879 23.0625 21.625 23.0625H22.5625Z" fill="#201F1E"/>
</svg>
