<svg width="32" height="32" viewBox="0 0 32 32" fill="none" xmlns="http://www.w3.org/2000/svg">
<path d="M29.3332 16C29.3332 23.3645 23.3644 29.3333 15.9998 29.3333C8.63525 29.3333 2.6665 23.3645 2.6665 16C2.6665 8.63538 8.63525 2.66663 15.9998 2.66663C23.3644 2.66663 29.3332 8.63538 29.3332 16ZM17.2498 17.9114V7.24996C17.2498 6.55986 16.6925 5.99996 15.9998 5.99996C15.3071 5.99996 14.7498 6.55986 14.7498 7.24996V17.9114C13.5259 18.401 12.6665 19.5989 12.6665 21C12.6665 22.8385 14.1613 24.3333 15.9998 24.3333C17.8384 24.3333 19.3332 22.8385 19.3332 21C19.3332 19.5989 18.4738 18.401 17.2498 17.9114ZM10.1665 11.8333C11.0884 11.8333 11.8332 11.0885 11.8332 10.1666C11.8332 9.24475 11.0884 8.49996 10.1665 8.49996C9.24463 8.49996 8.49984 9.24475 8.49984 10.1666C8.49984 11.0885 9.24463 11.8333 10.1665 11.8333ZM7.6665 14.3333C6.74619 14.3333 5.99984 15.0781 5.99984 16C5.99984 16.9218 6.74619 17.6666 7.6665 17.6666C8.58838 17.6666 9.33317 16.9218 9.33317 16C9.33317 15.0781 8.58838 14.3333 7.6665 14.3333ZM24.3332 17.6666C25.255 17.6666 25.9998 16.9218 25.9998 16C25.9998 15.0781 25.255 14.3333 24.3332 14.3333C23.4113 14.3333 22.6665 15.0781 22.6665 16C22.6665 16.9218 23.4113 17.6666 24.3332 17.6666ZM21.8332 8.49996C20.9113 8.49996 20.1665 9.24475 20.1665 10.1666C20.1665 11.0885 20.9113 11.8333 21.8332 11.8333C22.755 11.8333 23.4998 11.0885 23.4998 10.1666C23.4998 9.24475 22.755 8.49996 21.8332 8.49996Z" fill="#3E3E3E"/>
</svg>
