<svg width="32" height="32" viewBox="0 0 32 32" fill="none" xmlns="http://www.w3.org/2000/svg">
<path d="M4 10.6667C4 9.19583 5.19583 8 6.66667 8H19.4458C20.1542 8 20.8333 8.27917 21.3333 8.77917L27.6083 15.0583C27.8583 15.3083 28 15.6458 28 16C28 16.3542 27.8583 16.6917 27.6083 16.9417L21.3333 23.2208C20.8333 23.7208 20.1542 24 19.4458 24H6.66667C5.19583 24 4 22.8042 4 21.3333V10.6667ZM9.95833 12.625C9.56667 13.0167 9.56667 13.65 9.95833 14.0375L11.9167 15.9958L9.95833 17.9542C9.56667 18.3458 9.56667 18.9792 9.95833 19.3667C10.35 19.7542 10.9833 19.7583 11.3708 19.3667L13.3292 17.4083L15.2875 19.3667C15.6792 19.7583 16.3125 19.7583 16.7 19.3667C17.0875 18.975 17.0917 18.3417 16.7 17.9542L14.7417 15.9958L16.7 14.0375C17.0917 13.6458 17.0917 13.0125 16.7 12.625C16.3083 12.2375 15.675 12.2333 15.2875 12.625L13.3292 14.5833L11.3708 12.625C10.9792 12.2333 10.3458 12.2333 9.95833 12.625Z" fill="#201F1E"/>
</svg>
