<svg width="32" height="32" viewBox="0 0 32 32" fill="none" xmlns="http://www.w3.org/2000/svg">
    <g clip-path="url(#clip0_805_63042)">
        <path d="M2.66675 10C2.66675 8.34531 3.99545 7 5.62971 7H19.8288C20.6158 7 21.3705 7.31406 21.926 7.87656L28.8982 14.9406C29.176 15.2219 29.3334 15.6016 29.3334 16C29.3334 16.3984 29.176 16.7781 28.8982 17.0594L21.926 24.1234C21.3705 24.6859 20.6158 25 19.8288 25H5.62971C3.99545 25 2.66675 23.6547 2.66675 22V10ZM9.28712 12.2031C8.85193 12.6438 8.85193 13.3562 9.28712 13.7922L11.463 15.9953L9.28712 18.1984C8.85193 18.6391 8.85193 19.3516 9.28712 19.7875C9.7223 20.2234 10.426 20.2281 10.8566 19.7875L13.0325 17.5844L15.2084 19.7875C15.6436 20.2281 16.3473 20.2281 16.7779 19.7875C17.2084 19.3469 17.213 18.6344 16.7779 18.1984L14.6019 15.9953L16.7779 13.7922C17.213 13.3516 17.213 12.6391 16.7779 12.2031C16.3427 11.7672 15.639 11.7625 15.2084 12.2031L13.0325 14.4062L10.8566 12.2031C10.4214 11.7625 9.71767 11.7625 9.28712 12.2031Z" fill="#323130"/>
    </g>
    <defs>
        <clipPath id="clip0_805_63042">
            <rect width="26.6667" height="24" fill="white" transform="translate(2.66675 4)"/>
        </clipPath>
    </defs>
</svg>
