<svg width="32" height="32" viewBox="0 0 32 32" fill="none" xmlns="http://www.w3.org/2000/svg">
    <path d="M1 4.33333C1 3.0449 1.9596 2 3.14286 2H28.8571C30.0424 2 31 3.0449 31 4.33333C31 5.62396 30.0424 6.66667 28.8571 6.66667H3.14286C1.9596 6.66667 1 5.62396 1 4.33333ZM1 16C1 14.7094 1.9596 13.6667 3.14286 13.6667H28.8571C30.0424 13.6667 31 14.7094 31 16C31 17.2906 30.0424 18.3333 28.8571 18.3333H3.14286C1.9596 18.3333 1 17.2906 1 16ZM28.8571 30H3.14286C1.9596 30 1 28.9573 1 27.6667C1 26.376 1.9596 25.3333 3.14286 25.3333H28.8571C30.0424 25.3333 31 26.376 31 27.6667C31 28.9573 30.0424 30 28.8571 30Z" fill="#201F1E"/>
</svg>
