<svg width="32" height="32" viewBox="0 0 32 32" fill="currentColor">
    <path d="M29.125 21.625H21.3027L18.6514 24.2764C17.9453 24.9824 17.002 25.375 16 25.375C14.998 25.375 14.057 24.985 13.3486 24.2764L10.6973 21.625H2.875C1.83965 21.625 1 22.4646 1 23.5V29.125C1 30.1603 1.83965 31 2.875 31H29.125C30.1604 31 31 30.1603 31 29.125V23.5C31 22.4629 30.1621 21.625 29.125 21.625ZM26.3125 27.7187C25.5391 27.7187 24.9062 27.0859 24.9062 26.3125C24.9062 25.539 25.5391 24.9062 26.3125 24.9062C27.0859 24.9062 27.7188 25.539 27.7188 26.3125C27.7188 27.0859 27.0859 27.7187 26.3125 27.7187ZM14.6758 22.9492C15.0391 23.3183 15.5195 23.5 16 23.5C16.4805 23.5 16.9598 23.3169 17.3254 22.9507L24.8254 15.4507C25.5572 14.7182 25.5572 13.5317 24.8254 12.7993C24.093 12.0669 22.9059 12.0669 22.174 12.7993L17.875 17.1015V2.87498C17.875 1.83963 17.0354 0.999985 16 0.999985C14.9629 0.999985 14.125 1.83963 14.125 2.87498V17.1015L9.82422 12.8008C9.09238 12.0683 7.90527 12.0683 7.17285 12.8008C6.44102 13.5332 6.44102 14.7197 7.17285 15.4521L14.6758 22.9492Z"/>
</svg>
