<svg width="32" height="32" viewBox="0 0 32 32" fill="none" xmlns="http://www.w3.org/2000/svg">
<path d="M15.9999 5.33337C21.8911 5.33337 26.6666 10.1088 26.6666 16C26.6666 21.8912 21.8911 26.6667 15.9999 26.6667C10.1087 26.6667 5.33325 21.8912 5.33325 16C5.33325 10.1088 10.1087 5.33337 15.9999 5.33337ZM11.7333 17.0667L7.53272 17.0678C7.77036 18.9475 8.62651 20.6947 9.96633 22.0343C11.3062 23.374 13.0535 24.2299 14.9333 24.4672V20.2667C14.0846 20.2667 13.2706 19.9296 12.6705 19.3295C12.0704 18.7293 11.7333 17.9154 11.7333 17.0667ZM24.4671 17.0678L20.2666 17.0667C20.2666 17.9154 19.9294 18.7293 19.3293 19.3295C18.7292 19.9296 17.9153 20.2667 17.0666 20.2667L17.0677 24.4672C18.9472 24.2296 20.6943 23.3737 22.0339 22.034C23.3735 20.6944 24.2295 18.9473 24.4671 17.0678V17.0678ZM15.9999 7.46671C13.9214 7.46674 11.9143 8.22531 10.3554 9.60004C8.79643 10.9748 7.79276 12.8712 7.53272 14.9334H11.7333C11.7333 14.6505 11.8456 14.3792 12.0457 14.1791C12.2457 13.9791 12.517 13.8667 12.7999 13.8667H19.1999C19.4828 13.8667 19.7541 13.9791 19.9542 14.1791C20.1542 14.3792 20.2666 14.6505 20.2666 14.9334H24.4671C24.2071 12.8712 23.2034 10.9748 21.6445 9.60004C20.0855 8.22531 18.0784 7.46674 15.9999 7.46671V7.46671Z" fill="#201F1E"/>
</svg>
