<svg width="32" height="32" viewBox="0 0 32 32" fill="none" xmlns="http://www.w3.org/2000/svg">
<g clip-path="url(#clip0_1_8)">
<path d="M23.9922 2.26914C25.2754 0.987491 27.3496 0.987491 28.6328 2.26914L29.7285 3.36719C31.0117 4.64863 31.0117 6.72637 29.7285 8.00781L27.9707 9.77149L22.2285 4.03047L23.9922 2.26914ZM26.6465 11.0957L16.8379 20.8984C16.4805 21.2617 16.041 21.5313 15.5547 21.6953L10.3516 23.4297C9.79492 23.5938 9.29102 23.4648 8.91016 23.0371C8.53516 22.709 8.40625 22.1523 8.57031 21.6484L10.3047 16.4453C10.4688 15.959 10.7383 15.5195 11.1016 15.1621L20.9043 5.35586L26.6465 11.0957Z" fill="black"/>
<path opacity="0.4" d="M1 10.375C1 7.2168 3.51836 4.75 6.625 4.75H12.25C13.2871 4.75 14.125 5.58965 14.125 6.625C14.125 7.66211 13.2871 8.5 12.25 8.5H6.625C5.58965 8.5 4.75 9.33789 4.75 10.375V25.375C4.75 26.4121 5.58965 27.25 6.625 27.25H21.625C22.6621 27.25 23.5 26.4121 23.5 25.375V19.75C23.5 18.7129 24.3379 17.875 25.375 17.875C26.4121 17.875 27.25 18.7129 27.25 19.75V25.375C27.25 28.4805 24.7305 31 21.625 31H6.625C3.51836 31 1 28.4805 1 25.375V10.375Z" fill="black"/>
</g>
<defs>
<clipPath id="clip0_1_8">
<rect width="30" height="30" fill="white" transform="translate(1 1)"/>
</clipPath>
</defs>
</svg>
