<svg width="32" height="32" viewBox="0 0 32 32" fill="none" xmlns="http://www.w3.org/2000/svg">
    <path d="M30.0276 3.08064C31.3241 4.37537 31.3241 6.47465 30.0276 7.76939L28.2515 9.55135L22.4495 3.7508L24.2315 1.97121C25.5281 0.676265 27.6239 0.676265 28.9205 1.97121L30.0276 3.08064ZM11.2067 14.9979L21.1115 5.08993L26.9135 10.8893L17.0028 20.7937C16.6416 21.1607 16.1976 21.4331 15.7062 21.5988L10.4489 23.3512C9.88648 23.5169 9.37733 23.3867 8.9925 22.9545C8.6136 22.623 8.48335 22.0606 8.64912 21.5515L10.4016 16.2944C10.5673 15.803 10.8397 15.359 11.2067 14.9979ZM12.3671 4.42451C13.415 4.42451 14.2616 5.32615 14.2616 6.31895C14.2616 7.4201 13.415 8.2134 12.3671 8.2134H6.68356C5.63743 8.2134 4.78904 9.11326 4.78904 10.1078V25.3167C4.78904 26.3645 5.63743 27.2111 6.68356 27.2111H21.8397C22.8876 27.2111 23.7342 26.3645 23.7342 25.3167V19.5801C23.7342 18.5855 24.5808 17.6856 25.6287 17.6856C26.6767 17.6856 27.5233 18.5855 27.5233 19.5801V25.3167C27.5233 28.4543 24.9775 31 21.8397 31H6.68356C3.54458 31 1 28.4543 1 25.3167V10.1078C1 6.97017 3.54458 4.42451 6.68356 4.42451H12.3671Z" fill="#201F1E"/>
</svg>
