<svg width="32" height="32" viewBox="0 0 32 32" fill="currentColor">
    <path d="M19.1458 16.2878C18.4708 16.7799 17.5263 16.7799 16.8517 16.2878L8 9.84283V11.4049L16.0333 17.2721C16.6208 17.7018 17.3125 17.9167 18 17.9167C18.6875 17.9167 19.3775 17.7024 19.965 17.2733L28 11.4049V9.84283L19.1458 16.2878ZM23 25.4167H9C6.24292 25.4167 4 23.3151 4 20.7292V11.3542C4 10.8385 4.44792 10.4167 5 10.4167C5.55208 10.4167 6 10.8385 6 11.3542V20.7292C6 22.2799 7.34583 23.5417 9 23.5417H23C23.5521 23.5417 24 23.9616 24 24.4792C24 24.9967 23.5542 25.4167 23 25.4167Z"/>
    <path opacity="0.4" d="M25.9999 7.91669H9.99988C8.89571 7.91669 7.99988 8.75614 7.99988 9.79169V9.8429L16.854 16.2531C17.529 16.7452 18.4736 16.7452 19.1482 16.2531L27.9999 9.84286V9.79169C27.9999 8.75614 27.104 7.91669 25.9999 7.91669ZM17.9999 17.9167C17.3111 17.9167 16.6224 17.7025 16.0349 17.2733L7.99988 11.405V19.7917C7.99988 20.8268 8.89571 21.6667 9.99988 21.6667H25.9999C27.1045 21.6667 27.9999 20.8272 27.9999 19.7917V11.405L19.9665 17.2722C19.379 17.7018 18.6874 17.9167 17.9999 17.9167Z"/>
</svg>
