<svg width="32" height="32" viewBox="0 0 32 32" fill="currentColor">
<path d="M9 4C7.34531 4 6 5.34531 6 7V25C6 26.6547 7.34531 28 9 28H21C22.6547 28 24 26.6547 24 25V11.5H18C17.1703 11.5 16.5 10.8297 16.5 10V4H9ZM18 4V10H24L18 4ZM13.2984 15.7281L15 18.1609L16.7016 15.7281C17.0578 15.2172 17.7609 15.0953 18.2672 15.4516C18.7734 15.8078 18.9 16.5109 18.5438 17.0172L16.3734 20.125L18.5484 23.2281C18.9047 23.7391 18.7828 24.4375 18.2719 24.7938C17.7609 25.15 17.0625 25.0281 16.7062 24.5172L15 22.0844L13.2984 24.5172C12.9422 25.0281 12.2391 25.15 11.7328 24.7938C11.2266 24.4375 11.1 23.7344 11.4563 23.2281L13.6266 20.125L11.4516 17.0219C11.0953 16.5109 11.2172 15.8125 11.7281 15.4562C12.2391 15.1 12.9375 15.2219 13.2938 15.7328L13.2984 15.7281Z"/>
</svg>
