<svg width="32" height="32" viewBox="0 0 32 32" fill="currentColor">
    <path d="M17.6739 4.00003C17.6739 2.89566 18.5494 2.00003 19.6331 2.00003H27.4698C28.5535 2.00003 29.429 2.89566 29.429 4.00003V12C29.429 13.1063 28.5535 14 27.4698 14C26.3861 14 25.5106 13.1063 25.5106 12V8.83128L15.1392 19.4125C14.3739 20.1938 13.1371 20.1938 12.3718 19.4125C11.6065 18.6313 11.6065 17.3688 12.3718 16.5875L22.7372 6.00003H19.6331C18.5494 6.00003 17.6739 5.10441 17.6739 4.00003Z"/>
    <path opacity="0.4" d="M2 8.00003C2 5.79066 3.75408 4.00003 5.91837 4.00003H11.7959C12.8796 4.00003 13.7551 4.89566 13.7551 6.00003C13.7551 7.10628 12.8796 8.00003 11.7959 8.00003H5.91837V26H23.551V20C23.551 18.8938 24.4266 18 25.5102 18C26.5939 18 27.4694 18.8938 27.4694 20V26C27.4694 28.2063 25.7123 30 23.551 30H5.91837C3.75408 30 2 28.2063 2 26V8.00003Z"/>
</svg>
