<svg width="32" height="32" viewBox="0 0 32 32" fill="none" xmlns="http://www.w3.org/2000/svg">
    <path d="M15.5728 11.4477C15.7154 11.4334 15.858 11.4286 16.0006 11.4286C18.6997 11.4286 20.8897 13.4334 20.8897 16C20.8897 18.5239 18.6997 20.5715 16.0006 20.5715C13.2555 20.5715 11.1115 18.5239 11.1115 16C11.1115 15.8667 11.1166 15.7334 11.1318 15.6C11.6055 15.8143 12.1555 16 12.7412 16C14.5389 16 16.0006 14.6334 16.0006 12.9524C16.0006 12.4048 15.8019 11.8905 15.5728 11.4477ZM25.8093 9.17147C28.1928 11.2381 29.7868 13.6715 30.5405 15.4143C30.7086 15.7905 30.7086 16.2096 30.5405 16.5858C29.7868 18.2858 28.1928 20.7191 25.8093 22.8286C23.4106 24.9143 20.1156 26.6667 16.0006 26.6667C11.8856 26.6667 8.59052 24.9143 6.19282 22.8286C3.80938 20.7191 2.21635 18.2858 1.45859 16.5858C1.29147 16.2096 1.29147 15.7905 1.45859 15.4143C2.21635 13.6715 3.80938 11.2381 6.19282 9.17147C8.59052 7.08766 11.8856 5.33337 16.0006 5.33337C20.1156 5.33337 23.4106 7.08766 25.8093 9.17147ZM16.0006 9.1429C11.9518 9.1429 8.66691 12.2143 8.66691 16C8.66691 19.7858 11.9518 22.8572 16.0006 22.8572C20.0493 22.8572 23.3342 19.7858 23.3342 16C23.3342 12.2143 20.0493 9.1429 16.0006 9.1429Z" fill="black"/>
</svg>
