<svg width="32" height="32" viewBox="0 0 32 32" fill="currentColor">
    <path d="M8.24027 9.19874C10.2707 7.76126 12.874 6.66669 15.9998 6.66669C19.7031 6.66669 22.6685 8.20167 24.8272 10.025C26.9722 11.8333 28.4068 13.9624 29.0851 15.4874C29.2363 15.8166 29.2363 16.1833 29.0851 16.5124C28.4709 17.8582 27.238 19.754 25.423 21.4457L30.2447 24.879C30.7213 25.2207 30.8084 25.8498 30.4326 26.2831C30.0568 26.7165 29.3647 26.7956 28.888 26.454L1.75472 7.12043C1.27659 6.7796 1.19277 6.15127 1.56754 5.71653C1.94236 5.28187 2.63352 5.20566 3.11202 5.54636L8.24027 9.19874ZM11.5586 11.5625L15.6973 14.5124C15.8898 14.1583 15.9998 13.7583 15.9998 13.2958C15.9998 12.8541 15.821 12.4041 15.6148 12.0166C15.7431 12.0041 15.8715 11.9625 15.9998 11.9625C18.4289 11.9625 20.3997 13.7541 20.3997 15.9624C20.3997 16.5707 20.2668 17.1124 19.9918 17.6041L21.8022 18.8624C22.311 18.0124 22.5997 17.0374 22.5997 15.9624C22.5997 12.6875 19.6435 9.96248 15.9998 9.96248C14.2902 9.96248 12.7273 10.5916 11.5586 11.5625ZM15.9998 25.3332C12.2965 25.3332 9.33109 23.7998 7.17236 21.9749C5.0283 20.129 3.59464 17.9999 2.91265 16.5124C2.76232 16.1833 2.76232 15.8166 2.91265 15.4874C3.34989 14.5333 4.09651 13.2999 5.1415 12.0625L9.46401 15.1583C9.42276 15.4333 9.39984 15.7124 9.39984 15.9624C9.39984 19.3124 12.3561 21.9999 15.9998 21.9999C16.8569 21.9999 17.6773 21.8499 18.4289 21.579L21.7839 23.979C20.1202 24.7957 18.1906 25.3332 15.9998 25.3332Z"/>
</svg>
