<svg width="32" height="32" viewBox="0 0 32 32" fill="none" xmlns="http://www.w3.org/2000/svg">
    <path d="M15.9999 26.6666C21.8916 26.6666 26.6666 21.8916 26.6666 15.9999C26.6666 10.1083 21.8916 5.33325 15.9999 5.33325C10.1083 5.33325 5.33325 10.1083 5.33325 15.9999C5.33325 21.8916 10.1083 26.6666 15.9999 26.6666ZM11.9708 21.5291C11.8624 21.8791 11.4874 22.0791 11.1374 21.9666C10.7874 21.8541 10.5874 21.4833 10.6999 21.1333C11.3833 18.9208 13.5124 17.3333 15.9999 17.3333C18.4874 17.3333 20.6166 18.9208 21.3041 21.1374C21.4124 21.4874 21.2166 21.8624 20.8666 21.9708C20.5166 22.0791 20.1416 21.8833 20.0333 21.5333C19.5208 19.8916 17.9208 18.6666 15.9999 18.6666C14.0791 18.6666 12.4791 19.8916 11.9708 21.5291ZM14.0166 13.9999C14.0166 14.7374 13.4208 15.3333 12.6833 15.3333C11.9458 15.3333 11.3499 14.7374 11.3499 13.9999C11.3499 13.2624 11.9458 12.6666 12.6833 12.6666C13.4208 12.6666 14.0166 13.2624 14.0166 13.9999ZM19.3499 15.3333C18.6124 15.3333 18.0166 14.7374 18.0166 13.9999C18.0166 13.2624 18.6124 12.6666 19.3499 12.6666C20.0874 12.6666 20.6833 13.2624 20.6833 13.9999C20.6833 14.7374 20.0874 15.3333 19.3499 15.3333Z" fill="black"/>
</svg>
