<svg width="32" height="32" viewBox="0 0 32 32" fill="currentColor">
    <path d="M15.9999 26.6666C21.8916 26.6666 26.6666 21.8916 26.6666 15.9999C26.6666 10.1083 21.8916 5.33325 15.9999 5.33325C10.1083 5.33325 5.33325 10.1083 5.33325 15.9999C5.33325 21.8916 10.1083 26.6666 15.9999 26.6666ZM12.6833 15.3333C11.9458 15.3333 11.3499 14.7374 11.3499 13.9999C11.3499 13.2624 11.9458 12.6666 12.6833 12.6666C13.4208 12.6666 14.0166 13.2624 14.0166 13.9999C14.0166 14.7374 13.4208 15.3333 12.6833 15.3333ZM20.6833 13.9999C20.6833 14.7374 20.0874 15.3333 19.3499 15.3333C18.6124 15.3333 18.0166 14.7374 18.0166 13.9999C18.0166 13.2624 18.6124 12.6666 19.3499 12.6666C20.0874 12.6666 20.6833 13.2624 20.6833 13.9999ZM11.9999 19.3333H19.9999C20.3666 19.3333 20.6666 19.6333 20.6666 19.9999C20.6666 20.3666 20.3666 20.6666 19.9999 20.6666H11.9999C11.6333 20.6666 11.3333 20.3666 11.3333 19.9999C11.3333 19.6333 11.6333 19.3333 11.9999 19.3333Z"/>
</svg>
