<svg width="32" height="32" viewBox="0 0 32 32" fill="none" xmlns="http://www.w3.org/2000/svg">
    <path d="M21.3417 6.76242C21.2876 7.58325 21.5709 8.42075 22.1959 9.04992L24.5084 11.3749C24.8917 11.7624 25.3876 11.9666 25.8917 11.9958C26.3917 13.2333 26.6667 14.5833 26.6667 15.9999C26.6667 17.5583 26.3334 19.0416 25.7292 20.3791C24.6042 19.7458 23.1501 19.9083 22.1959 20.8708C21.1209 21.9541 21.0501 23.6666 21.9917 24.8249C20.2834 25.9874 18.2209 26.6666 16.0001 26.6666C13.4459 26.6666 11.1001 25.7666 9.26258 24.2666L9.80841 23.7208C10.9584 22.5666 10.9584 20.6958 9.80841 19.5374C8.77508 18.4958 7.15841 18.3874 6.00425 19.2166C5.93341 19.1666 5.85841 19.1166 5.78758 19.0749C5.49175 18.1041 5.33341 17.0708 5.33341 15.9999C5.33341 10.1083 10.1084 5.33325 16.0001 5.33325C17.9459 5.33325 19.7709 5.85409 21.3417 6.76242ZM11.2292 18.8291C10.9501 19.0708 10.9209 19.4916 11.1626 19.7708C12.0876 20.8416 13.7042 21.9999 16.0001 21.9999C18.2959 21.9999 19.9084 20.8374 20.8376 19.7708C21.0792 19.4916 21.0501 19.0708 20.7709 18.8291C20.4917 18.5874 20.0709 18.6166 19.8292 18.8958C19.0834 19.7583 17.8084 20.6666 16.0001 20.6666C14.1917 20.6666 12.9167 19.7583 12.1709 18.8958C11.9292 18.6166 11.5084 18.5874 11.2292 18.8291ZM11.2001 15.0666C11.9334 14.0874 13.4001 14.0874 14.1334 15.0666C14.3542 15.3624 14.7709 15.4208 15.0667 15.1999C15.3626 14.9791 15.4209 14.5624 15.2001 14.2666C13.9334 12.5791 11.4001 12.5791 10.1334 14.2666C9.91258 14.5624 9.97091 14.9791 10.2667 15.1999C10.5626 15.4208 10.9792 15.3624 11.2001 15.0666ZM20.8001 15.0666C21.0209 15.3624 21.4376 15.4208 21.7334 15.1999C22.0292 14.9791 22.0876 14.5624 21.8667 14.2666C20.6001 12.5791 18.0667 12.5791 16.8001 14.2666C16.5792 14.5624 16.6376 14.9791 16.9334 15.1999C17.2292 15.4208 17.6459 15.3624 17.8667 15.0666C18.6001 14.0874 20.0667 14.0874 20.8001 15.0666ZM26.5709 5.81242C27.2042 5.17492 28.2292 5.17492 28.8584 5.81242C29.4876 6.44992 29.4917 7.47909 28.8584 8.11242L26.5501 10.4374C26.2459 10.7416 25.7542 10.7416 25.4542 10.4374L23.1417 8.11242C22.5084 7.47492 22.5084 6.44575 23.1417 5.81242C23.7751 5.17909 24.8001 5.17492 25.4292 5.81242L26.0001 6.38742L26.5709 5.81242ZM28.8584 21.8124C29.4917 22.4499 29.4917 23.4791 28.8584 24.1124L26.5501 26.4374C26.2459 26.7416 25.7542 26.7416 25.4542 26.4374L23.1417 24.1124C22.5084 23.4749 22.5084 22.4458 23.1417 21.8124C23.7751 21.1791 24.8001 21.1749 25.4292 21.8124L26.0001 22.3874L26.5709 21.8124C27.2042 21.1749 28.2292 21.1749 28.8584 21.8124ZM6.57091 20.4791C7.20425 19.8416 8.22925 19.8416 8.85841 20.4791C9.48758 21.1166 9.49175 22.1458 8.85841 22.7791L6.55008 25.1041C6.24591 25.4083 5.75425 25.4083 5.45425 25.1041L3.14175 22.7791C2.50841 22.1416 2.50841 21.1124 3.14175 20.4791C3.77508 19.8458 4.80008 19.8416 5.42925 20.4791L6.00008 21.0541L6.57091 20.4791Z" fill="black"/>
</svg>
