<svg width="32" height="32" viewBox="0 0 32 32" fill="currentColor">
    <path d="M5.33325 15.9999C5.33325 21.8916 10.1083 26.6666 15.9999 26.6666C21.8916 26.6666 26.6666 21.8916 26.6666 15.9999C26.6666 10.1083 21.8916 5.33325 15.9999 5.33325C10.1083 5.33325 5.33325 10.1083 5.33325 15.9999ZM15.3333 19.3333C15.3333 18.9666 15.6333 18.6666 15.9999 18.6666C17.8749 18.6666 19.5666 19.5208 20.8208 20.8791C21.0708 21.1499 21.0541 21.5708 20.7833 21.8208C20.5124 22.0708 20.0916 22.0541 19.8416 21.7833C18.7999 20.6541 17.4499 19.9958 15.9958 19.9958C15.6291 19.9958 15.3291 19.6958 15.3291 19.3291L15.3333 19.3333ZM11.9999 22.6666C10.8958 22.6666 9.99992 21.7916 9.99992 20.7083C9.99992 19.8749 11.1916 18.1916 11.7333 17.4708C11.8666 17.2874 12.1333 17.2874 12.2666 17.4708C12.8166 18.1916 13.9999 19.8749 13.9999 20.7083C13.9999 21.7916 13.1041 22.6666 11.9999 22.6666ZM17.9833 13.9999C17.9833 13.2624 18.5791 12.6666 19.3166 12.6666C20.0541 12.6666 20.6499 13.2624 20.6499 13.9999C20.6499 14.7374 20.0541 15.3333 19.3166 15.3333C18.5791 15.3333 17.9833 14.7374 17.9833 13.9999ZM12.6499 15.3333C11.9124 15.3333 11.3166 14.7374 11.3166 13.9999C11.3166 13.2624 11.9124 12.6666 12.6499 12.6666C13.3874 12.6666 13.9833 13.2624 13.9833 13.9999C13.9833 14.7374 13.3874 15.3333 12.6499 15.3333Z"/>
</svg>
