<svg width="32" height="32" viewBox="0 0 32 32" fill="currentColor">
    <path d="M15.9999 26.6666C21.8916 26.6666 26.6666 21.8916 26.6666 15.9999C26.6666 10.1083 21.8916 5.33325 15.9999 5.33325C10.1083 5.33325 5.33325 10.1083 5.33325 15.9999C5.33325 21.8916 10.1083 26.6666 15.9999 26.6666ZM9.36659 18.4208C9.20825 17.8499 9.67492 17.3333 10.2666 17.3333H21.7333C22.3249 17.3333 22.7958 17.8499 22.6333 18.4208C21.8416 21.2499 19.1708 23.3333 15.9999 23.3333C12.8291 23.3333 10.1583 21.2499 9.36659 18.4208ZM14.0166 13.3333C14.0166 14.0708 13.4208 14.6666 12.6833 14.6666C11.9458 14.6666 11.3499 14.0708 11.3499 13.3333C11.3499 12.5958 11.9458 11.9999 12.6833 11.9999C13.4208 11.9999 14.0166 12.5958 14.0166 13.3333ZM19.3499 14.6666C18.6124 14.6666 18.0166 14.0708 18.0166 13.3333C18.0166 12.5958 18.6124 11.9999 19.3499 11.9999C20.0874 11.9999 20.6833 12.5958 20.6833 13.3333C20.6833 14.0708 20.0874 14.6666 19.3499 14.6666Z"/>
</svg>
