<svg width="32" height="32" viewBox="0 0 32 32" fill="none" xmlns="http://www.w3.org/2000/svg">
    <path d="M15.9999 26.6666C21.8916 26.6666 26.6666 21.8916 26.6666 15.9999C26.6666 10.1083 21.8916 5.33325 15.9999 5.33325C10.1083 5.33325 5.33325 10.1083 5.33325 15.9999C5.33325 21.8916 10.1083 26.6666 15.9999 26.6666ZM12.1708 18.8958C12.9166 19.7583 14.1916 20.6666 15.9999 20.6666C17.8083 20.6666 19.0833 19.7583 19.8291 18.8958C20.0708 18.6166 20.4916 18.5874 20.7708 18.8291C21.0499 19.0708 21.0791 19.4916 20.8374 19.7708C19.9083 20.8374 18.2958 21.9999 15.9999 21.9999C13.7041 21.9999 12.0916 20.8374 11.1624 19.7708C10.9208 19.4916 10.9499 19.0708 11.2291 18.8291C11.5083 18.5874 11.9291 18.6166 12.1708 18.8958ZM14.0166 13.9999C14.0166 14.7374 13.4208 15.3333 12.6833 15.3333C11.9458 15.3333 11.3499 14.7374 11.3499 13.9999C11.3499 13.2624 11.9458 12.6666 12.6833 12.6666C13.4208 12.6666 14.0166 13.2624 14.0166 13.9999ZM19.3499 15.3333C18.6124 15.3333 18.0166 14.7374 18.0166 13.9999C18.0166 13.2624 18.6124 12.6666 19.3499 12.6666C20.0874 12.6666 20.6833 13.2624 20.6833 13.9999C20.6833 14.7374 20.0874 15.3333 19.3499 15.3333Z" fill="black"/>
</svg>
