<svg width="32" height="32" viewBox="0 0 32 32" fill="currentColor">
<path d="M16.2403 19.6751C16.087 19.8251 16.0001 20.0301 16.0001 20.2451V23.3601H19.1864C19.4043 23.3601 19.6132 23.2749 19.7665 23.1237L27.7859 15.2237L24.3164 11.8297L16.2403 19.6751ZM30.3368 10.9301L28.7064 9.33506C28.2016 8.83506 27.3775 8.83506 26.8664 9.33506L25.4736 10.6976L28.943 14.0916L30.3358 12.7291C30.8479 12.2301 30.8479 11.4251 30.3368 10.9301ZM14.3645 2.56006V8.96006H20.9068L14.3645 2.56006ZM14.3645 24.9601C13.5432 24.9458 12.7995 24.4921 12.4284 23.7661C12.2815 23.4723 12.0195 23.4411 11.9112 23.4411C11.8028 23.4411 11.5406 23.4723 11.4001 23.7473L11.004 24.5163C10.8685 24.7901 10.5363 24.9601 10.2756 24.9601H10.2194C9.88718 24.9351 9.60607 24.7226 9.50384 24.4101L8.64006 21.8901L8.09828 23.4851C7.79672 24.3651 6.95339 24.9601 6.00527 24.9601H5.36894C4.91558 24.9601 4.55115 24.6051 4.55115 24.1601C4.55115 23.7151 4.91558 23.3601 5.36894 23.3601H6.00272C6.25188 23.3601 6.46793 23.2038 6.5445 22.9788L7.47728 20.2473C7.64339 19.7551 8.1085 19.4251 8.64006 19.4251C9.17162 19.4251 9.63673 19.7563 9.80284 20.2501L10.5123 22.3316C11.5217 21.5191 13.2789 21.8441 13.8856 23.0376C13.9812 23.2201 14.1703 23.3401 14.3645 23.3551V19.9101C14.3645 19.4839 14.5384 19.0751 14.8476 18.7746L20.9068 12.8851V10.5601H14.3645C13.4614 10.5601 12.729 9.84356 12.729 8.96006V2.56006H3.73337C2.37841 2.56006 1.28003 3.63456 1.28003 4.96006V25.7601C1.28003 27.0851 2.37841 28.1601 3.73337 28.1601H18.4534C19.8084 28.1601 20.9068 27.0856 20.9068 25.7601V24.9601H14.3645Z"/>
</svg>
