<svg width="32" height="32" viewBox="0 0 32 32" fill="none" xmlns="http://www.w3.org/2000/svg">
    <path d="M4 4.75C4 2.67871 5.79063 1 8 1H18.3438C19.4062 1 20.4188 1.3951 21.1688 2.09863L26.8312 7.4043C27.5812 8.10742 28 9.05664 28 10.0527V27.25C28 29.3184 26.2062 31 24 31H8C5.79063 31 4 29.3184 4 27.25V4.75ZM25 27.25V10.375H20C18.8938 10.375 18 9.53711 18 8.5V3.8125H8C7.4475 3.8125 7 4.23203 7 4.75V27.25C7 27.7656 7.4475 28.1875 8 28.1875H24C24.55 28.1875 25 27.7656 25 27.25Z" fill="#201F1E"/>
</svg>
