<svg width="28" height="23" viewBox="0 0 28 23" fill="currentColor">
  <path d="M0.666748 2.16671C0.666748 1.15264 1.51794 0.333374 2.57151 0.333374H25.4287C26.4822 0.333374 27.3334 1.15264 27.3334 2.16671C27.3334 3.18077 26.4822 4.00004 25.4287 4.00004H2.57151C1.51794 4.00004 0.666748 3.18077 0.666748 2.16671ZM4.47627 11.3334C4.47627 10.3193 5.32746 9.50004 6.38103 9.50004H21.6191C22.6727 9.50004 23.5239 10.3193 23.5239 11.3334C23.5239 12.3474 22.6727 13.1667 21.6191 13.1667H6.38103C5.32746 13.1667 4.47627 12.3474 4.47627 11.3334ZM17.8096 20.5C17.8096 21.5141 16.9584 22.3334 15.9048 22.3334H12.0953C11.0417 22.3334 10.1906 21.5141 10.1906 20.5C10.1906 19.486 11.0417 18.6667 12.0953 18.6667H15.9048C16.9584 18.6667 17.8096 19.486 17.8096 20.5Z"/>
</svg>
