<svg width="32" height="32" viewBox="0 0 32 32" fill="none" xmlns="http://www.w3.org/2000/svg">
    <path d="M30.8231 16.7022L25.8231 26.1308C25.5418 26.6661 24.9637 27 24.2866 27H4.33335C2.4922 27 1 25.5926 1 23.8571V8.14286C1 6.40741 2.4922 5 4.33335 5H10.4532C11.337 5 12.185 5.33108 12.8105 5.92076L15.3699 8.14286H22.6668C24.5079 8.14286 26.0001 9.55027 26.0001 11.2857V12.8571H23.5001V11.2857C23.5001 10.8524 23.1263 10.5 22.6668 10.5H14.3334L11.0417 7.58746C10.8855 7.43866 10.6771 7.35714 10.4532 7.35714H4.33335C3.87397 7.35714 3.50001 7.70973 3.50001 8.14286V22.2857L7.20628 15.2978C7.48962 14.7625 8.06775 14.4286 8.69796 14.4286H29.3335C30.5679 14.4286 31.3752 15.6562 30.8231 16.7022Z" fill="#201F1E"/>
</svg>
