<svg width="32" height="32" viewBox="0 0 32 32" fill="currentColor">
    <path d="M27.25 6.71429H17.166L14.2832 4.08817C13.5801 3.39116 12.6309 3 11.6348 3H4.75C2.67871 3 1 4.6633 1 6.71429V25.2857C1 27.3367 2.67871 29 4.75 29H27.25C29.3213 29 31 27.3367 31 25.2857V10.4286C31 8.37991 29.3184 6.71429 27.25 6.71429ZM4.75 5.78571H11.6348C11.8851 5.78571 12.1207 5.88229 12.2975 6.05779L16 9.5H27.25C27.7669 9.5 28.1875 9.91646 28.1875 10.4286V12.2857H3.8125V6.71429C3.8125 6.20241 4.2332 5.78571 4.75 5.78571ZM27.25 26.2143H4.75C4.23309 26.2143 3.8125 25.7978 3.8125 25.2857V15.0714H28.1875V25.2857C28.1875 25.7964 27.7656 26.2143 27.25 26.2143Z"/>
</svg>
