<svg width="32" height="32" viewBox="0 0 32 32" fill="currentColor">
    <path d="M30.1667 27.6853H28.4028L18.6875 1.53571C18.5694 1.21429 18.2569 1 17.9028 1H14.0972C13.7431 1 13.4306 1.21429 13.3125 1.53571L3.59722 27.6853H1.83333C1.375 27.6853 1 28.0469 1 28.4888V30.1964C1 30.6384 1.375 31 1.83333 31H10.1667C10.625 31 11 30.6384 11 30.1964V28.4888C11 28.0469 10.625 27.6853 10.1667 27.6853H8.04861L10.4722 21.0156H21.4861L23.9097 27.6853H21.8333C21.375 27.6853 21 28.0469 21 28.4888V30.1964C21 30.6384 21.375 31 21.8333 31H30.1667C30.625 31 31 30.6384 31 30.1964V28.4888C31 28.0469 30.625 27.6853 30.1667 27.6853ZM11.5694 17.6138L15.4028 7.20089C15.7986 5.96875 16 4.90402 16 4.90402C16 4.90402 16.1528 5.96875 16.5972 7.20089L20.3889 17.6138H11.5694Z"/>
</svg>
