<svg width="32" height="32" viewBox="0 0 20 20" fill="currentColor">
<path d="M20 10C20 15.5234 15.5234 20 10 20C4.47656 20 0 15.5234 0 10C0 4.47656 4.47656 0 10 0C15.5234 0 20 4.47656 20 10ZM10.9375 11.4336V3.4375C10.9375 2.91992 10.5195 2.5 10 2.5C9.48047 2.5 9.0625 2.91992 9.0625 3.4375V11.4336C8.14453 11.8008 7.5 12.6992 7.5 13.75C7.5 15.1289 8.62109 16.25 10 16.25C11.3789 16.25 12.5 15.1289 12.5 13.75C12.5 12.6992 11.8555 11.8008 10.9375 11.4336ZM5.625 6.875C6.31641 6.875 6.875 6.31641 6.875 5.625C6.875 4.93359 6.31641 4.375 5.625 4.375C4.93359 4.375 4.375 4.93359 4.375 5.625C4.375 6.31641 4.93359 6.875 5.625 6.875ZM3.75 8.75C3.05977 8.75 2.5 9.30859 2.5 10C2.5 10.6914 3.05977 11.25 3.75 11.25C4.44141 11.25 5 10.6914 5 10C5 9.30859 4.44141 8.75 3.75 8.75ZM16.25 11.25C16.9414 11.25 17.5 10.6914 17.5 10C17.5 9.30859 16.9414 8.75 16.25 8.75C15.5586 8.75 15 9.30859 15 10C15 10.6914 15.5586 11.25 16.25 11.25ZM14.375 4.375C13.6836 4.375 13.125 4.93359 13.125 5.625C13.125 6.31641 13.6836 6.875 14.375 6.875C15.0664 6.875 15.625 6.31641 15.625 5.625C15.625 4.93359 15.0664 4.375 14.375 4.375Z"/>
</svg>
