<svg width="32" height="32" viewBox="0 0 32 32" fill="currentColor">
<g clip-path="url(#clip0_5827_88908)">
<path d="M16.4994 11.2362C16.8027 10.9671 16.9224 10.5441 16.7643 10.1682C16.666 9.94181 16.5592 9.71968 16.4396 9.50608L16.3072 9.2754C16.179 9.06181 16.0381 8.85249 15.8886 8.65171C15.6451 8.32705 15.2179 8.22025 14.8334 8.34841L13.6287 8.74569C13.1716 8.36976 12.6462 8.06219 12.0823 7.85287L11.8217 6.61402C11.7406 6.21674 11.433 5.90062 11.0314 5.85363C10.741 5.81518 10.4505 5.7981 10.1557 5.7981C9.86095 5.7981 9.57046 5.81518 9.28424 5.84936C8.88269 5.89635 8.57511 6.21674 8.49395 6.60975L8.23336 7.85287C7.6652 8.06646 7.14403 8.36976 6.68694 8.74569L5.478 8.35268C5.09353 8.22452 4.66635 8.33132 4.42285 8.65598C4.27333 8.85676 4.13236 9.06608 3.99993 9.27967L3.87178 9.50608C3.75216 9.71968 3.64537 9.94181 3.54711 10.1725C3.38906 10.5441 3.50867 10.9671 3.81197 11.2405L4.76033 12.0863C4.71334 12.3725 4.68771 12.6715 4.68771 12.9748C4.68771 13.2781 4.71334 13.5772 4.76033 13.8677L3.81197 14.7135C3.50867 14.9826 3.38906 15.4055 3.54711 15.7815C3.64537 16.0079 3.75216 16.23 3.87178 16.4479L3.99993 16.67C4.12809 16.8879 4.26906 17.0929 4.42285 17.2937C4.66635 17.6184 5.09353 17.7252 5.478 17.597L6.68267 17.1997C7.13976 17.5757 7.6652 17.8832 8.22909 18.0926L8.48967 19.3357C8.57084 19.733 8.87841 20.0491 9.27997 20.0961C9.56619 20.1302 9.85667 20.1473 10.1514 20.1473C10.4462 20.1473 10.7367 20.1302 11.0229 20.0961C11.4245 20.0491 11.732 19.7287 11.8132 19.3357L12.0738 18.0926C12.6419 17.879 13.1631 17.5757 13.6202 17.1997L14.8249 17.597C15.2093 17.7252 15.6365 17.6184 15.88 17.2937C16.0295 17.0929 16.1705 16.8879 16.2987 16.67L16.4311 16.4393C16.5507 16.2257 16.6575 16.0036 16.7558 15.7772C16.9138 15.4055 16.7942 14.9826 16.4909 14.7092L15.5425 13.8634C15.5895 13.5729 15.6152 13.2739 15.6152 12.9706C15.6152 12.6673 15.5895 12.3682 15.5425 12.0778L16.4909 11.2319L16.4994 11.2362ZM12.2062 12.9748C12.2062 14.1069 11.2878 15.0253 10.1557 15.0253C9.02366 15.0253 8.10521 14.1069 8.10521 12.9748C8.10521 11.8428 9.02366 10.9243 10.1557 10.9243C11.2878 10.9243 12.2062 11.8428 12.2062 12.9748ZM24.8809 26.8371C25.15 27.1404 25.5729 27.26 25.9488 27.1019C26.1752 27.0037 26.3974 26.8969 26.611 26.7773L26.8416 26.6448C27.0552 26.5167 27.2646 26.3757 27.4653 26.2262C27.79 25.9827 27.8968 25.5555 27.7686 25.1711L27.3714 23.9664C27.7473 23.5093 28.0549 22.9839 28.2642 22.42L29.5073 22.1594C29.9046 22.0782 30.2207 21.7706 30.2677 21.3691C30.3019 21.0829 30.319 20.7924 30.319 20.4976C30.319 20.2029 30.3019 19.9124 30.2677 19.6262C30.2207 19.2246 29.9003 18.917 29.5073 18.8359L28.2642 18.571C28.0506 18.0028 27.7473 17.4817 27.3714 17.0246L27.7686 15.8199C27.8968 15.4354 27.79 15.0083 27.4653 14.7648C27.2646 14.6152 27.0552 14.4743 26.8416 14.3418L26.6152 14.2137C26.4016 14.0941 26.1795 13.9873 25.9488 13.889C25.5772 13.731 25.1543 13.8506 24.8809 14.1539L24.035 15.1022C23.7445 15.0552 23.4455 15.0296 23.1422 15.0296C22.8389 15.0296 22.5399 15.0552 22.2494 15.1022L21.4036 14.1539C21.1344 13.8506 20.7115 13.731 20.3356 13.889C20.1092 13.9873 19.887 14.0941 19.6692 14.2137L19.447 14.3418C19.2292 14.47 19.0241 14.611 18.8233 14.7648C18.4987 15.0083 18.3919 15.4354 18.52 15.8199L18.9173 17.0246C18.5414 17.4817 18.2338 18.0071 18.0245 18.571L16.7814 18.8273C16.3841 18.9085 16.068 19.2161 16.021 19.6176C15.9868 19.9038 15.9697 20.1943 15.9697 20.4891C15.9697 20.7838 15.9868 21.0743 16.021 21.3605C16.068 21.7621 16.3884 22.0697 16.7814 22.1508L18.0245 22.4114C18.2381 22.9796 18.5414 23.5007 18.9173 23.9578L18.52 25.1625C18.3919 25.547 18.4987 25.9742 18.8233 26.2177C19.0241 26.3672 19.2292 26.5081 19.447 26.6363L19.6777 26.7687C19.8913 26.8883 20.1134 26.9951 20.3399 27.0934C20.7115 27.2515 21.1344 27.1318 21.4078 26.8285L22.2537 25.8802C22.5441 25.9272 22.8432 25.9528 23.1465 25.9528C23.4498 25.9528 23.7488 25.9272 24.0393 25.8802L24.8851 26.8285L24.8809 26.8371ZM23.1422 22.5438C22.0102 22.5438 21.0917 21.6254 21.0917 20.4933C21.0917 19.3613 22.0102 18.4428 23.1422 18.4428C24.2743 18.4428 25.1927 19.3613 25.1927 20.4933C25.1927 21.6254 24.2743 22.5438 23.1422 22.5438Z"/>
</g>
<defs>
<clipPath id="clip0_5827_88908">
<rect width="27.34" height="21.872" fill="white" transform="translate(3.32031 5.45605)"/>
</clipPath>
</defs>
</svg>
