<svg width="32" height="33" viewBox="0 0 32 33" fill="none" xmlns="http://www.w3.org/2000/svg">
    <path d="M21.625 16.5C21.625 17.8008 21.5547 19.0547 21.4316 20.25H10.5684C10.4453 19.0547 10.3223 17.8008 10.3223 16.5C10.3223 15.1992 10.4453 13.9453 10.5684 12.75H21.4316C21.5547 13.9453 21.625 15.1992 21.625 16.5ZM30.5254 12.75C30.8359 13.9512 31 15.2051 31 16.5C31 17.7949 30.8359 19.0488 30.5254 20.25H23.3125C23.4355 19.043 23.5 17.7363 23.5 16.5C23.5 15.2109 23.4355 13.957 23.3125 12.75H30.5254ZM29.9102 10.875H23.0723C22.4863 7.1332 21.3262 3.99727 19.832 1.99465C24.4258 3.20449 28.1523 6.53555 29.9102 10.875ZM21.1738 10.875H10.8262C11.1836 8.74219 11.7344 6.8543 12.4082 5.3291C13.0234 3.9457 13.709 2.94199 14.3711 2.30918C15.0273 1.68621 15.5723 1.5 16 1.5C16.4277 1.5 16.9727 1.68621 17.6289 2.30918C18.291 2.94199 18.9766 3.9457 19.5918 5.3291C20.2656 6.8543 20.8164 8.74219 21.1738 10.875ZM2.09043 10.875C3.84707 6.53555 7.57422 3.20449 12.168 1.99465C10.6738 3.99727 9.51367 7.1332 8.92773 10.875H2.09043ZM8.6875 12.75C8.56445 13.957 8.44727 15.2109 8.44727 16.5C8.44727 17.7363 8.56445 19.043 8.6875 20.25H1.47256C1.16406 19.0488 1 17.7949 1 16.5C1 15.2051 1.16406 13.9512 1.47256 12.75H8.6875ZM12.4082 27.668C11.7344 26.1445 11.1836 24.2578 10.8262 22.125H21.1738C20.8164 24.2578 20.2656 26.1445 19.5918 27.668C18.9766 29.0566 18.291 30.0586 17.6289 30.6914C16.9727 31.3125 16.4277 31.5 15.9473 31.5C15.5723 31.5 15.0273 31.3125 14.3711 30.6914C13.709 30.0586 13.0234 29.0566 12.4082 27.668ZM12.168 31.0078C7.57422 29.7949 3.84707 26.4668 2.09043 22.125H8.92773C9.51367 25.8691 10.6738 29.0039 12.168 31.0078ZM19.832 31.0078C21.3262 29.0039 22.4863 25.8691 23.0723 22.125H29.9102C28.1523 26.4668 24.4258 29.7949 19.832 31.0078Z" fill="black"/>
</svg>
