<svg width="32" height="32" viewBox="0 0 32 32" fill="none" xmlns="http://www.w3.org/2000/svg">
<g clip-path="url(#clip0_502_52250)">
<path d="M6.66675 8.33341C6.66675 7.41258 7.41258 6.66675 8.33341 6.66675H10.3334C11.2542 6.66675 12.0001 7.41258 12.0001 8.33341V10.3334C12.0001 11.2542 11.2542 12.0001 10.3334 12.0001H8.33341C7.41258 12.0001 6.66675 11.2542 6.66675 10.3334V8.33341ZM6.66675 15.0001C6.66675 14.0792 7.41258 13.3334 8.33341 13.3334H10.3334C11.2542 13.3334 12.0001 14.0792 12.0001 15.0001V17.0001C12.0001 17.9209 11.2542 18.6667 10.3334 18.6667H8.33341C7.41258 18.6667 6.66675 17.9209 6.66675 17.0001V15.0001ZM12.0001 21.6667V23.6667C12.0001 24.5876 11.2542 25.3334 10.3334 25.3334H8.33341C7.41258 25.3334 6.66675 24.5876 6.66675 23.6667V21.6667C6.66675 20.7459 7.41258 20.0001 8.33341 20.0001H10.3334C11.2542 20.0001 12.0001 20.7459 12.0001 21.6667ZM13.3334 8.33341C13.3334 7.41258 14.0792 6.66675 15.0001 6.66675H17.0001C17.9209 6.66675 18.6667 7.41258 18.6667 8.33341V10.3334C18.6667 11.2542 17.9209 12.0001 17.0001 12.0001H15.0001C14.0792 12.0001 13.3334 11.2542 13.3334 10.3334V8.33341ZM18.6667 15.0001V17.0001C18.6667 17.9209 17.9209 18.6667 17.0001 18.6667H15.0001C14.0792 18.6667 13.3334 17.9209 13.3334 17.0001V15.0001C13.3334 14.0792 14.0792 13.3334 15.0001 13.3334H17.0001C17.9209 13.3334 18.6667 14.0792 18.6667 15.0001ZM13.3334 21.6667C13.3334 20.7459 14.0792 20.0001 15.0001 20.0001H17.0001C17.9209 20.0001 18.6667 20.7459 18.6667 21.6667V23.6667C18.6667 24.5876 17.9209 25.3334 17.0001 25.3334H15.0001C14.0792 25.3334 13.3334 24.5876 13.3334 23.6667V21.6667ZM25.3334 8.33341V10.3334C25.3334 11.2542 24.5876 12.0001 23.6667 12.0001H21.6667C20.7459 12.0001 20.0001 11.2542 20.0001 10.3334V8.33341C20.0001 7.41258 20.7459 6.66675 21.6667 6.66675H23.6667C24.5876 6.66675 25.3334 7.41258 25.3334 8.33341ZM20.0001 15.0001C20.0001 14.0792 20.7459 13.3334 21.6667 13.3334H23.6667C24.5876 13.3334 25.3334 14.0792 25.3334 15.0001V17.0001C25.3334 17.9209 24.5876 18.6667 23.6667 18.6667H21.6667C20.7459 18.6667 20.0001 17.9209 20.0001 17.0001V15.0001ZM25.3334 21.6667V23.6667C25.3334 24.5876 24.5876 25.3334 23.6667 25.3334H21.6667C20.7459 25.3334 20.0001 24.5876 20.0001 23.6667V21.6667C20.0001 20.7459 20.7459 20.0001 21.6667 20.0001H23.6667C24.5876 20.0001 25.3334 20.7459 25.3334 21.6667Z" fill="#201F1E"/>
</g>
<defs>
<clipPath id="clip0_502_52250">
<rect width="18.6667" height="21.3333" fill="white" transform="translate(6.66675 5.33337)"/>
</clipPath>
</defs>
</svg>
