<svg width="32" height="32" viewBox="0 0 32 32" fill="currentColor">
<path d="M8 2.66667C8 1.19417 9.19417 0 10.6667 0C12.1392 0 13.3333 1.19417 13.3333 2.66667C13.3333 4.14167 12.1392 5.33333 10.6667 5.33333C9.19417 5.33333 8 4.14167 8 2.66667ZM8 16C8 14.525 9.19417 13.3333 10.6667 13.3333C12.1392 13.3333 13.3333 14.525 13.3333 16C13.3333 17.475 12.1392 18.6667 10.6667 18.6667C9.19417 18.6667 8 17.475 8 16ZM13.3333 29.3333C13.3333 30.8083 12.1392 32 10.6667 32C9.19417 32 8 30.8083 8 29.3333C8 27.8583 9.19417 26.6667 10.6667 26.6667C12.1392 26.6667 13.3333 27.8583 13.3333 29.3333ZM18.6667 2.66667C18.6667 1.19417 19.8583 0 21.3333 0C22.8083 0 24 1.19417 24 2.66667C24 4.14167 22.8083 5.33333 21.3333 5.33333C19.8583 5.33333 18.6667 4.14167 18.6667 2.66667ZM24 16C24 17.475 22.8083 18.6667 21.3333 18.6667C19.8583 18.6667 18.6667 17.475 18.6667 16C18.6667 14.525 19.8583 13.3333 21.3333 13.3333C22.8083 13.3333 24 14.525 24 16ZM18.6667 29.3333C18.6667 27.8583 19.8583 26.6667 21.3333 26.6667C22.8083 26.6667 24 27.8583 24 29.3333C24 30.8083 22.8083 32 21.3333 32C19.8583 32 18.6667 30.8083 18.6667 29.3333Z"/>
</svg>
