<svg width="32" height="33" viewBox="0 0 32 33" fill="none" xmlns="http://www.w3.org/2000/svg">
    <g clip-path="url(#clip0_502_48002)">
        <path d="M15.995 19.5C18.8655 19.5 21.15 17.172 21.15 14.3C21.15 11.428 18.823 9.1 15.995 9.1C13.1245 9.1 10.84 11.428 10.84 14.3C10.795 17.17 13.125 19.5 15.995 19.5ZM15.995 10.7C17.979 10.7 19.593 12.315 19.593 14.3C19.593 16.285 17.975 17.9 15.995 17.9C14.015 17.9 12.395 16.285 12.395 14.3C12.395 12.315 14.01 10.7 15.995 10.7ZM24.8 13.1C24.26 13.1 23.731 13.2171 23.2265 13.4486C22.8395 13.6261 22.62 14.074 22.7694 14.4726C22.9361 14.9167 23.4449 15.1166 23.8624 14.917C24.165 14.775 24.48 14.7 24.8 14.7H28.054C28.8865 14.7 29.616 15.172 30.0315 15.88C30.18 16.135 30.44 16.3 30.735 16.3C31.356 16.3 31.7315 15.626 31.42 15.089C30.725 13.855 29.48 13.1 28.055 13.1H24.8ZM25.6 11.5C27.809 11.5 29.6 9.709 29.6 7.5C29.6 5.291 27.81 3.5 25.6 3.5C23.391 3.5 21.6 5.291 21.6 7.5C21.6 9.709 23.39 11.5 25.6 11.5ZM25.6 5.1C26.9235 5.1 28 6.1765 28 7.5C28 8.8235 26.925 9.9 25.6 9.9C24.275 9.9 23.2 8.8235 23.2 7.5C23.2 6.1765 24.275 5.1 25.6 5.1ZM31.225 23.36L30.724 23.0686C30.742 22.8241 30.742 22.5795 30.724 22.3356L31.2006 22.0575C31.6427 21.8192 31.8591 21.2935 31.7106 20.7965C31.427 19.8955 30.9385 19.052 30.3065 18.369C29.9714 17.9932 29.4106 17.9057 28.9746 18.1565L28.4754 18.4448C28.273 18.3081 28.062 18.1862 27.8434 18.08V17.455C27.8434 16.9455 27.4816 16.506 27.0049 16.4135C26.0744 16.2041 25.0993 16.2057 24.2109 16.4088C23.7148 16.5049 23.3538 16.9448 23.3538 17.4548V18.0353C23.1351 18.1416 22.9234 18.2634 22.7208 18.4002L22.2334 18.1197C21.806 17.8619 21.2468 17.9408 20.8958 18.3127C20.25 19.055 19.765 19.9 19.485 20.805C19.3397 21.291 19.5436 21.802 19.9694 22.0415L20.4724 22.3344C20.456 22.5774 20.456 22.8211 20.4724 23.0639L19.995 23.345C19.5473 23.5856 19.339 24.0995 19.488 24.601C19.7622 25.4915 20.249 26.336 20.9035 27.0495C21.2465 27.4135 21.79 27.4948 22.219 27.2464L22.7235 26.9566C22.9251 27.0933 23.1368 27.2152 23.3555 27.3214V27.9019C23.3555 28.4119 23.7164 28.8519 24.1905 28.9434C24.66 29.005 25.135 29.1 25.61 29.1C26.0788 29.1 26.544 29.0492 26.9845 28.9477C27.483 28.8507 27.8445 28.4111 27.8445 27.9016V27.3221C28.0633 27.2159 28.2742 27.094 28.4765 26.9573L28.9609 27.237C29.4015 27.501 29.9664 27.4159 30.2984 27.0441C30.9399 26.3501 31.4279 25.5065 31.7149 24.5951C31.86 24.11 31.645 23.585 31.225 23.36ZM29.08 22.06C29.1589 22.4803 29.1589 22.924 29.08 23.3445L28.9753 23.9L30.0443 24.522C29.8794 24.9197 29.6607 25.296 29.3953 25.641L28.3313 25.026L27.9009 25.3916C27.5665 25.676 27.1899 25.8941 26.7814 26.0376L26.2469 26.2259V27.4594C25.825 27.5141 25.3924 27.5141 24.9579 27.4578V26.2268L24.4244 26.0378C24.0158 25.894 23.6383 25.6761 23.3048 25.3918L22.876 25.0269L21.807 25.6419C21.539 25.295 21.3195 24.9159 21.1585 24.5214L22.215 23.9L22.1166 23.35C22.0408 22.925 22.0408 22.475 22.1166 22.05L22.215 21.5L21.154 20.881C21.3165 20.4818 21.536 20.102 21.801 19.76L22.8715 20.3755L23.3004 20.0107C23.634 19.7263 24.0114 19.5082 24.4199 19.3646L24.9534 19.1756V17.945C25.3737 17.8872 25.8064 17.8879 26.2424 17.9473V19.1783L26.7769 19.3666C27.1855 19.5104 27.5619 19.7283 27.8964 20.0126L28.3268 20.3782L29.3918 19.7632C29.6567 20.1062 29.8763 20.4842 30.0403 20.8812L28.9713 21.5037L29.08 22.06ZM6.4 11.5C8.609 11.5 10.4 9.709 10.4 7.5C10.4 5.291 8.61 3.5 6.4 3.5C4.191 3.5 2.4 5.291 2.4 7.5C2.4 9.709 4.191 11.5 6.4 11.5ZM6.4 5.1C7.7235 5.1 8.8 6.1765 8.8 7.5C8.8 8.8235 7.725 9.9 6.4 9.9C5.075 9.9 4 8.825 4 7.5C4 6.175 5.075 5.1 6.4 5.1ZM19.2 27.5H8.01C8.16105 24.8295 10.5695 22.7 13.465 22.7H16.8C17.2418 22.7 17.6 22.3418 17.6 21.9C17.6 21.4581 17.2418 21.1 16.8 21.1H13.505C9.58 21.1 6.4 24.085 6.4 27.765C6.4 28.505 7.035 29.1 7.82 29.1H19.2C19.6418 29.1 20 28.7418 20 28.3C20 27.86 19.64 27.5 19.2 27.5ZM25.6 20.3C24.2765 20.3 23.2 21.3765 23.2 22.7C23.2 24.0235 24.2765 25.1 25.6 25.1C26.9235 25.1 28 24.0235 28 22.7C28 21.3765 26.925 20.3 25.6 20.3ZM25.6 23.5C25.1586 23.5 24.8 23.1414 24.8 22.7C24.8 22.2586 25.1586 21.9 25.6 21.9C26.0414 21.9 26.4 22.2586 26.4 22.7C26.4 23.1414 26.04 23.5 25.6 23.5ZM8.14 14.915C8.5369 15.1049 9.0165 14.9338 9.2055 14.5353C9.39535 14.1368 9.22503 13.6593 8.8258 13.4698C8.305 13.225 7.76 13.1 7.2 13.1H3.946C1.7705 13.1 0 14.955 0 17.235V17.9C0 18.3422 0.3578 18.7 0.8 18.7C1.2422 18.7 1.6 18.34 1.6 17.9V17.235C1.6 15.835 2.6525 14.7 3.946 14.7H7.2C7.52 14.7 7.835 14.775 8.14 14.915Z" fill="black"/>
    </g>
    <defs>
        <clipPath id="clip0_502_48002">
            <rect width="32" height="25.6" fill="white" transform="translate(0 3.5)"/>
        </clipPath>
    </defs>
</svg>
