<svg width="32" height="33" viewBox="0 0 32 33" fill="none" xmlns="http://www.w3.org/2000/svg">
    <path d="M7.2 11.5C9.41 11.5 11.2 9.71 11.2 7.5C11.2 5.29 9.41 3.5 7.2 3.5C4.99 3.5 3.2 5.29 3.2 7.5C3.2 9.71 4.99 11.5 7.2 11.5ZM25.6 11.5C27.81 11.5 29.6 9.71 29.6 7.5C29.6 5.29 27.81 3.5 25.6 3.5C23.39 3.5 21.6 5.29 21.6 7.5C21.6 9.71 23.39 11.5 25.6 11.5ZM0 18.435C0 19.02 0.48 19.5 1.065 19.5H11.735C11.745 19.5 11.755 19.5 11.77 19.5C10.44 18.325 9.605 16.61 9.605 14.7C9.605 14.32 9.64 13.95 9.7 13.585C9.02 13.27 8.265 13.1 7.47 13.1H5.335C2.39 13.1 0 15.49 0 18.435ZM16 19.5C17.2 19.5 18.295 19.06 19.135 18.335C19.26 18.15 19.395 17.97 19.535 17.8C19.67 17.635 19.82 17.495 19.985 17.385C20.5 16.615 20.8 15.695 20.8 14.7C20.8 12.05 18.65 9.9 16 9.9C13.35 9.9 11.2 12.05 11.2 14.7C11.2 17.35 13.35 19.5 16 19.5ZM19.27 22.51C18.755 22.215 18.365 21.7 18.23 21.1H13.065C9.385 21.1 6.4 24.085 6.4 27.765C6.4 28.5 6.995 29.1 7.735 29.1H22.76C22.655 28.84 22.6 28.555 22.6 28.28V28.13C22.535 28.095 22.465 28.055 22.4 28.015L22.27 28.09C21.43 28.575 20.245 28.49 19.535 27.605C19.31 27.325 19.105 27.03 18.915 26.725L18.91 26.715L18.905 26.705L18.785 26.5L18.78 26.49L18.775 26.48C18.605 26.17 18.455 25.85 18.325 25.515C17.915 24.455 18.435 23.385 19.275 22.9L19.41 22.825C19.41 22.785 19.41 22.75 19.41 22.71C19.41 22.67 19.41 22.635 19.41 22.595L19.275 22.52L19.27 22.51ZM26.665 13.1H24.535C23.74 13.1 22.985 13.275 22.305 13.585C22.37 13.945 22.4 14.32 22.4 14.7C22.4 15.57 22.225 16.395 21.915 17.15C22.04 17.195 22.16 17.25 22.27 17.315L22.4 17.39C22.465 17.35 22.53 17.31 22.6 17.275V17.125C22.6 16.155 23.265 15.17 24.39 14.995C24.785 14.935 25.19 14.9 25.6 14.9C26.01 14.9 26.415 14.93 26.81 14.995C27.935 15.17 28.6 16.155 28.6 17.125V17.275C28.665 17.31 28.735 17.35 28.8 17.39L28.93 17.315C29.77 16.83 30.955 16.915 31.665 17.8C31.78 17.94 31.89 18.09 31.995 18.235C31.89 15.38 29.545 13.1 26.665 13.1ZM31.23 21.295C31.545 21.115 31.705 20.74 31.57 20.395C31.465 20.12 31.34 19.855 31.2 19.6L31.085 19.4C30.93 19.145 30.76 18.905 30.575 18.675C30.345 18.39 29.94 18.34 29.625 18.525L28.72 19.05C28.275 18.67 27.765 18.37 27.2 18.17V17.12C27.2 16.755 26.955 16.43 26.595 16.375C26.27 16.325 25.94 16.3 25.6 16.3C25.26 16.3 24.93 16.325 24.605 16.375C24.245 16.43 24 16.755 24 17.12V18.17C23.44 18.37 22.925 18.67 22.48 19.05L21.57 18.525C21.255 18.345 20.85 18.395 20.62 18.675C20.435 18.905 20.265 19.15 20.11 19.405L19.995 19.6C19.855 19.855 19.73 20.12 19.625 20.395C19.495 20.735 19.65 21.11 19.965 21.29L20.875 21.815C20.825 22.1 20.795 22.395 20.795 22.695C20.795 22.995 20.825 23.29 20.875 23.57L19.965 24.095C19.65 24.275 19.49 24.65 19.625 24.99C19.73 25.265 19.855 25.525 19.995 25.78L20.115 25.985C20.265 26.24 20.435 26.48 20.62 26.71C20.85 26.995 21.255 27.045 21.57 26.86L22.48 26.35C22.925 26.73 23.44 27.03 24 27.23V28.28C24 28.645 24.245 28.97 24.605 29.025C24.93 29.075 25.26 29.1 25.6 29.1C25.94 29.1 26.27 29.075 26.595 29.025C26.955 28.97 27.2 28.645 27.2 28.28V27.23C27.76 27.03 28.275 26.73 28.72 26.35L29.63 26.875C29.945 27.055 30.35 27.005 30.58 26.725C30.765 26.495 30.935 26.255 31.085 26L31.205 25.79C31.345 25.535 31.47 25.275 31.575 25C31.705 24.66 31.55 24.285 31.235 24.105L30.325 23.58C30.375 23.295 30.405 23 30.405 22.705C30.405 22.41 30.375 22.11 30.325 21.825L31.235 21.3L31.23 21.295ZM27.6 22.7C27.6 23.805 26.705 24.7 25.6 24.7C24.495 24.7 23.6 23.805 23.6 22.7C23.6 21.595 24.495 20.7 25.6 20.7C26.705 20.7 27.6 21.595 27.6 22.7Z" fill="black"/>
</svg>
