<svg width="32" height="32" viewBox="0 0 32 32" fill="currentColor">
    <g clip-path="url(#clip0_502_47982)">
        <path d="M29.855 19.9H29.455V19.5C29.455 18.34 28.56 17.4 27.4 17.4H25.4C24.242 17.4 23.3 18.342 23.3 19.5V19.9H22.9C21.74 19.9 20.8 20.84 20.8 22V24C20.8 25.158 21.742 26.1 22.855 26.1H23.255V26.5C23.255 27.658 24.197 28.6 25.355 28.6H27.355C28.513 28.6 29.41 27.658 29.41 26.5V26.1H29.81C31.06 26.1 32 25.16 32 24V22C32 20.84 31.06 19.9 29.855 19.9ZM30.4 24C30.4 24.2761 30.1762 24.5 29.9 24.5H27.9V26.5C27.9 26.7761 27.6762 27 27.445 27H25.445C25.169 27 24.945 26.7761 24.945 26.5V24.5H22.945C22.625 24.5 22.4 24.275 22.4 24V22C22.4 21.7239 22.624 21.5 22.855 21.5H24.855V19.5C24.855 19.2239 25.079 19 25.355 19H27.355C27.6311 19 27.81 19.2239 27.81 19.5V21.5H29.81C30.175 21.5 30.4 21.725 30.4 22V24ZM24.8 12.6C24.26 12.6 23.731 12.7171 23.2265 12.9485C22.8395 13.1261 22.62 13.5741 22.7694 13.9726C22.9362 14.4167 23.4449 14.6165 23.8624 14.417C24.165 14.275 24.48 14.2 24.8 14.2H28.054C28.8865 14.2 29.616 14.672 30.0315 15.38C30.18 15.635 30.44 15.8 30.735 15.8C31.356 15.8 31.7315 15.126 31.42 14.589C30.725 13.355 29.48 12.6 28.055 12.6H24.8ZM25.6 11C27.809 11 29.6 9.209 29.6 7C29.6 4.791 27.81 3 25.6 3C23.391 3 21.6 4.791 21.6 7C21.6 9.209 23.39 11 25.6 11ZM25.6 4.6C26.9235 4.6 28 5.6765 28 7C28 8.3235 26.925 9.4 25.6 9.4C24.275 9.4 23.2 8.3235 23.2 7C23.2 5.6765 24.275 4.6 25.6 4.6ZM20 27H8.01C8.16105 24.3295 10.5695 22.2 13.465 22.2H18.4C18.8418 22.2 19.2 21.8418 19.2 21.4C19.2 20.9581 18.8418 20.6 18.4 20.6H13.505C9.58 20.6 6.4 23.585 6.4 27.265C6.4 28.005 7.035 28.6 7.82 28.6H20C20.4418 28.6 20.8 28.2418 20.8 27.8C20.8 27.36 20.44 27 20 27ZM8.14 14.415C8.5369 14.6049 9.0165 14.4337 9.2055 14.0353C9.39535 13.6368 9.22503 13.1593 8.8258 12.9698C8.305 12.725 7.76 12.6 7.2 12.6H3.946C1.7705 12.6 0 14.455 0 16.735V17.4C0 17.8422 0.3578 18.2 0.8 18.2C1.2422 18.2 1.6 17.84 1.6 17.4V16.735C1.6 15.335 2.6525 14.2 3.946 14.2H7.2C7.52 14.2 7.835 14.275 8.14 14.415ZM6.4 11C8.609 11 10.4 9.209 10.4 7C10.4 4.791 8.61 3 6.4 3C4.191 3 2.4 4.791 2.4 7C2.4 9.209 4.191 11 6.4 11ZM6.4 4.6C7.7235 4.6 8.8 5.6765 8.8 7C8.8 8.3235 7.725 9.4 6.4 9.4C5.075 9.4 4 8.325 4 7C4 5.675 5.075 4.6 6.4 4.6ZM15.995 19C18.8655 19 21.15 16.672 21.15 13.8C21.15 10.928 18.823 8.6 15.995 8.6C13.1245 8.6 10.84 10.928 10.84 13.8C10.795 16.67 13.125 19 15.995 19ZM15.995 10.2C17.979 10.2 19.593 11.815 19.593 13.8C19.593 15.785 17.975 17.4 15.995 17.4C14.015 17.4 12.395 15.785 12.395 13.8C12.395 11.815 14.01 10.2 15.995 10.2Z"/>
    </g>
    <defs>
        <clipPath id="clip0_502_47982">
            <rect width="32" height="25.6" fill="white" transform="translate(0 3)"/>
        </clipPath>
    </defs>
</svg>
