<svg width="32" height="32" viewBox="0 0 32 32" fill="currentColor">
<path d="M0 9.16697C0 8.52166 0.521354 8.00031 1.16667 8.00031H4.66667C5.31198 8.00031 5.83333 8.52166 5.83333 9.16697C5.83333 9.81228 5.31198 10.3336 4.66667 10.3336H4.08333V14.417H12.25V10.3336H11.6667C11.0214 10.3336 10.5 9.81228 10.5 9.16697C10.5 8.52166 11.0214 8.00031 11.6667 8.00031H15.1667C15.812 8.00031 16.3333 8.52166 16.3333 9.16697C16.3333 9.81228 15.812 10.3336 15.1667 10.3336H14.5833V22.0003H15.1667C15.812 22.0003 16.3333 22.5217 16.3333 23.167C16.3333 23.8123 15.812 24.3336 15.1667 24.3336H11.6667C11.0214 24.3336 10.5 23.8123 10.5 23.167C10.5 22.5217 11.0214 22.0003 11.6667 22.0003H12.25V16.7503H4.08333V22.0003H4.66667C5.31198 22.0003 5.83333 22.5217 5.83333 23.167C5.83333 23.8123 5.31198 24.3336 4.66667 24.3336H1.16667C0.521354 24.3336 0 23.8123 0 23.167C0 22.5217 0.521354 22.0003 1.16667 22.0003H1.75V10.3336H1.16667C0.521354 10.3336 0 9.81228 0 9.16697Z"/>
<path d="M25.5432 10.3336C24.7594 10.3336 24.0047 10.6435 23.4505 11.2013L22.324 12.3243C21.8682 12.78 21.1281 12.78 20.6724 12.3243C20.2167 11.8685 20.2167 11.1284 20.6724 10.6727L21.799 9.54978C22.7943 8.55812 24.1396 8.00031 25.5432 8.00031C28.4635 8.00031 30.8333 10.3701 30.8333 13.2904C30.8333 14.6941 30.2755 16.0394 29.2839 17.031L24.3182 22.0003H30.8333C31.4786 22.0003 32 22.5217 32 23.167C32 23.8123 31.4786 24.3336 30.8333 24.3336H21.5C21.0297 24.3336 20.6031 24.0493 20.4208 23.6118C20.2385 23.1743 20.3406 22.6748 20.6724 22.3394L27.6323 15.3831C28.1865 14.829 28.5 14.0743 28.5 13.2904C28.5 11.6571 27.1766 10.3336 25.5432 10.3336Z"/>
</svg>
