<svg width="32" height="32" viewBox="0 0 32 32" fill="currentColor">
    <path d="M31 19.1971C31 22.4 28.6741 25 25.4057 25C23.4312 25 21.5982 24.1194 20.3443 22.8066C20.1262 22.5781 20.0972 22.2076 20.2737 21.9395L21.0879 20.703C21.3008 20.3795 21.7219 20.3349 21.9926 20.6017C22.93 21.5255 24.0935 22.1136 25.3171 22.1136C26.9764 22.1136 28.2277 20.9014 28.2277 19.294C28.2277 17.9821 27.3495 16.4501 24.8742 16.4501H24.0051C23.8865 16.4501 23.7706 16.4122 23.6714 16.3411C23.5723 16.27 23.4944 16.1687 23.4472 16.0498L23.1055 15.1888C23.0603 15.0748 23.0451 14.9491 23.0619 14.8261C23.0786 14.7032 23.1266 14.5878 23.2002 14.4931L26.478 10.2801C26.6385 10.0744 26.8044 9.87377 26.9755 9.67853C26.7945 9.68678 26.5809 9.69249 26.336 9.69249H21.372C21.0362 9.69249 20.7638 9.39469 20.7638 9.02739V7.6651C20.7638 7.2978 21.0362 7 21.372 7H30.0596C30.3955 7 30.6678 7.2978 30.6678 7.6651V8.69612C30.6678 8.85641 30.6149 9.01132 30.5187 9.13231L26.681 13.9631C29.1285 14.4636 31 16.3232 31 19.1971ZM7.70254 22.8984V24.0709C7.70254 24.4382 7.43022 24.736 7.09435 24.736H1.60819C1.27232 24.736 1 24.4382 1 24.0709V22.8984C1 22.5311 1.27232 22.2333 1.60819 22.2333H2.95193V9.47839H1.60819C1.27232 9.47839 1 9.18059 1 8.81329V7.6651C1 7.2978 1.27232 7 1.60819 7H7.09435C7.43022 7 7.70254 7.2978 7.70254 7.6651V8.81329C7.70254 9.18059 7.43022 9.47839 7.09435 9.47839H5.72841V14.5682H13.2884V9.47839H11.9225C11.5866 9.47839 11.3143 9.18059 11.3143 8.81329V7.6651C11.3143 7.2978 11.5866 7 11.9225 7H17.4086C17.7445 7 18.0168 7.2978 18.0168 7.6651V8.81329C18.0168 9.18059 17.7445 9.47839 17.4086 9.47839H16.0648V22.2333H17.4086C17.7445 22.2333 18.0168 22.5311 18.0168 22.8984V24.0709C18.0168 24.4382 17.7445 24.736 17.4086 24.736H11.9225C11.5866 24.736 11.3143 24.4382 11.3143 24.0709V22.8984C11.3143 22.5311 11.5866 22.2333 11.9225 22.2333H13.2884V17.1678H5.72841V22.2333H7.09435C7.43027 22.2333 7.70254 22.5311 7.70254 22.8984Z"/>
</svg>
