<svg width="32" height="32" viewBox="0 0 32 32" fill="currentColor">
<path d="M0 9.16667C0 8.52135 0.521354 8 1.16667 8H4.66667C5.31198 8 5.83333 8.52135 5.83333 9.16667C5.83333 9.81198 5.31198 10.3333 4.66667 10.3333H4.08333V14.4167H12.25V10.3333H11.6667C11.0214 10.3333 10.5 9.81198 10.5 9.16667C10.5 8.52135 11.0214 8 11.6667 8H15.1667C15.812 8 16.3333 8.52135 16.3333 9.16667C16.3333 9.81198 15.812 10.3333 15.1667 10.3333H14.5833V22H15.1667C15.812 22 16.3333 22.5214 16.3333 23.1667C16.3333 23.812 15.812 24.3333 15.1667 24.3333H11.6667C11.0214 24.3333 10.5 23.812 10.5 23.1667C10.5 22.5214 11.0214 22 11.6667 22H12.25V16.75H4.08333V22H4.66667C5.31198 22 5.83333 22.5214 5.83333 23.1667C5.83333 23.812 5.31198 24.3333 4.66667 24.3333H1.16667C0.521354 24.3333 0 23.812 0 23.1667C0 22.5214 0.521354 22 1.16667 22H1.75V10.3333H1.16667C0.521354 10.3333 0 9.81198 0 9.16667Z"/>
<path d="M28.8062 9.92135C29.2219 9.42917 29.1599 8.69271 28.6677 8.27708C28.1755 7.86146 27.4391 7.92344 27.0234 8.41563L21.7406 14.6609C20.8693 15.6891 20.3734 16.9833 20.337 18.325C20.337 18.376 20.3333 18.4307 20.3333 18.4818C20.3333 18.4891 20.3333 18.4927 20.3333 18.5C20.3333 21.7229 22.9438 24.3333 26.1667 24.3333C29.3896 24.3333 32 21.7229 32 18.5C32 15.3828 29.5536 12.8344 26.4766 12.674L28.8062 9.91771V9.92135ZM29.6667 18.5C29.6667 19.4283 29.2979 20.3185 28.6415 20.9749C27.9852 21.6313 27.0949 22 26.1667 22C25.2384 22 24.3482 21.6313 23.6918 20.9749C23.0354 20.3185 22.6667 19.4283 22.6667 18.5C22.6667 17.5717 23.0354 16.6815 23.6918 16.0251C24.3482 15.3687 25.2384 15 26.1667 15C27.0949 15 27.9852 15.3687 28.6415 16.0251C29.2979 16.6815 29.6667 17.5717 29.6667 18.5Z"/>
</svg>
