<svg width="32" height="32" viewBox="0 0 32 32" fill="currentColor">
    <path d="M7.74073 23.1351V24.325C7.74073 24.6978 7.46687 25 7.12908 25H1.61165C1.27387 25 1 24.6978 1 24.325V23.1351C1 22.7623 1.27387 22.4601 1.61165 22.4601H2.96305V9.51528H1.61165C1.27387 9.51528 1 9.21304 1 8.84028V7.675C1 7.30223 1.27387 7 1.61165 7H7.12908C7.46687 7 7.74073 7.30223 7.74073 7.675V8.84028C7.74073 9.21304 7.46687 9.51528 7.12908 9.51528H5.75536V14.6808H13.3584V9.51528H11.9847C11.6469 9.51528 11.373 9.21304 11.373 8.84028V7.675C11.373 7.30223 11.6469 7 11.9847 7H17.5021C17.8399 7 18.1138 7.30223 18.1138 7.675V8.84028C18.1138 9.21304 17.8399 9.51528 17.5021 9.51528H16.1507V22.4601H17.5021C17.8399 22.4601 18.1138 22.7623 18.1138 23.1351V24.325C18.1138 24.6978 17.8399 25 17.5021 25H11.9847C11.647 25 11.3731 24.6978 11.3731 24.325V23.1351C11.3731 22.7623 11.647 22.4601 11.9847 22.4601H13.3585V17.3192H5.75536V22.4601H7.12908C7.46692 22.4601 7.74073 22.7623 7.74073 23.1351ZM26.953 7H25.455C25.296 6.99999 25.1432 7.06835 25.029 7.19058L21.5924 10.8709C21.3502 11.1303 21.3441 11.5571 21.5788 11.8247L22.4553 12.8243C22.6917 13.0938 23.0819 13.099 23.3241 12.8358L24.5562 11.4967C24.6616 11.3852 24.7638 11.2699 24.8625 11.151C24.8618 11.2157 24.8615 11.2814 24.8615 11.3473V22.2632H21.9932C21.6554 22.2632 21.3815 22.5654 21.3815 22.9382V24.325C21.3815 24.6978 21.6554 25 21.9932 25H30.3883C30.7261 25 31 24.6978 31 24.325V22.9382C31 22.5654 30.7261 22.2632 30.3883 22.2632H27.5646V7.675C27.5646 7.30223 27.2908 7 26.953 7Z"/>
</svg>
