<svg width="32" height="32" viewBox="0 0 32 32" fill="currentColor">
    <path d="M8 9.16667C8 8.52135 8.52135 8 9.16667 8H10.9167H12.6667C13.312 8 13.8333 8.52135 13.8333 9.16667C13.8333 9.81198 13.312 10.3333 12.6667 10.3333H12.0833V14.4167H20.25V10.3333H19.6667C19.0214 10.3333 18.5 9.81198 18.5 9.16667C18.5 8.52135 19.0214 8 19.6667 8H21.4167H23.1667C23.812 8 24.3333 8.52135 24.3333 9.16667C24.3333 9.81198 23.812 10.3333 23.1667 10.3333H22.5833V15.5833V22H23.1667C23.812 22 24.3333 22.5214 24.3333 23.1667C24.3333 23.812 23.812 24.3333 23.1667 24.3333H21.4167H19.6667C19.0214 24.3333 18.5 23.812 18.5 23.1667C18.5 22.5214 19.0214 22 19.6667 22H20.25V16.75H12.0833V22H12.6667C13.312 22 13.8333 22.5214 13.8333 23.1667C13.8333 23.812 13.312 24.3333 12.6667 24.3333H10.9167H9.16667C8.52135 24.3333 8 23.812 8 23.1667C8 22.5214 8.52135 22 9.16667 22H9.75V15.5833V10.3333H9.16667C8.52135 10.3333 8 9.81198 8 9.16667Z"/>
</svg>
