<svg width="32" height="32" viewBox="0 0 32 32" fill="currentColor">
    <path d="M21.4999 13.8333C21.177 13.0833 21.1457 12.2395 21.4061 11.4635L24.3332 2.66663L14.5624 8.25517C13.3332 8.95829 12.3072 10.0312 11.7811 11.3333L5.17383 26H26.6217L21.4999 13.8333ZM14.7082 11.6458L15.9999 11L16.6467 9.70621C16.7237 9.55262 16.9426 9.55262 17.0195 9.70621L17.6665 11L18.9603 11.6468C19.1139 11.7238 19.1139 11.9427 18.9603 12.0195L17.6665 12.6666L17.0197 13.9604C16.9427 14.114 16.7238 14.114 16.647 13.9604L15.9999 12.6666L14.7082 12.0208C14.552 11.9427 14.552 11.7239 14.7082 11.6458ZM19.0415 20.5677L16.4348 21.4364L15.5676 24.0416C15.439 24.4274 14.8931 24.4274 14.7639 24.0416L13.8952 21.4349L11.2884 20.5661C11.0953 20.5018 10.9989 20.3332 10.9989 20.1644C10.9989 19.9955 11.0953 19.8268 11.2883 19.7625L13.895 18.8937L14.7655 16.2916C14.8941 15.9059 15.44 15.9059 15.5691 16.2916L16.4379 18.8984L19.0447 19.7671C19.2342 19.8281 19.3332 20 19.3332 20.1666C19.3332 20.3333 19.2342 20.5052 19.0415 20.5677Z"/>
    <path opacity="0.4" d="M28.5001 25.9999H3.50008C3.03987 25.9999 2.66675 26.3749 2.66675 26.8332C2.66675 28.2134 3.78602 29.3332 5.16675 29.3332H26.8334C28.2141 29.3332 29.3334 28.2139 29.3334 26.8332C29.3334 26.3749 28.9584 25.9999 28.5001 25.9999ZM16.0001 12.6666L16.647 13.9603C16.7239 14.1139 16.9428 14.1139 17.0197 13.9603L17.6667 12.6666L18.9605 12.0197C19.1141 11.9428 19.1141 11.7238 18.9605 11.647L17.6667 10.9999L17.0199 9.70614C16.9429 9.55254 16.724 9.55254 16.6472 9.70614L16.0001 10.9999L14.7084 11.6457C14.5548 11.7226 14.5548 11.9416 14.7084 12.0184L16.0001 12.6666Z"/>
</svg>
