<svg width="32" height="32" viewBox="0 0 32 32" fill="currentColor">
    <path d="M21.0893 4.21429H23.5471V14.2578H8.45292V4.21429H10.9107C11.3545 4.21429 11.7143 3.85449 11.7143 3.41071V1.80357C11.7143 1.3598 11.3545 1 10.9107 1H1.80357C1.3598 1 1 1.3598 1 1.80357V3.41071C1 3.85449 1.3598 4.21429 1.80357 4.21429H4.20364V27.7857H1.80357C1.3598 27.7857 1 28.1455 1 28.5893V30.1964C1 30.6402 1.3598 31 1.80357 31H10.9107C11.3545 31 11.7143 30.6402 11.7143 30.1964V28.5893C11.7143 28.1455 11.3545 27.7857 10.9107 27.7857H8.45292V17.7421H23.5471V27.7857H21.0893C20.6455 27.7857 20.2857 28.1455 20.2857 28.5893V30.1964C20.2857 30.6402 20.6455 31 21.0893 31H30.1964C30.6402 31 31 30.6402 31 30.1964V28.5893C31 28.1455 30.6402 27.7857 30.1964 27.7857H27.7964V4.21429H30.1964C30.6402 4.21429 31 3.85449 31 3.41071V1.80357C31 1.3598 30.6402 1 30.1964 1H21.0893C20.6455 1 20.2857 1.3598 20.2857 1.80357V3.41071C20.2857 3.85449 20.6455 4.21429 21.0893 4.21429Z"/>
</svg>
