<svg width="32" height="32" viewBox="0 0 32 32" fill="none" xmlns="http://www.w3.org/2000/svg">
    <path d="M5.4787 17.6175C4.91058 16.6156 4.91058 15.3844 5.4787 14.3824L9.36748 7.51228C9.9356 6.51029 10.9794 5.89471 12.1156 5.89471H19.8888C21.0206 5.89471 22.0688 6.51029 22.6369 7.51228L26.5213 14.3824C27.0894 15.3844 27.0894 16.6156 26.5213 17.6175L22.6325 24.4877C22.0644 25.4897 21.0206 26.1052 19.8844 26.1052H12.1112C10.9794 26.1052 9.9312 25.4897 9.36308 24.4877L5.4787 17.6175ZM12.4327 12.3605C12.0187 12.7828 12.0187 13.4658 12.4327 13.8837L14.5026 15.9955L12.4327 18.1073C12.0187 18.5297 12.0187 19.2126 12.4327 19.6305C12.8467 20.0484 13.5161 20.0529 13.9257 19.6305L15.9956 17.5187L18.0655 19.6305C18.4795 20.0529 19.1489 20.0529 19.5585 19.6305C19.968 19.2081 19.9724 18.5252 19.5585 18.1073L17.4886 15.9955L19.5585 13.8837C19.9724 13.4613 19.9724 12.7783 19.5585 12.3605C19.1445 11.9426 18.4751 11.9381 18.0655 12.3605L15.9956 14.4723L13.9257 12.3605C13.5117 11.9381 12.8423 11.9381 12.4327 12.3605Z" fill="#323130"/>
</svg>
