<svg width="33" height="32" viewBox="0 0 33 32" fill="currentColor">
    <path d="M8.56399 8.34855C10.6405 6.73137 13.303 5.49998 16.4999 5.49998C20.2873 5.49998 23.3201 7.22684 25.5279 9.27807C27.7216 11.3124 29.1888 13.7077 29.8826 15.4233C30.0372 15.7936 30.0372 16.2061 29.8826 16.5764C29.2544 18.0905 27.9935 20.2233 26.1373 22.1264L31.0685 25.9889C31.556 26.3732 31.645 27.081 31.2607 27.5685C30.8763 28.056 30.1685 28.1451 29.681 27.7607L1.93105 6.01044C1.44205 5.62701 1.35632 4.92014 1.73961 4.43105C2.12296 3.94205 2.82982 3.85632 3.31919 4.23961L8.56399 8.34855ZM10.3968 9.78901L12.553 11.4765C13.6077 10.5577 14.9905 9.99994 16.4999 9.99994C19.8139 9.99994 22.4998 12.6859 22.4998 15.9999C22.4998 16.9936 22.2608 17.9264 21.8342 18.7514L24.356 20.7295C25.9263 19.1311 27.0888 17.2702 27.6841 15.9999C27.0045 14.5515 25.7998 12.6015 23.9951 10.9234C22.0686 9.13745 19.5561 7.70777 16.4999 7.70777C14.1327 7.70777 12.0515 8.58105 10.3968 9.78901ZM20.0108 17.3218C20.1655 16.9093 20.2498 16.4639 20.2498 15.9577C20.2498 13.928 18.5717 12.2077 16.4999 12.2077C16.4671 12.2077 16.4389 12.2499 16.3639 12.2499C16.4671 12.489 16.4999 12.7421 16.4999 12.9577C16.4999 13.478 16.3874 13.928 16.1905 14.3265L20.0108 17.3218ZM20.4514 23.4295L22.4154 24.9764C20.7139 25.8951 18.7405 26.4998 16.4999 26.4998C12.7124 26.4998 9.67961 24.7748 7.47182 22.7217C5.27902 20.6452 3.81278 18.2499 3.11529 16.5764C2.96154 16.2061 2.96154 15.7936 3.11529 15.4233C3.56247 14.3499 4.32606 12.9624 5.3948 11.5702L7.16244 12.9624C6.28589 14.0546 5.70746 15.1374 5.31793 15.9577C5.95402 17.4061 7.19994 19.3983 9.00462 21.0764C10.9312 22.8623 13.4436 24.2498 16.4999 24.2498C17.9389 24.2498 19.2561 23.9404 20.4514 23.4295ZM10.4999 15.9577C10.4999 15.864 10.5046 15.7327 10.514 15.6015L13.1436 17.6733C13.6358 18.6624 14.5546 19.403 15.6561 19.6139L18.2905 21.728C17.7233 21.8639 17.1233 21.9998 16.4577 21.9998C13.1858 21.9998 10.4577 19.3139 10.4577 15.9577H10.4999Z"/>
</svg>
