<svg width="32" height="32" viewBox="0 0 32 32" fill="none" xmlns="http://www.w3.org/2000/svg">
    <path d="M30.9908 15.9727C30.9908 16.957 30.2095 17.7281 29.3241 17.7281H27.6574L27.6938 26.4836C27.6938 26.6367 27.6834 26.7789 27.6678 26.9266V27.8125C27.6678 29.0211 26.7354 30 25.5844 30H24.751C24.6937 30 24.6364 29.9508 24.5791 29.9945C24.5062 29.9508 24.4333 30 24.3603 30H21.4175C20.2664 30 19.3341 29.0211 19.3341 27.8125V23C19.3341 22.032 18.5893 21.25 17.6674 21.25H14.3339C13.412 21.25 12.6672 22.032 12.6672 23V27.8125C12.6672 29.0211 11.7348 30 10.5837 30H7.67215C7.59402 30 7.5159 29.9945 7.43777 29.9891C7.37527 29.9945 7.31276 30 7.25026 30H6.41689C5.26632 30 4.33347 29.0211 4.33347 27.8125V21.6875C4.33347 21.6383 4.33503 21.5836 4.33816 21.5344V17.7281H2.66934C1.73024 17.7281 1 16.957 1 15.9727C1 15.4805 1.15646 15.043 1.52138 14.6602L14.8756 2.43838C15.2402 2.0548 15.6569 2 16.0215 2C16.3861 2 16.8027 2.10959 17.1205 2.38358L30.4179 14.6602C30.8346 15.043 31.0481 15.4805 30.9908 15.9727Z" fill="#201F1E"/>
</svg>
