<svg width="32" height="32" viewBox="0 0 32 32" fill="none" xmlns="http://www.w3.org/2000/svg">
    <path d="M16 20.6666C16 17.3541 18.6875 14.6666 22 14.6666C25.3125 14.6666 28 17.3541 28 20.6666C28 23.9791 25.3125 26.6666 22 26.6666C18.6875 26.6666 16 23.9791 16 20.6666ZM22.6292 18C22.6292 17.6333 22.3667 17.3333 21.9625 17.3333C21.6333 17.3333 21.2958 17.6333 21.2958 18V20.6666C21.2958 21.0333 21.6333 21.3333 21.9625 21.3333H24C24.3667 21.3333 24.6667 21.0333 24.6667 20.6666C24.6667 20.3 24.3667 20 24 20H22.6292V18Z" fill="black"/>
    <path opacity="0.4" d="M4 6.66671C4 5.93046 4.59708 5.33337 5.33333 5.33337H18.6667C19.4042 5.33337 20 5.93046 20 6.66671C20 7.40296 19.4042 8.00004 18.6667 8.00004V8.45754C18.6667 10.225 17.9625 11.9209 16.7125 13.1709L13.8875 16L15.3833 17.4625C14.925 18.4209 14.6667 19.5334 14.6667 20.6667C14.6667 23.1459 15.9 25.3375 17.7833 26.6667H5.33333C4.59708 26.6667 4 26.0709 4 25.3334C4 24.5959 4.59708 24 5.33333 24V23.5417C5.33333 21.775 6.03583 20.0792 7.28583 18.8292L10.1125 16L7.28583 13.1709C6.03583 11.9209 5.33333 10.225 5.33333 8.45754V8.00004C4.59708 8.00004 4 7.40296 4 6.66671ZM8 8.00004V8.45754C8 9.24921 8.23333 10.0167 8.62917 10.6667H15.3333C15.7667 10.0167 16 9.24921 16 8.45754V8.00004H8Z" fill="black"/>
</svg>
