<svg width="32" height="32" viewBox="0 0 32 32" fill="none" xmlns="http://www.w3.org/2000/svg">
    <path d="M16 1C7.71631 1 1 7.71873 1 16C1 24.2861 7.71631 31 16 31C24.2837 31 31 24.2861 31 16C31 7.71873 24.2837 1 16 1ZM16 28.0968C9.3146 28.0968 3.90323 22.6876 3.90323 16C3.90323 9.31683 9.31484 3.90323 16 3.90323C22.6829 3.90323 28.0968 9.31478 28.0968 16C28.0968 22.6853 22.6876 28.0968 16 28.0968ZM16 7.65323C17.403 7.65323 18.5403 8.79056 18.5403 10.1935C18.5403 11.5965 17.403 12.7339 16 12.7339C14.597 12.7339 13.4597 11.5965 13.4597 10.1935C13.4597 8.79056 14.597 7.65323 16 7.65323ZM19.3871 23.0161C19.3871 23.417 19.0621 23.7419 18.6613 23.7419H13.3387C12.9379 23.7419 12.6129 23.417 12.6129 23.0161V21.5645C12.6129 21.1637 12.9379 20.8387 13.3387 20.8387H14.0645V16.9677H13.3387C12.9379 16.9677 12.6129 16.6428 12.6129 16.2419V14.7903C12.6129 14.3895 12.9379 14.0645 13.3387 14.0645H17.2097C17.6105 14.0645 17.9355 14.3895 17.9355 14.7903V20.8387H18.6613C19.0621 20.8387 19.3871 21.1637 19.3871 21.5645V23.0161Z" fill="#201F1E"/>
</svg>
