<svg width="32" height="32" viewBox="0 0 32 32" fill="currentColor">
    <path d="M16.3333 1.33331C8.0481 1.33331 1.33325 8.04816 1.33325 16.3333C1.33325 24.6185 8.0481 31.3333 16.3333 31.3333C24.6184 31.3333 31.3333 24.6185 31.3333 16.3333C31.3333 8.04816 24.6184 1.33331 16.3333 1.33331ZM16.3333 8.83331C17.3686 8.83331 18.2083 9.67296 18.2083 10.7083C18.2083 11.7437 17.3686 12.5833 16.3333 12.5833C15.2979 12.5833 14.4583 11.7454 14.4583 10.7083C14.4583 9.6712 15.2961 8.83331 16.3333 8.83331ZM18.677 23.8333H13.9895C13.2161 23.8333 12.5833 23.2064 12.5833 22.4271C12.5833 21.6478 13.2131 21.0208 13.9895 21.0208H14.927V17.2708H14.4583C13.6819 17.2708 13.052 16.6409 13.052 15.8646C13.052 15.0882 13.6848 14.4583 14.4583 14.4583H16.3333C17.1096 14.4583 17.7395 15.0882 17.7395 15.8646V21.0208H18.677C19.4534 21.0208 20.0833 21.6507 20.0833 22.4271C20.0833 23.2034 19.4563 23.8333 18.677 23.8333Z"/>
</svg>
