<svg width="32" height="32" viewBox="0 0 32 32" fill="none" xmlns="http://www.w3.org/2000/svg">
    <path d="M24 4H21.5H20.9C20.4375 1.71875 18.4187 0 16 0C13.5813 0 11.5625 1.71875 11.1 4H10.5H8C5.79375 4 4 5.79375 4 8V28C4 30.2062 5.79375 32 8 32H24C26.2062 32 28 30.2062 28 28V8C28 5.79375 26.2062 4 24 4ZM9 7V8.5C9 9.33125 9.66875 10 10.5 10H16H21.5C22.3312 10 23 9.33125 23 8.5V7H24C24.55 7 25 7.45 25 8V28C25 28.55 24.55 29 24 29H8C7.45 29 7 28.55 7 28V8C7 7.45 7.45 7 8 7H9ZM14.5 5C14.5 4.60218 14.658 4.22064 14.9393 3.93934C15.2206 3.65804 15.6022 3.5 16 3.5C16.3978 3.5 16.7794 3.65804 17.0607 3.93934C17.342 4.22064 17.5 4.60218 17.5 5C17.5 5.39782 17.342 5.77936 17.0607 6.06066C16.7794 6.34196 16.3978 6.5 16 6.5C15.6022 6.5 15.2206 6.34196 14.9393 6.06066C14.658 5.77936 14.5 5.39782 14.5 5ZM14.7063 14.7063C15.0938 14.3188 15.0938 13.6812 14.7063 13.2937C14.3188 12.9062 13.6812 12.9062 13.2937 13.2937L11 15.5875L10.2063 14.7937C9.81875 14.4062 9.18125 14.4062 8.79375 14.7937C8.40625 15.1812 8.40625 15.8187 8.79375 16.2062L10.2937 17.7062C10.6812 18.0938 11.3188 18.0938 11.7063 17.7062L14.7063 14.7063ZM16 17C16 17.55 16.45 18 17 18H21C21.55 18 22 17.55 22 17C22 16.45 21.55 16 21 16H17C16.45 16 16 16.45 16 17ZM14 23C14 23.55 14.45 24 15 24H21C21.55 24 22 23.55 22 23C22 22.45 21.55 22 21 22H15C14.45 22 14 22.45 14 23ZM11 24.5C11.3978 24.5 11.7794 24.342 12.0607 24.0607C12.342 23.7794 12.5 23.3978 12.5 23C12.5 22.6022 12.342 22.2206 12.0607 21.9393C11.7794 21.658 11.3978 21.5 11 21.5C10.6022 21.5 10.2206 21.658 9.93934 21.9393C9.65804 22.2206 9.5 22.6022 9.5 23C9.5 23.3978 9.65804 23.7794 9.93934 24.0607C10.2206 24.342 10.6022 24.5 11 24.5Z" fill="black"/>
</svg>
