<svg width="32" height="32" viewBox="0 0 32 32" fill="none" xmlns="http://www.w3.org/2000/svg">
    <path d="M16 1C20.0755 1 20.584 1.015 22.183 1.09C23.7805 1.165 24.868 1.4155 25.825 1.7875C26.815 2.1685 27.649 2.6845 28.483 3.517C29.2457 4.26684 29.8359 5.17388 30.2125 6.175C30.583 7.1305 30.835 8.2195 30.91 9.817C30.9805 11.416 31 11.9245 31 16C31 20.0755 30.985 20.584 30.91 22.183C30.835 23.7805 30.583 24.868 30.2125 25.825C29.837 26.8267 29.2467 27.7339 28.483 28.483C27.7329 29.2455 26.826 29.8356 25.825 30.2125C24.8695 30.583 23.7805 30.835 22.183 30.91C20.584 30.9805 20.0755 31 16 31C11.9245 31 11.416 30.985 9.817 30.91C8.2195 30.835 7.132 30.583 6.175 30.2125C5.17349 29.8367 4.26629 29.2464 3.517 28.483C2.75411 27.7333 2.1639 26.8262 1.7875 25.825C1.4155 24.8695 1.165 23.7805 1.09 22.183C1.0195 20.584 1 20.0755 1 16C1 11.9245 1.015 11.416 1.09 9.817C1.165 8.218 1.4155 7.132 1.7875 6.175C2.16285 5.17327 2.75321 4.26598 3.517 3.517C4.26651 2.75385 5.17364 2.16359 6.175 1.7875C7.132 1.4155 8.218 1.165 9.817 1.09C11.416 1.0195 11.9245 1 16 1ZM16 8.5C14.0109 8.5 12.1032 9.29018 10.6967 10.6967C9.29018 12.1032 8.5 14.0109 8.5 16C8.5 17.9891 9.29018 19.8968 10.6967 21.3033C12.1032 22.7098 14.0109 23.5 16 23.5C17.9891 23.5 19.8968 22.7098 21.3033 21.3033C22.7098 19.8968 23.5 17.9891 23.5 16C23.5 14.0109 22.7098 12.1032 21.3033 10.6967C19.8968 9.29018 17.9891 8.5 16 8.5ZM25.75 8.125C25.75 7.62772 25.5525 7.15081 25.2008 6.79918C24.8492 6.44754 24.3723 6.25 23.875 6.25C23.3777 6.25 22.9008 6.44754 22.5492 6.79918C22.1975 7.15081 22 7.62772 22 8.125C22 8.62228 22.1975 9.09919 22.5492 9.45083C22.9008 9.80246 23.3777 10 23.875 10C24.3723 10 24.8492 9.80246 25.2008 9.45083C25.5525 9.09919 25.75 8.62228 25.75 8.125ZM16 11.5C17.1935 11.5 18.3381 11.9741 19.182 12.818C20.0259 13.6619 20.5 14.8065 20.5 16C20.5 17.1935 20.0259 18.3381 19.182 19.182C18.3381 20.0259 17.1935 20.5 16 20.5C14.8065 20.5 13.6619 20.0259 12.818 19.182C11.9741 18.3381 11.5 17.1935 11.5 16C11.5 14.8065 11.9741 13.6619 12.818 12.818C13.6619 11.9741 14.8065 11.5 16 11.5Z" fill="#201F1E"/>
</svg>
