<svg width="32" height="32" viewBox="0 0 32 32" fill="currentColor">
    <path d="M19.5555 1.33333V8.66666H26.6666L19.5555 1.33333ZM21.3333 16H10.6666V19.6667H21.3333V16ZM17.7777 8.66666V1.33333H7.99992C6.52714 1.33333 5.33325 2.56453 5.33325 4.08333V27.9167C5.33325 29.4349 6.52714 30.6667 7.99992 30.6667H23.9999C25.4727 30.6667 26.6666 29.4355 26.6666 27.9167V10.5H19.6055C18.5721 10.5 17.7777 9.68072 17.7777 8.66666ZM8.88881 5.45833C8.88881 5.20796 9.09047 4.99999 9.33325 4.99999H13.7777C14.0221 4.99999 14.2221 5.20796 14.2221 5.45833V6.375C14.2221 6.62593 14.0221 6.83333 13.7777 6.83333H9.33325C9.09047 6.83333 8.88881 6.62593 8.88881 6.375V5.45833ZM8.88881 9.125C8.88881 8.87291 9.09047 8.66666 9.33325 8.66666H13.7777C14.0221 8.66666 14.2221 8.87291 14.2221 9.125V10.0417C14.2221 10.2937 14.0221 10.5 13.7777 10.5H9.33325C9.09047 10.5 8.88881 10.2937 8.88881 10.0417V9.125ZM23.111 26.5417C23.111 26.7923 22.9096 27 22.6666 27H18.2221C17.9777 27 17.7777 26.7937 17.7777 26.5417V25.625C17.7777 25.3743 17.9791 25.1667 18.2221 25.1667H22.6666C22.9096 25.1667 23.111 25.3743 23.111 25.625V26.5417ZM23.111 15.0833V20.5833C23.111 21.0918 22.7152 21.5 22.2221 21.5H9.7777C9.28492 21.5 8.88881 21.0932 8.88881 20.5833V15.0833C8.88881 14.5734 9.28492 14.1667 9.7777 14.1667H22.2221C22.7166 14.1667 23.111 14.5734 23.111 15.0833Z"/>
</svg>
