<svg width="32" height="32" viewBox="0 0 32 32" fill="currentColor">
<path d="M27.3143 20.6667H25.9429V18.6667C25.9429 18.3 25.6343 18 25.2571 18C24.88 18 24.5714 18.3 24.5714 18.6667V21.5938C24.5714 21.8167 24.76 22 24.9914 22H27.3143C27.6931 22 28 21.7015 28 21.3333C28 20.9667 27.6914 20.6667 27.3143 20.6667ZM25.9429 14.0333V12C25.9429 10.9333 24.9829 10 23.8857 10H20.4571V8C20.4571 6.93375 19.4971 6 18.4 6H11.5429C10.4457 6 9.48571 6.93375 9.48571 8V10H6.05714C4.96043 10 4 10.9333 4 12V18H18.5457C19.7929 15.6292 22.3257 14 25.2571 14C25.4886 14 25.7157 14.0125 25.9429 14.0333ZM18.4 10H11.5429V8H18.4V10Z"/>
<path opacity="0.4" d="M24.15 14C20.9163 14 18.3 16.6833 18.3 20C18.3 23.3167 20.9154 26 24.15 26C27.3846 26 30 23.3175 30 20C30 16.6825 27.3837 14 24.15 14ZM26.1 20.6667H23.8961C23.6787 20.6667 23.5 20.4833 23.5 20.2625V17.3333C23.5 16.9667 23.7925 16.6667 24.15 16.6667C24.5075 16.6667 24.8 16.9667 24.8 17.3333V19.3333H26.1C26.459 19.3333 26.75 19.6318 26.75 20C26.75 20.3667 26.4575 20.6667 26.1 20.6667ZM17.0041 19.3333H12.45C12.0925 19.3333 11.8 19.0333 11.8 18.6667V16.6667H4V22.6667C4 23.7333 4.91041 24.6667 5.95 24.6667H18.6331C17.6134 23.4 17 21.7708 17 20C17 19.775 17.0203 19.5542 17.0041 19.3333Z" />
</svg>
