<svg width="32" height="32" viewBox="0 0 32 32" fill="currentColor">
    <path d="M17.541 21.1387L15.5371 23.0371C15.3262 23.3535 14.9688 23.5 14.5938 23.5H12.25V25.8438C12.25 26.6231 11.623 27.25 10.8438 27.25H8.5V29.5938C8.5 30.3731 7.87305 31 7.09375 31H2.40625C1.62988 31 1 30.3731 1 29.5938V24.9063C1 24.5313 1.14818 24.1738 1.41186 23.9102L10.8613 14.459C10.5449 13.4688 10.375 12.4082 10.375 11.3125C10.375 5.6172 14.9922 1.00002 20.6875 1.00002C26.3828 1.00002 31 5.6172 31 11.3125C31 17.0078 26.3828 21.625 20.6875 21.625C19.5918 21.625 18.5312 21.4551 17.541 21.1387ZM23.0312 11.3125C24.3262 11.3125 25.375 10.2637 25.375 8.96877C25.375 7.67384 24.3262 6.62502 23.0312 6.62502C21.7363 6.62502 20.6875 7.67384 20.6875 8.96877C20.6875 10.2637 21.7363 11.3125 23.0312 11.3125Z"/>
</svg>
