<svg width="32" height="32" viewBox="0 0 32 32" fill="currentColor">
    <path d="M24.1482 4C23.5325 4 23.0371 4.50156 23.0371 5.125V6.625H21.5556C20.9399 6.625 20.4445 7.12656 20.4445 7.75C20.4445 8.37344 20.9399 8.875 21.5556 8.875H23.0371V10.375C23.0371 10.9984 23.5325 11.5 24.1482 11.5C24.7639 11.5 25.2593 10.9984 25.2593 10.375V8.875H26.7408C27.3565 8.875 27.8519 8.37344 27.8519 7.75C27.8519 7.12656 27.3565 6.625 26.7408 6.625H25.2593V5.125C25.2593 4.50156 24.7639 4 24.1482 4ZM17.088 10.2437C16.3982 9.92031 15.6019 9.92031 14.9121 10.2437L4.79171 14.9781C4.39819 15.1609 4.14819 15.5594 4.14819 16C4.14819 16.4406 4.39819 16.8391 4.79171 17.0219L14.9121 21.7562C15.6019 22.0797 16.3982 22.0797 17.088 21.7562L27.2084 17.0219C27.6019 16.8391 27.8519 16.4406 27.8519 16C27.8519 15.5594 27.6019 15.1609 27.2084 14.9781L17.088 10.2437ZM17.7084 23.1203C16.625 23.6266 15.375 23.6266 14.2917 23.1203L7.25467 19.8297L4.79171 20.9781C4.39819 21.1609 4.14819 21.5594 4.14819 22C4.14819 22.4406 4.39819 22.8391 4.79171 23.0219L14.9121 27.7562C15.6019 28.0797 16.3982 28.0797 17.088 27.7562L27.2084 23.0219C27.6019 22.8391 27.8519 22.4406 27.8519 22C27.8519 21.5594 27.6019 21.1609 27.2084 20.9781L24.7454 19.825L17.7084 23.1156V23.1203Z"/>
</svg>
