<svg width="32" height="32" viewBox="0 0 32 32" fill="currentColor">
<path d="M24.5625 4C23.991 4 23.5312 4.45979 23.5312 5.0313V6.40637H22.1562C21.5848 6.40637 21.125 6.86616 21.125 7.43767C21.125 8.00918 21.5848 8.46897 22.1562 8.46897H23.5312V9.84404C23.5312 10.4155 23.991 10.8753 24.5625 10.8753C25.134 10.8753 25.5938 10.4155 25.5938 9.84404V8.46897H26.9688C27.5402 8.46897 28 8.00918 28 7.43767C28 6.86616 27.5402 6.40637 26.9688 6.40637H25.5938V5.0313C25.5938 4.45979 25.134 4 24.5625 4ZM18.0098 9.72372C17.3695 9.42722 16.6305 9.42722 15.9902 9.72372L6.59727 14.0638C6.23203 14.2314 6 14.5966 6 15.0005C6 15.4045 6.23203 15.7697 6.59727 15.9373L15.9902 20.2774C16.6305 20.5739 17.3695 20.5739 18.0098 20.2774L27.4027 15.9373C27.768 15.7697 28 15.4045 28 15.0005C28 14.5966 27.768 14.2314 27.4027 14.0638L18.0098 9.72372ZM18.5855 21.5278C17.5801 21.9919 16.4199 21.9919 15.4145 21.5278L8.8832 18.5113L6.59727 19.564C6.23203 19.7316 6 20.0969 6 20.5008C6 20.9047 6.23203 21.27 6.59727 21.4376L15.9902 25.7776C16.6305 26.0741 17.3695 26.0741 18.0098 25.7776L27.4027 21.4376C27.768 21.27 28 20.9047 28 20.5008C28 20.0969 27.768 19.7316 27.4027 19.564L25.1168 18.507L18.5855 21.5235V21.5278Z"/>
</svg>
