<svg width="32" height="32" viewBox="0 0 32 32" fill="currentColor">
    <g clip-path="url(#clip0_2266_76127)">
        <path d="M12.005 24.2864L12.0058 26.2843C12.0058 26.6123 12.1003 26.9317 12.2738 27.2052L13.1283 28.5432C13.3908 28.9533 13.9873 29.2869 14.4608 29.2869H17.5468C18.0187 29.2869 18.6158 28.9539 18.8783 28.5437L19.7328 27.2057C19.88 27.0208 20 26.6093 20 26.3333L20.0078 22.6692L12.0128 22.6693L12.005 24.2864ZM5.6 12.6666C5.6 11.9765 5.0625 11.4166 4.4 11.4166H1.2C0.5375 11.4166 0 11.9765 0 12.6666C0 13.3567 0.5375 13.9166 1.2 13.9166H4.4C5.065 13.9166 5.6 13.3593 5.6 12.6666ZM30.8 11.4166H27.6C26.9375 11.4166 26.4 11.9765 26.4 12.6666C26.4 13.3567 26.9375 13.9166 27.6 13.9166H30.8C31.4625 13.9166 32 13.3567 32 12.6666C32 11.9765 31.465 11.4166 30.8 11.4166ZM6.555 5.54423L3.78 3.87757C3.4125 3.64319 2.95 3.63694 2.569 3.8583C2.194 4.08616 1.9625 4.50257 1.9625 4.95205C1.96875 5.40778 2.20625 5.82444 2.5815 6.03955L5.355 7.70569C5.725 7.94267 6.19 7.94788 6.57 7.72548C6.945 7.49762 7.176 7.08121 7.176 6.63173C7.17 6.176 6.93 5.75934 6.555 5.54423ZM29.42 19.2968L26.645 17.6302C26.2763 17.3958 25.814 17.3893 25.4325 17.6106C25.0575 17.8385 24.8265 18.2549 24.8265 18.7044C24.8328 19.1601 25.0703 19.5768 25.4455 19.7919L28.2205 21.4586C28.7895 21.7906 29.5145 21.5823 29.8395 20.9898C30.165 20.401 29.975 19.6458 29.42 19.2968ZM5.355 17.6302L2.581 19.2968C2.206 19.5117 1.9685 19.9281 1.962 20.3843C1.962 20.8336 2.19325 21.2505 2.5685 21.4781C2.94975 21.6994 3.412 21.6929 3.781 21.4586L6.556 19.7919C7.112 19.4403 7.2995 18.6851 6.97475 18.0992C6.65 17.5052 5.925 17.2968 5.355 17.6302ZM26.05 7.87496C26.2563 7.87496 26.4625 7.81637 26.65 7.70569L29.419 6.03903C29.9815 5.68746 30.163 4.93225 29.8378 4.34632C29.5128 3.75361 28.7878 3.54528 28.2188 3.87757L25.45 5.54423C24.975 5.82418 24.75 6.40361 24.8875 6.95048C25.03 7.49736 25.505 7.87496 26.05 7.87496Z"/>
        <path opacity="0.4" d="M15.975 2.66739C10.875 2.68041 7.19995 6.94263 7.19995 11.7864C7.19995 14.0067 7.96995 16.1489 9.37595 17.8176C10.207 18.801 11.494 20.8504 11.988 22.5822C11.988 22.5952 11.9937 22.6088 11.9937 22.6218L20.0087 22.6219C20.0087 22.6088 20.0128 22.5952 20.0128 22.5822C20.5066 20.8504 21.7933 18.8004 22.6248 17.8176C24.03 16.1978 24.8 14.052 24.8 11.7864C24.8 6.76138 20.84 2.65437 15.975 2.66739ZM16 7.66711C13.7935 7.66711 12 9.53534 12 11.7869C12 12.2491 11.6437 12.6202 11.2 12.6202C10.7562 12.6202 10.4 12.2491 10.4 11.7869C10.405 8.6093 12.905 6.00721 16 6.00044C16.4437 6.00044 16.8 6.37159 16.8 6.83377C16.8 7.29596 16.445 7.66711 16 7.66711Z"/>
    </g>
    <defs>
        <clipPath id="clip0_2266_76127">
            <rect width="32" height="26.6667" fill="white" transform="translate(0 2.66663)"/>
        </clipPath>
    </defs>
</svg>
