<svg width="32" height="32" viewBox="0 0 32 32" fill="currentColor">
    <path d="M29.7143 0H2.27857C1.02143 0 0 1.03571 0 2.30714V29.6929C0 30.9643 1.02143 32 2.27857 32H29.7143C30.9714 32 32 30.9643 32 29.6929V2.30714C32 1.03571 30.9714 0 29.7143 0ZM9.67143 27.4286H4.92857V12.1571H9.67857V27.4286H9.67143ZM7.3 10.0714C5.77857 10.0714 4.55 8.83571 4.55 7.32143C4.55 5.80714 5.77857 4.57143 7.3 4.57143C8.81429 4.57143 10.05 5.80714 10.05 7.32143C10.05 8.84286 8.82143 10.0714 7.3 10.0714ZM27.45 27.4286H22.7071V20C22.7071 18.2286 22.6714 15.95 20.2429 15.95C17.7714 15.95 17.3929 17.8786 17.3929 19.8714V27.4286H12.65V12.1571H17.2V14.2429H17.2643C17.9 13.0429 19.45 11.7786 21.7571 11.7786C26.5571 11.7786 27.45 14.9429 27.45 19.0571V27.4286Z"/>
</svg>
