<svg width="32" height="32" viewBox="0 0 32 32" fill="none" xmlns="http://www.w3.org/2000/svg">
    <path d="M8.67686 8.56287C11.437 5.25283 16.024 5.25283 18.7841 8.56287C21.2663 11.5401 21.6336 16.2857 19.5933 19.7095L19.5387 19.8047C19.0274 20.6562 18.0345 20.8587 17.3246 20.2454C16.6098 19.6321 16.441 18.4412 16.9523 17.5897L17.0069 17.4944C18.1437 15.5831 17.965 12.9691 16.58 11.3078C15.0212 9.43817 12.4845 9.43817 10.9207 11.3078L5.35079 17.9946C3.78654 19.8167 3.78654 22.907 5.35079 24.7826C6.73086 26.4439 8.91514 26.6582 10.5037 25.2947L10.5831 25.1756C11.298 24.6159 12.2909 24.8124 12.7972 25.6698C13.3085 26.5272 13.1447 27.7181 12.4299 28.3314L12.3504 28.3969C9.45128 30.8442 5.58411 30.4512 3.10246 27.4799C0.29918 24.1157 0.29918 18.6615 3.10246 15.3032L8.67686 8.56287ZM23.3215 23.3833C20.5167 26.7476 15.9744 26.7476 13.1695 23.3833C10.6874 20.4061 10.3647 15.7141 12.405 12.2903L12.4596 12.195C12.9263 11.3436 13.9191 11.1411 14.6737 11.7544C15.3886 12.3141 15.5574 13.505 15.046 14.4101L14.9914 14.5053C13.8546 16.3631 14.0333 19.0307 15.4184 20.6919C16.9771 22.5616 19.5139 22.5616 21.0776 20.6919L26.6476 14.0052C28.2113 12.1295 28.2113 9.03922 26.6476 7.21718C25.2675 5.55769 23.0832 5.34095 21.4946 6.7051L21.4152 6.7706C20.7004 7.3839 19.7075 7.13382 19.2011 6.32879C18.6898 5.47255 18.8536 4.28226 19.5685 3.67075L19.6479 3.60406C22.5024 1.15746 26.4142 1.54563 28.8964 4.52223C31.7012 7.88407 31.7012 13.3383 28.8964 16.6966L23.3215 23.3833Z" fill="#201F1E"/>
</svg>
