<svg width="33" height="32" viewBox="0 0 33 32" fill="none" xmlns="http://www.w3.org/2000/svg">
    <path d="M30.7938 7.75H9.60859C9.21861 7.75 8.90242 7.41419 8.90242 7V5C8.90242 4.58581 9.21861 4.25 9.60859 4.25H30.7938C31.1838 4.25 31.5 4.58581 31.5 5V7C31.5 7.41419 31.1838 7.75 30.7938 7.75ZM31.5 17V15C31.5 14.5858 31.1838 14.25 30.7938 14.25H9.60859C9.21861 14.25 8.90242 14.5858 8.90242 15V17C8.90242 17.4142 9.21861 17.75 9.60859 17.75H30.7938C31.1838 17.75 31.5 17.4142 31.5 17ZM31.5 27V25C31.5 24.5858 31.1838 24.25 30.7938 24.25H9.60859C9.21861 24.25 8.90242 24.5858 8.90242 25V27C8.90242 27.4142 9.21861 27.75 9.60859 27.75H30.7938C31.1838 27.75 31.5 27.4142 31.5 27ZM1.56191 9.27675C1.56191 9.74406 1.79242 10 2.24295 10H6.203C6.65348 10 6.88399 9.74406 6.88399 9.27675V8.72044C6.88399 8.25312 6.65348 7.99719 6.203 7.99719H5.29151V2.72325C5.29151 2.24475 5.05065 2 4.60011 2H3.88769C3.53149 2 3.30098 2.10012 3.03911 2.35606L1.76099 3.60219C1.43627 3.92487 1.41526 4.29206 1.72957 4.62587L2.05429 5.01531C2.35806 5.36025 2.71433 5.34913 2.9762 5.08206C3.03911 5.01531 3.1438 4.84844 3.1438 4.84844H3.16475C3.16475 4.84844 3.13332 5.18219 3.13332 5.50488V7.99725H2.24295C1.79242 7.99725 1.56191 8.25313 1.56191 8.7205V9.27675ZM1.5 19.2886C1.5 19.7483 1.79883 20 2.21106 20H6.20912C6.65219 20 6.88923 19.7483 6.88923 19.2886V18.7414C6.88923 18.2817 6.65219 18.0301 6.20912 18.0301H3.91117C4.02451 17.3734 6.77583 16.87 6.77583 14.4733C6.77583 12.6566 5.30234 11.9999 4.15851 11.9999C2.9014 11.9999 2.16975 12.6237 1.77817 13.1709C1.52054 13.5212 1.60304 13.8495 1.94312 14.134L2.44798 14.5608C2.77776 14.8454 3.09719 14.7141 3.39608 14.4076C3.57121 14.2326 3.767 14.1669 3.95249 14.1669C4.14821 14.1669 4.49859 14.2654 4.49859 14.7141C4.49859 15.5129 1.5 16.0821 1.5 19.0369V19.2886ZM1.85715 29.4091C2.31051 29.7045 2.99056 30 3.96955 30C5.97891 30 6.82385 28.5773 6.82385 27.2421C6.82385 26.3447 6.28804 25.3817 5.13397 25.0643L6.16434 23.8057C6.38078 23.5322 6.46323 23.2804 6.46323 22.9193V22.7114C6.46323 22.2517 6.23649 22 5.79342 22H2.35176C1.90864 22 1.6819 22.2407 1.6819 22.7114V23.2586C1.6819 23.7182 1.90864 23.9699 2.35176 23.9699H3.11426C3.60887 23.9699 3.85621 23.9042 3.85621 23.9042V23.9261C3.85621 23.9261 3.53678 24.2435 3.13491 24.7688L2.80513 25.2066C2.56809 25.5239 2.496 25.8413 2.6403 26.1368L2.70209 26.2572C2.87733 26.6184 3.07306 26.7497 3.42344 26.7497H3.70168C4.30957 26.7497 4.63936 26.9029 4.63936 27.3188C4.63936 27.6143 4.39202 27.8332 3.79442 27.8332C3.51613 27.8332 3.2379 27.7675 2.94942 27.6362C2.56815 27.3954 2.25902 27.4173 2.03234 27.8332L1.70261 28.4132C1.48617 28.7962 1.51707 29.1464 1.85715 29.4091Z" fill="#201F1E"/>
</svg>
