<svg width="33" height="32" viewBox="0 0 33 32" fill="none" xmlns="http://www.w3.org/2000/svg">
    <path d="M30.7913 8.23529H9.5315C9.14014 8.23529 8.82283 7.91924 8.82283 7.52941V5.64706C8.82283 5.25724 9.14014 4.94118 9.5315 4.94118H30.7913C31.1827 4.94118 31.5 5.25724 31.5 5.64706V7.52941C31.5 7.91924 31.1827 8.23529 30.7913 8.23529ZM31.5 16.9412V15.0588C31.5 14.669 31.1827 14.3529 30.7913 14.3529H9.5315C9.14014 14.3529 8.82283 14.669 8.82283 15.0588V16.9412C8.82283 17.331 9.14014 17.6471 9.5315 17.6471H30.7913C31.1827 17.6471 31.5 17.331 31.5 16.9412ZM31.5 26.3529V24.4706C31.5 24.0808 31.1827 23.7647 30.7913 23.7647H9.5315C9.14014 23.7647 8.82283 24.0808 8.82283 24.4706V26.3529C8.82283 26.7428 9.14014 27.0588 9.5315 27.0588H30.7913C31.1827 27.0588 31.5 26.7428 31.5 26.3529ZM6.69685 8.47059V4.70588C6.69685 4.31606 6.37955 4 5.98819 4H2.20866C1.8173 4 1.5 4.31606 1.5 4.70588V8.47059C1.5 8.86041 1.8173 9.17647 2.20866 9.17647H5.98819C6.37955 9.17647 6.69685 8.86041 6.69685 8.47059ZM6.69685 17.8824V14.1176C6.69685 13.7278 6.37955 13.4118 5.98819 13.4118H2.20866C1.8173 13.4118 1.5 13.7278 1.5 14.1176V17.8824C1.5 18.2722 1.8173 18.5882 2.20866 18.5882H5.98819C6.37955 18.5882 6.69685 18.2722 6.69685 17.8824ZM6.69685 27.2941V23.5294C6.69685 23.1396 6.37955 22.8235 5.98819 22.8235H2.20866C1.8173 22.8235 1.5 23.1396 1.5 23.5294V27.2941C1.5 27.6839 1.8173 28 2.20866 28H5.98819C6.37955 28 6.69685 27.6839 6.69685 27.2941Z" fill="#201F1E"/>
</svg>
