<svg width="32" height="32" viewBox="0 0 32 32" fill="none" xmlns="http://www.w3.org/2000/svg">
    <path d="M6.625 6.76923C6.625 8.29865 5.36582 9.53846 3.8125 9.53846C2.25918 9.53846 1 8.29865 1 6.76923C1 5.23981 2.25918 4 3.8125 4C5.36582 4 6.625 5.23981 6.625 6.76923ZM3.8125 13.2308C2.25918 13.2308 1 14.4706 1 16C1 17.5294 2.25918 18.7692 3.8125 18.7692C5.36582 18.7692 6.625 17.5294 6.625 16C6.625 14.4706 5.36582 13.2308 3.8125 13.2308ZM3.8125 22.4615C2.25918 22.4615 1 23.7013 1 25.2308C1 26.7602 2.25918 28 3.8125 28C5.36582 28 6.625 26.7602 6.625 25.2308C6.625 23.7013 5.36582 22.4615 3.8125 22.4615ZM31 7.69231V5.84615C31 5.46383 30.6852 5.15385 30.2969 5.15385H9.20312C8.81482 5.15385 8.5 5.46383 8.5 5.84615V7.69231C8.5 8.07463 8.81482 8.38462 9.20312 8.38462H30.2969C30.6852 8.38462 31 8.07463 31 7.69231ZM31 16.9231V15.0769C31 14.6946 30.6852 14.3846 30.2969 14.3846H9.20312C8.81482 14.3846 8.5 14.6946 8.5 15.0769V16.9231C8.5 17.3054 8.81482 17.6154 9.20312 17.6154H30.2969C30.6852 17.6154 31 17.3054 31 16.9231ZM31 26.1538V24.3077C31 23.9254 30.6852 23.6154 30.2969 23.6154H9.20312C8.81482 23.6154 8.5 23.9254 8.5 24.3077V26.1538C8.5 26.5362 8.81482 26.8462 9.20312 26.8462H30.2969C30.6852 26.8462 31 26.5362 31 26.1538Z" fill="#201F1E"/>
</svg>
