<svg width="32" height="32" viewBox="0 0 32 32" fill="currentColor">
    <path d="M11.1253 23.8571H7.87515C6.97782 23.8571 6.2501 23.1534 6.2501 22.2857V9.71429C6.2501 8.84656 6.97782 8.14286 7.87515 8.14286H11.1253C12.0226 8.14286 12.7503 7.43915 12.7503 6.57143C12.7503 5.70371 12.0241 5 11.1253 5H7.87515C5.18265 5 3 7.11063 3 9.71429V22.2857C3 24.8894 5.18265 27 7.87515 27H11.1253C12.0226 27 12.7503 26.2963 12.7503 25.4286C12.7503 24.5608 12.0241 23.8571 11.1253 23.8571ZM28.5235 14.8902L22.0233 8.60446C21.388 7.99013 20.3596 7.99112 19.7253 8.60446C19.0905 9.2183 19.0905 10.2127 19.7253 10.8266L23.4553 14.4286H12.7503C11.8515 14.4286 11.1253 15.1308 11.1253 16C11.1253 16.8692 11.852 17.5714 12.7503 17.5714H23.4553L19.7289 21.1749C19.0941 21.7887 19.0941 22.7832 19.7289 23.397C20.3637 24.0108 21.392 24.0108 22.0268 23.397L28.527 17.1113C29.1583 16.496 29.1583 15.504 28.5235 14.8902Z"/>
</svg>
