<svg width="32" height="32" viewBox="0 0 32 32" fill="currentColor">
<path d="M20.8188 2.17356C21.5375 2.49856 22 3.21106 22 3.99856V27.9986C22 28.7861 21.5375 29.4986 20.8188 29.8236C20.1 30.1486 19.2563 30.0173 18.6688 29.4923L10.2375 21.9986H6C3.79375 21.9986 2 20.2048 2 17.9986V13.9986C2 11.7923 3.79375 9.99856 6 9.99856H10.2375L18.6688 2.50481C19.2563 1.97981 20.1 1.85481 20.8188 2.17356ZM27.7875 11.3423C29.1313 12.4423 30 14.1173 30 15.9986C30 17.8798 29.1313 19.5548 27.7875 20.6548C27.1438 21.1798 26.2 21.0798 25.675 20.4361C25.15 19.7923 25.25 18.8486 25.8937 18.3236C26.5687 17.7736 27 16.9361 27 15.9986C27 15.0611 26.5687 14.2236 25.8937 13.6673C25.25 13.1423 25.1562 12.1986 25.675 11.5548C26.1937 10.9111 27.1438 10.8173 27.7875 11.3361V11.3423Z"/>
</svg>
