<svg width="32" height="32" viewBox="0 0 32 32" fill="currentColor">
    <path d="M28.1875 5.00003C29.7402 5.00003 31 6.23123 31 7.75003C31 8.61513 30.584 9.42868 29.875 9.95003L17.125 19.3C16.457 19.787 15.543 19.787 14.875 19.3L2.125 9.95003C1.41678 9.42868 1 8.61513 1 7.75003C1 6.23123 2.25918 5.00003 3.8125 5.00003H28.1875ZM13.75 20.7667C15.0859 21.7464 16.9141 21.7464 18.25 20.7667L31 11.4167V23.3334C31 25.3558 29.3184 27 27.25 27H4.75C2.67871 27 1 25.3558 1 23.3334V11.4167L13.75 20.7667Z"/>
</svg>
