<svg width="32" height="32" viewBox="0 0 32 32" fill="none" xmlns="http://www.w3.org/2000/svg">
<g clip-path="url(#clip0_4585_86890)">
<path d="M31.1849 6.69599C31.8471 6.69599 32.264 7.34594 31.9574 7.89779C31.7367 8.23503 31.4792 8.54161 31.1849 8.8114C30.9273 9.05053 30.6453 9.26514 30.3387 9.44909C30.2222 9.46135 30.1057 9.57785 29.9831 9.63917C29.3392 9.95188 28.6096 10.1297 27.8431 10.1297C26.0588 10.1297 24.5014 9.1793 23.643 7.75676C23.4406 7.41952 23.0911 7.18652 22.7048 7.18652H9.43603C9.04974 7.18652 8.70024 7.41952 8.49789 7.75676C7.63947 9.1793 6.08204 10.1297 4.29774 10.1297C3.53006 10.1297 2.80408 9.95188 2.15719 9.63917C2.03517 9.57785 1.91622 9.46135 1.80033 9.44909C1.49498 9.26514 1.21109 9.05053 0.953558 8.8114C0.662307 8.54161 0.404166 8.23503 0.185881 7.89779C-0.175885 7.34594 0.290731 6.69599 0.953558 6.69599H2.82615L2.85742 6.6408C2.90218 6.6408 2.94572 6.68986 2.98925 6.68986C3.72505 6.60401 4.29774 5.98227 4.29774 5.2244C4.29774 4.46653 3.72505 3.84294 2.98925 3.762C2.94572 3.7571 2.90218 3.75403 2.85742 3.75342L2.82615 3.7528H0.953558C0.290731 3.7528 -0.175885 3.10285 0.185881 2.54794C0.404166 2.21377 0.662307 1.90718 0.953558 1.63555C1.21109 1.39519 1.49498 1.18243 1.80033 1.00154C1.91622 0.932868 2.03517 0.868792 2.15719 0.809622C2.80408 0.495376 3.53006 0.319092 4.29774 0.319092C6.08204 0.319092 7.63947 1.27011 8.49789 2.69265C8.70024 3.02621 9.04974 3.26227 9.43603 3.26227H22.7048C23.0911 3.26227 23.4406 3.02621 23.643 2.69265C24.5014 1.27011 26.0588 0.319092 27.8431 0.319092C28.6096 0.319092 29.3392 0.495376 29.9831 0.809622C30.1057 0.868792 30.2222 0.932868 30.3387 1.00154C30.6453 1.18243 30.9273 1.39519 31.1849 1.63555C31.4792 1.90718 31.7367 2.21377 31.9574 2.54794C32.264 3.10285 31.8471 3.7528 31.1849 3.7528H29.3147L29.2841 3.75342C29.2411 3.75403 29.1921 3.7571 29.1492 3.762C28.4134 3.84294 27.8431 4.46653 27.8431 5.2244C27.8431 5.98227 28.4134 6.60401 29.1492 6.68986C29.1921 6.68986 29.2411 6.6408 29.2841 6.6408L29.3147 6.69599H31.1849ZM8.7125 22.393C8.7125 21.5775 9.36858 20.9214 10.1841 20.9214C10.9996 20.9214 11.6557 21.5775 11.6557 22.393C11.6557 23.2085 10.9996 23.8646 10.1841 23.8646C9.36858 23.8646 8.7125 23.2085 8.7125 22.393ZM23.4284 22.393C23.4284 23.2085 22.7723 23.8646 21.9568 23.8646C21.1413 23.8646 20.4852 23.2085 20.4852 22.393C20.4852 21.5775 21.1413 20.9214 21.9568 20.9214C22.7723 20.9214 23.4284 21.5775 23.4284 22.393ZM7.60881 13.0606C8.24037 11.3008 9.90203 10.1297 11.766 10.1297H20.3748C22.2388 10.1297 23.9005 11.3008 24.4769 13.0606L26.2857 17.9721C26.298 18.0027 26.3041 18.0334 26.3164 18.0579C27.8309 19.1248 28.8242 20.8907 28.8242 22.8835V30.2414C28.8242 31.057 28.1681 31.713 27.3526 31.713C26.5371 31.713 25.881 31.057 25.881 30.2414V27.7888H6.25986V30.2414C6.25986 31.057 5.60377 31.713 4.78827 31.713C3.97583 31.713 3.31668 31.057 3.31668 30.2414V22.8835C3.31668 20.8907 4.30878 19.1248 5.82451 18.0579C5.83677 18.0334 5.84291 18.0027 5.85517 17.9721L7.60881 13.0606ZM11.766 13.0729C11.1468 13.0729 10.5888 13.4653 10.3803 14.0478L9.33179 16.9971H22.8091L21.7606 14.0478C21.5521 13.4653 20.9941 13.0729 20.3748 13.0729H11.766ZM22.9378 19.9403H9.20303C7.57815 19.9403 6.25986 21.2586 6.25986 22.8835V24.8456H25.881V22.8835C25.881 21.2586 24.5627 19.9403 22.9378 19.9403Z" fill="black"/>
</g>
<defs>
<clipPath id="clip0_4585_86890">
<rect width="32.0001" height="32.0002" fill="white" transform="translate(-0.000244141)"/>
</clipPath>
</defs>
</svg>
