<svg width="32" height="32" viewBox="0 0 32 32" fill="none" xmlns="http://www.w3.org/2000/svg">
    <path d="M30.1667 12.75C30.0625 12.75 29.9583 12.7719 29.8542 12.8156L26.026 14.3031C25.599 15.4187 24.974 16.6 24.2448 17.7922L28.5 16.1406V26.6953L21.8333 29.1289V21.2977C21.1198 22.2437 20.3802 23.1734 19.6198 24.0758C19.5312 24.1797 19.4323 24.2672 19.3333 24.3547V28.8062L12.6667 26.3344V20.1547C11.724 18.8367 10.8542 17.4859 10.1667 16.1734V26.0281L10.1354 26.0391L3.5 28.6094V18.0547L9.9375 15.7031C9.52083 14.8609 9.20312 14.0461 8.98438 13.2695L2.04688 15.8125C1.41667 16.075 1 16.7203 1 17.4367V31.125C1 31.6281 1.39062 32 1.83333 32C1.9375 32 2.04167 31.9781 2.14583 31.9344L11 28.5L19.9583 31.8195C20.6354 32.0547 21.3646 32.0602 22.0417 31.8305L29.9531 28.9375C30.5885 28.6695 31 28.0297 31 27.3133V13.625C31 13.1219 30.6094 12.75 30.1667 12.75ZM17.6667 23.25C17.9271 23.25 18.1875 23.1406 18.3698 22.9164C20.2083 20.7289 25 14.7078 25 11.3992C25 7.31406 21.7188 4 17.6667 4C13.6146 4 10.3333 7.31406 10.3333 11.3992C10.3333 14.7023 15.125 20.7289 16.9635 22.9164C17.1458 23.1406 17.4062 23.25 17.6667 23.25ZM17.6667 6.625C20.3333 6.625 22.5 8.76875 22.5 11.3992C22.5 12.5695 20.8438 15.725 17.6667 19.7445C14.4896 15.725 12.8333 12.5695 12.8333 11.3992C12.8333 8.76875 15 6.625 17.6667 6.625Z" fill="#201F1E"/>
</svg>
