<svg width="32" height="32" viewBox="0 0 32 32" fill="none" xmlns="http://www.w3.org/2000/svg">
    <path d="M16 1C9.92153 1 5 6.03989 5 12.25C5 16.417 6.37448 17.7192 13.6666 29.6772C14.7428 31.442 17.2584 31.4399 18.3334 29.6772C25.6293 17.7129 27 16.4162 27 12.25C27 6.03338 22.0721 1 16 1ZM16 28.1875C8.69967 16.216 7.75 15.4602 7.75 12.25C7.75 7.5901 11.4437 3.8125 16 3.8125C20.5563 3.8125 24.25 7.5901 24.25 12.25C24.25 15.4465 23.3811 16.0835 16 28.1875ZM11.4167 12.25C11.4167 9.66116 13.4687 7.5625 16 7.5625C18.5313 7.5625 20.5833 9.66116 20.5833 12.25C20.5833 14.8389 18.5313 16.9375 16 16.9375C13.4687 16.9375 11.4167 14.8389 11.4167 12.25Z" fill="#201F1E"/>
</svg>
