<svg width="32" height="32" viewBox="0 0 32 32" fill="none" xmlns="http://www.w3.org/2000/svg">
    <path d="M29.4944 4.20828C29.8104 4.42828 30 4.79119 30 5.17865V21.6788C30 22.1257 29.6986 22.607 29.2465 22.7788L21.0799 25.9217C20.8319 26.0199 20.5549 26.0249 20.2972 25.9414L11.3576 22.9311L3.58181 25.9217C3.22354 26.0592 2.82056 26.0101 2.50458 25.7941C2.18871 25.5731 2 25.2097 2 24.8217V8.32154C2 7.83046 2.29896 7.3934 2.75153 7.22005L10.9201 4.07716C11.1681 3.98042 11.4451 3.97453 11.7028 4.06047L20.6424 7.07028L28.4201 4.07716C28.775 3.93917 29.1785 3.98828 29.4944 4.20828ZM4.33333 23.1128L10.1667 20.8686V6.88907L4.33333 9.13182V23.1128ZM19.5 9.1711L12.5 6.81393V20.8293L19.5 23.1864V9.1711ZM21.8333 23.1128L27.6667 20.8686V6.88907L21.8333 9.13182V23.1128Z" fill="#201F1E"/>
</svg>
