<svg width="32" height="32" viewBox="0 0 32 32" fill="currentColor">
<path d="M4 7.00013C4 5.34537 5.34531 4 7 4H25C26.6547 4 28 5.34537 28 7.00013V20.5007C28 22.1555 26.6547 23.5008 25 23.5008H18.4984L12.7 27.851C12.475 28.0198 12.1703 28.0479 11.9125 27.9213C11.6547 27.7948 11.5 27.537 11.5 27.251V23.5008H7C5.34531 23.5008 4 22.1555 4 20.5007V7.00013ZM11.125 10.7503C10.5016 10.7503 10 11.2519 10 11.8753C10 12.4988 10.5016 13.0004 11.125 13.0004H20.875C21.4984 13.0004 22 12.4988 22 11.8753C22 11.2519 21.4984 10.7503 20.875 10.7503H11.125ZM11.125 15.2505C10.5016 15.2505 10 15.7521 10 16.3755C10 16.999 10.5016 17.5006 11.125 17.5006H16.375C16.9984 17.5006 17.5 16.999 17.5 16.3755C17.5 15.7521 16.9984 15.2505 16.375 15.2505H11.125Z"/>
</svg>
