<svg width="32" height="32" viewBox="0 0 32 32" fill="currentColor">
    <path d="M29.5 5H2.5C1.67172 5 1 5.70371 1 6.57143V25.4286C1 26.2963 1.67172 27 2.5 27H29.5C30.3283 27 31 26.2963 31 25.4286V6.57143C31 5.70371 30.3283 5 29.5 5ZM28.75 24.6429H3.25V7.35714H28.75V24.6429ZM14.875 19.1429H18.625C18.8322 19.1429 19 18.9671 19 18.75V17.1786C19 16.9615 18.8322 16.7857 18.625 16.7857H14.875C14.6678 16.7857 14.5 16.9615 14.5 17.1786V18.75C14.5 18.9671 14.6678 19.1429 14.875 19.1429ZM26.125 16.7857H22.375C22.1678 16.7857 22 16.9615 22 17.1786V18.75C22 18.9671 22.1678 19.1429 22.375 19.1429H26.125C26.3322 19.1429 26.5 18.9671 26.5 18.75V17.1786C26.5 16.9615 26.3322 16.7857 26.125 16.7857ZM14.875 15.2143H26.125C26.3322 15.2143 26.5 15.0385 26.5 14.8214V13.25C26.5 13.0329 26.3322 12.8571 26.125 12.8571H14.875C14.6678 12.8571 14.5 13.0329 14.5 13.25V14.8214C14.5 15.0385 14.6678 15.2143 14.875 15.2143ZM7.315 16.0845L9.29266 16.6463C9.48906 16.7022 9.625 16.8697 9.625 17.0538C9.625 17.2896 9.41406 17.4811 9.15344 17.4811H7.91875C7.72422 17.4811 7.53297 17.43 7.36703 17.3362C7.22266 17.2542 7.04641 17.2689 6.93391 17.3942L6.36812 18.0193C6.22234 18.1804 6.24625 18.4436 6.42109 18.5688C6.81016 18.8462 7.26766 19.0049 7.75 19.0363V19.5357C7.75 19.7528 7.91781 19.9286 8.125 19.9286H8.875C9.08219 19.9286 9.25 19.7528 9.25 19.5357V19.0324C10.2897 18.9783 11.125 18.1204 11.125 17.0533C11.125 16.1611 10.5334 15.37 9.685 15.1298L7.70734 14.568C7.51094 14.5121 7.375 14.3446 7.375 14.1604C7.375 13.9247 7.58594 13.7332 7.84656 13.7332H9.08125C9.27578 13.7332 9.46703 13.7843 9.63297 13.8781C9.77734 13.9596 9.95359 13.9454 10.0661 13.8201L10.6319 13.195C10.7777 13.0339 10.7537 12.7707 10.5789 12.6455C10.1898 12.368 9.73234 12.2094 9.25 12.178V11.6786C9.25 11.4615 9.08219 11.2857 8.875 11.2857H8.125C7.91781 11.2857 7.75 11.4615 7.75 11.6786V12.1819C6.71031 12.2359 5.875 13.0938 5.875 14.1609C5.875 15.0532 6.46656 15.8443 7.315 16.0845Z"/>
</svg>
