<svg width="32" height="32" viewBox="0 0 32 32" fill="currentColor">
<path d="M1.50029e-05 8.04673C1.50029e-05 6.43017 1.43278 5.12 3.20063 5.12H25.605C27.3703 5.12 28.8056 6.43017 28.8056 8.04673V11.0009C28.0455 11.0924 27.3153 11.4033 26.7352 11.9384L17.6685 20.2247C17.2584 20.5997 16.9683 21.0707 16.8283 21.5874L16.5282 22.6804H3.20063C1.43278 22.6804 0 21.3679 0 19.7537L1.50029e-05 8.04673ZM13.6027 16.8269H16.8033C17.2434 16.8269 17.6034 16.4977 17.6034 16.0952C17.6034 15.6928 17.2434 15.3636 16.8033 15.3636H13.6027C13.1626 15.3636 12.8025 15.6928 12.8025 16.0952C12.8025 16.4977 13.1626 16.8269 13.6027 16.8269ZM13.6027 10.9735C13.1626 10.9735 12.8025 11.3027 12.8025 11.7051C12.8025 12.1076 13.1626 12.4368 13.6027 12.4368H21.6042C22.0443 12.4368 22.4044 12.1076 22.4044 11.7051C22.4044 11.3027 22.0443 10.9735 21.6042 10.9735H13.6027ZM6.19621 9.51009V9.78448C5.91616 9.83935 5.6061 9.91709 5.40105 10.0177C4.65391 10.3287 4.00428 10.9049 3.84625 11.7417C3.75823 12.2082 3.80474 12.6609 4.01678 13.0679C4.22433 13.4703 4.55089 13.7539 4.88245 13.9596C5.46107 14.3209 6.22622 14.5313 6.81133 14.6913L6.92135 14.7188C7.62149 14.9154 8.09158 15.0572 8.38664 15.2538C8.51166 15.3361 8.55667 15.4001 8.57167 15.4413C8.59168 15.4779 8.62168 15.5602 8.58668 15.7431C8.55667 15.9032 8.46165 16.0404 8.1866 16.1455C7.88154 16.2644 7.38644 16.3239 6.74632 16.2324C6.44626 16.1867 5.91115 16.0221 5.43606 15.8757C5.32604 15.8392 5.21602 15.8071 5.116 15.7751C4.5929 15.6151 4.02629 15.8757 3.85175 16.3559C3.67722 16.8361 3.96077 17.3528 4.48488 17.4717C4.54539 17.5312 4.6204 17.554 4.70642 17.5815C5.05599 17.7049 5.72112 17.897 6.19621 17.9976V18.2903C6.19621 18.7979 6.6463 19.2095 7.1564 19.2095C7.75652 19.2095 8.2066 18.7979 8.2066 18.2903V18.0388C8.47166 17.993 8.73171 17.8833 8.97175 17.8284C9.76191 17.522 10.392 16.9275 10.5571 16.0587C10.6471 15.5831 10.6071 15.1258 10.407 14.7096C10.212 14.298 9.89693 13.9962 9.56187 13.7767C8.95675 13.3697 8.14659 13.1502 7.54147 12.981L7.45646 12.9719C6.79133 12.7752 6.31123 12.638 6.00617 12.446C5.87615 12.3637 5.83614 12.3088 5.82614 12.2859C5.81614 12.2676 5.78613 12.2127 5.81614 12.0573C5.83614 11.9658 5.91115 11.8149 6.22622 11.6869C6.50627 11.5542 7.04638 11.4811 7.6615 11.5268C7.87654 11.6 8.55167 11.7189 8.74671 11.7646C9.27681 11.8972 9.82692 11.6045 9.96695 11.1152C10.112 10.6305 9.79191 10.1275 9.25681 9.99941C9.03677 9.94453 8.53667 9.85307 8.2066 9.7982V9.51009C8.2066 9.00249 7.75652 8.59092 7.20141 8.59092C6.6463 8.59092 6.19621 9.00249 6.19621 9.51009ZM31.4111 13.6304C32.1963 14.3438 32.1963 15.5008 31.4111 16.2187L29.9408 17.5632L26.3952 14.3163L27.8654 12.9719C28.6456 12.2585 29.9108 12.2585 30.696 12.9719L31.4111 13.6304ZM18.7987 21.2216L25.2599 15.3544L28.8106 18.5967L22.3494 24.505C22.1443 24.6925 21.8843 24.8251 21.6042 24.8892L18.5986 25.5797C18.3236 25.6391 18.0385 25.566 17.8385 25.3876C17.6384 25.2047 17.5584 24.9395 17.6284 24.6514L18.3786 21.9396C18.4486 21.6835 18.5936 21.4503 18.7987 21.2216Z"/>
</svg>
