<svg width="32" height="33" viewBox="0 0 32 33" fill="currentColor">
    <path d="M15.9998 12.2388C13.9289 12.2388 12.2498 14.1656 12.2498 16.5429C12.2498 18.9196 13.9284 20.8469 15.9998 20.8469C18.0702 20.8469 19.7497 18.9205 19.7497 16.5429C19.7497 14.1656 18.0707 12.2388 15.9998 12.2388ZM30.1164 7.50268C28.2982 6.77634 26.4785 6.5 24.6598 6.5C18.8863 6.49955 13.1132 9.28304 7.33974 9.28304C5.8918 9.28304 4.44479 9.10804 2.99684 8.67054C2.83419 8.62143 2.67107 8.59821 2.5117 8.59821C1.70499 8.59821 1 9.19286 1 10.0183V24.1817C1 24.7455 1.3389 25.2799 1.88311 25.4969C3.70136 26.2237 5.52102 26.5 7.33974 26.5C13.1132 26.5 18.8868 23.7165 24.6603 23.7165C26.1082 23.7165 27.5552 23.8915 29.0032 24.329C29.1658 24.3781 29.3289 24.4013 29.4883 24.4013C30.295 24.4013 31 23.8067 31 22.9813V8.8183C30.9995 8.25402 30.6606 7.72009 30.1164 7.50268ZM28.7496 19.4487C27.4891 19.6004 26.4724 20.4893 26.2005 21.6576C25.6943 21.6165 25.1899 21.5737 24.6598 21.5737C21.493 21.5737 18.4194 22.3143 15.4476 23.0308C12.6183 23.7129 9.94595 24.3571 7.33974 24.3571C6.96381 24.3571 6.59679 24.3429 6.23773 24.3152C6.17117 22.7871 4.86478 21.5647 3.25043 21.5647V13.6737C4.70682 13.6737 5.91899 12.6804 6.19133 11.3634C6.57288 11.3862 6.94506 11.4259 7.34021 11.4259C10.507 11.4259 13.5801 10.6853 16.5519 9.96875C19.3808 9.28705 22.0531 8.64286 24.6598 8.64286C25.1679 8.64286 25.6545 8.67768 26.1326 8.72813C26.1724 10.1549 27.2983 11.3103 28.7496 11.4853V19.4487Z"/>
</svg>
