<svg width="32" height="32" viewBox="0 0 32 32" fill="currentColor">
<path d="M2.81877 4.23908C2.33127 3.85471 1.62346 3.94377 1.23908 4.43127C0.854707 4.91877 0.943769 5.62658 1.43127 6.01096L29.1813 27.761C29.6688 28.1453 30.3766 28.0563 30.761 27.5688C31.1453 27.0813 31.0563 26.3735 30.5688 25.9891L26.4438 22.7547C28.3188 21.1094 29.5 18.6906 29.5 16C29.5 13.1828 28.2016 10.6656 26.1766 9.01565C25.6938 8.62189 24.986 8.69689 24.5922 9.17971C24.1985 9.66252 24.2735 10.3703 24.7563 10.7641C26.2797 12.0016 27.25 13.886 27.25 16C27.25 18.1141 26.2797 19.9985 24.7563 21.2406C24.7141 21.2735 24.6766 21.311 24.6438 21.3485L22.6 19.7453C22.8578 19.75 23.1203 19.6703 23.336 19.4922C24.3485 18.6672 25 17.411 25 16C25 14.5891 24.3485 13.3328 23.3406 12.5078C22.8578 12.1141 22.15 12.1891 21.7563 12.6719C21.3625 13.1547 21.4375 13.8625 21.9203 14.2563C22.4266 14.6688 22.75 15.2969 22.75 16C22.75 16.7031 22.4266 17.3313 21.9203 17.7485C21.5641 18.0391 21.4328 18.4985 21.5453 18.9156L19 16.9235V7.00002C19 6.40939 18.6531 5.87502 18.1141 5.63127C17.575 5.38752 16.9422 5.48596 16.5016 5.87971L11.0688 10.7078L2.81877 4.23908ZM4.00002 14.5V17.5C4.00002 19.1547 5.34533 20.5 7.00002 20.5H10.1781L16.5016 26.1203C16.9422 26.5141 17.575 26.6078 18.1141 26.3688C18.6531 26.1297 19 25.5906 19 25V22.6797L5.39689 11.9641C4.55783 12.4938 4.00002 13.4313 4.00002 14.5Z"/>
</svg>
