<svg width="32" height="32" viewBox="0 0 32 32" fill="none" xmlns="http://www.w3.org/2000/svg">
    <path d="M18.0008 2.875V3.92266C22.5323 4.59707 26.0012 8.27734 26.0012 12.7188V14.6758C26.0012 17.3359 26.97 19.9199 28.7388 22L29.6701 23.0898C30.0326 23.5117 30.1014 24.0918 29.8514 24.5781C29.6014 25.0645 29.0764 25.375 28.5013 25.375H3.50009C2.92318 25.375 2.39784 25.0645 2.14808 24.5781C1.89826 24.0918 1.96851 23.5117 2.32878 23.0898L3.2607 22C5.03391 19.9199 6.00021 17.3359 6.00021 14.6758V12.7188C6.00021 8.27734 9.46913 4.59707 14.0006 3.92266V2.875C14.0006 1.83965 14.8944 1 16.0007 1C17.107 1 18.0008 1.83965 18.0008 2.875ZM15.5007 6.625C11.913 6.625 9.00036 9.35547 9.00036 12.7188V14.6758C9.00036 17.4824 8.13281 20.2188 6.51961 22.5625H25.4824C23.8698 20.2188 23.0011 17.4824 23.0011 14.6758V12.7188C23.0011 9.35547 20.0884 6.625 16.5007 6.625H15.5007ZM20.0009 27.25C20.0009 28.1934 19.5821 29.2012 18.8321 29.9043C18.0821 30.6074 17.007 31 16.0007 31C14.9382 31 13.9194 30.6074 13.1693 29.9043C12.4193 29.2012 12.0005 28.1934 12.0005 27.25H20.0009Z" fill="#201F1E"/>
</svg>
