<svg width="32" height="32" viewBox="0 0 32 32" fill="none" xmlns="http://www.w3.org/2000/svg">
    <path d="M9.60617 8.48586C10.6796 6.51604 12.4421 5.10839 14.4999 4.72777V3.74997C14.4999 2.78365 15.1702 2.00001 15.9999 2.00001C16.8295 2.00001 17.4999 2.78365 17.4999 3.74997V4.72777C20.8983 5.35722 23.4998 8.79211 23.4998 12.9374V14.7639C23.4998 17.2467 24.2264 19.6584 25.5529 21.5998L26.2513 22.617C26.4576 22.9724 26.5654 23.4482 26.4341 23.8748L30.5685 27.6536C31.056 28.1021 31.145 28.9278 30.7607 29.4966C30.3763 30.0653 29.6685 30.1692 29.181 29.7208L1.43105 4.34551C0.942055 3.89817 0.856321 3.07349 1.23961 2.50289C1.62296 1.9324 2.32982 1.83237 2.81919 2.27955L9.60617 8.48586ZM11.3921 10.1155L22.1264 19.8881C21.5498 18.3076 21.2498 16.5522 21.2498 14.7639V12.9374C21.2498 9.79834 19.0655 7.24993 16.3749 7.24993H15.6249C13.8108 7.24993 12.2311 8.40383 11.3921 10.1155ZM8.49993 14.7639V14.146L10.689 16.1584C10.5015 18.2803 9.88273 20.331 8.88899 22.1248H17.1811L20.0405 24.7497H6.62494C6.1937 24.7497 5.79995 24.4599 5.61105 24.006C5.42355 23.5521 5.47652 23.0107 5.74839 22.617L6.44682 21.5998C7.77337 19.6584 8.49993 17.2467 8.49993 14.7639ZM18.9998 26.4997C18.9998 27.3802 18.6858 28.3208 18.1233 28.977C17.5608 29.6333 16.7545 29.9997 15.9999 29.9997C15.203 29.9997 14.4389 29.6333 13.8764 28.977C13.3139 28.3208 12.9999 27.3802 12.9999 26.4997H18.9998Z" fill="#201F1E"/>
</svg>
