<svg width="32" height="32" viewBox="0 0 32 32" fill="none" xmlns="http://www.w3.org/2000/svg">
    <path d="M12.6667 7.33331C12.6667 6.22873 13.5625 5.33331 14.6667 5.33331H17.3333C18.4375 5.33331 19.3333 6.22873 19.3333 7.33331V9.99998C19.3333 11.1041 18.4375 12 17.3333 12H14.6667C13.5625 12 12.6667 11.1041 12.6667 9.99998V7.33331ZM8.66667 17.3333C9.77083 17.3333 10.6667 18.2291 10.6667 19.3333V22C10.6667 23.1041 9.77083 24 8.66667 24H6C4.89542 24 4 23.1041 4 22V19.3333C4 18.2291 4.89542 17.3333 6 17.3333H8.66667ZM17.3333 17.3333C18.4375 17.3333 19.3333 18.2291 19.3333 19.3333V22C19.3333 23.1041 18.4375 24 17.3333 24H14.6667C13.5625 24 12.6667 23.1041 12.6667 22V19.3333C12.6667 18.2291 13.5625 17.3333 14.6667 17.3333H17.3333ZM26 17.3333C27.1042 17.3333 28 18.2291 28 19.3333V22C28 23.1041 27.1042 24 26 24H23.3333C22.2292 24 21.3333 23.1041 21.3333 22V19.3333C21.3333 18.2291 22.2292 17.3333 23.3333 17.3333H26Z" fill="#201F1E"/>
    <path opacity="0.4" d="M8.66659 15.6667C8.48325 15.6667 8.33325 15.8167 8.33325 16V17.3333H6.33325V16C6.33325 14.7125 7.37784 13.6667 8.66659 13.6667H14.9999V12H16.9999V13.6667H23.3333C24.6208 13.6667 25.6666 14.7125 25.6666 16V17.3333H23.6666V16C23.6666 15.8167 23.5166 15.6667 23.3333 15.6667H16.9999V17.3333H14.9999V15.6667H8.66659Z" fill="#201F1E"/>
</svg>
