<svg width="32" height="32" viewBox="0 0 32 32" fill="none" xmlns="http://www.w3.org/2000/svg">
    <path d="M1 4V1.81818C1 1.36634 1.3598 1 1.80357 1H30.1964C30.6402 1 31 1.36634 31 1.81818V4C31 4.45184 30.6402 4.81818 30.1964 4.81818H1.80357C1.3598 4.81818 1 4.45184 1 4ZM14.6607 13.5455H30.1964C30.6402 13.5455 31 13.1791 31 12.7273V10.5455C31 10.0936 30.6402 9.72727 30.1964 9.72727H14.6607C14.2169 9.72727 13.8571 10.0936 13.8571 10.5455V12.7273C13.8571 13.1791 14.2169 13.5455 14.6607 13.5455ZM1.80357 31H30.1964C30.6402 31 31 30.6337 31 30.1818V28C31 27.5482 30.6402 27.1818 30.1964 27.1818H1.80357C1.3598 27.1818 1 27.5482 1 28V30.1818C1 30.6337 1.3598 31 1.80357 31ZM14.6607 22.2727H30.1964C30.6402 22.2727 31 21.9064 31 21.4545V19.2727C31 18.8209 30.6402 18.4545 30.1964 18.4545H14.6607C14.2169 18.4545 13.8571 18.8209 13.8571 19.2727V21.4545C13.8571 21.9064 14.2169 22.2727 14.6607 22.2727ZM1.31386 16.7713L7.74243 23.3157C8.41522 24.001 9.57143 23.5153 9.57143 22.5444V9.45509C9.57143 8.47811 8.41127 8.00255 7.74243 8.68375L1.31386 15.2287C0.895402 15.6547 0.895402 16.3453 1.31386 16.7713Z" fill="#201F1E"/>
</svg>
