<svg width="32" height="32" viewBox="0 0 32 32" fill="currentColor">
    <g clip-path="url(#clip0_734_79130)">
        <path d="M11.5 12.25C11.5 7.69375 15.1938 4 19.75 4C24.3062 4 28 7.69375 28 12.25C28 16.8062 24.3062 20.5 19.75 20.5C18.8734 20.5 18.025 20.3641 17.2328 20.1109L11.8891 14.7672C11.6359 13.975 11.5 13.1266 11.5 12.25ZM21.625 8.5C20.5891 8.5 19.75 9.33906 19.75 10.375C19.75 11.4109 20.5891 12.25 21.625 12.25C22.6609 12.25 23.5 11.4109 23.5 10.375C23.5 9.33906 22.6609 8.5 21.625 8.5Z"/>
        <path opacity="0.4" d="M11.8891 14.7672L17.2328 20.111L15.6297 21.6297C15.4609 21.8828 15.175 22 14.875 22H13V23.875C13 24.4985 12.4984 25 11.875 25H10V26.875C10 27.4985 9.49844 28 8.875 28H5.125C4.50391 28 4 27.4985 4 26.875V23.125C4 22.825 4.11855 22.5391 4.32948 22.3281L11.8891 14.7672Z"/>
    </g>
    <defs>
        <clipPath id="clip0_734_79130">
            <rect width="24" height="24" fill="white" transform="translate(4 4)"/>
        </clipPath>
    </defs>
</svg>
