<svg width="32" height="32" viewBox="0 0 32 32" fill="currentColor">
    <path d="M28.1841 12.3637L25.1731 9.32377C24.6506 8.79632 23.9421 8.5 23.2033 8.5H21.5714V5.6875C21.5714 4.13418 20.3242 2.875 18.7857 2.875H15.2215C14.699 1.76746 13.5796 1 12.2857 1C10.9919 1 9.87247 1.76746 9.34992 2.875H5.78571C4.24719 2.875 3 4.13418 3 5.6875V22.5625C3 24.1158 4.24719 25.375 5.78571 25.375H10.4286V28.1875C10.4286 29.7408 11.6758 31 13.2143 31H26.2143C27.7528 31 29 29.7408 29 28.1875V14.3525C29 13.6065 28.7065 12.8912 28.1841 12.3637ZM23.3052 11.4154L26.1123 14.2495C26.1446 14.2822 26.1703 14.3209 26.1878 14.3636C26.2053 14.4062 26.2143 14.452 26.2143 14.4981V15.0625H22.5V11.3125H23.059C23.1047 11.3125 23.15 11.3216 23.1923 11.3392C23.2345 11.3569 23.2729 11.3828 23.3052 11.4154ZM12.2857 3.22656C12.8626 3.22656 13.3304 3.69877 13.3304 4.28125C13.3304 4.86373 12.8626 5.33594 12.2857 5.33594C11.7088 5.33594 11.2411 4.86373 11.2411 4.28125C11.2411 3.69877 11.7088 3.22656 12.2857 3.22656ZM10.4286 11.3125V22.5625H6.13393C6.04158 22.5625 5.95301 22.5255 5.8877 22.4595C5.8224 22.3936 5.78571 22.3042 5.78571 22.2109V6.03906C5.78571 5.94582 5.8224 5.8564 5.8877 5.79047C5.95301 5.72454 6.04158 5.6875 6.13393 5.6875H9.34992C9.87247 6.79504 10.9919 7.5625 12.2857 7.5625C13.5796 7.5625 14.699 6.79504 15.2215 5.6875H18.4375C18.5299 5.6875 18.6184 5.72454 18.6837 5.79047C18.749 5.8564 18.7857 5.94582 18.7857 6.03906V8.5H13.2143C11.6758 8.5 10.4286 9.75918 10.4286 11.3125ZM25.8661 28.1875H13.5625C13.4701 28.1875 13.3816 28.1505 13.3163 28.0845C13.251 28.0186 13.2143 27.9292 13.2143 27.8359V11.6641C13.2143 11.5708 13.251 11.4814 13.3163 11.4155C13.3816 11.3495 13.4701 11.3125 13.5625 11.3125H19.7143V16.4688C19.7143 17.2454 20.3379 17.875 21.1071 17.875H26.2143V27.8359C26.2143 27.9292 26.1776 28.0186 26.1123 28.0845C26.047 28.1505 25.9584 28.1875 25.8661 28.1875Z"/>
</svg>
