<svg width="32" height="32" viewBox="0 0 32 32" fill="currentColor">
<path d="M9 4C7.34531 4 6 5.34531 6 7V25C6 26.6547 7.34531 28 9 28H21C22.6547 28 24 26.6547 24 25V11.5H18C17.1703 11.5 16.5 10.8297 16.5 10V4H9ZM18 4V10H24L18 4ZM9 14.5H10.125C11.5734 14.5 12.75 15.6766 12.75 17.125C12.75 18.5734 11.5734 19.75 10.125 19.75H9.75V21.25C9.75 21.6625 9.4125 22 9 22C8.5875 22 8.25 21.6625 8.25 21.25V19V15.25C8.25 14.8375 8.5875 14.5 9 14.5ZM10.125 18.25C10.7484 18.25 11.25 17.7484 11.25 17.125C11.25 16.5016 10.7484 16 10.125 16H9.75V18.25H10.125ZM13.5 15.25C13.5 14.8375 13.8375 14.5 14.25 14.5H15.375C16.6172 14.5 17.625 15.5078 17.625 16.75V19.75C17.625 20.9922 16.6172 22 15.375 22H14.25C13.8375 22 13.5 21.6625 13.5 21.25V15.25ZM15 20.5H15.375C15.7875 20.5 16.125 20.1625 16.125 19.75V16.75C16.125 16.3375 15.7875 16 15.375 16H15V20.5ZM19.5 14.5H21.75C22.1625 14.5 22.5 14.8375 22.5 15.25C22.5 15.6625 22.1625 16 21.75 16H20.25V17.5H21.75C22.1625 17.5 22.5 17.8375 22.5 18.25C22.5 18.6625 22.1625 19 21.75 19H20.25V21.25C20.25 21.6625 19.9125 22 19.5 22C19.0875 22 18.75 21.6625 18.75 21.25V18.25V15.25C18.75 14.8375 19.0875 14.5 19.5 14.5Z"/>
</svg>
