<svg width="32" height="32" viewBox="0 0 32 32" fill="currentColor">
    <path d="M29.9378 6.60156L25.3986 2.0623C24.6907 1.35391 23.7626 1 22.8345 1C21.9064 1 20.9782 1.35391 20.2704 2.0623L14.8534 7.4793L9.00395 9.13223C8.41546 9.29856 7.87659 9.60628 7.43427 10.0286C6.99196 10.4509 6.65963 10.9749 6.46624 11.5551L1 27.9531L4.04689 31L20.445 25.5338C21.0252 25.3404 21.5492 25.0081 21.9715 24.5658C22.3938 24.1234 22.7015 23.5846 22.8679 22.9961L24.5208 17.1467L29.9378 11.7297C31.3541 10.3135 31.3541 8.01777 29.9378 6.60156ZM20.1614 22.2314C20.077 22.5303 19.8503 22.7676 19.5556 22.866L5.91194 27.4135L11.9817 21.3438C12.3485 21.5189 12.754 21.625 13.1876 21.625C14.7409 21.625 16.0001 20.3658 16.0001 18.8125C16.0001 17.2592 14.7409 16 13.1876 16C11.6342 16 10.375 17.2592 10.375 18.8125C10.375 19.2461 10.4811 19.6516 10.6563 20.0184L4.58654 26.0881L9.13461 12.4445C9.23305 12.1498 9.46977 11.9236 9.76918 11.8387L15.6186 10.1857L15.6802 10.1682L21.8325 16.3205L21.8155 16.3814L20.1614 22.2314ZM27.9492 9.74102L23.5892 14.101L17.8991 8.41094L22.2591 4.05098C22.3933 3.9168 22.9429 3.58398 23.4099 4.05098L27.9492 8.59023C28.2667 8.90723 28.2667 9.42344 27.9492 9.74102Z"/>
</svg>
