<svg width="32" height="32" viewBox="0 0 32 32" fill="none" xmlns="http://www.w3.org/2000/svg">
    <path d="M25.7356 13.8886L12.0568 27.5615L10.0683 25.573L10.2736 25.3677H7.56955C7.05337 25.3677 6.63104 24.9454 6.63104 24.4292V21.7251L6.42633 21.9304C6.14888 22.212 5.94534 22.5522 5.83448 22.9276L4.48655 27.5145L9.07116 26.1654C9.39377 26.054 9.78677 25.8487 10.0683 25.573L12.0568 27.5615C11.4468 28.1715 10.6901 28.6231 9.86303 28.8636L2.80486 30.9401C2.31097 31.0867 1.7766 30.9518 1.41234 30.5354C1.04807 30.2245 0.911884 29.6907 1.05724 29.1921L3.13333 22.1357C3.37735 21.3086 3.8249 20.552 4.43551 19.9419L18.1102 6.26553L25.7356 13.8886ZM29.9002 4.41256C31.3666 5.8784 31.3666 8.25752 29.9002 9.72394L27.0612 12.5629L19.4358 4.93871L22.2748 2.09973C23.7412 0.633424 26.1227 0.633424 27.5891 2.09973L29.9002 4.41256Z" fill="#201F1E"/>
</svg>
