<svg width="32" height="32" viewBox="0 0 32 32" fill="none" xmlns="http://www.w3.org/2000/svg">
    <path d="M18.7857 18.8125H13.2143C7.57321 18.8125 3 23.4297 3 29.125C3 30.1604 3.83165 31 4.85714 31H27.1429C28.1684 31 29 30.1604 29 29.125C29 23.4297 24.4268 18.8125 18.7857 18.8125ZM5.84317 28.1875C6.30165 24.4902 9.43036 21.625 13.2143 21.625H18.7857C22.5673 21.625 25.6978 24.4932 26.1563 28.1875H5.84317ZM16 16C20.1025 16 23.4286 12.642 23.4286 8.5C23.4286 4.35801 20.1025 1 16 1C11.8975 1 8.57143 4.35801 8.57143 8.5C8.57143 12.6426 11.8969 16 16 16ZM16 3.8125C18.56 3.8125 20.6429 5.91543 20.6429 8.5C20.6429 11.0846 18.56 13.1875 16 13.1875C13.44 13.1875 11.3571 11.084 11.3571 8.5C11.3571 5.91543 13.4406 3.8125 16 3.8125Z" fill="#201F1E"/>
</svg>
