<svg width="32" height="32" viewBox="0 0 32 32" fill="currentColor">
    <g clip-path="url(#clip0_2341_79525)">
        <path d="M11.7297 5.15308C11.3687 4.28121 10.4172 3.81715 9.50781 4.06558L5.38281 5.19058C4.56719 5.41558 4 6.15621 4 6.99996C4 18.5968 13.4031 28 25 28C25.8438 28 26.5844 27.4328 26.8094 26.6171L27.9344 22.4921C28.1828 21.5828 27.7188 20.6312 26.8469 20.2703L22.3469 18.3953C21.5828 18.0765 20.6969 18.2968 20.1766 18.939L18.2828 21.25C14.9828 19.689 12.3109 17.0171 10.75 13.7171L13.0609 11.8281C13.7031 11.3031 13.9234 10.4218 13.6047 9.65777L11.7297 5.15777V5.15308Z"/>
    </g>
    <defs>
        <clipPath id="clip0_2341_79525">
            <rect width="24" height="24" fill="white" transform="translate(4 4)"/>
        </clipPath>
    </defs>
</svg>
