<svg width="32" height="32" viewBox="0 0 32 32" fill="none" xmlns="http://www.w3.org/2000/svg">
    <path d="M7.42857 4C5.5375 4 4 5.5375 4 7.42857V24.5714C4 26.4625 5.5375 28 7.42857 28H24.5714C26.4625 28 28 26.4625 28 24.5714V7.42857C28 5.5375 26.4625 4 24.5714 4H7.42857ZM14.7143 20.7143V17.2857H11.2857C10.5732 17.2857 10 16.7125 10 16C10 15.2875 10.5732 14.7143 11.2857 14.7143H14.7143V11.2857C14.7143 10.5732 15.2875 10 16 10C16.7125 10 17.2857 10.5732 17.2857 11.2857V14.7143H20.7143C21.4268 14.7143 22 15.2875 22 16C22 16.7125 21.4268 17.2857 20.7143 17.2857H17.2857V20.7143C17.2857 21.4268 16.7125 22 16 22C15.2875 22 14.7143 21.4268 14.7143 20.7143Z" fill="black"/>
</svg>
