<svg width="32" height="32" viewBox="0 0 32 32" fill="currentColor">
<path d="M9.93729 10.3316H13.4217C16.5428 5.18702 21.3318 4.99952 24.2381 5.53859C24.6912 5.62452 25.0467 5.97609 25.1287 6.42921C25.6678 9.33546 25.4803 14.1245 20.3357 17.2456V20.7339C20.3357 21.7261 19.8123 22.648 18.9568 23.1519L15.4998 25.2027C15.2107 25.3745 14.8514 25.3784 14.5584 25.2105C14.2654 25.0425 14.0857 24.7339 14.0857 24.3941V19.9136C14.0857 19.0308 13.7342 18.1831 13.1092 17.5581C12.4842 16.9331 11.6365 16.5816 10.7537 16.5816H6.27323C5.93729 16.5816 5.62479 16.4019 5.45683 16.1089C5.28886 15.8159 5.29276 15.4566 5.46464 15.1675L7.51542 11.7105C8.02323 10.855 8.9412 10.3316 9.93339 10.3316H9.93729ZM21.8982 10.3316C21.8982 9.91715 21.7336 9.51973 21.4406 9.2267C21.1476 8.93368 20.7501 8.76906 20.3357 8.76906C19.9213 8.76906 19.5239 8.93368 19.2309 9.2267C18.9379 9.51973 18.7732 9.91715 18.7732 10.3316C18.7732 10.746 18.9379 11.1434 19.2309 11.4364C19.5239 11.7294 19.9213 11.8941 20.3357 11.8941C20.7501 11.8941 21.1476 11.7294 21.4406 11.4364C21.7336 11.1434 21.8982 10.746 21.8982 10.3316ZM11.8396 23.6909C10.5037 25.0308 7.91386 25.2925 6.4412 25.3277C5.8162 25.3433 5.32401 24.8511 5.33964 24.2261C5.37479 22.7534 5.63651 20.1636 6.97636 18.8277C8.32011 17.4839 10.4959 17.4839 11.8396 18.8277C13.1834 20.1714 13.1834 22.3472 11.8396 23.6909ZM10.0154 22.2691C10.4607 21.8237 10.4607 21.0972 10.0154 20.6519C9.57011 20.2066 8.84354 20.2066 8.39823 20.6519C8.0037 21.0464 7.89042 21.7652 7.86308 22.2652C7.84354 22.5777 8.09354 22.8237 8.40604 22.8081C8.90604 22.7808 9.62479 22.6636 10.0193 22.273L10.0154 22.2691Z"/>
</svg>
