<svg width="32" height="33" viewBox="0 0 32 33" fill="none" xmlns="http://www.w3.org/2000/svg">
<path d="M31 4.71429V28.2857C31 30.0609 29.5609 31.5 27.7857 31.5H4.21429C2.43906 31.5 1 30.0609 1 28.2857V4.71429C1 2.93906 2.43906 1.5 4.21429 1.5H27.7857C29.5609 1.5 31 2.93906 31 4.71429ZM27.7857 27.8839V5.11607C27.7857 5.00951 27.7434 4.90732 27.668 4.83197C27.5927 4.75662 27.4905 4.71429 27.3839 4.71429H4.61607C4.50951 4.71429 4.40732 4.75662 4.33197 4.83197C4.25662 4.90732 4.21429 5.00951 4.21429 5.11607V27.8839C4.21429 27.9905 4.25662 28.0927 4.33197 28.168C4.40732 28.2434 4.50951 28.2857 4.61607 28.2857H27.3839C27.4905 28.2857 27.5927 28.2434 27.668 28.168C27.7434 28.0927 27.7857 27.9905 27.7857 27.8839V27.8839ZM16 7.25893C17.5533 7.25893 18.8125 8.51812 18.8125 10.0714C18.8125 11.6247 17.5533 12.8839 16 12.8839C14.4467 12.8839 13.1875 11.6247 13.1875 10.0714C13.1875 8.51812 14.4467 7.25893 16 7.25893ZM19.75 24.2679C19.75 24.7116 19.3902 25.0714 18.9464 25.0714H13.0536C12.6098 25.0714 12.25 24.7116 12.25 24.2679V22.6607C12.25 22.2169 12.6098 21.8571 13.0536 21.8571H13.8571V17.5714H13.0536C12.6098 17.5714 12.25 17.2116 12.25 16.7679V15.1607C12.25 14.7169 12.6098 14.3571 13.0536 14.3571H17.3393C17.7831 14.3571 18.1429 14.7169 18.1429 15.1607V21.8571H18.9464C19.3902 21.8571 19.75 22.2169 19.75 22.6607V24.2679Z" fill="#201F1E"/>
</svg>
