<svg width="32" height="33" viewBox="0 0 32 33" fill="none" xmlns="http://www.w3.org/2000/svg">
    <path d="M31 4.71429V28.2857C31 30.0609 29.5609 31.5 27.7857 31.5H4.21429C2.43906 31.5 1 30.0609 1 28.2857V4.71429C1 2.93906 2.43906 1.5 4.21429 1.5H27.7857C29.5609 1.5 31 2.93906 31 4.71429ZM27.7857 27.8839V5.11607C27.7857 5.00951 27.7434 4.90732 27.668 4.83197C27.5927 4.75662 27.4905 4.71429 27.3839 4.71429H4.61607C4.50951 4.71429 4.40732 4.75662 4.33197 4.83197C4.25662 4.90732 4.21429 5.00951 4.21429 5.11607V27.8839C4.21429 27.9905 4.25662 28.0927 4.33197 28.168C4.40732 28.2434 4.50951 28.2857 4.61607 28.2857H27.3839C27.4905 28.2857 27.5927 28.2434 27.668 28.168C27.7434 28.0927 27.7857 27.9905 27.7857 27.8839ZM23.1815 12.8036C23.1815 17.2937 18.3319 17.3628 18.3319 19.0221V19.4464C18.3319 19.8902 17.9721 20.25 17.5283 20.25H14.4716C14.0278 20.25 13.668 19.8902 13.668 19.4464V18.8666C13.668 16.4729 15.4828 15.5161 16.8541 14.7472C18.0301 14.0879 18.7508 13.6396 18.7508 12.7665C18.7508 11.6116 17.2777 10.8451 16.0867 10.8451C14.5339 10.8451 13.817 11.5801 12.8094 12.8519C12.5377 13.1948 12.0419 13.2585 11.6933 12.9942L9.83011 11.5813C9.48812 11.3221 9.41152 10.8403 9.65306 10.4856C11.2352 8.16234 13.2504 6.85714 16.388 6.85714C19.674 6.85714 23.1815 9.42214 23.1815 12.8036ZM18.8125 24C18.8125 25.5508 17.5508 26.8125 16 26.8125C14.4492 26.8125 13.1875 25.5508 13.1875 24C13.1875 22.4492 14.4492 21.1875 16 21.1875C17.5508 21.1875 18.8125 22.4492 18.8125 24Z" fill="#201F1E"/>
</svg>
