<svg width="32" height="32" viewBox="0 0 32 32" fill="currentColor">
<path d="M31 4.21429V27.7857C31 29.5609 29.5609 31 27.7857 31H4.21429C2.43906 31 1 29.5609 1 27.7857V4.21429C1 2.43906 2.43906 1 4.21429 1H27.7857C29.5609 1 31 2.43906 31 4.21429ZM27.7857 27.3839V4.61607C27.7857 4.50951 27.7434 4.40732 27.668 4.33197C27.5927 4.25662 27.4905 4.21429 27.3839 4.21429H4.61607C4.50951 4.21429 4.40732 4.25662 4.33197 4.33197C4.25662 4.40732 4.21429 4.50951 4.21429 4.61607V27.3839C4.21429 27.4905 4.25662 27.5927 4.33197 27.668C4.40732 27.7434 4.50951 27.7857 4.61607 27.7857H27.3839C27.4905 27.7857 27.5927 27.7434 27.668 27.668C27.7434 27.5927 27.7857 27.4905 27.7857 27.3839ZM23.1815 12.3036C23.1815 16.7937 18.3319 16.8628 18.3319 18.5221V18.9464C18.3319 19.3902 17.9721 19.75 17.5283 19.75H14.4716C14.0278 19.75 13.668 19.3902 13.668 18.9464V18.3666C13.668 15.9729 15.4828 15.0161 16.8541 14.2472C18.0301 13.5879 18.7508 13.1396 18.7508 12.2665C18.7508 11.1116 17.2777 10.3451 16.0867 10.3451C14.5339 10.3451 13.817 11.0801 12.8094 12.3519C12.5377 12.6948 12.0419 12.7585 11.6933 12.4942L9.83011 11.0813C9.48812 10.8221 9.41152 10.3403 9.65306 9.9856C11.2352 7.66234 13.2504 6.35714 16.388 6.35714C19.674 6.35714 23.1815 8.92214 23.1815 12.3036ZM18.8125 23.5C18.8125 25.0508 17.5508 26.3125 16 26.3125C14.4492 26.3125 13.1875 25.0508 13.1875 23.5C13.1875 21.9492 14.4492 20.6875 16 20.6875C17.5508 20.6875 18.8125 21.9492 18.8125 23.5Z"/>
</svg>
