<svg width="32" height="32" viewBox="0 0 32 32" fill="none" xmlns="http://www.w3.org/2000/svg">
    <path d="M11.4167 5H4.75C2.68229 5 1 6.58616 1 8.53571V14.0357C1 15.9853 2.68229 17.5714 4.75 17.5714H7.66667V17.9643C7.66667 19.0496 6.73438 19.9286 5.58333 19.9286H5.16667C3.78646 19.9286 2.66667 20.9844 2.66667 22.2857V24.6429C2.66667 25.9442 3.78646 27 5.16667 27H5.58333C10.8698 27 15.1667 22.9487 15.1667 17.9643V8.53571C15.1667 6.58616 13.4844 5 11.4167 5ZM12.6667 17.9643C12.6667 21.6473 9.48958 24.6429 5.58333 24.6429H5.16667V22.2857H5.58333C8.10938 22.2857 10.1667 20.346 10.1667 17.9643V15.2143H4.75C4.0625 15.2143 3.5 14.6839 3.5 14.0357V8.53571C3.5 7.8875 4.0625 7.35714 4.75 7.35714H11.4167C12.1042 7.35714 12.6667 7.8875 12.6667 8.53571V17.9643ZM27.25 5H20.5833C18.5156 5 16.8333 6.58616 16.8333 8.53571V14.0357C16.8333 15.9853 18.5156 17.5714 20.5833 17.5714H23.5V17.9643C23.5 19.0496 22.5677 19.9286 21.4167 19.9286H21C19.6198 19.9286 18.5 20.9844 18.5 22.2857V24.6429C18.5 25.9442 19.6198 27 21 27H21.4167C26.7031 27 31 22.9487 31 17.9643V8.53571C31 6.58616 29.3177 5 27.25 5ZM28.5 17.9643C28.5 21.6473 25.3229 24.6429 21.4167 24.6429H21V22.2857H21.4167C23.9427 22.2857 26 20.346 26 17.9643V15.2143H20.5833C19.8958 15.2143 19.3333 14.6839 19.3333 14.0357V8.53571C19.3333 7.8875 19.8958 7.35714 20.5833 7.35714H27.25C27.9375 7.35714 28.5 7.8875 28.5 8.53571V17.9643Z" fill="#201F1E"/>
</svg>
