<svg width="32" height="32" viewBox="0 0 32 32" fill="currentColor">
    <path d="M27.25 14.4286H24.3333V14.0357C24.3333 12.9504 25.2656 12.0714 26.4167 12.0714H26.8333C28.2135 12.0714 29.3333 11.0156 29.3333 9.71429V7.35714C29.3333 6.0558 28.2135 5 26.8333 5H26.4167C21.1302 5 16.8333 9.05134 16.8333 14.0357V23.4643C16.8333 25.4138 18.5156 27 20.5833 27H27.25C29.3177 27 31 25.4138 31 23.4643V17.9643C31 16.0147 29.3177 14.4286 27.25 14.4286ZM28.5 23.4643C28.5 24.1125 27.9375 24.6429 27.25 24.6429H20.5833C19.8958 24.6429 19.3333 24.1125 19.3333 23.4643V14.0357C19.3333 10.3527 22.5104 7.35714 26.4167 7.35714H26.8333V9.71429H26.4167C23.8906 9.71429 21.8333 11.654 21.8333 14.0357V16.7857H27.25C27.9375 16.7857 28.5 17.3161 28.5 17.9643V23.4643ZM11.4167 14.4286H8.5V14.0357C8.5 12.9504 9.43229 12.0714 10.5833 12.0714H11C12.3802 12.0714 13.5 11.0156 13.5 9.71429V7.35714C13.5 6.0558 12.3802 5 11 5H10.5833C5.29688 5 1 9.05134 1 14.0357V23.4643C1 25.4138 2.68229 27 4.75 27H11.4167C13.4844 27 15.1667 25.4138 15.1667 23.4643V17.9643C15.1667 16.0147 13.4844 14.4286 11.4167 14.4286ZM12.6667 23.4643C12.6667 24.1125 12.1042 24.6429 11.4167 24.6429H4.75C4.0625 24.6429 3.5 24.1125 3.5 23.4643V14.0357C3.5 10.3527 6.67708 7.35714 10.5833 7.35714H11V9.71429H10.5833C8.05729 9.71429 6 11.654 6 14.0357V16.7857H11.4167C12.1042 16.7857 12.6667 17.3161 12.6667 17.9643V23.4643Z"/>
</svg>
