<svg width="32" height="32" viewBox="0 0 32 32" fill="none" xmlns="http://www.w3.org/2000/svg">
<path d="M8.20838 14.2834C8.57206 13.3102 9.16246 12.3951 9.99375 11.6139C12.9458 8.82387 17.7304 8.82387 20.6824 11.6139L21.49 12.3817H19.1143C18.2783 12.3817 17.6028 13.0201 17.6028 13.8102C17.6028 14.6003 18.2783 15.2387 19.1143 15.2387H25.1363H25.1552C25.9912 15.2387 26.6667 14.6003 26.6667 13.8102V8.09623C26.6667 7.3061 25.9912 6.66774 25.1552 6.66774C24.3192 6.66774 23.6438 7.3061 23.6438 8.09623V10.3818L22.8173 9.59615C18.6844 5.69012 11.9869 5.69012 7.85414 9.59615C6.70167 10.6854 5.87039 11.9666 5.36028 13.337C5.08161 14.0825 5.49726 14.895 6.28131 15.1583C7.06536 15.4217 7.92971 15.0289 8.20838 14.2879V14.2834ZM5.08634 18.1537C4.85018 18.2207 4.62346 18.3412 4.43926 18.5198C4.25033 18.6983 4.1228 18.9126 4.05668 19.1447C4.04251 19.1983 4.02834 19.2563 4.01889 19.3144C4.00472 19.3902 4 19.4661 4 19.542V25.2381C4 26.0283 4.67542 26.6666 5.51143 26.6666C6.34743 26.6666 7.02285 26.0283 7.02285 25.2381V22.957L7.85414 23.7382C11.9869 27.6398 18.6844 27.6398 22.8125 23.7382C23.965 22.649 24.801 21.3678 25.3111 20.0018C25.5898 19.2563 25.1741 18.4439 24.3901 18.1805C23.606 17.9171 22.7417 18.3099 22.463 19.051C22.0993 20.0241 21.5089 20.9393 20.6776 21.7205C17.7256 24.5105 12.941 24.5105 9.98903 21.7205L9.9843 21.716L9.17663 20.9527H11.5571C12.3931 20.9527 13.0686 20.3143 13.0686 19.5242C13.0686 18.734 12.3931 18.0957 11.5571 18.0957H5.53032C5.45475 18.0957 5.37918 18.1001 5.3036 18.1091C5.22803 18.118 5.15719 18.1314 5.08634 18.1537Z" fill="#323130"/>
</svg>
