<svg width="32" height="32" viewBox="0 0 32 32" fill="currentColor">
    <path d="M9.3337 16C9.3337 12.2125 12.3182 9.14286 16.0007 9.14286C19.6831 9.14286 22.6676 12.2125 22.6676 16C22.6676 19.7875 19.6831 22.8571 16.0007 22.8571C12.3182 22.8571 9.3337 19.7875 9.3337 16ZM16.0007 20.2857C18.3028 20.2857 20.1675 18.3679 20.1675 16C20.1675 13.6321 18.3028 11.7143 16.0007 11.7143C15.9642 11.7143 15.9329 11.7143 15.8496 11.7143C15.9642 11.9875 16.0007 12.2768 16.0007 12.5714C16.0007 14.4625 14.5058 16 12.6672 16C12.3807 16 12.0994 15.9625 11.8338 15.8446C11.8338 15.9304 11.8338 15.9625 11.8338 15.9518C11.8338 18.3679 13.6985 20.2857 16.0007 20.2857ZM5.97001 8.31786C8.4222 5.97357 11.7921 4 16.0007 4C20.2092 4 23.5791 5.97357 26.0323 8.31786C28.4699 10.6429 30.1002 13.3804 30.8711 15.3411C31.043 15.7643 31.043 16.2357 30.8711 16.6589C30.1002 18.5714 28.4699 21.3089 26.0323 23.6821C23.5791 26.0286 20.2092 28 16.0007 28C11.7921 28 8.4222 26.0286 5.97001 23.6821C3.53241 21.3089 1.90317 18.5714 1.12819 16.6589C0.95727 16.2357 0.95727 15.7643 1.12819 15.3411C1.90317 13.3804 3.53241 10.6429 5.97001 8.31786ZM16.0007 6.57143C12.6047 6.57143 9.81289 8.15714 7.67217 10.1982C5.66687 12.1161 4.28244 14.3446 3.57512 16C4.28244 17.6071 5.66687 19.8839 7.67217 21.8018C9.81289 23.8429 12.6047 25.4286 16.0007 25.4286C19.3966 25.4286 22.1884 23.8429 24.3291 21.8018C26.3344 19.8839 27.673 17.6071 28.4283 16C27.673 14.3446 26.3344 12.1161 24.3291 10.1982C22.1884 8.15714 19.3966 6.57143 16.0007 6.57143Z"/>
</svg>
