<svg width="32" height="32" viewBox="0 0 32 32" fill="none" xmlns="http://www.w3.org/2000/svg">
<path d="M16.0001 10.6667C16.3667 10.6667 16.6667 10.9667 16.6667 11.3334V12H17.3334C17.7001 12 18.0001 12.3 18.0001 12.6667C18.0001 13.0334 17.7001 13.3334 17.3334 13.3334H16.0001C15.6334 13.3334 15.3334 13.0334 15.3334 12.6667V11.3334C15.3334 10.9667 15.6334 10.6667 16.0001 10.6667ZM22.5334 9.4192L27.7667 10.5459C28.6834 10.7875 29.3334 11.5959 29.3334 12.5334V24.6667C29.3334 25.7709 28.4376 26.6667 27.3334 26.6667H4.66675C3.56216 26.6667 2.66675 25.7709 2.66675 24.6667V12.5334C2.66675 11.5959 3.318 10.7875 4.233 10.5459L9.46675 9.4192L15.2584 5.55728C15.6709 5.25874 16.2917 5.25874 16.7417 5.55728L22.5334 9.4192ZM13.3334 26.6667H18.6667V22.6667C18.6667 21.1959 17.4709 20 16.0001 20C14.5292 20 13.3334 21.1959 13.3334 22.6667V26.6667ZM6.66675 13.3334C6.29841 13.3334 6.00008 13.6334 6.00008 14V16.6667C6.00008 17.0334 6.29841 17.3334 6.66675 17.3334H8.00008C8.36675 17.3334 8.66675 17.0334 8.66675 16.6667V14C8.66675 13.6334 8.36675 13.3334 8.00008 13.3334H6.66675ZM23.3334 16.6667C23.3334 17.0334 23.6334 17.3334 24.0001 17.3334H25.3334C25.7001 17.3334 26.0001 17.0334 26.0001 16.6667V14C26.0001 13.6334 25.7001 13.3334 25.3334 13.3334H24.0001C23.6334 13.3334 23.3334 13.6334 23.3334 14V16.6667ZM6.66675 18.6667C6.29841 18.6667 6.00008 18.9667 6.00008 19.3334V22C6.00008 22.3667 6.29841 22.6667 6.66675 22.6667H8.00008C8.36675 22.6667 8.66675 22.3667 8.66675 22V19.3334C8.66675 18.9667 8.36675 18.6667 8.00008 18.6667H6.66675ZM23.3334 22C23.3334 22.3667 23.6334 22.6667 24.0001 22.6667H25.3334C25.7001 22.6667 26.0001 22.3667 26.0001 22V19.3334C26.0001 18.9667 25.7001 18.6667 25.3334 18.6667H24.0001C23.6334 18.6667 23.3334 18.9667 23.3334 19.3334V22ZM16.0001 9.00003C13.9751 9.00003 12.3334 10.6417 12.3334 12.6667C12.3334 14.6917 13.9751 16.3334 16.0001 16.3334C18.0251 16.3334 19.6667 14.6917 19.6667 12.6667C19.6667 10.6417 18.0251 9.00003 16.0001 9.00003Z" fill="#201F1E"/>
</svg>
