<svg width="32" height="32" viewBox="0 0 32 32" fill="none" xmlns="http://www.w3.org/2000/svg">
    <path d="M30.3145 26.9953L23.3008 19.9823C24.8957 17.6148 25.6826 14.6567 25.2614 11.5047C24.543 6.14338 20.1484 1.78037 14.7812 1.10093C6.80132 0.0912877 0.0911399 6.80073 1.10095 14.7798C1.78064 20.1487 6.14472 24.5463 11.5072 25.2611C14.6596 25.6822 17.6186 24.8957 19.9858 23.3007L26.9995 30.3137C27.9147 31.2288 29.3989 31.2288 30.3141 30.3137C31.2286 29.3973 31.2286 27.9092 30.3145 26.9953ZM5.63472 13.1862C5.63472 9.05107 8.99918 5.68698 13.1347 5.68698C17.2703 5.68698 20.6348 9.05107 20.6348 13.1862C20.6348 17.3213 17.2703 20.6854 13.1347 20.6854C8.99918 20.6854 5.63472 17.3225 5.63472 13.1862Z" fill="#201F1E"/>
</svg>
