<svg width="32" height="32" viewBox="0 0 32 32" fill="currentColor">
    <path d="M30.914 10.7617C31.1191 11.2656 30.9451 11.834 30.5223 12.2031L27.8306 14.5117C27.8989 14.998 27.9362 15.4961 27.9362 16C27.9362 16.5039 27.8989 17.002 27.8306 17.4883L30.5223 19.7969C30.9451 20.166 31.1191 20.7344 30.914 21.2383C30.6405 21.9355 30.311 22.6094 29.938 23.248L29.6458 23.7227C29.2355 24.3672 28.7755 24.9766 28.2719 25.5566C27.8989 25.9727 27.2959 26.1191 26.7489 25.9551L23.2863 24.9121C22.4532 25.5156 21.4772 26.0195 20.551 26.4062L19.7739 29.752C19.6496 30.2793 19.2144 30.6543 18.6425 30.7949C17.7846 30.9297 16.9018 31 15.9445 31C15.099 31 14.2163 30.9297 13.3584 30.7949C12.7865 30.6543 12.3513 30.2793 12.227 29.752L11.4499 26.4062C10.4677 26.0195 9.54766 25.5156 8.71464 24.9121L5.2545 25.9551C4.70495 26.1191 4.09884 25.9727 3.73082 25.5566C3.22665 24.9766 2.76663 24.3672 2.35633 23.7227L2.0654 23.248C1.68805 22.6094 1.35982 21.9355 1.08443 21.2383C0.883009 20.7344 1.05272 20.166 1.47918 19.7969L4.16846 17.4883C4.10008 17.002 4.06465 16.5039 4.06465 16C4.06465 15.4961 4.10008 14.998 4.16846 14.5117L1.47918 12.2031C1.05272 11.834 0.883009 11.2715 1.08443 10.7617C1.35982 10.0645 1.68868 9.39062 2.0654 8.75195L2.35571 8.27734C2.76663 7.63281 3.22665 7.02344 3.73082 6.44629C4.09884 6.02734 4.70495 5.88203 5.2545 6.04727L8.71464 7.08789C9.54766 6.48203 10.4677 5.97813 11.4499 5.59551L12.227 2.2498C12.3513 1.71777 12.7865 1.29531 13.3584 1.20566C14.2163 1.07037 15.099 1 16.0004 1C16.9018 1 17.7846 1.07037 18.6425 1.20566C19.2144 1.29531 19.6496 1.71777 19.7739 2.2498L20.551 5.59551C21.4772 5.97813 22.4532 6.48203 23.2863 7.08789L26.7489 6.04727C27.2959 5.88203 27.8989 6.02734 28.2719 6.44629C28.7755 7.02344 29.2355 7.63281 29.6458 8.27734L29.938 8.75195C30.311 9.39062 30.6405 10.0645 30.914 10.7617ZM16.0004 20.6875C18.7482 20.6875 20.9737 18.5898 20.9737 15.9473C20.9737 13.4102 18.7482 11.2598 16.0004 11.2598C13.2527 11.2598 11.0272 13.4102 11.0272 15.9473C11.0272 18.5898 13.2527 20.6875 16.0004 20.6875Z"/>
</svg>
