<svg width="32" height="33" viewBox="0 0 32 33" fill="currentColor">
<g clip-path="url(#clip0_5827_88944)">
<path d="M19.168 3.67335C18.864 3.16135 18.304 2.84668 17.7067 2.84668C17.1093 2.84668 16.5493 3.16135 16.2453 3.67335L11.1253 12.2067C10.8107 12.7347 10.8 13.3907 11.104 13.924C11.408 14.4573 11.9733 14.788 12.5867 14.788H22.8267C23.44 14.788 24.0107 14.4573 24.3093 13.924C24.608 13.3907 24.6027 12.7347 24.288 12.2067L19.168 3.67335ZM17.7067 19.4867V27.1667C17.7067 28.3453 18.6613 29.3 19.84 29.3H27.52C28.6987 29.3 29.6533 28.3453 29.6533 27.1667V19.4867C29.6533 18.308 28.6987 17.3533 27.52 17.3533H19.84C18.6613 17.3533 17.7067 18.308 17.7067 19.4867ZM9.17335 30.1533C12.944 30.1533 16 27.0973 16 23.3267C16 19.556 12.944 16.5 9.17335 16.5C5.40268 16.5 2.34668 19.556 2.34668 23.3267C2.34668 27.0973 5.40268 30.1533 9.17335 30.1533Z"/>
</g>
<defs>
<clipPath id="clip0_5827_88944">
<rect width="27.3067" height="27.3067" transform="translate(2.34668 2.84668)"/>
</clipPath>
</defs>
</svg>
