<svg width="33" height="32" viewBox="0 0 33 32" fill="currentColor">
    <path d="M31.5 7.3683C31.5 10.9777 28.6205 13.7969 25.0714 13.7969C23.3371 13.7969 21.7634 13.1741 20.6116 12.0558L14.3103 15.2031C14.3438 15.4643 14.2969 15.6719 14.2969 16C14.2969 16.2679 14.3438 16.4754 14.3103 16.7969L20.6116 19.9442C21.7634 18.8259 23.3371 18.1429 25.0714 18.1429C28.6205 18.1429 31.5 20.9621 31.5 24.5714C31.5 28.1205 28.6205 31 25.0714 31C21.4621 31 18.6429 28.1205 18.6429 24.5714C18.6429 24.2433 18.6562 24.0357 18.6897 23.7746L12.3884 20.6272C11.2366 21.7455 9.66295 22.4286 7.92857 22.4286C4.37812 22.4286 1.5 19.5491 1.5 16C1.5 12.3906 4.37812 9.57143 7.92857 9.57143C9.66295 9.57143 11.2366 10.2545 12.3884 11.3728L18.6897 8.22545C18.6562 7.90402 18.6429 7.69643 18.6429 7.42857C18.6429 3.87812 21.4621 1 25.0714 1C28.6205 1 31.5 3.87812 31.5 7.42857V7.3683ZM7.8683 18.0826C9.11384 18.0826 10.0112 17.1853 10.0112 15.9397C10.0112 14.8147 9.11384 13.7969 7.8683 13.7969C6.74531 13.7969 5.72545 14.8147 5.72545 15.9397C5.72545 17.1853 6.74531 18.0826 7.8683 18.0826ZM25.0714 5.22545C23.8862 5.22545 22.9286 6.2433 22.9286 7.3683C22.9286 8.61384 23.8862 9.51116 25.0714 9.51116C26.2567 9.51116 27.2143 8.61384 27.2143 7.3683C27.2143 6.2433 26.2567 5.22545 25.0714 5.22545ZM25.0714 26.7143C26.2567 26.7143 27.2143 25.7567 27.2143 24.5714C27.2143 23.3862 26.2567 22.4286 25.0714 22.4286C23.8862 22.4286 22.9286 23.3862 22.9286 24.5714C22.9286 25.7567 23.8862 26.7143 25.0714 26.7143Z"/>
</svg>
