<svg width="32" height="32" viewBox="0 0 32 32" fill="none" xmlns="http://www.w3.org/2000/svg">
    <path d="M13.2946 3.2815C13.6854 2.90587 14.3189 2.90621 14.7093 3.28226C17.1894 5.67141 19.9378 6.84615 23 6.84615C23.5523 6.84615 24 7.27665 24 7.80769V9.92252C23.3664 9.61109 22.6973 9.357 22 9.16737V8.7331C19.039 8.5172 16.3704 7.33708 14.0008 5.28687C11.6279 7.33637 8.95881 8.5169 6 8.73304V13.5793C6 16.3309 6.72251 18.502 8.0347 20.1925C8.13936 21.4635 8.47767 22.6712 9.00835 23.776C5.68961 21.44 4 18.0197 4 13.5793V7.80769C4 7.27665 4.44772 6.84615 5 6.84615C8.05845 6.84615 10.8083 5.67119 13.2946 3.2815ZM28 19.3462C28 24.1255 23.9706 28 19 28C14.0294 28 10 24.1255 10 19.3462C10 14.5668 14.0294 10.6923 19 10.6923C23.9706 10.6923 28 14.5668 28 19.3462ZM23.7071 15.7816C23.3166 15.4061 22.6834 15.4061 22.2929 15.7816L17 20.8709L15.7071 19.6278C15.3166 19.2523 14.6834 19.2523 14.2929 19.6278C13.9024 20.0033 13.9024 20.6121 14.2929 20.9876L16.2929 22.9107C16.6834 23.2862 17.3166 23.2862 17.7071 22.9107L23.7071 17.1414C24.0976 16.7659 24.0976 16.1571 23.7071 15.7816Z" fill="#201F1E"/>
</svg>
