<svg width="32" height="32" viewBox="0 0 32 32" fill="none" xmlns="http://www.w3.org/2000/svg">
<path d="M16.0007 5.33325L16.448 5.51763L24.5183 8.87414L25.265 9.18423L25.3117 10.0475C25.4245 12.1301 25.1211 15.3106 23.861 18.4199C22.5892 21.5543 20.3178 24.6678 16.4908 26.4403L16.0007 26.6666L15.5107 26.4403C11.6836 24.6678 9.41227 21.5543 8.14048 18.4199C6.87646 15.3064 6.57309 12.1259 6.68977 10.0433L6.73644 9.18004L7.48319 8.87414L15.5535 5.52182L16.0007 5.33325ZM20.3956 13.8523L21.0568 13.14L19.7344 11.7194L19.0733 12.4318L14.7562 17.0831L12.9282 15.1137L12.267 14.4013L10.9485 15.8218L11.6097 16.5342L14.0989 19.2161L14.76 19.9284L15.4212 19.2161L20.3956 13.8523Z" fill="#201F1E"/>
</svg>
