<svg width="24" height="24" viewBox="0 0 24 24" fill="currentColor">
<path d="M23.9131 17.4571C23.7477 17.0036 23.429 16.7584 23.0674 16.5623C23 16.5255 22.9387 16.4888 22.8835 16.4643C22.7732 16.4091 22.6629 16.3539 22.5526 16.2988C21.4249 15.6982 20.5424 14.9505 19.9357 14.0557C19.7641 13.8044 19.6109 13.5348 19.4883 13.259C19.4331 13.1119 19.4393 13.0261 19.476 12.9464C19.5128 12.8852 19.5618 12.8361 19.6231 12.7932C19.8192 12.6645 20.0154 12.5358 20.1502 12.45C20.3892 12.2907 20.5853 12.1681 20.7079 12.0823C21.1675 11.7575 21.4923 11.4143 21.6946 11.0282C21.9826 10.4889 22.0194 9.85764 21.7988 9.28768C21.4923 8.47871 20.7324 7.98229 19.807 7.98229C19.6109 7.98229 19.4209 8.00068 19.2248 8.04358C19.1757 8.05583 19.1206 8.06809 19.0716 8.08035C19.0777 7.52878 19.0654 6.94656 19.0164 6.37047C18.8448 4.35417 18.1339 3.30005 17.3985 2.46043C16.9266 1.93337 16.375 1.48599 15.756 1.13666C14.6406 0.499284 13.372 0.174469 11.993 0.174469C10.6141 0.174469 9.35162 0.499284 8.23621 1.13666C7.61723 1.48599 7.06565 1.93337 6.59375 2.46043C5.85832 3.30005 5.15353 4.36029 4.9758 6.37047C4.92678 6.94656 4.91452 7.52878 4.92065 8.08035C4.87162 8.06809 4.82259 8.05583 4.76743 8.04358C4.57745 8.00068 4.38133 7.98229 4.19134 7.98229C3.26593 7.98229 2.50598 8.48483 2.19955 9.28768C1.97892 9.85764 2.0157 10.4889 2.30374 11.0282C2.50598 11.4143 2.8308 11.7575 3.29044 12.0823C3.41301 12.1681 3.603 12.2907 3.84814 12.45C3.97684 12.5358 4.16683 12.6584 4.35682 12.781C4.42423 12.8239 4.47939 12.879 4.52229 12.9464C4.55906 13.0261 4.56519 13.1119 4.5039 13.2713C4.38133 13.5409 4.23424 13.8045 4.06264 14.0496C3.46817 14.9199 2.61017 15.6614 1.51928 16.2559C0.943193 16.5623 0.342591 16.7646 0.0851904 17.4571C-0.104796 17.978 0.017776 18.5664 0.501934 19.0689C0.679664 19.2528 0.888036 19.4121 1.11479 19.5347C1.58669 19.7921 2.08924 19.9943 2.6163 20.1353C2.72661 20.1659 2.82467 20.2088 2.9166 20.2701C3.09433 20.4233 3.06981 20.6562 3.3027 20.9994C3.41914 21.1771 3.57236 21.3304 3.74396 21.4529C4.24037 21.7961 4.79807 21.8145 5.38642 21.839C5.91961 21.8574 6.52021 21.8819 7.21274 22.1087C7.50078 22.2006 7.79495 22.3845 8.13815 22.599C8.96551 23.1076 10.0932 23.8002 11.9869 23.8002C13.8806 23.8002 15.0144 23.1015 15.8479 22.5928C16.1911 22.3845 16.4853 22.2006 16.7611 22.1087C17.4475 21.8819 18.0542 21.8574 18.5874 21.839C19.1757 21.8145 19.7334 21.7961 20.2299 21.4529C20.4382 21.3058 20.6098 21.122 20.7324 20.9014C20.904 20.6133 20.8979 20.4111 21.0572 20.2701C21.143 20.2088 21.2411 20.1659 21.3391 20.1414C21.8662 20.0005 22.381 19.7982 22.859 19.5347C23.098 19.406 23.3187 19.2344 23.5025 19.0321L23.5087 19.026C23.9867 18.5357 24.1031 17.9596 23.9131 17.4571ZM22.2339 18.358C21.2104 18.9218 20.524 18.8605 19.997 19.2037C19.5435 19.4918 19.8131 20.1169 19.4883 20.3437C19.0838 20.6194 17.8949 20.3253 16.3627 20.8339C15.0941 21.2507 14.2913 22.458 12.0114 22.458C9.73159 22.458 8.94713 21.2568 7.66013 20.8339C6.12798 20.3253 4.93903 20.6256 4.53455 20.3437C4.20973 20.1169 4.47326 19.4918 4.02587 19.2037C3.49269 18.8605 2.81241 18.9218 1.78894 18.358C1.13318 17.9964 1.50702 17.7758 1.72152 17.6716C5.43545 15.8759 6.02992 13.0997 6.05444 12.8913C6.08508 12.64 6.12185 12.4439 5.84606 12.1926C5.58253 11.9475 4.40585 11.2182 4.0749 10.9914C3.53559 10.6115 3.29657 10.2376 3.4743 9.77184C3.59687 9.45315 3.89717 9.33058 4.20973 9.33058C4.30779 9.33058 4.40585 9.34284 4.5039 9.36122C5.09838 9.48992 5.67446 9.7841 6.00541 9.8699C6.04831 9.88215 6.08508 9.88828 6.12798 9.88828C6.30571 9.88828 6.36699 9.79635 6.35474 9.59411C6.31797 8.94448 6.22604 7.68199 6.33022 6.49917C6.47118 4.8751 6.99211 4.06612 7.61723 3.35521C7.91753 3.01201 9.32097 1.52889 12.0114 1.52889C14.7019 1.52889 16.1053 3.00588 16.4056 3.34908C17.0307 4.05999 17.5517 4.86897 17.6926 6.49304C17.7968 7.67586 17.7049 8.93835 17.662 9.58798C17.6497 9.80248 17.711 9.88215 17.8887 9.88215C17.9316 9.88215 17.9684 9.87602 18.0113 9.86377C18.3423 9.78409 18.9183 9.4838 19.5128 9.35509C19.6109 9.33058 19.7089 9.32445 19.807 9.32445C20.1195 9.32445 20.4198 9.44702 20.5424 9.76571C20.7201 10.2315 20.4811 10.6053 19.9418 10.9853C19.617 11.2121 18.4403 11.9414 18.1707 12.1865C17.8949 12.4378 17.9316 12.6339 17.9623 12.8852C17.9868 13.0935 18.5813 15.8698 22.2952 17.6655C22.5158 17.7696 22.8835 17.9964 22.2339 18.358Z" fill="currentColor"/>
</svg>
