<svg width="24" height="24" viewBox="0 0 24 24" fill="none" xmlns="http://www.w3.org/2000/svg">
    <path d="M4.47105 8.15625L10.8437 1.48958C11.2001 1.16146 11.6113 1 12.0224 1C12.4335 1 12.8437 1.16276 13.157 1.48828L19.5297 8.15495C19.9887 8.63182 20.1263 9.34818 19.8778 9.97162C19.6292 10.5951 19.0869 11 18.395 11H5.60518C4.95639 11 4.37077 10.5947 4.12209 9.97135C3.8734 9.34797 4.01195 8.63021 4.47105 8.15625Z" fill="#201F1E"/>
    <path d="M19.5607 15.8438L13.1925 22.5104C12.8368 22.8385 12.4259 23 12.015 23C11.6042 23 11.1943 22.8372 10.8812 22.5117L4.51293 15.8451C4.00961 15.3698 3.8723 14.651 4.12052 14.0313C4.36873 13.4115 4.95385 13 5.6017 13H18.3833C19.0316 13 19.6169 13.4053 19.8654 14.0286C20.1139 14.652 20.0217 15.3698 19.5607 15.8438Z" fill="#201F1E"/>
</svg>
