<svg width="32" height="32" viewBox="0 0 32 32" fill="currentColor">
    <path d="M20.8308 11.9992C20.8308 13.1047 21.7404 13.9428 22.8648 13.9428L26.9327 13.999C28.0571 13.999 28.9667 13.1047 28.9667 11.9992C28.9667 10.8937 28.0571 9.99936 26.9327 9.99936V3.99859C26.9327 3.29927 26.5613 2.65307 25.9551 2.28998C25.3493 1.92869 24.5943 1.90326 23.9631 2.22361L21.9292 3.2604C20.9319 3.76817 20.5429 4.97526 21.059 5.95581C21.4219 6.64338 22.1275 7.0371 22.8648 7.0371V9.99936C21.7397 9.99936 20.8308 10.893 20.8308 11.9992ZM25.4072 15.9739C22.3182 15.9739 19.8138 18.4362 19.8138 21.4734C19.8138 23.7508 21.2217 25.7043 23.2277 26.5399L22.7394 27.0401C22.0581 27.7376 22.0822 28.845 22.7911 29.5124C23.1381 29.8353 23.583 29.9977 24.0216 29.9977C24.4884 29.9977 24.9572 29.8181 25.3049 29.4587C29.7294 24.926 31 24.1223 31 21.4719C31.0006 18.3799 28.4963 15.9739 25.4072 15.9739ZM25.4072 22.9733C24.5663 22.9733 23.8818 22.3002 23.8818 21.4734C23.8818 20.6466 24.5663 19.9736 25.4072 19.9736C26.2482 19.9736 26.9327 20.6466 26.9327 21.4734C26.9327 22.3002 26.2462 22.9733 25.4072 22.9733ZM14.2204 20.0173C13.6692 20.0173 13.1208 20.236 12.7198 20.666L10.661 22.8796V4.00171C10.661 2.89555 9.75208 2 8.62705 2C7.50201 2 6.59309 2.89555 6.59309 4.00171V22.8752L4.5337 20.6673C3.77414 19.8542 2.48703 19.7979 1.65946 20.5442C0.831253 21.291 0.775955 22.5578 1.5343 23.3733L7.0705 29.3785C7.84086 30.2072 9.29896 30.2072 10.07 29.3785L15.6061 23.3733C16.3651 22.5578 16.3091 21.2916 15.481 20.5442C15.2056 20.1923 14.7099 20.0173 14.2204 20.0173Z"/>
</svg>
