<svg width="32" height="32" viewBox="0 0 32 32" fill="currentColor">
    <path d="M16.3951 12.1489C16.8593 11.7281 16.8874 11.0155 16.4591 10.558L11.8855 5.67878C11.454 5.21847 10.6384 5.21847 10.207 5.67878L5.63697 10.5552C5.2084 11.0126 5.23668 11.7252 5.70097 12.1461C5.92125 12.3505 6.19935 12.4489 6.47601 12.4489C6.78406 12.4489 7.09078 12.3273 7.31506 12.0871L9.90459 9.32238V25.2083C9.90459 25.8271 10.4189 26.3333 11.0474 26.3333C11.676 26.3333 12.1903 25.8289 12.1903 25.2074V9.32238L14.7793 12.0857C15.2046 12.5427 15.9284 12.5755 16.3951 12.1489ZM25.5379 19.5177C25.0723 19.0925 24.3489 19.1233 23.9236 19.5807L21.3332 22.3442V6.45925C21.3332 5.83769 20.8236 5.33331 20.1903 5.33331C19.557 5.33331 19.0474 5.83769 19.0474 6.45925V22.3452L16.4584 19.5819C16.2337 19.3417 15.927 19.2201 15.6193 19.2201C15.3426 19.2201 15.0641 19.3182 14.8441 19.5189C14.3798 19.9397 14.3517 20.6523 14.7801 21.1098L19.3087 25.9895C19.7402 26.4498 20.5558 26.4498 20.9873 25.9895L25.5158 21.1098C26.0284 20.6521 25.9998 19.9396 25.5379 19.5177Z"/>
</svg>
