<svg width="32" height="32" viewBox="0 0 32 32" fill="currentColor">
    <path d="M15.5889 11.4478C16.4173 10.7016 16.4726 9.43592 15.7141 8.62105L10.1213 2.62099C9.35072 1.793 7.89226 1.793 7.12107 2.62099L1.58351 8.62105C0.767504 9.43717 0.823134 10.6985 1.65154 11.4478C2.47932 12.194 3.76675 12.1372 4.5265 11.3249L6.58639 9.11247V27.97C6.58639 29.0752 7.49745 29.97 8.56364 29.97C9.62982 29.97 10.5981 29.0752 10.5981 27.97V9.11247L12.7152 11.3229C13.1165 11.7527 13.6651 11.9711 14.2163 11.9711C14.7052 11.9723 15.2011 11.7975 15.5889 11.4478ZM23.2245 12.5593L22.7361 13.0591C22.0546 13.7559 22.0787 14.8624 22.7878 15.5293C23.1315 15.8552 23.5767 16.0171 24.0199 16.0171C24.4868 16.0171 24.9557 15.8376 25.3035 15.4785C29.7291 10.9496 31 10.1466 31 7.49841C31 4.46372 28.4951 2.0035 25.4052 2.0035C22.3154 2.0035 19.8104 4.46372 19.8104 7.49841C19.7532 9.76812 21.2155 11.7226 23.2245 12.5593ZM25.4052 5.99661C26.2463 5.99661 26.931 6.66911 26.931 7.49522C26.931 8.32133 26.2444 8.99383 25.4052 8.99383C24.566 8.99383 23.8793 8.31946 23.8793 7.49522C23.8793 6.67099 24.566 5.99661 25.4052 5.99661ZM26.931 26.0031V20.0074C26.931 19.3087 26.5595 18.663 25.9532 18.3002C25.3473 17.9392 24.592 17.9138 23.9607 18.2339L21.9263 19.2698C20.9287 19.7772 20.5396 20.9832 21.0559 21.9629C21.4189 22.6562 22.1246 23.0433 22.8621 23.0433V26.0037C21.7374 26.0037 20.8276 26.8972 20.8276 28.0019C20.8276 29.1065 21.7374 30 22.8621 30H26.931C28.0557 30 28.9655 29.1065 28.9655 28.0019C28.9655 26.8972 28.0564 26.0031 26.931 26.0031Z"/>
</svg>
