<svg width="32" height="32" viewBox="0 0 32 32" fill="none" xmlns="http://www.w3.org/2000/svg">
    <path d="M20.8281 12.0002C20.8281 13.1058 21.7379 13.9439 22.8626 13.9439L26.9316 14.0002C28.0563 14.0002 28.9661 13.1058 28.9661 12.0002C28.9661 10.8946 28.0563 10.0002 26.9316 10.0002V3.99904C26.9316 3.29967 26.5601 2.65343 25.9538 2.29031C25.3478 1.929 24.5926 1.90356 23.9612 2.22394L21.9267 3.2608C20.9292 3.76861 20.5401 4.97578 21.0563 5.95639C21.4194 6.64401 22.1251 7.03776 22.8626 7.03776V10.0002C21.7373 10.0002 20.8281 10.894 20.8281 12.0002ZM25.4057 15.9752C22.3158 15.9752 19.8108 18.4376 19.8108 21.4751C19.8108 23.7526 21.2191 25.7063 23.2256 26.5419L22.7372 27.0422C22.0557 27.7397 22.0798 28.8471 22.7889 29.5146C23.136 29.8375 23.581 30 24.0197 30C24.4866 30 24.9556 29.8203 25.3034 29.4609C29.7291 24.9279 31 24.1241 31 21.4735C31.0006 18.3814 28.4956 15.9752 25.4057 15.9752ZM25.4057 22.9751C24.5646 22.9751 23.8799 22.302 23.8799 21.4751C23.8799 20.6482 24.5646 19.9751 25.4057 19.9751C26.2469 19.9751 26.9316 20.6482 26.9316 21.4751C26.9316 22.302 26.245 22.9751 25.4057 22.9751ZM3.02549 11.9815C3.57684 11.9815 4.12539 11.7627 4.52657 11.3327L6.58652 9.11898V27.9938C6.58652 29.1 7.49759 29.9956 8.56381 29.9956C9.63002 29.9956 10.5983 29.1 10.5983 27.9938V9.11898L12.7155 11.3315C13.4784 12.1439 14.7627 12.2002 15.5892 11.4565C16.4177 10.7096 16.473 9.44273 15.7144 8.62711L10.1215 2.62156C9.35091 1.79281 7.89242 1.79281 7.12121 2.62156L1.58353 8.62711C0.767499 9.44398 0.82313 10.7065 1.65156 11.4565C2.04193 11.8065 2.53466 11.9815 3.02549 11.9815Z" fill="#201F1E"/>
</svg>
