<svg width="32" height="32" viewBox="0 0 32 32" fill="none" xmlns="http://www.w3.org/2000/svg">
    <path d="M14.2202 20.0023C13.669 20.0023 13.1206 20.2208 12.7195 20.6504L10.6608 22.8622V4.00004C10.6608 2.89481 9.75189 2 8.62688 2C7.50187 2 6.59296 2.89481 6.59296 4.00004V22.8578L4.53362 20.6517C3.77408 19.8393 2.48699 19.7831 1.65944 20.5287C0.831257 21.2749 0.77596 22.5406 1.53429 23.3555L7.07036 29.3557C7.84071 30.1836 9.29877 30.1836 10.0698 29.3557L15.6058 23.3555C16.3647 22.5406 16.3088 21.2755 15.4807 20.5287C15.2053 20.1771 14.7096 20.0023 14.2202 20.0023ZM23.2266 12.5591L22.7383 13.0589C22.057 13.7557 22.0811 14.8622 22.79 15.5291C23.1336 15.855 23.5787 16.0169 24.0218 16.0169C24.4885 16.0169 24.9574 15.8374 25.305 15.4784C29.7294 10.9494 31 10.1464 31 7.49816C31 4.46343 28.4957 2.00318 25.4067 2.00318C22.3177 2.00318 19.8135 4.46343 19.8135 7.49816C19.7562 9.76789 21.2181 11.7224 23.2266 12.5591ZM25.4067 5.99634C26.2476 5.99634 26.9321 6.66885 26.9321 7.49497C26.9321 8.32109 26.2457 8.9936 25.4067 8.9936C24.5677 8.9936 23.8813 8.31922 23.8813 7.49497C23.8813 6.67073 24.5677 5.99634 25.4067 5.99634ZM26.9321 26.003V20.0073C26.9321 19.3085 26.5607 18.6629 25.9546 18.3001C25.3488 17.9391 24.5938 17.9137 23.9626 18.2338L21.9287 19.2697C20.9314 19.777 20.5425 20.9831 21.0586 21.9629C21.4215 22.6561 22.127 23.0432 22.8643 23.0432V26.0037C21.7399 26.0037 20.8304 26.8972 20.8304 28.0018C20.8304 29.1064 21.7399 30 22.8643 30H26.9321C28.0565 30 28.9661 29.1064 28.9661 28.0018C28.9661 26.8972 28.0571 26.003 26.9321 26.003Z" fill="#201F1E"/>
</svg>
