<svg width="32" height="32" viewBox="0 0 32 32" fill="currentColor">
    <path d="M21.7777 22.4166H19.111V25.1666H21.7777V22.4166ZM19.5555 1.33331V8.66665H26.6666L19.5555 1.33331ZM21.7777 17.8333H19.111V20.5833H21.7777V17.8333ZM17.3333 17.8333H14.6666V20.5833H17.3333V17.8333ZM17.3333 22.4166H14.6666V25.1666H17.3333V22.4166ZM12.8888 22.4166H10.2221V25.1666H12.8888V22.4166ZM17.7777 8.66665V1.33331H7.99992C6.52714 1.33331 5.33325 2.56451 5.33325 4.08331V27.9166C5.33325 29.4349 6.52714 30.6666 7.99992 30.6666H23.9999C25.4727 30.6666 26.6666 29.4354 26.6666 27.9166V10.5H19.6055C18.5721 10.5 17.7777 9.68071 17.7777 8.66665ZM23.5555 15.0833V26.0833C23.5555 26.5918 23.1596 27 22.6666 27H9.33325C8.8402 27 8.44436 26.5918 8.44436 26.0833V15.0833C8.44436 14.5749 8.8402 14.1666 9.33325 14.1666H22.6666C23.161 14.1666 23.5555 14.5734 23.5555 15.0833ZM12.8888 17.8333H10.2221V20.5833H12.8888V17.8333Z"/>
</svg>
