<svg width="32" height="32" viewBox="0 0 32 32" fill="currentColor">
<g clip-path="url(#clip0_5827_88936)">
<path d="M18.9867 13.1093C18.9867 12.1813 19.4773 11.3387 20.048 10.6027C20.72 9.73335 21.12 8.64535 21.12 7.46668C21.12 4.64001 18.8267 2.34668 16 2.34668C13.1733 2.34668 10.88 4.64001 10.88 7.46668C10.88 8.64535 11.28 9.73335 11.952 10.6027C12.5227 11.3387 13.0133 12.1813 13.0133 13.1093C13.0133 14.704 11.7173 16 10.1227 16H8.32001C5.01868 16 2.34668 18.672 2.34668 21.9733C2.34668 23.088 3.06135 24.0373 4.05335 24.3893V27.0933C4.05335 28.5067 5.20001 29.6533 6.61335 29.6533H25.3867C26.8 29.6533 27.9467 28.5067 27.9467 27.0933V24.3893C28.9387 24.0373 29.6533 23.088 29.6533 21.9733C29.6533 18.672 26.9813 16 23.68 16H21.8773C20.2827 16 18.9867 14.704 18.9867 13.1093ZM24.5333 24.5333V26.24H7.46668V24.5333H24.5333Z"/>
</g>
<defs>
<clipPath id="clip0_5827_88936">
<rect width="27.3067" height="27.3067" transform="translate(2.34668 2.34668)"/>
</clipPath>
</defs>
</svg>
