<svg width="32" height="32" viewBox="0 0 32 32" fill="none" xmlns="http://www.w3.org/2000/svg">
    <path d="M15.9979 1C16.5207 1 16.9981 1.30767 17.2255 1.79233L21.1241 10.072L29.8364 11.4023C30.3479 11.4785 30.7684 11.8477 30.9333 12.3517C31.0924 12.8615 30.9617 13.4183 30.5979 13.7875L24.2783 20.2457L25.7729 29.3587C25.8582 29.8862 25.6479 30.4253 25.2217 30.7359C24.8011 31.0465 24.193 31.0875 23.7838 30.8355L15.9979 26.5457L8.16649 30.8355C7.7573 31.0875 7.20035 31.0465 6.77412 30.7359C6.35356 30.4253 6.14329 29.8862 6.17738 29.3587L7.71752 20.2457L1.40409 13.7875C1.03696 13.4183 0.906817 12.8615 1.06822 12.3517C1.22905 11.8477 1.65359 11.4785 2.1645 11.4023L10.8717 10.072L14.7703 1.79233C15.0033 1.30762 15.475 1 15.9979 1ZM15.9979 5.62682L13.0142 11.9708C12.8153 12.3869 12.4289 12.6799 11.9856 12.7502L5.26126 13.7699L10.1442 18.7572C10.4568 19.0795 10.5989 19.5425 10.525 19.9937L9.37701 27.0028L15.3557 23.7092C15.7592 23.4865 16.2423 23.4865 16.6401 23.7092L22.6188 27.0028L21.4708 19.9937C21.3969 19.5425 21.5447 19.0795 21.8572 18.7572L26.7391 13.7699L20.0159 12.7502C19.5669 12.6799 19.1805 12.3869 18.9872 11.9708L15.9979 5.62682Z" fill="#201F1E"/>
</svg>
