<svg width="32" height="32" viewBox="0 0 32 32" fill="currentColor">
<g clip-path="url(#clip0_5827_88928)">
<path d="M29.8452 7.88268L26.7892 3.04535C26.5172 2.61335 26.0319 2.34668 25.5146 2.34668H6.48525C5.96791 2.34668 5.48258 2.61335 5.21058 3.04535L2.14925 7.88268C0.570581 10.3787 1.96791 13.8507 4.91725 14.2507C5.13058 14.2773 5.34925 14.2933 5.56258 14.2933C6.95458 14.2933 8.19191 13.6853 9.03991 12.7467C9.88791 13.6853 11.1252 14.2933 12.5172 14.2933C13.9092 14.2933 15.1466 13.6853 15.9946 12.7467C16.8426 13.6853 18.0799 14.2933 19.4719 14.2933C20.8692 14.2933 22.1012 13.6853 22.9492 12.7467C23.8026 13.6853 25.0346 14.2933 26.4266 14.2933C26.6452 14.2933 26.8586 14.2773 27.0719 14.2507C30.0319 13.856 31.4346 10.384 29.8506 7.88268H29.8452ZM27.2906 15.9413H27.2852C27.0026 15.9787 26.7146 16 26.4212 16C25.7599 16 25.1252 15.8987 24.5332 15.7173V22.8267H7.46658V15.712C6.86925 15.8987 6.22925 16 5.56791 16C5.27458 16 4.98125 15.9787 4.69858 15.9413H4.69325C4.47458 15.9093 4.26125 15.872 4.05325 15.8187V22.8267V26.24C4.05325 28.1227 5.58391 29.6533 7.46658 29.6533H24.5332C26.4159 29.6533 27.9466 28.1227 27.9466 26.24V22.8267V15.8187C27.7332 15.872 27.5199 15.9147 27.2906 15.9413Z"/>
</g>
<defs>
<clipPath id="clip0_5827_88928">
<rect width="30.72" height="27.3067" transform="translate(0.639893 2.34668)"/>
</clipPath>
</defs>
</svg>
