<svg width="32" height="32" viewBox="0 0 32 32" fill="currentColor">
<g clip-path="url(#clip0_5827_88962)">
<path d="M5.76001 16V10.88H14.2933V16H5.76001ZM5.76001 19.4133H14.2933V24.5333H5.76001V19.4133ZM17.7067 24.5333V19.4133H26.24V24.5333H17.7067ZM26.24 16H17.7067V10.88H26.24V16ZM5.76001 4.05334C3.87735 4.05334 2.34668 5.58401 2.34668 7.46668V24.5333C2.34668 26.416 3.87735 27.9467 5.76001 27.9467H26.24C28.1227 27.9467 29.6533 26.416 29.6533 24.5333V7.46668C29.6533 5.58401 28.1227 4.05334 26.24 4.05334H5.76001Z"/>
</g>
<defs>
<clipPath id="clip0_5827_88962">
<rect width="27.3067" height="27.3067" transform="translate(2.34668 2.34668)"/>
</clipPath>
</defs>
</svg>
