<svg width="32" height="32" viewBox="0 0 32 32" fill="currentColor">
<g clip-path="url(#clip0_5827_88975)">
<path d="M20.7467 4.43201L27.5627 11.328C30.3573 14.1547 30.3573 18.6987 27.5627 21.5253L21.5893 27.568C21.0933 28.0693 20.2827 28.0747 19.7813 27.5787C19.28 27.0827 19.2747 26.272 19.7707 25.7707L25.7387 19.728C27.5467 17.8987 27.5467 14.96 25.7387 13.1307L18.928 6.23468C18.432 5.73334 18.4373 4.92268 18.9387 4.42668C19.44 3.93068 20.2507 3.93601 20.7467 4.43734V4.43201ZM2.34668 14.5867V6.61334C2.34668 5.20001 3.49335 4.05334 4.90668 4.05334H12.88C13.7867 4.05334 14.656 4.41068 15.296 5.05068L24.256 14.0107C25.5893 15.344 25.5893 17.504 24.256 18.8373L17.136 25.9573C15.8027 27.2907 13.6427 27.2907 12.3093 25.9573L3.34935 16.9973C2.70401 16.3573 2.34668 15.4933 2.34668 14.5867ZM10.0267 10.0267C10.0267 9.08268 9.26401 8.32001 8.32001 8.32001C7.37601 8.32001 6.61335 9.08268 6.61335 10.0267C6.61335 10.9707 7.37601 11.7333 8.32001 11.7333C9.26401 11.7333 10.0267 10.9707 10.0267 10.0267Z"/>
</g>
<defs>
<clipPath id="clip0_5827_88975">
<rect width="27.3067" height="27.3067" transform="translate(2.34668 2.34668)"/>
</clipPath>
</defs>
</svg>
