<svg width="32" height="33" viewBox="0 0 32 33" fill="currentColor">
    <path d="M19.75 1.5C20.7871 1.5 21.625 2.33965 21.625 3.375V5.25V5.25879C23.8867 5.38535 25.8613 6.86074 26.6172 9.01758L28.6797 14.9062C30.0391 15.4688 31 16.8105 31 18.375V29.625C31 30.6621 30.1621 31.5 29.125 31.5H27.25C26.2129 31.5 25.375 30.6621 25.375 29.625V26.8125H6.625V29.625C6.625 30.6621 5.78711 31.5 4.75 31.5H2.875C1.83965 31.5 1 30.6621 1 29.625V18.375C1 16.8105 1.95859 15.4688 3.3209 14.9062L5.38281 9.01758C6.13867 6.86074 8.11328 5.38535 10.375 5.25879V5.25V3.375C10.375 2.33965 11.2129 1.5 12.25 1.5H19.75ZM10.6914 9C9.89453 9 9.18555 9.50391 8.92188 10.2539L7.39258 14.625H24.6074L23.0781 10.2539C22.8145 9.50391 22.1055 9 21.3086 9H10.6914ZM6.625 22.125C7.66211 22.125 8.5 21.2871 8.5 20.25C8.5 19.2129 7.66211 18.375 6.625 18.375C5.58789 18.375 4.75 19.2129 4.75 20.25C4.75 21.2871 5.58789 22.125 6.625 22.125ZM25.375 18.375C24.3379 18.375 23.5 19.2129 23.5 20.25C23.5 21.2871 24.3379 22.125 25.375 22.125C26.4121 22.125 27.25 21.2871 27.25 20.25C27.25 19.2129 26.4121 18.375 25.375 18.375Z"/>
</svg>
