<svg width="32" height="32" viewBox="0 0 32 32" fill="none" xmlns="http://www.w3.org/2000/svg">
    <path d="M1 9.73916V4.64286C1 4.28784 1.31482 4 1.70312 4H19.0469C19.4352 4 19.75 4.28784 19.75 4.64286V9.73916C19.75 10.0942 19.4352 10.382 19.0469 10.382H17.4797C17.0914 10.382 16.7765 10.0942 16.7765 9.73916V6.57143H11.971V25.4286H14.8281C15.2164 25.4286 15.5312 25.7164 15.5312 26.0714V27.3571C15.5312 27.7122 15.2164 28 14.8281 28H5.92187C5.53357 28 5.21875 27.7122 5.21875 27.3571V26.0714C5.21875 25.7164 5.53357 25.4286 5.92187 25.4286H8.77902V6.57143H3.93701V9.73916C3.93701 10.0942 3.62219 10.382 3.23389 10.382H1.70312C1.31482 10.382 1 10.0942 1 9.73916ZM25.8013 4.20138L21.8173 8.05857C21.3978 8.4647 21.7081 9.14286 22.3285 9.14286H24.9062V22.8571H22.3285C21.7086 22.8571 21.3975 23.5349 21.8173 23.9414L25.8013 27.7986C26.0788 28.0672 26.5464 28.067 26.8237 27.7986L30.8077 23.9414C31.2272 23.5353 30.9168 22.8571 30.2965 22.8571H27.7187V9.14286H30.2964C30.9164 9.14286 31.2275 8.46507 30.8076 8.05857L26.8237 4.20138C26.5462 3.93277 26.0786 3.93298 25.8013 4.20138Z" fill="#201F1E"/>
</svg>
