<svg width="32" height="32" viewBox="0 0 32 32" fill="none" xmlns="http://www.w3.org/2000/svg">
<path d="M19.2077 5.37552C20.3588 5.60936 21.1069 6.74709 20.8767 7.9163L20.7749 8.42895C20.5403 9.62964 20.1064 10.7719 19.4999 11.8107H25.8749C27.0481 11.8107 27.9999 12.7775 27.9999 13.9692C27.9999 15.1069 27.1366 16.0378 26.0387 16.1232C26.3796 16.5055 26.5833 17.0136 26.5833 17.5668C26.5833 18.619 25.8395 19.496 24.8611 19.6848C25.0559 20.0086 25.1666 20.3953 25.1666 20.8046C25.1666 21.7624 24.5512 22.5764 23.7012 22.8552C23.7322 23.0036 23.7499 23.161 23.7499 23.3229C23.7499 24.5146 22.7981 25.4814 21.6249 25.4814H18.371C17.5299 25.4814 16.7109 25.2296 16.0114 24.7574L14.3069 23.6017C13.1249 22.8012 12.4166 21.4521 12.4166 20.0086V18.2863V16.1277V15.008C12.4166 13.6949 13.0054 12.4582 14.0103 11.6353L14.3379 11.37C15.5111 10.4166 16.3124 9.07652 16.6046 7.58353L16.7064 7.07087C16.9366 5.90167 18.0567 5.14168 19.2077 5.37552V5.37552ZM6.74992 12.5302H9.58325C10.3668 12.5302 10.9999 13.1732 10.9999 13.9692V24.0424C10.9999 24.8383 10.3668 25.4814 9.58325 25.4814H6.74992C5.96632 25.4814 5.33325 24.8383 5.33325 24.0424V13.9692C5.33325 13.1732 5.96632 12.5302 6.74992 12.5302Z" fill="#201F1E"/>
</svg>
