<svg width="32" height="32" viewBox="0 0 32 32" fill="currentColor">
    <path d="M19.2077 26.4601C20.3588 26.2299 21.1069 25.1099 20.8767 23.9588L20.7749 23.4541C20.5403 22.2721 20.1064 21.1476 19.4999 20.125H25.8749C27.0481 20.125 27.9999 19.1731 27.9999 18C27.9999 16.8799 27.1366 15.9635 26.0387 15.8794C26.3796 15.5031 26.5833 15.0028 26.5833 14.4583C26.5833 13.4224 25.8395 12.5591 24.8611 12.3731C25.0559 12.05 25.1666 11.6737 25.1666 11.2708C25.1666 10.3278 24.5512 9.52652 23.7012 9.25204C23.7322 9.10595 23.7499 8.951 23.7499 8.79163C23.7499 7.61845 22.7981 6.66663 21.6249 6.66663H18.371C17.5299 6.66663 16.7109 6.91454 16.0114 7.37939L14.3069 8.51715C13.1249 9.30517 12.4166 10.6333 12.4166 12.0544V13.75V15.875V16.9773C12.4166 18.27 13.0054 19.4875 14.0103 20.2976L14.3379 20.5588C15.5111 21.4974 16.3124 22.8166 16.6046 24.2864L16.7064 24.7911C16.9366 25.9421 18.0567 26.6903 19.2077 26.4601ZM6.74992 19.4166H9.58325C10.3668 19.4166 10.9999 18.7836 10.9999 18V8.08329C10.9999 7.2997 10.3668 6.66663 9.58325 6.66663H6.74992C5.96632 6.66663 5.33325 7.2997 5.33325 8.08329V18C5.33325 18.7836 5.96632 19.4166 6.74992 19.4166Z"/>
</svg>
