<svg width="32" height="33" viewBox="0 0 32 33" fill="none" xmlns="http://www.w3.org/2000/svg">
    <path d="M2 16.5C2 8.76719 8.26719 2.5 16 2.5C23.7328 2.5 30 8.76719 30 16.5C30 24.2328 23.7328 30.5 16 30.5C8.26719 30.5 2 24.2328 2 16.5ZM22.3328 14.0828C22.9289 13.4867 22.9289 12.5133 22.3328 11.9172C21.7367 11.3211 20.7633 11.3211 20.1672 11.9172L14.25 17.8344L11.8328 15.4172C11.2367 14.8211 10.2633 14.8211 9.66719 15.4172C9.07109 16.0133 9.07109 16.9867 9.66719 17.5828L13.1672 21.0828C13.7633 21.6789 14.7367 21.6789 15.3328 21.0828L22.3328 14.0828Z" fill="#201F1E"/>
</svg>
