<svg width="32" height="32" viewBox="0 0 32 32" fill="currentColor">
<g clip-path="url(#clip0_5827_88989)">
<path d="M2 10.1633C2 8.4636 3.38193 7.08167 5.08166 7.08167H26.6533C28.353 7.08167 29.735 8.4636 29.735 10.1633V14.0154C28.459 14.0154 27.4237 15.0507 27.4237 16.3267C27.4237 17.6027 28.459 18.6379 29.735 18.6379V22.49C29.735 24.1897 28.353 25.5717 26.6533 25.5717H5.08166C3.38193 25.5717 2 24.1897 2 22.49V18.6379C3.276 18.6379 4.31125 17.6027 4.31125 16.3267C4.31125 15.0507 3.276 14.0154 2 14.0154V10.1633Z"/>
</g>
<defs>
<clipPath id="clip0_5827_88989">
<rect width="27.735" height="24.6533" transform="translate(2 4)"/>
</clipPath>
</defs>
</svg>
