<svg width="32" height="32" viewBox="0 0 32 32" fill="currentColor">
<g clip-path="url(#clip0_502_50568)">
<path d="M10 9.33337C10 10.4375 9.10417 11.3334 8 11.3334C6.89583 11.3334 6 10.4375 6 9.33337C6 8.22921 6.89583 7.33337 8 7.33337C9.10417 7.33337 10 8.22921 10 9.33337ZM8 18C6.89583 18 6 17.1042 6 16C6 14.8959 6.89583 14 8 14C9.10417 14 10 14.8959 10 16C10 17.1042 9.10417 18 8 18ZM8 24.6667C6.89583 24.6667 6 23.7709 6 22.6667C6 21.5625 6.89583 20.6667 8 20.6667C9.10417 20.6667 10 21.5625 10 22.6667C10 23.7709 9.10417 24.6667 8 24.6667ZM13.3125 7.60004C13.5417 7.42504 13.825 7.33337 14.1125 7.33337H23C23.5542 7.33337 24 7.77921 24 8.33337V10.3334C24 10.8875 23.5542 11.3334 23 11.3334H14.1125C13.825 11.3334 13.5417 11.2417 13.3125 11.0667L11.7125 9.86671C11.3583 9.60004 11.3583 9.06671 11.7125 8.80004L13.3125 7.60004ZM11.7125 15.4667L13.3125 14.2667C13.5417 14.0917 13.825 14 14.1125 14H25.6667C26.2208 14 26.6667 14.4459 26.6667 15V17C26.6667 17.5542 26.2208 18 25.6667 18H14.1125C13.825 18 13.5417 17.9084 13.3125 17.7334L11.7125 16.5334C11.3583 16.2667 11.3583 15.7334 11.7125 15.4667ZM11.7125 22.1334L13.3125 20.9334C13.5417 20.7584 13.825 20.6667 14.1125 20.6667H23C23.5542 20.6667 24 21.1125 24 21.6667V23.6667C24 24.2209 23.5542 24.6667 23 24.6667H14.1125C13.825 24.6667 13.5417 24.575 13.3125 24.4L11.7125 23.2C11.3583 22.9334 11.3583 22.4 11.7125 22.1334Z"/>
</g>
<defs>
<clipPath id="clip0_502_50568">
<rect width="21.3333" height="21.3333" fill="white" transform="translate(5.33325 5.33337)"/>
</clipPath>
</defs>
</svg>
