<svg width="32" height="33" viewBox="0 0 32 33" fill="currentColor">
    <path d="M11.6393 5.32922C11.9045 4.821 12.4496 4.5 13.0437 4.5H18.9563C19.5504 4.5 20.0955 4.821 20.3607 5.32922L20.7143 6H25.4286C26.2978 6 27 6.67172 27 7.5C27 8.32828 26.2978 9 25.4286 9H6.57143C5.70371 9 5 8.32828 5 7.5C5 6.67172 5.70371 6 6.57143 6H11.2857L11.6393 5.32922ZM6.52723 10.5H25.4286V25.5C25.4286 27.1547 24.0192 28.5 22.2857 28.5H9.67009C7.97835 28.5 6.52723 27.1547 6.52723 25.5V10.5ZM10.4558 14.25V24.75C10.4558 25.1625 10.8536 25.5 11.2415 25.5C11.7179 25.5 12.0272 25.1625 12.0272 24.75V14.25C12.0272 13.8375 11.7179 13.5 11.2415 13.5C10.8536 13.5 10.4558 13.8375 10.4558 14.25ZM15.1701 14.25V24.75C15.1701 25.1625 15.5679 25.5 15.9558 25.5C16.4321 25.5 16.7857 25.1625 16.7857 24.75V14.25C16.7857 13.8375 16.4321 13.5 15.9558 13.5C15.5679 13.5 15.1701 13.8375 15.1701 14.25ZM19.9286 14.25V24.75C19.9286 25.1625 20.2821 25.5 20.7143 25.5C21.1464 25.5 21.5 25.1625 21.5 24.75V14.25C21.5 13.8375 21.1464 13.5 20.7143 13.5C20.2821 13.5 19.9286 13.8375 19.9286 14.25Z"/>
</svg>
