<svg width="32" height="32" viewBox="0 0 32 32" fill="none" xmlns="http://www.w3.org/2000/svg">
    <path d="M30.9985 6.84906C29.8749 7.33808 28.6834 7.65924 27.4634 7.80191C28.7493 7.04518 29.7118 5.85424 30.1714 4.45101C28.9646 5.15768 27.6415 5.65293 26.2625 5.92083C25.3362 4.94565 24.1084 4.29891 22.7699 4.08114C21.4315 3.86338 20.0575 4.0868 18.8615 4.71667C17.6654 5.34654 16.7144 6.34756 16.1562 7.56412C15.598 8.78068 15.4639 10.1446 15.7748 11.4439C13.3275 11.3232 10.9333 10.6974 8.74767 9.6072C6.56207 8.51699 4.63392 6.9867 3.0884 5.11569C2.54134 6.04023 2.25386 7.09122 2.2554 8.16104C2.2554 10.2608 3.34154 12.1158 4.99284 13.2019C4.01561 13.1716 3.0599 12.9119 2.20536 12.4445V12.5198C2.20565 13.9182 2.69746 15.2735 3.5974 16.3559C4.49734 17.4383 5.75002 18.1811 7.14305 18.4585C6.23589 18.7004 5.28469 18.736 4.36146 18.5627C4.75422 19.7664 5.51973 20.8192 6.55081 21.5735C7.58189 22.3278 8.82692 22.746 10.1116 22.7695C8.83479 23.7561 7.37291 24.4854 5.80948 24.9158C4.24605 25.3462 2.61175 25.4691 1 25.2776C3.81353 27.0579 7.08874 28.0031 10.4339 28C21.756 28 27.9476 18.7713 27.9476 10.7676C27.9476 10.507 27.9402 10.2434 27.9285 9.98564C29.1336 9.12861 30.1738 8.06694 31 6.85051L30.9985 6.84906Z" fill="black"/>
</svg>
