<svg width="36" height="36" viewBox="0 0 36 36" fill="currentColor">
<path d="M6.75 27.2935H29.25V29.25H6.75V27.2935ZM18 24.3587C16.2595 24.3587 14.5903 23.6372 13.3596 22.353C12.1289 21.0688 11.4375 19.327 11.4375 17.5109V6.75H13.3125V17.5109C13.3125 18.8081 13.8064 20.0522 14.6854 20.9695C15.5645 21.8868 16.7568 22.4022 18 22.4022C19.2432 22.4022 20.4355 21.8868 21.3146 20.9695C22.1936 20.0522 22.6875 18.8081 22.6875 17.5109V6.75H24.5625V17.5109C24.5625 19.327 23.8711 21.0688 22.6404 22.353C21.4097 23.6372 19.7405 24.3587 18 24.3587Z"/>
</svg>
