<svg width="32" height="32" viewBox="0 0 32 32" fill="none" xmlns="http://www.w3.org/2000/svg">
    <path d="M14.5008 22H6.00016C5.38449 22 4.80256 21.7188 4.42366 21.2313C4.04459 20.7438 3.91037 20.1125 4.05973 19.5125L4.45016 17.9562C5.09446 15.375 6.66146 13.2188 8.746 11.8062L9.42355 3H7.50028C7.22276 3 6.96336 2.925 6.74022 2.79375C6.29768 2.53312 6.00016 2.05125 6.00016 1.5C6.00016 0.671875 6.67209 0 7.50028 0H24.5016C25.3329 0 26.0017 0.671875 26.0017 1.5C26.0017 2.05125 25.7017 2.53312 25.2642 2.79375C25.0392 2.925 24.7766 3 24.5016 3H22.5765L23.2578 11.8062C25.3392 13.2188 26.9081 15.375 27.5519 17.9562L27.9394 19.5125C28.0894 20.1125 27.9581 20.7438 27.5769 21.2313C27.2018 21.7188 26.6205 22 26.0017 22H17.5011V30.5C17.5011 31.3312 16.8323 32 15.9447 32C15.1696 32 14.4446 31.3312 14.4446 30.5L14.5008 22ZM11.6256 13.4812L10.4318 14.2937C8.93852 15.3 7.82093 16.8375 7.36089 18.6812L7.28089 19H14.5008C13.5007 19 15.1696 19 16.0009 19C16.8323 19 19.5012 19 17.5011 19H24.7204L24.6391 18.6812C24.1828 16.8375 23.0077 15.3 21.5701 14.2937L20.32 13.4812L19.57 3H12.4319L11.6256 13.4812Z" fill="black"/>
    <line x1="1.5" y1="-1.5" x2="30.5013" y2="-1.5" transform="matrix(0.707135 0.707079 -0.707135 0.707079 4 5)" stroke="black" stroke-width="3" stroke-linecap="round"/>
</svg>
