<svg width="32" height="32" viewBox="0 0 32 32" fill="currentColor">
<path d="M24 9.5V10.4375C24 14.5801 20.4187 17.9375 16 17.9375C11.5813 17.9375 8 14.5801 8 10.4375V9.5C8 5.35801 11.5813 2 16 2C20.4187 2 24 5.35801 24 9.5ZM21 10.4375V9.5C21 8.83203 20.85 8.19922 20.5812 7.625H20.5C19.2188 7.625 18.0813 7.0625 17.35 6.18711C16.4938 7.60566 14.8625 8.5625 13 8.5625H11.1C11.0375 8.86719 11 9.17773 11 9.5V10.4375C11 13.0273 13.2375 15.125 16 15.125C18.7625 15.125 21 13.0273 21 10.4375ZM3.92 32C2.85938 32 2 31.1914 2 30.2012C2 25.4785 5.69313 21.5645 10.5188 20.8613L12.9875 30.3066L15.0688 23.0469L13 19.8125H19L16.9312 23.0469L19.0125 30.3066L21.4813 20.8613C26.3063 21.5645 30 25.4785 30 30.2012C30 31.1914 29.1375 32 28.0812 32H3.92Z"/>
</svg>
