<svg width="32" height="32" viewBox="0 0 32 32" fill="currentColor">
    <path d="M11.5 16.3529C14.8141 16.3529 17.5 13.5875 17.5 10.1765C17.5 6.76542 14.8141 4 11.5 4C8.18594 4 5.5 6.76542 5.5 10.1765C5.5 13.5875 8.18594 16.3529 11.5 16.3529ZM11.5 6.31618C13.5677 6.31618 15.25 8.048 15.25 10.1765C15.25 12.3049 13.5677 14.0368 11.5 14.0368C9.43281 14.0368 7.75 12.3045 7.75 10.1765C7.75 8.048 9.43281 6.31618 11.5 6.31618ZM13.8766 18.6691H9.12344C4.63797 18.6691 1 22.4136 1 27.0315C1 27.958 1.7275 28.7059 2.62469 28.7059H20.3762C21.2734 28.7059 22 27.958 22 27.0315C22 22.4136 18.3625 18.6691 13.8766 18.6691ZM3.28328 26.3897C3.59594 23.3545 6.09531 20.9853 9.12344 20.9853H13.8766C16.9052 20.9853 19.3656 23.356 19.7172 26.3897H3.28328ZM29.875 13.6507H27.625V11.3346C27.625 10.6976 27.1234 10.1765 26.5 10.1765C25.8766 10.1765 25.375 10.6952 25.375 11.3346V13.6507H23.125C22.5063 13.6507 22 14.1719 22 14.8088C22 15.4458 22.5039 15.9669 23.125 15.9669H25.375V18.2831C25.375 18.9249 25.8813 19.4412 26.5 19.4412C27.1187 19.4412 27.625 18.9225 27.625 18.2831V15.9669H29.875C30.4984 15.9669 31 15.4506 31 14.8088C31 14.1671 30.4984 13.6507 29.875 13.6507Z"/>
</svg>
