<svg width="32" height="32" viewBox="0 0 32 32" fill="none" xmlns="http://www.w3.org/2000/svg">
    <path d="M15.995 19.1429C18.8655 19.1429 21.15 16.6486 21.15 13.5714C21.15 10.4943 18.823 8 15.995 8C13.1245 8 10.84 10.4943 10.84 13.5714C10.795 16.6464 13.125 19.1429 15.995 19.1429ZM18.495 20.8571H13.505C9.58 20.8571 6.4 24.0554 6.4 27.9982C6.4 28.7911 7.035 29.4286 7.82 29.4286H24.18C24.965 29.4286 25.6 28.7911 25.6 27.9982C25.6 24.0554 22.42 20.8571 18.495 20.8571ZM25.6 10.5714C27.809 10.5714 29.6 8.6525 29.6 6.28571C29.6 3.91893 27.81 2 25.6 2C23.391 2 21.6 3.91893 21.6 6.28571C21.6 8.6525 23.39 10.5714 25.6 10.5714ZM9.195 13.5714C9.195 13.2795 9.24412 13.002 9.27545 12.7191C8.73 12.3982 8.13 12.2857 7.495 12.2857H4.404C1.972 12.2857 0 14.525 0 17.2839C0 17.8357 0.39435 18.2857 0.881 18.2857H10.856C9.835 17.0107 9.195 15.3768 9.195 13.5714ZM6.4 10.5714C8.609 10.5714 10.4 8.6525 10.4 6.28571C10.4 3.91893 8.61 2 6.4 2C4.191 2 2.4 3.91893 2.4 6.28571C2.4 8.6525 4.191 10.5714 6.4 10.5714ZM27.595 12.2857H24.503C23.863 12.2857 23.259 12.4484 22.71 12.7271C22.74 13.0089 22.79 13.2821 22.79 13.5714C22.79 15.3773 22.151 17.0113 21.132 18.2857H31.117C31.605 18.2857 32 17.8357 32 17.2839C32 14.525 30.03 12.2857 27.595 12.2857Z" fill="#323130"/>
</svg>
