<svg width="32" height="32" viewBox="0 0 32 32" fill="none" xmlns="http://www.w3.org/2000/svg">
    <path d="M15.9999 1.33331C18.1083 1.33331 19.9416 2.51925 20.864 4.26092C22.7489 3.68227 24.8801 4.1406 26.3697 5.63019C27.8593 7.11977 28.3176 9.25675 27.739 11.1359C29.4806 12.0583 30.6666 13.8916 30.6666 16C30.6666 18.1083 29.4806 19.9416 27.739 20.864C28.3176 22.7489 27.8593 24.8802 26.3697 26.3698C24.8801 27.8594 22.7431 28.3177 20.864 27.739C19.9416 29.4807 18.1083 30.6666 15.9999 30.6666C13.8916 30.6666 12.0583 29.4807 11.1359 27.739C9.25096 28.3177 7.11971 27.8594 5.63013 26.3698C4.14054 24.8802 3.68221 22.7432 4.26086 20.864C2.51919 19.9416 1.33325 18.1083 1.33325 16C1.33325 13.8916 2.51919 12.0583 4.26086 11.1359C3.68221 9.25102 4.14054 7.11977 5.63013 5.63019C7.11971 4.1406 9.25669 3.68227 11.1359 4.26092C12.0583 2.51925 13.8916 1.33331 15.9999 1.33331ZM21.5572 14.2239C22.0958 13.6854 22.0958 12.8146 21.5572 12.2818C21.0187 11.7489 20.1478 11.7432 19.615 12.2818L14.1723 17.7245L11.9379 15.4901C11.3994 14.9515 10.5286 14.9515 9.99575 15.4901C9.46294 16.0286 9.45721 16.8995 9.99575 17.4323L13.2041 20.6406C13.7426 21.1791 14.6135 21.1791 15.1463 20.6406L21.5572 14.2239Z" fill="#201F1E"/>
</svg>
