<svg width="32" height="32" viewBox="0 0 32 32" fill="none" xmlns="http://www.w3.org/2000/svg">
<path d="M17.6048 3.80021C18.239 4.08697 18.6471 4.71565 18.6471 5.41051V26.587C18.6471 27.2819 18.239 27.9106 17.6048 28.1973C16.9706 28.4841 16.2261 28.3683 15.7078 27.905L8.2684 21.2929H4.52942C2.58272 21.2929 1 19.7102 1 17.7635V14.2341C1 12.2874 2.58272 10.7046 4.52942 10.7046H8.2684L15.7078 4.09249C16.2261 3.62925 16.9706 3.51896 17.6048 3.80021ZM27.0901 7.78183C29.4725 9.72302 31.0001 12.6844 31.0001 15.9988C31.0001 19.3131 29.4725 22.2745 27.0901 24.2157C26.5221 24.6789 25.6894 24.5907 25.2262 24.0227C24.7629 23.4547 24.8512 22.6219 25.4192 22.1587C27.2115 20.7028 28.353 18.4859 28.353 15.9988C28.353 13.5116 27.2115 11.2947 25.4192 9.83331C24.8512 9.37007 24.7684 8.53735 25.2262 7.96933C25.6839 7.40132 26.5221 7.3186 27.0901 7.77632V7.78183ZM23.7537 11.8903C24.9394 12.8609 25.7059 14.3388 25.7059 15.9988C25.7059 17.6587 24.9394 19.1366 23.7537 20.1072C23.1857 20.5705 22.353 20.4822 21.8898 19.9142C21.4265 19.3462 21.5148 18.5135 22.0828 18.0502C22.6784 17.5649 23.0589 16.826 23.0589 15.9988C23.0589 15.1716 22.6784 14.4326 22.0828 13.9418C21.5148 13.4785 21.432 12.6458 21.8898 12.0778C22.3475 11.5098 23.1857 11.4271 23.7537 11.8848V11.8903Z" fill="black"/>
</svg>
