<svg width="32" height="33" viewBox="0 0 32 33" fill="none" xmlns="http://www.w3.org/2000/svg">
    <path d="M13.9556 13.8952L14.2987 19.5827C14.3181 19.9048 14.5917 20.1562 14.9226 20.1562H17.0773C17.2367 20.1562 17.3901 20.0969 17.5061 19.9902C17.622 19.8836 17.6918 19.7378 17.7012 19.5827L18.0443 13.8952C18.0654 13.5451 17.78 13.25 17.4204 13.25H14.5794C14.2199 13.25 13.9345 13.5451 13.9556 13.8952ZM18.1875 23C18.1875 24.1779 17.2081 25.1328 16 25.1328C14.7919 25.1328 13.8125 24.1779 13.8125 23C13.8125 21.8221 14.7919 20.8672 16 20.8672C17.2081 20.8672 18.1875 21.8221 18.1875 23ZM18.1655 4.71799C17.2054 3.09548 14.7964 3.09253 13.8345 4.71799L1.33735 25.8444C0.377873 27.466 1.57907 29.5 3.50282 29.5H28.4969C30.4169 29.5 31.6237 27.4691 30.6624 25.8444L18.1655 4.71799ZM3.77037 26.6056L15.7293 6.39494C15.8496 6.19171 16.1504 6.19171 16.2707 6.39494L28.2296 26.6055C28.3499 26.8086 28.1995 27.0624 27.959 27.0624H4.04105C3.80058 27.0625 3.65022 26.8087 3.77037 26.6056Z" fill="#201F1E"/>
</svg>
