<svg width="32" height="32" viewBox="0 0 32 32" fill="none" xmlns="http://www.w3.org/2000/svg">
<path d="M9 4C7.34531 4 6 5.34531 6 7V25C6 26.6547 7.34531 28 9 28H21C22.6547 28 24 26.6547 24 25V11.5H18C17.1703 11.5 16.5 10.8297 16.5 10V4H9ZM18 4V10H24L18 4ZM11.2031 16.0516L12.4594 20.2328L13.9406 16C14.1 15.55 14.5266 15.2453 15.0047 15.2453C15.4828 15.2453 15.9094 15.5453 16.0688 16L17.55 20.2328L18.7969 16.0516C18.975 15.4563 19.6031 15.1187 20.1984 15.2969C20.7937 15.475 21.1313 16.1031 20.9531 16.6984L18.7031 24.1984C18.5625 24.6672 18.1359 24.9906 17.6531 25C17.1703 25.0094 16.725 24.7094 16.5656 24.2453L15 19.7781L13.4391 24.2453C13.2797 24.7047 12.8391 25.0094 12.3516 25C11.8641 24.9906 11.4375 24.6672 11.3016 24.1984L9.05156 16.6984C8.87344 16.1031 9.21094 15.475 9.80625 15.2969C10.4016 15.1187 11.0297 15.4563 11.2078 16.0516H11.2031Z" fill="black"/>
</svg>
