<svg width="100" height="100" viewBox="0 0 100 100" fill="none" xmlns="http://www.w3.org/2000/svg">
    <g clip-path="url(#clip0_526_71417)">
        <path d="M45.0064 46.1742C45.1021 47.3211 45.2097 48.4641 45.3372 49.607C45.397 50.1404 45.4607 50.6738 45.5285 51.2071C45.5564 51.4157 45.5883 51.6202 45.6162 51.8287C45.9031 53.7697 46.2419 55.7067 46.6882 57.6196C46.8158 58.169 46.9552 58.7184 47.1027 59.2679C47.1226 59.2077 47.1426 59.1475 47.1625 59.0874C48.0313 56.3644 48.7128 53.5772 49.3066 50.778C50.6576 44.4137 51.4706 37.9531 52.7379 31.5686C53.3796 28.3363 54.0411 25.0158 55.2567 21.9439C56.3526 19.1687 57.7156 16.4498 60.7564 15.4632C66.563 13.5824 69.293 20.6285 70.6121 24.8273C72.1584 29.752 73.2145 34.833 74.438 39.8459C74.6691 40.8004 74.9083 41.7548 75.1514 42.7093C76.5183 36.0842 77.2237 29.2467 79.7743 22.9826C79.7943 22.9344 79.8142 22.8863 79.8341 22.8382L57.4446 9.78462C55.1172 8.42913 51.9488 7.84764 48.8961 8.03612C48.8004 8.2206 48.7088 8.40507 48.6211 8.59356C48.5414 8.75798 48.4697 8.92641 48.3939 9.09084C48.0671 9.92097 47.7603 10.7631 47.4972 11.6173C46.8636 13.6546 46.3614 15.7319 45.9709 17.8293C45.7596 18.9562 45.5723 20.0911 45.4129 21.23C45.4129 21.2341 45.4129 21.2381 45.4129 21.2421C45.381 21.4907 45.3492 21.7353 45.3213 21.984C45.2535 22.5815 45.1858 23.1791 45.126 23.7766C44.8869 26.2309 44.7275 28.6892 44.6477 31.1556C44.4883 36.1604 44.5959 41.1814 45.0104 46.1742H45.0064Z" fill="#0142AF"/>
        <path d="M34.9514 30.8427C35.1667 25.0518 35.609 18.9 36.968 13.057L19.3529 23.3715C15.268 25.7577 12 31.5927 12 36.3449V37.7525L40.8816 69.1853C38.9926 66.6869 38.06 63.23 37.3705 60.2183C35.1826 50.6818 34.5888 40.5998 34.9514 30.8427Z" fill="#0142AF"/>
        <path d="M19.3529 76.5443L42.6192 90.1312C46.7081 92.5133 53.3756 92.5133 57.4605 90.1312L80.5275 76.5443C84.6125 74.1622 87.721 68.3231 87.721 63.5709V36.3449C87.721 34.8691 87.6254 33.285 87.0595 31.7371C86.0831 35.7915 85.5291 39.9101 84.6962 44.0006C84.0665 47.0966 83.4806 50.2928 82.2611 53.2203C81.221 55.7227 79.7863 58.8147 76.8092 59.4002C73.613 60.0258 71.0425 58.4538 69.4404 55.7268L60.0948 45.729C59.2738 50.6337 58.3572 55.5222 56.9464 60.2865C55.9262 63.7353 54.6349 68.4675 51.6778 70.8376C47.836 73.9215 43.751 72.9831 40.8776 69.1854L12 37.7565V63.5709C12 68.3231 15.268 74.1622 19.3529 76.5443Z" fill="#0142AF"/>
        <path d="M65.0844 42.4486C64.2356 38.9556 63.4624 35.4266 62.5498 31.9456C61.952 34.6726 61.4697 37.4317 61.0154 40.1828C60.7086 42.0316 60.4136 43.8843 60.1028 45.7371L69.4523 55.7348C67.1289 51.7806 66.1565 46.864 65.0844 42.4526V42.4486Z" fill="#0142AF"/>
        <path opacity="0.3" d="M36.968 13.057L12 63.5709C12 63.5709 12.3268 72.4417 19.3529 76.5443L42.6192 90.1312C42.6192 90.1312 50.3348 94.33 57.4605 90.1312C64.5863 85.9324 80.5275 76.5443 80.5275 76.5443C80.5275 76.5443 87.721 72.2211 87.721 63.5709V51.564C87.721 45.2398 88.6815 37.8407 87.0276 31.725C86.0552 37.6563 84.8556 43.5474 83.4368 49.3864C82.9506 51.3916 82.4285 53.4128 81.4402 55.2214C79.6747 58.4578 76.0759 60.8599 72.5091 58.8347C71.0943 58.0327 70.0701 56.6732 69.2531 55.2575C66.6507 50.7579 65.8058 45.5486 64.6301 40.5557C64.2037 38.739 63.7533 36.9304 63.3189 35.1177C63.1276 34.3277 62.4023 32.7637 62.5537 31.9456L61.0194 40.1828L60.1068 45.737C59.1662 51.4437 57.9746 57.3629 56.2051 62.9573C54.8541 67.2363 52.5944 72.153 47.545 72.6502C44.8829 72.9109 42.3243 71.2466 40.77 69.057C37.3546 64.2446 36.5575 56.8697 35.7684 51.171C34.8518 44.5821 34.6007 37.9049 34.8917 31.2598C35.0431 27.7829 35.3141 24.2859 35.6369 20.821C35.8641 18.3747 35.8362 15.2948 36.976 13.061L36.968 13.057Z" fill="#201F1E"/>
    </g>
    <defs>
        <clipPath id="clip0_526_71417">
            <rect width="76" height="84" fill="white" transform="translate(12 8)"/>
        </clipPath>
    </defs>
</svg>
