<svg width="183" height="79" viewBox="0 0 183 79" fill="none" xmlns="http://www.w3.org/2000/svg">
    <path d="M0.378502 23.7975V33.6189H16.9408L0 54.5548V63.5164H29.8984V53.695H14.1898L29.8984 33.6189V23.7975H0.378502Z" fill="white"/>
    <path d="M45.4926 23.8051H33.4772V63.516H45.4926V23.8051Z" fill="white"/>
    <path d="M89.9935 57.8602C89.9935 63.4461 89.5844 67.0161 87.7386 70.1801C84.8168 74.8918 77.9394 79 68.6137 79C55.4709 79 50.502 71.1976 49.7531 65.8728H62.8154C64.4486 69.5766 68.6717 69.5766 69.4191 69.5766C70.8509 69.5766 78.6126 69.4428 78.6126 59.4112V58.2663H78.4757C77.4001 59.9959 75.8696 61.4043 74.0476 62.3413C72.2257 63.2782 70.1805 63.7085 68.1305 63.5862C57.8498 63.5862 49.0637 55.9112 49.0637 43.929C49.0637 31.1378 58.3265 23.8004 68.1305 23.8004C72.3537 23.8004 76.5059 25.2813 78.5514 28.5121H78.6867V23.8004H89.9902V57.8602H89.9935ZM69.4303 53.1486C70.6691 53.1888 71.9029 52.9751 73.0539 52.5207C74.205 52.0664 75.2484 51.3812 76.1184 50.5085C76.9885 49.6358 77.6663 48.5945 78.1091 47.45C78.552 46.3056 78.7503 45.0829 78.6916 43.8589C78.6916 37.8686 74.5377 34.2317 69.5012 34.2317C68.2774 34.223 67.0644 34.4593 65.9354 34.9265C64.8065 35.3937 63.7849 36.0821 62.9323 36.9501C62.0797 37.8181 61.4137 38.8479 60.9746 39.9773C60.5354 41.1066 60.3321 42.3122 60.3769 43.5214C60.3013 44.7485 60.4787 45.9781 60.8984 47.1355C61.318 48.2928 61.9711 49.3538 62.818 50.2541C63.6649 51.1544 64.688 51.8752 65.8252 52.3727C66.9624 52.8703 68.19 53.1342 69.4336 53.1486H69.4303Z" fill="white"/>
    <path d="M39.4833 0C41.422 0 43.3172 0.568361 44.9292 1.63321C46.5412 2.69806 47.7976 4.21157 48.5395 5.98235C49.2815 7.75312 49.4756 9.70164 49.0973 11.5815C48.7191 13.4613 47.7855 15.1881 46.4146 16.5434C45.0437 17.8987 43.2971 18.8216 41.3957 19.1956C39.4942 19.5695 37.5232 19.3776 35.7321 18.6441C33.9409 17.9106 32.41 16.6685 31.3329 15.0749C30.2558 13.4812 29.6809 11.6076 29.6809 9.69089C29.6809 7.1207 30.7137 4.65579 32.552 2.8384C34.3903 1.021 36.8835 0 39.4833 0" fill="white"/>
    <path d="M146.799 26.7142C147.888 26.7142 148.952 27.0333 149.857 27.6312C150.762 28.2291 151.467 29.0788 151.884 30.073C152.3 31.0672 152.409 32.1612 152.197 33.2167C151.985 34.2721 151.461 35.2416 150.691 36.0026C149.921 36.7635 148.941 37.2817 147.873 37.4916C146.805 37.7016 145.699 37.5938 144.693 37.182C143.687 36.7702 142.828 36.0728 142.223 35.178C141.618 34.2833 141.296 33.2313 141.296 32.1552C141.296 30.7122 141.875 29.3282 142.908 28.3079C143.94 27.2875 145.34 26.7142 146.799 26.7142Z" fill="#F47820"/>
    <path d="M150.318 41.1313H143.281V66.4191H150.318V41.1313Z" fill="#F47820"/>
    <path d="M146.799 26.7142C147.888 26.7142 148.952 27.0333 149.857 27.6312C150.762 28.2291 151.467 29.0788 151.884 30.073C152.3 31.0672 152.409 32.1612 152.197 33.2167C151.985 34.2721 151.461 35.2416 150.691 36.0026C149.921 36.7635 148.941 37.2817 147.873 37.4916C146.805 37.7016 145.699 37.5938 144.693 37.182C143.687 36.7702 142.828 36.0728 142.223 35.178C141.618 34.2833 141.296 33.2313 141.296 32.1552C141.296 30.7122 141.875 29.3282 142.908 28.3079C143.94 27.2875 145.34 26.7142 146.799 26.7142Z" fill="#F47820"/>
    <path d="M99.4769 66.4188V2.90259H106.651V32.9482H106.786C108.289 30.9263 110.269 29.2979 112.553 28.2043C114.837 27.1107 117.357 26.585 119.893 26.6728C125.185 26.7362 130.237 28.8656 133.947 32.5967C137.657 36.3277 139.724 41.3577 139.698 46.5896C139.747 49.1749 139.276 51.7441 138.31 54.1473C137.345 56.5504 135.905 58.7395 134.075 60.5869C132.245 62.4343 130.061 63.9029 127.651 64.9072C125.241 65.9115 122.652 66.4313 120.037 66.4363C117.469 66.4513 114.932 65.8812 112.623 64.7703C110.315 63.6593 108.296 62.0374 106.723 60.0304H106.583V66.4236H99.4769V66.4188ZM119.484 59.9556C122.183 60.0579 124.852 59.3614 127.148 57.9554C129.444 56.5493 131.263 54.4977 132.373 52.0632C133.483 49.6287 133.832 46.9222 133.376 44.2903C132.92 41.6584 131.68 39.2208 129.815 37.2898C127.95 35.3588 125.543 34.0223 122.905 33.4513C120.267 32.8804 117.516 33.101 115.005 34.085C112.494 35.069 110.337 36.7715 108.811 38.9746C107.285 41.1777 106.459 43.7809 106.438 46.4511C106.372 48.1911 106.66 49.9266 107.284 51.5548C107.908 53.183 108.857 54.6707 110.073 55.93C111.29 57.1892 112.75 58.1943 114.366 58.8858C115.983 59.5773 117.723 59.941 119.484 59.9556Z" fill="#F47820"/>
    <path d="M182.879 26.7318V33.9673L163.289 59.6165H183V66.4221H153.943V60.6213L174.62 33.5406H155.929V26.735H182.879V26.7318Z" fill="#F47820"/>
</svg>
