<svg width="33" height="32" viewBox="0 0 33 32" fill="currentColor">
    <path d="M30.8142 27.0005L23.8003 19.9866C25.3952 17.6187 26.1822 14.6602 25.7609 11.5077C25.0442 6.14322 20.6466 1.78073 15.278 1.10102C7.29724 0.090822 0.587985 6.80125 1.6017 14.7774C2.28141 20.1471 6.64507 24.5453 12.0084 25.2602C15.1614 25.6816 18.1199 24.8949 20.4872 23.2996L27.5012 30.3135C28.4165 31.2288 29.9007 31.2288 30.816 30.3136C31.7283 29.403 31.7283 27.9146 30.8142 27.0005ZM18.3743 14.5957H15.0401V17.8771C15.0401 18.6541 14.4108 19.2834 13.6866 19.2834C12.9072 19.2834 12.2803 18.6564 12.2803 17.8771V14.5957H8.94614C8.21954 14.5957 7.59257 13.9687 7.59257 13.1894C7.59257 12.4101 8.22189 11.7831 8.94614 11.7831H12.2803V8.50171C12.2803 7.72473 12.9096 7.09541 13.6338 7.09541C14.3581 7.09541 15.0401 7.72238 15.0401 8.50171V11.7831H18.3215C19.1536 11.7831 19.7806 12.4101 19.7806 13.1894C19.7806 13.9687 19.1536 14.5957 18.3743 14.5957Z"/>
</svg>
