<svg width="32" height="33" viewBox="0 0 32 33" fill="currentColor">
<path d="M28.5 4.5H8.5C7.11927 4.5 6 5.65125 6 7.07143V20.7857C6 22.2059 7.11927 23.3571 8.5 23.3571H28.5C29.8807 23.3571 31 22.2059 31 20.7857V7.07143C31 5.65125 29.8802 4.5 28.5 4.5ZM12.6198 7.92857C13.5406 7.92857 14.2865 8.69625 14.2865 9.64286C14.2865 10.5895 13.5885 11.3571 12.6198 11.3571C11.6995 11.3571 10.9531 10.5895 10.9531 9.64286C10.9531 8.69625 11.7448 7.92857 12.6198 7.92857ZM26.7344 19.4786C26.5885 19.7571 26.3073 19.9286 26 19.9286H11C10.6863 19.9286 10.3995 19.7476 10.2573 19.4598C10.1151 19.1723 10.1419 18.8271 10.3267 18.5663L13.9725 13.4234C14.1302 13.2 14.3802 13.0714 14.6458 13.0714C14.912 13.0714 15.1623 13.2022 15.3193 13.4236L16.4833 15.0661L19.751 10.0245C19.8594 9.7875 20.1198 9.64286 20.4427 9.64286C20.7212 9.64286 20.9812 9.786 21.1359 10.0246L26.6932 18.596C26.8646 18.8571 26.8802 19.1946 26.7344 19.4786ZM24.75 25.9286H7.25C5.18229 25.9286 3.5 24.1982 3.5 22.0714V9.21429C3.5 8.50714 2.9401 7.92857 2.25 7.92857C1.5599 7.92857 1 8.50714 1 9.21429V22.0714C1 25.6179 3.80365 28.5 7.25 28.5H24.75C25.4401 28.5 26 27.9241 26 27.2143C26 26.5045 25.4427 25.9286 24.75 25.9286Z"/>
</svg>
