<svg width="32" height="33" viewBox="0 0 32 33" fill="currentColor">
<path d="M16 1.5C7.71484 1.5 1 8.21484 1 16.5C1 24.7852 7.71484 31.5 16 31.5C24.2852 31.5 31 24.7852 31 16.5C31 8.21484 24.2852 1.5 16 1.5ZM14.5938 10.4062C14.5938 9.63281 15.2266 9 16 9C16.7734 9 17.4062 9.62988 17.4062 10.4062V17.9062C17.4062 18.6826 16.7764 19.3125 16 19.3125C15.2236 19.3125 14.5938 18.6855 14.5938 17.9062V10.4062ZM16 24.9375C14.9828 24.9375 14.1578 24.1125 14.1578 23.0953C14.1578 22.0781 14.9822 21.2531 16 21.2531C17.0178 21.2531 17.8422 22.0781 17.8422 23.0953C17.8398 24.1113 17.0195 24.9375 16 24.9375Z"/>
</svg>
