<svg width="32" height="32" viewBox="0 0 32 32" fill="currentColor">
<path d="M27.2439 2H4.70431C2.68161 2 1 3.79063 1 6V26C1 28.2094 2.68167 30 4.70378 30H27.2434C29.3183 30 31 28.2094 31 26V6C31.0005 3.79063 29.3688 2 27.2439 2ZM7.52176 6C9.07782 6 10.3392 7.34312 10.3392 9C10.3392 10.6569 9.13006 12 7.52176 12C5.91347 12 4.70431 10.6569 4.70431 9C4.70431 7.34312 6.01795 6 7.52176 6ZM27.1852 25.475C27.0209 25.8 26.7039 26 26.3576 26H5.81427C5.46086 26 5.13749 25.7888 4.97725 25.4531C4.81701 25.1177 4.84724 24.715 5.05555 24.4106L9.16434 18.4106C9.34137 18.15 9.62311 18 9.92247 18C10.2218 18 10.5045 18.1526 10.6814 18.4109L12.5867 21.1928L18.0631 12.499C18.2398 12.1687 18.5333 12 18.8444 12C19.1555 12 19.4519 12.167 19.6257 12.4453L27.1389 24.4453C27.332 24.75 27.3496 25.1438 27.1852 25.475Z"/>
</svg>
