<svg width="32" height="32" viewBox="0 0 32 32" fill="currentColor">
<path d="M16 1C7.71484 1 1 7.71484 1 16C1 24.2852 7.71484 31 16 31C24.2852 31 31 24.2852 31 16C31 7.71484 24.2852 1 16 1ZM16 24.4375C14.9453 24.4375 14.125 23.6172 14.125 22.5625C14.125 21.5078 14.8926 20.6875 16 20.6875C17.002 20.6875 17.875 21.5078 17.875 22.5625C17.875 23.6172 17.002 24.4375 16 24.4375ZM20.0488 16.1172L17.4062 17.7578V17.875C17.4062 18.6367 16.7617 19.2812 16 19.2812C15.2383 19.2812 14.5938 18.6367 14.5938 17.875V16.9375C14.5938 16.4688 14.8281 16 15.2969 15.707L18.6367 13.7148C19.0469 13.4805 19.2812 13.0703 19.2812 12.6016C19.2812 11.8984 18.6426 11.3125 17.9395 11.3125H14.9453C14.1895 11.3125 13.6562 11.8984 13.6562 12.6016C13.6562 13.3633 13.0117 14.0078 12.25 14.0078C11.4883 14.0078 10.8438 13.3633 10.8438 12.6016C10.8438 10.3164 12.6602 8.5 14.8926 8.5H17.8867C20.2773 8.5 22.0938 10.3164 22.0938 12.6016C22.0938 14.0078 21.332 15.3555 20.0488 16.1172Z"/>
</svg>
