<svg width="32" height="32" viewBox="0 0 32 32" fill="currentColor">
    <path d="M21.286 9.80783L29.4492 11.0499C30.1252 11.1495 30.6932 11.6416 30.9091 12.3153C31.125 12.9949 30.9489 13.7331 30.4603 14.237L24.5411 20.2245L25.9385 28.8133C26.0521 29.5163 25.7738 30.2311 25.2057 30.647C24.6433 31.063 23.8991 31.1157 23.2913 30.7818L15.9973 26.7686L8.70898 30.7818C8.09547 31.1157 7.35129 31.063 6.78891 30.647C6.22652 30.2311 5.94248 29.5163 6.06178 28.8133L7.45923 20.2245L1.53882 14.237C1.04971 13.7331 0.87588 12.9949 1.09061 12.3153C1.30477 11.6416 1.87114 11.1495 2.55225 11.0499L10.7086 9.80783L14.3669 2.05509C14.668 1.4097 15.3043 1 15.9973 1C16.696 1 17.3323 1.4097 17.6333 2.05509L21.286 9.80783Z"/>
</svg>
