<svg width="32" height="32" viewBox="0 0 32 32" fill="currentColor">
    <g clip-path="url(#clip0_502_47967)">
        <path d="M17.5 10C17.5 13.3141 14.8141 16 11.5 16C8.18594 16 5.5 13.3141 5.5 10C5.5 6.68594 8.18594 4 11.5 4C14.8141 4 17.5 6.68594 17.5 10ZM1 26.6078C1 21.9906 4.74063 18.25 9.35781 18.25H13.6422C18.2594 18.25 22 21.9906 22 26.6078C22 27.3766 21.3766 28 20.6078 28H2.39219C1.62344 28 1 27.3766 1 26.6078ZM24.625 18.625V15.625H21.625C21.0016 15.625 20.5 15.1234 20.5 14.5C20.5 13.8766 21.0016 13.375 21.625 13.375H24.625V10.375C24.625 9.75156 25.1266 9.25 25.75 9.25C26.3734 9.25 26.875 9.75156 26.875 10.375V13.375H29.875C30.4984 13.375 31 13.8766 31 14.5C31 15.1234 30.4984 15.625 29.875 15.625H26.875V18.625C26.875 19.2484 26.3734 19.75 25.75 19.75C25.1266 19.75 24.625 19.2484 24.625 18.625Z"/>
    </g>
    <defs>
        <clipPath id="clip0_502_47967">
            <rect width="30" height="24" fill="white" transform="translate(1 4)"/>
        </clipPath>
    </defs>
</svg>
