<svg width="32" height="33" viewBox="0 0 32 33" fill="currentColor">
    <path d="M30.6651 25.8438L18.1666 4.71875C17.2097 3.09375 14.7949 3.09375 13.8316 4.71875L1.339 25.8438C0.37744 27.4629 1.57508 29.5 3.50236 29.5H28.4993C30.4189 29.5 31.6202 27.4688 30.6651 25.8438ZM14.5922 11.3929C14.5922 10.6239 15.2221 10 15.9985 10C16.7749 10 17.4048 10.6268 17.4048 11.3929V18.8214C17.4048 19.5904 16.7749 20.2143 16.0512 20.2143C15.3276 20.2143 14.5922 19.5933 14.5922 18.8214V11.3929ZM15.9985 25.7857C14.9813 25.7857 14.1563 24.9686 14.1563 23.9611C14.1563 22.9536 14.9807 22.1364 15.9985 22.1364C17.0163 22.1364 17.8408 22.9536 17.8408 23.9611C17.8384 24.9674 17.0181 25.7857 15.9985 25.7857Z"/>
</svg>
